G04 #@! TF.GenerationSoftware,KiCad,Pcbnew,7.0.5-7.0.5~ubuntu22.04.1*
G04 #@! TF.CreationDate,2023-06-05T00:28:07-04:00*
G04 #@! TF.ProjectId,reaction-trainer,72656163-7469-46f6-9e2d-747261696e65,1.0*
G04 #@! TF.SameCoordinates,Original*
G04 #@! TF.FileFunction,Legend,Top*
G04 #@! TF.FilePolarity,Positive*
%FSLAX46Y46*%
G04 Gerber Fmt 4.6, Leading zero omitted, Abs format (unit mm)*
G04 Created by KiCad (PCBNEW 7.0.5-7.0.5~ubuntu22.04.1) date 2023-06-05 00:28:07*
%MOMM*%
%LPD*%
G01*
G04 APERTURE LIST*
G04 Aperture macros list*
%AMRoundRect*
0 Rectangle with rounded corners*
0 $1 Rounding radius*
0 $2 $3 $4 $5 $6 $7 $8 $9 X,Y pos of 4 corners*
0 Add a 4 corners polygon primitive as box body*
4,1,4,$2,$3,$4,$5,$6,$7,$8,$9,$2,$3,0*
0 Add four circle primitives for the rounded corners*
1,1,$1+$1,$2,$3*
1,1,$1+$1,$4,$5*
1,1,$1+$1,$6,$7*
1,1,$1+$1,$8,$9*
0 Add four rect primitives between the rounded corners*
20,1,$1+$1,$2,$3,$4,$5,0*
20,1,$1+$1,$4,$5,$6,$7,0*
20,1,$1+$1,$6,$7,$8,$9,0*
20,1,$1+$1,$8,$9,$2,$3,0*%
%AMFreePoly0*
4,1,9,3.862500,-0.866500,0.737500,-0.866500,0.737500,-0.450000,-0.737500,-0.450000,-0.737500,0.450000,0.737500,0.450000,0.737500,0.866500,3.862500,0.866500,3.862500,-0.866500,3.862500,-0.866500,$1*%
G04 Aperture macros list end*
%ADD10C,0.150000*%
%ADD11C,0.120000*%
%ADD12R,2.100000X1.800000*%
%ADD13RoundRect,0.087500X0.187500X0.087500X-0.187500X0.087500X-0.187500X-0.087500X0.187500X-0.087500X0*%
%ADD14RoundRect,0.087500X0.087500X0.187500X-0.087500X0.187500X-0.087500X-0.187500X0.087500X-0.187500X0*%
%ADD15RoundRect,0.155000X-0.212500X-0.155000X0.212500X-0.155000X0.212500X0.155000X-0.212500X0.155000X0*%
%ADD16RoundRect,0.160000X0.197500X0.160000X-0.197500X0.160000X-0.197500X-0.160000X0.197500X-0.160000X0*%
%ADD17RoundRect,0.155000X0.155000X-0.212500X0.155000X0.212500X-0.155000X0.212500X-0.155000X-0.212500X0*%
%ADD18C,2.374900*%
%ADD19C,0.990600*%
%ADD20C,0.787400*%
%ADD21RoundRect,0.155000X-0.155000X0.212500X-0.155000X-0.212500X0.155000X-0.212500X0.155000X0.212500X0*%
%ADD22RoundRect,0.250000X0.450000X-0.350000X0.450000X0.350000X-0.450000X0.350000X-0.450000X-0.350000X0*%
%ADD23RoundRect,0.160000X-0.197500X-0.160000X0.197500X-0.160000X0.197500X0.160000X-0.197500X0.160000X0*%
%ADD24RoundRect,0.160000X-0.160000X0.197500X-0.160000X-0.197500X0.160000X-0.197500X0.160000X0.197500X0*%
%ADD25RoundRect,0.155000X0.212500X0.155000X-0.212500X0.155000X-0.212500X-0.155000X0.212500X-0.155000X0*%
%ADD26RoundRect,0.100000X-0.637500X-0.100000X0.637500X-0.100000X0.637500X0.100000X-0.637500X0.100000X0*%
%ADD27RoundRect,0.250000X-0.450000X0.350000X-0.450000X-0.350000X0.450000X-0.350000X0.450000X0.350000X0*%
%ADD28RoundRect,0.160000X-0.160000X0.222500X-0.160000X-0.222500X0.160000X-0.222500X0.160000X0.222500X0*%
%ADD29R,2.000000X1.100000*%
%ADD30R,1.300000X0.900000*%
%ADD31FreePoly0,0.000000*%
%ADD32RoundRect,0.062500X-0.400000X-0.062500X0.400000X-0.062500X0.400000X0.062500X-0.400000X0.062500X0*%
%ADD33RoundRect,0.062500X-0.062500X-0.400000X0.062500X-0.400000X0.062500X0.400000X-0.062500X0.400000X0*%
%ADD34R,6.400000X6.400000*%
%ADD35RoundRect,0.160000X0.160000X-0.197500X0.160000X0.197500X-0.160000X0.197500X-0.160000X-0.197500X0*%
%ADD36R,1.700000X1.700000*%
%ADD37O,1.700000X1.700000*%
%ADD38C,3.600000*%
%ADD39C,5.600000*%
%ADD40RoundRect,0.150000X-0.512500X-0.150000X0.512500X-0.150000X0.512500X0.150000X-0.512500X0.150000X0*%
%ADD41R,0.400000X1.350000*%
%ADD42O,1.000000X1.900000*%
%ADD43R,0.875000X1.900000*%
%ADD44O,1.050000X1.250000*%
%ADD45R,2.900000X1.900000*%
%ADD46RoundRect,0.150000X0.150000X-0.512500X0.150000X0.512500X-0.150000X0.512500X-0.150000X-0.512500X0*%
%ADD47RoundRect,0.250000X-0.625000X0.350000X-0.625000X-0.350000X0.625000X-0.350000X0.625000X0.350000X0*%
%ADD48O,1.750000X1.200000*%
G04 APERTURE END LIST*
D10*
X116082028Y-82054990D02*
X116558219Y-82054990D01*
X115558219Y-82388323D02*
X116082028Y-82054990D01*
X116082028Y-82054990D02*
X115558219Y-81721657D01*
X116558219Y-80864514D02*
X116558219Y-81435942D01*
X116558219Y-81150228D02*
X115558219Y-81150228D01*
X115558219Y-81150228D02*
X115701076Y-81245466D01*
X115701076Y-81245466D02*
X115796314Y-81340704D01*
X115796314Y-81340704D02*
X115843933Y-81435942D01*
X117957695Y-91250419D02*
X117957695Y-92059942D01*
X117957695Y-92059942D02*
X118005314Y-92155180D01*
X118005314Y-92155180D02*
X118052933Y-92202800D01*
X118052933Y-92202800D02*
X118148171Y-92250419D01*
X118148171Y-92250419D02*
X118338647Y-92250419D01*
X118338647Y-92250419D02*
X118433885Y-92202800D01*
X118433885Y-92202800D02*
X118481504Y-92155180D01*
X118481504Y-92155180D02*
X118529123Y-92059942D01*
X118529123Y-92059942D02*
X118529123Y-91250419D01*
X119481504Y-91250419D02*
X119005314Y-91250419D01*
X119005314Y-91250419D02*
X118957695Y-91726609D01*
X118957695Y-91726609D02*
X119005314Y-91678990D01*
X119005314Y-91678990D02*
X119100552Y-91631371D01*
X119100552Y-91631371D02*
X119338647Y-91631371D01*
X119338647Y-91631371D02*
X119433885Y-91678990D01*
X119433885Y-91678990D02*
X119481504Y-91726609D01*
X119481504Y-91726609D02*
X119529123Y-91821847D01*
X119529123Y-91821847D02*
X119529123Y-92059942D01*
X119529123Y-92059942D02*
X119481504Y-92155180D01*
X119481504Y-92155180D02*
X119433885Y-92202800D01*
X119433885Y-92202800D02*
X119338647Y-92250419D01*
X119338647Y-92250419D02*
X119100552Y-92250419D01*
X119100552Y-92250419D02*
X119005314Y-92202800D01*
X119005314Y-92202800D02*
X118957695Y-92155180D01*
X133866842Y-90741180D02*
X133819223Y-90788800D01*
X133819223Y-90788800D02*
X133676366Y-90836419D01*
X133676366Y-90836419D02*
X133581128Y-90836419D01*
X133581128Y-90836419D02*
X133438271Y-90788800D01*
X133438271Y-90788800D02*
X133343033Y-90693561D01*
X133343033Y-90693561D02*
X133295414Y-90598323D01*
X133295414Y-90598323D02*
X133247795Y-90407847D01*
X133247795Y-90407847D02*
X133247795Y-90264990D01*
X133247795Y-90264990D02*
X133295414Y-90074514D01*
X133295414Y-90074514D02*
X133343033Y-89979276D01*
X133343033Y-89979276D02*
X133438271Y-89884038D01*
X133438271Y-89884038D02*
X133581128Y-89836419D01*
X133581128Y-89836419D02*
X133676366Y-89836419D01*
X133676366Y-89836419D02*
X133819223Y-89884038D01*
X133819223Y-89884038D02*
X133866842Y-89931657D01*
X134247795Y-89931657D02*
X134295414Y-89884038D01*
X134295414Y-89884038D02*
X134390652Y-89836419D01*
X134390652Y-89836419D02*
X134628747Y-89836419D01*
X134628747Y-89836419D02*
X134723985Y-89884038D01*
X134723985Y-89884038D02*
X134771604Y-89931657D01*
X134771604Y-89931657D02*
X134819223Y-90026895D01*
X134819223Y-90026895D02*
X134819223Y-90122133D01*
X134819223Y-90122133D02*
X134771604Y-90264990D01*
X134771604Y-90264990D02*
X134200176Y-90836419D01*
X134200176Y-90836419D02*
X134819223Y-90836419D01*
X135438271Y-89836419D02*
X135533509Y-89836419D01*
X135533509Y-89836419D02*
X135628747Y-89884038D01*
X135628747Y-89884038D02*
X135676366Y-89931657D01*
X135676366Y-89931657D02*
X135723985Y-90026895D01*
X135723985Y-90026895D02*
X135771604Y-90217371D01*
X135771604Y-90217371D02*
X135771604Y-90455466D01*
X135771604Y-90455466D02*
X135723985Y-90645942D01*
X135723985Y-90645942D02*
X135676366Y-90741180D01*
X135676366Y-90741180D02*
X135628747Y-90788800D01*
X135628747Y-90788800D02*
X135533509Y-90836419D01*
X135533509Y-90836419D02*
X135438271Y-90836419D01*
X135438271Y-90836419D02*
X135343033Y-90788800D01*
X135343033Y-90788800D02*
X135295414Y-90741180D01*
X135295414Y-90741180D02*
X135247795Y-90645942D01*
X135247795Y-90645942D02*
X135200176Y-90455466D01*
X135200176Y-90455466D02*
X135200176Y-90217371D01*
X135200176Y-90217371D02*
X135247795Y-90026895D01*
X135247795Y-90026895D02*
X135295414Y-89931657D01*
X135295414Y-89931657D02*
X135343033Y-89884038D01*
X135343033Y-89884038D02*
X135438271Y-89836419D01*
X131952033Y-89354819D02*
X131618700Y-88878628D01*
X131380605Y-89354819D02*
X131380605Y-88354819D01*
X131380605Y-88354819D02*
X131761557Y-88354819D01*
X131761557Y-88354819D02*
X131856795Y-88402438D01*
X131856795Y-88402438D02*
X131904414Y-88450057D01*
X131904414Y-88450057D02*
X131952033Y-88545295D01*
X131952033Y-88545295D02*
X131952033Y-88688152D01*
X131952033Y-88688152D02*
X131904414Y-88783390D01*
X131904414Y-88783390D02*
X131856795Y-88831009D01*
X131856795Y-88831009D02*
X131761557Y-88878628D01*
X131761557Y-88878628D02*
X131380605Y-88878628D01*
X132332986Y-88450057D02*
X132380605Y-88402438D01*
X132380605Y-88402438D02*
X132475843Y-88354819D01*
X132475843Y-88354819D02*
X132713938Y-88354819D01*
X132713938Y-88354819D02*
X132809176Y-88402438D01*
X132809176Y-88402438D02*
X132856795Y-88450057D01*
X132856795Y-88450057D02*
X132904414Y-88545295D01*
X132904414Y-88545295D02*
X132904414Y-88640533D01*
X132904414Y-88640533D02*
X132856795Y-88783390D01*
X132856795Y-88783390D02*
X132285367Y-89354819D01*
X132285367Y-89354819D02*
X132904414Y-89354819D01*
X121923980Y-98788457D02*
X121971600Y-98836076D01*
X121971600Y-98836076D02*
X122019219Y-98978933D01*
X122019219Y-98978933D02*
X122019219Y-99074171D01*
X122019219Y-99074171D02*
X121971600Y-99217028D01*
X121971600Y-99217028D02*
X121876361Y-99312266D01*
X121876361Y-99312266D02*
X121781123Y-99359885D01*
X121781123Y-99359885D02*
X121590647Y-99407504D01*
X121590647Y-99407504D02*
X121447790Y-99407504D01*
X121447790Y-99407504D02*
X121257314Y-99359885D01*
X121257314Y-99359885D02*
X121162076Y-99312266D01*
X121162076Y-99312266D02*
X121066838Y-99217028D01*
X121066838Y-99217028D02*
X121019219Y-99074171D01*
X121019219Y-99074171D02*
X121019219Y-98978933D01*
X121019219Y-98978933D02*
X121066838Y-98836076D01*
X121066838Y-98836076D02*
X121114457Y-98788457D01*
X122019219Y-97836076D02*
X122019219Y-98407504D01*
X122019219Y-98121790D02*
X121019219Y-98121790D01*
X121019219Y-98121790D02*
X121162076Y-98217028D01*
X121162076Y-98217028D02*
X121257314Y-98312266D01*
X121257314Y-98312266D02*
X121304933Y-98407504D01*
X122019219Y-97359885D02*
X122019219Y-97169409D01*
X122019219Y-97169409D02*
X121971600Y-97074171D01*
X121971600Y-97074171D02*
X121923980Y-97026552D01*
X121923980Y-97026552D02*
X121781123Y-96931314D01*
X121781123Y-96931314D02*
X121590647Y-96883695D01*
X121590647Y-96883695D02*
X121209695Y-96883695D01*
X121209695Y-96883695D02*
X121114457Y-96931314D01*
X121114457Y-96931314D02*
X121066838Y-96978933D01*
X121066838Y-96978933D02*
X121019219Y-97074171D01*
X121019219Y-97074171D02*
X121019219Y-97264647D01*
X121019219Y-97264647D02*
X121066838Y-97359885D01*
X121066838Y-97359885D02*
X121114457Y-97407504D01*
X121114457Y-97407504D02*
X121209695Y-97455123D01*
X121209695Y-97455123D02*
X121447790Y-97455123D01*
X121447790Y-97455123D02*
X121543028Y-97407504D01*
X121543028Y-97407504D02*
X121590647Y-97359885D01*
X121590647Y-97359885D02*
X121638266Y-97264647D01*
X121638266Y-97264647D02*
X121638266Y-97074171D01*
X121638266Y-97074171D02*
X121590647Y-96978933D01*
X121590647Y-96978933D02*
X121543028Y-96931314D01*
X121543028Y-96931314D02*
X121447790Y-96883695D01*
X159474819Y-100460133D02*
X160189104Y-100460133D01*
X160189104Y-100460133D02*
X160331961Y-100507752D01*
X160331961Y-100507752D02*
X160427200Y-100602990D01*
X160427200Y-100602990D02*
X160474819Y-100745847D01*
X160474819Y-100745847D02*
X160474819Y-100841085D01*
X160474819Y-99460133D02*
X160474819Y-100031561D01*
X160474819Y-99745847D02*
X159474819Y-99745847D01*
X159474819Y-99745847D02*
X159617676Y-99841085D01*
X159617676Y-99841085D02*
X159712914Y-99936323D01*
X159712914Y-99936323D02*
X159760533Y-100031561D01*
X138129180Y-106002057D02*
X138176800Y-106049676D01*
X138176800Y-106049676D02*
X138224419Y-106192533D01*
X138224419Y-106192533D02*
X138224419Y-106287771D01*
X138224419Y-106287771D02*
X138176800Y-106430628D01*
X138176800Y-106430628D02*
X138081561Y-106525866D01*
X138081561Y-106525866D02*
X137986323Y-106573485D01*
X137986323Y-106573485D02*
X137795847Y-106621104D01*
X137795847Y-106621104D02*
X137652990Y-106621104D01*
X137652990Y-106621104D02*
X137462514Y-106573485D01*
X137462514Y-106573485D02*
X137367276Y-106525866D01*
X137367276Y-106525866D02*
X137272038Y-106430628D01*
X137272038Y-106430628D02*
X137224419Y-106287771D01*
X137224419Y-106287771D02*
X137224419Y-106192533D01*
X137224419Y-106192533D02*
X137272038Y-106049676D01*
X137272038Y-106049676D02*
X137319657Y-106002057D01*
X137319657Y-105621104D02*
X137272038Y-105573485D01*
X137272038Y-105573485D02*
X137224419Y-105478247D01*
X137224419Y-105478247D02*
X137224419Y-105240152D01*
X137224419Y-105240152D02*
X137272038Y-105144914D01*
X137272038Y-105144914D02*
X137319657Y-105097295D01*
X137319657Y-105097295D02*
X137414895Y-105049676D01*
X137414895Y-105049676D02*
X137510133Y-105049676D01*
X137510133Y-105049676D02*
X137652990Y-105097295D01*
X137652990Y-105097295D02*
X138224419Y-105668723D01*
X138224419Y-105668723D02*
X138224419Y-105049676D01*
X138224419Y-104097295D02*
X138224419Y-104668723D01*
X138224419Y-104383009D02*
X137224419Y-104383009D01*
X137224419Y-104383009D02*
X137367276Y-104478247D01*
X137367276Y-104478247D02*
X137462514Y-104573485D01*
X137462514Y-104573485D02*
X137510133Y-104668723D01*
X156258419Y-84139066D02*
X155782228Y-84472399D01*
X156258419Y-84710494D02*
X155258419Y-84710494D01*
X155258419Y-84710494D02*
X155258419Y-84329542D01*
X155258419Y-84329542D02*
X155306038Y-84234304D01*
X155306038Y-84234304D02*
X155353657Y-84186685D01*
X155353657Y-84186685D02*
X155448895Y-84139066D01*
X155448895Y-84139066D02*
X155591752Y-84139066D01*
X155591752Y-84139066D02*
X155686990Y-84186685D01*
X155686990Y-84186685D02*
X155734609Y-84234304D01*
X155734609Y-84234304D02*
X155782228Y-84329542D01*
X155782228Y-84329542D02*
X155782228Y-84710494D01*
X155686990Y-83567637D02*
X155639371Y-83662875D01*
X155639371Y-83662875D02*
X155591752Y-83710494D01*
X155591752Y-83710494D02*
X155496514Y-83758113D01*
X155496514Y-83758113D02*
X155448895Y-83758113D01*
X155448895Y-83758113D02*
X155353657Y-83710494D01*
X155353657Y-83710494D02*
X155306038Y-83662875D01*
X155306038Y-83662875D02*
X155258419Y-83567637D01*
X155258419Y-83567637D02*
X155258419Y-83377161D01*
X155258419Y-83377161D02*
X155306038Y-83281923D01*
X155306038Y-83281923D02*
X155353657Y-83234304D01*
X155353657Y-83234304D02*
X155448895Y-83186685D01*
X155448895Y-83186685D02*
X155496514Y-83186685D01*
X155496514Y-83186685D02*
X155591752Y-83234304D01*
X155591752Y-83234304D02*
X155639371Y-83281923D01*
X155639371Y-83281923D02*
X155686990Y-83377161D01*
X155686990Y-83377161D02*
X155686990Y-83567637D01*
X155686990Y-83567637D02*
X155734609Y-83662875D01*
X155734609Y-83662875D02*
X155782228Y-83710494D01*
X155782228Y-83710494D02*
X155877466Y-83758113D01*
X155877466Y-83758113D02*
X156067942Y-83758113D01*
X156067942Y-83758113D02*
X156163180Y-83710494D01*
X156163180Y-83710494D02*
X156210800Y-83662875D01*
X156210800Y-83662875D02*
X156258419Y-83567637D01*
X156258419Y-83567637D02*
X156258419Y-83377161D01*
X156258419Y-83377161D02*
X156210800Y-83281923D01*
X156210800Y-83281923D02*
X156163180Y-83234304D01*
X156163180Y-83234304D02*
X156067942Y-83186685D01*
X156067942Y-83186685D02*
X155877466Y-83186685D01*
X155877466Y-83186685D02*
X155782228Y-83234304D01*
X155782228Y-83234304D02*
X155734609Y-83281923D01*
X155734609Y-83281923D02*
X155686990Y-83377161D01*
X127150233Y-95601619D02*
X126816900Y-95125428D01*
X126578805Y-95601619D02*
X126578805Y-94601619D01*
X126578805Y-94601619D02*
X126959757Y-94601619D01*
X126959757Y-94601619D02*
X127054995Y-94649238D01*
X127054995Y-94649238D02*
X127102614Y-94696857D01*
X127102614Y-94696857D02*
X127150233Y-94792095D01*
X127150233Y-94792095D02*
X127150233Y-94934952D01*
X127150233Y-94934952D02*
X127102614Y-95030190D01*
X127102614Y-95030190D02*
X127054995Y-95077809D01*
X127054995Y-95077809D02*
X126959757Y-95125428D01*
X126959757Y-95125428D02*
X126578805Y-95125428D01*
X128054995Y-94601619D02*
X127578805Y-94601619D01*
X127578805Y-94601619D02*
X127531186Y-95077809D01*
X127531186Y-95077809D02*
X127578805Y-95030190D01*
X127578805Y-95030190D02*
X127674043Y-94982571D01*
X127674043Y-94982571D02*
X127912138Y-94982571D01*
X127912138Y-94982571D02*
X128007376Y-95030190D01*
X128007376Y-95030190D02*
X128054995Y-95077809D01*
X128054995Y-95077809D02*
X128102614Y-95173047D01*
X128102614Y-95173047D02*
X128102614Y-95411142D01*
X128102614Y-95411142D02*
X128054995Y-95506380D01*
X128054995Y-95506380D02*
X128007376Y-95554000D01*
X128007376Y-95554000D02*
X127912138Y-95601619D01*
X127912138Y-95601619D02*
X127674043Y-95601619D01*
X127674043Y-95601619D02*
X127578805Y-95554000D01*
X127578805Y-95554000D02*
X127531186Y-95506380D01*
X130809219Y-97105166D02*
X130333028Y-97438499D01*
X130809219Y-97676594D02*
X129809219Y-97676594D01*
X129809219Y-97676594D02*
X129809219Y-97295642D01*
X129809219Y-97295642D02*
X129856838Y-97200404D01*
X129856838Y-97200404D02*
X129904457Y-97152785D01*
X129904457Y-97152785D02*
X129999695Y-97105166D01*
X129999695Y-97105166D02*
X130142552Y-97105166D01*
X130142552Y-97105166D02*
X130237790Y-97152785D01*
X130237790Y-97152785D02*
X130285409Y-97200404D01*
X130285409Y-97200404D02*
X130333028Y-97295642D01*
X130333028Y-97295642D02*
X130333028Y-97676594D01*
X130142552Y-96248023D02*
X130809219Y-96248023D01*
X129761600Y-96486118D02*
X130475885Y-96724213D01*
X130475885Y-96724213D02*
X130475885Y-96105166D01*
X134891542Y-101349980D02*
X134843923Y-101397600D01*
X134843923Y-101397600D02*
X134701066Y-101445219D01*
X134701066Y-101445219D02*
X134605828Y-101445219D01*
X134605828Y-101445219D02*
X134462971Y-101397600D01*
X134462971Y-101397600D02*
X134367733Y-101302361D01*
X134367733Y-101302361D02*
X134320114Y-101207123D01*
X134320114Y-101207123D02*
X134272495Y-101016647D01*
X134272495Y-101016647D02*
X134272495Y-100873790D01*
X134272495Y-100873790D02*
X134320114Y-100683314D01*
X134320114Y-100683314D02*
X134367733Y-100588076D01*
X134367733Y-100588076D02*
X134462971Y-100492838D01*
X134462971Y-100492838D02*
X134605828Y-100445219D01*
X134605828Y-100445219D02*
X134701066Y-100445219D01*
X134701066Y-100445219D02*
X134843923Y-100492838D01*
X134843923Y-100492838D02*
X134891542Y-100540457D01*
X135843923Y-101445219D02*
X135272495Y-101445219D01*
X135558209Y-101445219D02*
X135558209Y-100445219D01*
X135558209Y-100445219D02*
X135462971Y-100588076D01*
X135462971Y-100588076D02*
X135367733Y-100683314D01*
X135367733Y-100683314D02*
X135272495Y-100730933D01*
X136415352Y-100873790D02*
X136320114Y-100826171D01*
X136320114Y-100826171D02*
X136272495Y-100778552D01*
X136272495Y-100778552D02*
X136224876Y-100683314D01*
X136224876Y-100683314D02*
X136224876Y-100635695D01*
X136224876Y-100635695D02*
X136272495Y-100540457D01*
X136272495Y-100540457D02*
X136320114Y-100492838D01*
X136320114Y-100492838D02*
X136415352Y-100445219D01*
X136415352Y-100445219D02*
X136605828Y-100445219D01*
X136605828Y-100445219D02*
X136701066Y-100492838D01*
X136701066Y-100492838D02*
X136748685Y-100540457D01*
X136748685Y-100540457D02*
X136796304Y-100635695D01*
X136796304Y-100635695D02*
X136796304Y-100683314D01*
X136796304Y-100683314D02*
X136748685Y-100778552D01*
X136748685Y-100778552D02*
X136701066Y-100826171D01*
X136701066Y-100826171D02*
X136605828Y-100873790D01*
X136605828Y-100873790D02*
X136415352Y-100873790D01*
X136415352Y-100873790D02*
X136320114Y-100921409D01*
X136320114Y-100921409D02*
X136272495Y-100969028D01*
X136272495Y-100969028D02*
X136224876Y-101064266D01*
X136224876Y-101064266D02*
X136224876Y-101254742D01*
X136224876Y-101254742D02*
X136272495Y-101349980D01*
X136272495Y-101349980D02*
X136320114Y-101397600D01*
X136320114Y-101397600D02*
X136415352Y-101445219D01*
X136415352Y-101445219D02*
X136605828Y-101445219D01*
X136605828Y-101445219D02*
X136701066Y-101397600D01*
X136701066Y-101397600D02*
X136748685Y-101349980D01*
X136748685Y-101349980D02*
X136796304Y-101254742D01*
X136796304Y-101254742D02*
X136796304Y-101064266D01*
X136796304Y-101064266D02*
X136748685Y-100969028D01*
X136748685Y-100969028D02*
X136701066Y-100921409D01*
X136701066Y-100921409D02*
X136605828Y-100873790D01*
X146812095Y-79836819D02*
X146812095Y-80646342D01*
X146812095Y-80646342D02*
X146859714Y-80741580D01*
X146859714Y-80741580D02*
X146907333Y-80789200D01*
X146907333Y-80789200D02*
X147002571Y-80836819D01*
X147002571Y-80836819D02*
X147193047Y-80836819D01*
X147193047Y-80836819D02*
X147288285Y-80789200D01*
X147288285Y-80789200D02*
X147335904Y-80741580D01*
X147335904Y-80741580D02*
X147383523Y-80646342D01*
X147383523Y-80646342D02*
X147383523Y-79836819D01*
X148288285Y-80170152D02*
X148288285Y-80836819D01*
X148050190Y-79789200D02*
X147812095Y-80503485D01*
X147812095Y-80503485D02*
X148431142Y-80503485D01*
X135938633Y-76605619D02*
X135605300Y-76129428D01*
X135367205Y-76605619D02*
X135367205Y-75605619D01*
X135367205Y-75605619D02*
X135748157Y-75605619D01*
X135748157Y-75605619D02*
X135843395Y-75653238D01*
X135843395Y-75653238D02*
X135891014Y-75700857D01*
X135891014Y-75700857D02*
X135938633Y-75796095D01*
X135938633Y-75796095D02*
X135938633Y-75938952D01*
X135938633Y-75938952D02*
X135891014Y-76034190D01*
X135891014Y-76034190D02*
X135843395Y-76081809D01*
X135843395Y-76081809D02*
X135748157Y-76129428D01*
X135748157Y-76129428D02*
X135367205Y-76129428D01*
X136891014Y-76605619D02*
X136319586Y-76605619D01*
X136605300Y-76605619D02*
X136605300Y-75605619D01*
X136605300Y-75605619D02*
X136510062Y-75748476D01*
X136510062Y-75748476D02*
X136414824Y-75843714D01*
X136414824Y-75843714D02*
X136319586Y-75891333D01*
X153870819Y-94248266D02*
X153394628Y-94581599D01*
X153870819Y-94819694D02*
X152870819Y-94819694D01*
X152870819Y-94819694D02*
X152870819Y-94438742D01*
X152870819Y-94438742D02*
X152918438Y-94343504D01*
X152918438Y-94343504D02*
X152966057Y-94295885D01*
X152966057Y-94295885D02*
X153061295Y-94248266D01*
X153061295Y-94248266D02*
X153204152Y-94248266D01*
X153204152Y-94248266D02*
X153299390Y-94295885D01*
X153299390Y-94295885D02*
X153347009Y-94343504D01*
X153347009Y-94343504D02*
X153394628Y-94438742D01*
X153394628Y-94438742D02*
X153394628Y-94819694D01*
X153870819Y-93772075D02*
X153870819Y-93581599D01*
X153870819Y-93581599D02*
X153823200Y-93486361D01*
X153823200Y-93486361D02*
X153775580Y-93438742D01*
X153775580Y-93438742D02*
X153632723Y-93343504D01*
X153632723Y-93343504D02*
X153442247Y-93295885D01*
X153442247Y-93295885D02*
X153061295Y-93295885D01*
X153061295Y-93295885D02*
X152966057Y-93343504D01*
X152966057Y-93343504D02*
X152918438Y-93391123D01*
X152918438Y-93391123D02*
X152870819Y-93486361D01*
X152870819Y-93486361D02*
X152870819Y-93676837D01*
X152870819Y-93676837D02*
X152918438Y-93772075D01*
X152918438Y-93772075D02*
X152966057Y-93819694D01*
X152966057Y-93819694D02*
X153061295Y-93867313D01*
X153061295Y-93867313D02*
X153299390Y-93867313D01*
X153299390Y-93867313D02*
X153394628Y-93819694D01*
X153394628Y-93819694D02*
X153442247Y-93772075D01*
X153442247Y-93772075D02*
X153489866Y-93676837D01*
X153489866Y-93676837D02*
X153489866Y-93486361D01*
X153489866Y-93486361D02*
X153442247Y-93391123D01*
X153442247Y-93391123D02*
X153394628Y-93343504D01*
X153394628Y-93343504D02*
X153299390Y-93295885D01*
X146555619Y-91203257D02*
X146079428Y-91536590D01*
X146555619Y-91774685D02*
X145555619Y-91774685D01*
X145555619Y-91774685D02*
X145555619Y-91393733D01*
X145555619Y-91393733D02*
X145603238Y-91298495D01*
X145603238Y-91298495D02*
X145650857Y-91250876D01*
X145650857Y-91250876D02*
X145746095Y-91203257D01*
X145746095Y-91203257D02*
X145888952Y-91203257D01*
X145888952Y-91203257D02*
X145984190Y-91250876D01*
X145984190Y-91250876D02*
X146031809Y-91298495D01*
X146031809Y-91298495D02*
X146079428Y-91393733D01*
X146079428Y-91393733D02*
X146079428Y-91774685D01*
X146555619Y-90250876D02*
X146555619Y-90822304D01*
X146555619Y-90536590D02*
X145555619Y-90536590D01*
X145555619Y-90536590D02*
X145698476Y-90631828D01*
X145698476Y-90631828D02*
X145793714Y-90727066D01*
X145793714Y-90727066D02*
X145841333Y-90822304D01*
X146555619Y-89298495D02*
X146555619Y-89869923D01*
X146555619Y-89584209D02*
X145555619Y-89584209D01*
X145555619Y-89584209D02*
X145698476Y-89679447D01*
X145698476Y-89679447D02*
X145793714Y-89774685D01*
X145793714Y-89774685D02*
X145841333Y-89869923D01*
X126047180Y-110277957D02*
X126094800Y-110325576D01*
X126094800Y-110325576D02*
X126142419Y-110468433D01*
X126142419Y-110468433D02*
X126142419Y-110563671D01*
X126142419Y-110563671D02*
X126094800Y-110706528D01*
X126094800Y-110706528D02*
X125999561Y-110801766D01*
X125999561Y-110801766D02*
X125904323Y-110849385D01*
X125904323Y-110849385D02*
X125713847Y-110897004D01*
X125713847Y-110897004D02*
X125570990Y-110897004D01*
X125570990Y-110897004D02*
X125380514Y-110849385D01*
X125380514Y-110849385D02*
X125285276Y-110801766D01*
X125285276Y-110801766D02*
X125190038Y-110706528D01*
X125190038Y-110706528D02*
X125142419Y-110563671D01*
X125142419Y-110563671D02*
X125142419Y-110468433D01*
X125142419Y-110468433D02*
X125190038Y-110325576D01*
X125190038Y-110325576D02*
X125237657Y-110277957D01*
X126142419Y-109325576D02*
X126142419Y-109897004D01*
X126142419Y-109611290D02*
X125142419Y-109611290D01*
X125142419Y-109611290D02*
X125285276Y-109706528D01*
X125285276Y-109706528D02*
X125380514Y-109801766D01*
X125380514Y-109801766D02*
X125428133Y-109897004D01*
X125142419Y-108468433D02*
X125142419Y-108658909D01*
X125142419Y-108658909D02*
X125190038Y-108754147D01*
X125190038Y-108754147D02*
X125237657Y-108801766D01*
X125237657Y-108801766D02*
X125380514Y-108897004D01*
X125380514Y-108897004D02*
X125570990Y-108944623D01*
X125570990Y-108944623D02*
X125951942Y-108944623D01*
X125951942Y-108944623D02*
X126047180Y-108897004D01*
X126047180Y-108897004D02*
X126094800Y-108849385D01*
X126094800Y-108849385D02*
X126142419Y-108754147D01*
X126142419Y-108754147D02*
X126142419Y-108563671D01*
X126142419Y-108563671D02*
X126094800Y-108468433D01*
X126094800Y-108468433D02*
X126047180Y-108420814D01*
X126047180Y-108420814D02*
X125951942Y-108373195D01*
X125951942Y-108373195D02*
X125713847Y-108373195D01*
X125713847Y-108373195D02*
X125618609Y-108420814D01*
X125618609Y-108420814D02*
X125570990Y-108468433D01*
X125570990Y-108468433D02*
X125523371Y-108563671D01*
X125523371Y-108563671D02*
X125523371Y-108754147D01*
X125523371Y-108754147D02*
X125570990Y-108849385D01*
X125570990Y-108849385D02*
X125618609Y-108897004D01*
X125618609Y-108897004D02*
X125713847Y-108944623D01*
X138230780Y-88050666D02*
X138278400Y-88098285D01*
X138278400Y-88098285D02*
X138326019Y-88241142D01*
X138326019Y-88241142D02*
X138326019Y-88336380D01*
X138326019Y-88336380D02*
X138278400Y-88479237D01*
X138278400Y-88479237D02*
X138183161Y-88574475D01*
X138183161Y-88574475D02*
X138087923Y-88622094D01*
X138087923Y-88622094D02*
X137897447Y-88669713D01*
X137897447Y-88669713D02*
X137754590Y-88669713D01*
X137754590Y-88669713D02*
X137564114Y-88622094D01*
X137564114Y-88622094D02*
X137468876Y-88574475D01*
X137468876Y-88574475D02*
X137373638Y-88479237D01*
X137373638Y-88479237D02*
X137326019Y-88336380D01*
X137326019Y-88336380D02*
X137326019Y-88241142D01*
X137326019Y-88241142D02*
X137373638Y-88098285D01*
X137373638Y-88098285D02*
X137421257Y-88050666D01*
X137326019Y-87717332D02*
X137326019Y-87050666D01*
X137326019Y-87050666D02*
X138326019Y-87479237D01*
X138122819Y-73254166D02*
X138122819Y-73730356D01*
X138122819Y-73730356D02*
X137122819Y-73730356D01*
X138122819Y-72397023D02*
X138122819Y-72968451D01*
X138122819Y-72682737D02*
X137122819Y-72682737D01*
X137122819Y-72682737D02*
X137265676Y-72777975D01*
X137265676Y-72777975D02*
X137360914Y-72873213D01*
X137360914Y-72873213D02*
X137408533Y-72968451D01*
X151293905Y-71270019D02*
X151293905Y-70270019D01*
X151293905Y-70270019D02*
X151532000Y-70270019D01*
X151532000Y-70270019D02*
X151674857Y-70317638D01*
X151674857Y-70317638D02*
X151770095Y-70412876D01*
X151770095Y-70412876D02*
X151817714Y-70508114D01*
X151817714Y-70508114D02*
X151865333Y-70698590D01*
X151865333Y-70698590D02*
X151865333Y-70841447D01*
X151865333Y-70841447D02*
X151817714Y-71031923D01*
X151817714Y-71031923D02*
X151770095Y-71127161D01*
X151770095Y-71127161D02*
X151674857Y-71222400D01*
X151674857Y-71222400D02*
X151532000Y-71270019D01*
X151532000Y-71270019D02*
X151293905Y-71270019D01*
X152817714Y-71270019D02*
X152246286Y-71270019D01*
X152532000Y-71270019D02*
X152532000Y-70270019D01*
X152532000Y-70270019D02*
X152436762Y-70412876D01*
X152436762Y-70412876D02*
X152341524Y-70508114D01*
X152341524Y-70508114D02*
X152246286Y-70555733D01*
X117125809Y-75111828D02*
X117125809Y-75588019D01*
X116792476Y-74588019D02*
X117125809Y-75111828D01*
X117125809Y-75111828D02*
X117459142Y-74588019D01*
X117744857Y-74683257D02*
X117792476Y-74635638D01*
X117792476Y-74635638D02*
X117887714Y-74588019D01*
X117887714Y-74588019D02*
X118125809Y-74588019D01*
X118125809Y-74588019D02*
X118221047Y-74635638D01*
X118221047Y-74635638D02*
X118268666Y-74683257D01*
X118268666Y-74683257D02*
X118316285Y-74778495D01*
X118316285Y-74778495D02*
X118316285Y-74873733D01*
X118316285Y-74873733D02*
X118268666Y-75016590D01*
X118268666Y-75016590D02*
X117697238Y-75588019D01*
X117697238Y-75588019D02*
X118316285Y-75588019D01*
X146149219Y-76334857D02*
X145673028Y-76668190D01*
X146149219Y-76906285D02*
X145149219Y-76906285D01*
X145149219Y-76906285D02*
X145149219Y-76525333D01*
X145149219Y-76525333D02*
X145196838Y-76430095D01*
X145196838Y-76430095D02*
X145244457Y-76382476D01*
X145244457Y-76382476D02*
X145339695Y-76334857D01*
X145339695Y-76334857D02*
X145482552Y-76334857D01*
X145482552Y-76334857D02*
X145577790Y-76382476D01*
X145577790Y-76382476D02*
X145625409Y-76430095D01*
X145625409Y-76430095D02*
X145673028Y-76525333D01*
X145673028Y-76525333D02*
X145673028Y-76906285D01*
X146149219Y-75382476D02*
X146149219Y-75953904D01*
X146149219Y-75668190D02*
X145149219Y-75668190D01*
X145149219Y-75668190D02*
X145292076Y-75763428D01*
X145292076Y-75763428D02*
X145387314Y-75858666D01*
X145387314Y-75858666D02*
X145434933Y-75953904D01*
X145149219Y-75049142D02*
X145149219Y-74430095D01*
X145149219Y-74430095D02*
X145530171Y-74763428D01*
X145530171Y-74763428D02*
X145530171Y-74620571D01*
X145530171Y-74620571D02*
X145577790Y-74525333D01*
X145577790Y-74525333D02*
X145625409Y-74477714D01*
X145625409Y-74477714D02*
X145720647Y-74430095D01*
X145720647Y-74430095D02*
X145958742Y-74430095D01*
X145958742Y-74430095D02*
X146053980Y-74477714D01*
X146053980Y-74477714D02*
X146101600Y-74525333D01*
X146101600Y-74525333D02*
X146149219Y-74620571D01*
X146149219Y-74620571D02*
X146149219Y-74906285D01*
X146149219Y-74906285D02*
X146101600Y-75001523D01*
X146101600Y-75001523D02*
X146053980Y-75049142D01*
X158747619Y-84139066D02*
X158271428Y-84472399D01*
X158747619Y-84710494D02*
X157747619Y-84710494D01*
X157747619Y-84710494D02*
X157747619Y-84329542D01*
X157747619Y-84329542D02*
X157795238Y-84234304D01*
X157795238Y-84234304D02*
X157842857Y-84186685D01*
X157842857Y-84186685D02*
X157938095Y-84139066D01*
X157938095Y-84139066D02*
X158080952Y-84139066D01*
X158080952Y-84139066D02*
X158176190Y-84186685D01*
X158176190Y-84186685D02*
X158223809Y-84234304D01*
X158223809Y-84234304D02*
X158271428Y-84329542D01*
X158271428Y-84329542D02*
X158271428Y-84710494D01*
X157747619Y-83805732D02*
X157747619Y-83139066D01*
X157747619Y-83139066D02*
X158747619Y-83567637D01*
X137630819Y-96773904D02*
X138440342Y-96773904D01*
X138440342Y-96773904D02*
X138535580Y-96726285D01*
X138535580Y-96726285D02*
X138583200Y-96678666D01*
X138583200Y-96678666D02*
X138630819Y-96583428D01*
X138630819Y-96583428D02*
X138630819Y-96392952D01*
X138630819Y-96392952D02*
X138583200Y-96297714D01*
X138583200Y-96297714D02*
X138535580Y-96250095D01*
X138535580Y-96250095D02*
X138440342Y-96202476D01*
X138440342Y-96202476D02*
X137630819Y-96202476D01*
X137630819Y-95821523D02*
X137630819Y-95202476D01*
X137630819Y-95202476D02*
X138011771Y-95535809D01*
X138011771Y-95535809D02*
X138011771Y-95392952D01*
X138011771Y-95392952D02*
X138059390Y-95297714D01*
X138059390Y-95297714D02*
X138107009Y-95250095D01*
X138107009Y-95250095D02*
X138202247Y-95202476D01*
X138202247Y-95202476D02*
X138440342Y-95202476D01*
X138440342Y-95202476D02*
X138535580Y-95250095D01*
X138535580Y-95250095D02*
X138583200Y-95297714D01*
X138583200Y-95297714D02*
X138630819Y-95392952D01*
X138630819Y-95392952D02*
X138630819Y-95678666D01*
X138630819Y-95678666D02*
X138583200Y-95773904D01*
X138583200Y-95773904D02*
X138535580Y-95821523D01*
X138684095Y-80988819D02*
X138684095Y-81798342D01*
X138684095Y-81798342D02*
X138731714Y-81893580D01*
X138731714Y-81893580D02*
X138779333Y-81941200D01*
X138779333Y-81941200D02*
X138874571Y-81988819D01*
X138874571Y-81988819D02*
X139065047Y-81988819D01*
X139065047Y-81988819D02*
X139160285Y-81941200D01*
X139160285Y-81941200D02*
X139207904Y-81893580D01*
X139207904Y-81893580D02*
X139255523Y-81798342D01*
X139255523Y-81798342D02*
X139255523Y-80988819D01*
X140255523Y-81988819D02*
X139684095Y-81988819D01*
X139969809Y-81988819D02*
X139969809Y-80988819D01*
X139969809Y-80988819D02*
X139874571Y-81131676D01*
X139874571Y-81131676D02*
X139779333Y-81226914D01*
X139779333Y-81226914D02*
X139684095Y-81274533D01*
X123867942Y-80115580D02*
X123820323Y-80163200D01*
X123820323Y-80163200D02*
X123677466Y-80210819D01*
X123677466Y-80210819D02*
X123582228Y-80210819D01*
X123582228Y-80210819D02*
X123439371Y-80163200D01*
X123439371Y-80163200D02*
X123344133Y-80067961D01*
X123344133Y-80067961D02*
X123296514Y-79972723D01*
X123296514Y-79972723D02*
X123248895Y-79782247D01*
X123248895Y-79782247D02*
X123248895Y-79639390D01*
X123248895Y-79639390D02*
X123296514Y-79448914D01*
X123296514Y-79448914D02*
X123344133Y-79353676D01*
X123344133Y-79353676D02*
X123439371Y-79258438D01*
X123439371Y-79258438D02*
X123582228Y-79210819D01*
X123582228Y-79210819D02*
X123677466Y-79210819D01*
X123677466Y-79210819D02*
X123820323Y-79258438D01*
X123820323Y-79258438D02*
X123867942Y-79306057D01*
X124820323Y-80210819D02*
X124248895Y-80210819D01*
X124534609Y-80210819D02*
X124534609Y-79210819D01*
X124534609Y-79210819D02*
X124439371Y-79353676D01*
X124439371Y-79353676D02*
X124344133Y-79448914D01*
X124344133Y-79448914D02*
X124248895Y-79496533D01*
X125677466Y-79544152D02*
X125677466Y-80210819D01*
X125439371Y-79163200D02*
X125201276Y-79877485D01*
X125201276Y-79877485D02*
X125820323Y-79877485D01*
X115116780Y-78358157D02*
X115164400Y-78405776D01*
X115164400Y-78405776D02*
X115212019Y-78548633D01*
X115212019Y-78548633D02*
X115212019Y-78643871D01*
X115212019Y-78643871D02*
X115164400Y-78786728D01*
X115164400Y-78786728D02*
X115069161Y-78881966D01*
X115069161Y-78881966D02*
X114973923Y-78929585D01*
X114973923Y-78929585D02*
X114783447Y-78977204D01*
X114783447Y-78977204D02*
X114640590Y-78977204D01*
X114640590Y-78977204D02*
X114450114Y-78929585D01*
X114450114Y-78929585D02*
X114354876Y-78881966D01*
X114354876Y-78881966D02*
X114259638Y-78786728D01*
X114259638Y-78786728D02*
X114212019Y-78643871D01*
X114212019Y-78643871D02*
X114212019Y-78548633D01*
X114212019Y-78548633D02*
X114259638Y-78405776D01*
X114259638Y-78405776D02*
X114307257Y-78358157D01*
X115212019Y-77405776D02*
X115212019Y-77977204D01*
X115212019Y-77691490D02*
X114212019Y-77691490D01*
X114212019Y-77691490D02*
X114354876Y-77786728D01*
X114354876Y-77786728D02*
X114450114Y-77881966D01*
X114450114Y-77881966D02*
X114497733Y-77977204D01*
X114212019Y-76501014D02*
X114212019Y-76977204D01*
X114212019Y-76977204D02*
X114688209Y-77024823D01*
X114688209Y-77024823D02*
X114640590Y-76977204D01*
X114640590Y-76977204D02*
X114592971Y-76881966D01*
X114592971Y-76881966D02*
X114592971Y-76643871D01*
X114592971Y-76643871D02*
X114640590Y-76548633D01*
X114640590Y-76548633D02*
X114688209Y-76501014D01*
X114688209Y-76501014D02*
X114783447Y-76453395D01*
X114783447Y-76453395D02*
X115021542Y-76453395D01*
X115021542Y-76453395D02*
X115116780Y-76501014D01*
X115116780Y-76501014D02*
X115164400Y-76548633D01*
X115164400Y-76548633D02*
X115212019Y-76643871D01*
X115212019Y-76643871D02*
X115212019Y-76881966D01*
X115212019Y-76881966D02*
X115164400Y-76977204D01*
X115164400Y-76977204D02*
X115116780Y-77024823D01*
X115319980Y-84513657D02*
X115367600Y-84561276D01*
X115367600Y-84561276D02*
X115415219Y-84704133D01*
X115415219Y-84704133D02*
X115415219Y-84799371D01*
X115415219Y-84799371D02*
X115367600Y-84942228D01*
X115367600Y-84942228D02*
X115272361Y-85037466D01*
X115272361Y-85037466D02*
X115177123Y-85085085D01*
X115177123Y-85085085D02*
X114986647Y-85132704D01*
X114986647Y-85132704D02*
X114843790Y-85132704D01*
X114843790Y-85132704D02*
X114653314Y-85085085D01*
X114653314Y-85085085D02*
X114558076Y-85037466D01*
X114558076Y-85037466D02*
X114462838Y-84942228D01*
X114462838Y-84942228D02*
X114415219Y-84799371D01*
X114415219Y-84799371D02*
X114415219Y-84704133D01*
X114415219Y-84704133D02*
X114462838Y-84561276D01*
X114462838Y-84561276D02*
X114510457Y-84513657D01*
X115415219Y-83561276D02*
X115415219Y-84132704D01*
X115415219Y-83846990D02*
X114415219Y-83846990D01*
X114415219Y-83846990D02*
X114558076Y-83942228D01*
X114558076Y-83942228D02*
X114653314Y-84037466D01*
X114653314Y-84037466D02*
X114700933Y-84132704D01*
X114415219Y-83227942D02*
X114415219Y-82608895D01*
X114415219Y-82608895D02*
X114796171Y-82942228D01*
X114796171Y-82942228D02*
X114796171Y-82799371D01*
X114796171Y-82799371D02*
X114843790Y-82704133D01*
X114843790Y-82704133D02*
X114891409Y-82656514D01*
X114891409Y-82656514D02*
X114986647Y-82608895D01*
X114986647Y-82608895D02*
X115224742Y-82608895D01*
X115224742Y-82608895D02*
X115319980Y-82656514D01*
X115319980Y-82656514D02*
X115367600Y-82704133D01*
X115367600Y-82704133D02*
X115415219Y-82799371D01*
X115415219Y-82799371D02*
X115415219Y-83085085D01*
X115415219Y-83085085D02*
X115367600Y-83180323D01*
X115367600Y-83180323D02*
X115319980Y-83227942D01*
X153769219Y-84037466D02*
X153293028Y-84370799D01*
X153769219Y-84608894D02*
X152769219Y-84608894D01*
X152769219Y-84608894D02*
X152769219Y-84227942D01*
X152769219Y-84227942D02*
X152816838Y-84132704D01*
X152816838Y-84132704D02*
X152864457Y-84085085D01*
X152864457Y-84085085D02*
X152959695Y-84037466D01*
X152959695Y-84037466D02*
X153102552Y-84037466D01*
X153102552Y-84037466D02*
X153197790Y-84085085D01*
X153197790Y-84085085D02*
X153245409Y-84132704D01*
X153245409Y-84132704D02*
X153293028Y-84227942D01*
X153293028Y-84227942D02*
X153293028Y-84608894D01*
X152769219Y-83180323D02*
X152769219Y-83370799D01*
X152769219Y-83370799D02*
X152816838Y-83466037D01*
X152816838Y-83466037D02*
X152864457Y-83513656D01*
X152864457Y-83513656D02*
X153007314Y-83608894D01*
X153007314Y-83608894D02*
X153197790Y-83656513D01*
X153197790Y-83656513D02*
X153578742Y-83656513D01*
X153578742Y-83656513D02*
X153673980Y-83608894D01*
X153673980Y-83608894D02*
X153721600Y-83561275D01*
X153721600Y-83561275D02*
X153769219Y-83466037D01*
X153769219Y-83466037D02*
X153769219Y-83275561D01*
X153769219Y-83275561D02*
X153721600Y-83180323D01*
X153721600Y-83180323D02*
X153673980Y-83132704D01*
X153673980Y-83132704D02*
X153578742Y-83085085D01*
X153578742Y-83085085D02*
X153340647Y-83085085D01*
X153340647Y-83085085D02*
X153245409Y-83132704D01*
X153245409Y-83132704D02*
X153197790Y-83180323D01*
X153197790Y-83180323D02*
X153150171Y-83275561D01*
X153150171Y-83275561D02*
X153150171Y-83466037D01*
X153150171Y-83466037D02*
X153197790Y-83561275D01*
X153197790Y-83561275D02*
X153245409Y-83608894D01*
X153245409Y-83608894D02*
X153340647Y-83656513D01*
X133703219Y-72880457D02*
X133227028Y-73213790D01*
X133703219Y-73451885D02*
X132703219Y-73451885D01*
X132703219Y-73451885D02*
X132703219Y-73070933D01*
X132703219Y-73070933D02*
X132750838Y-72975695D01*
X132750838Y-72975695D02*
X132798457Y-72928076D01*
X132798457Y-72928076D02*
X132893695Y-72880457D01*
X132893695Y-72880457D02*
X133036552Y-72880457D01*
X133036552Y-72880457D02*
X133131790Y-72928076D01*
X133131790Y-72928076D02*
X133179409Y-72975695D01*
X133179409Y-72975695D02*
X133227028Y-73070933D01*
X133227028Y-73070933D02*
X133227028Y-73451885D01*
X133703219Y-71928076D02*
X133703219Y-72499504D01*
X133703219Y-72213790D02*
X132703219Y-72213790D01*
X132703219Y-72213790D02*
X132846076Y-72309028D01*
X132846076Y-72309028D02*
X132941314Y-72404266D01*
X132941314Y-72404266D02*
X132988933Y-72499504D01*
X133036552Y-71070933D02*
X133703219Y-71070933D01*
X132655600Y-71309028D02*
X133369885Y-71547123D01*
X133369885Y-71547123D02*
X133369885Y-70928076D01*
X142126639Y-77154380D02*
X142079020Y-77202000D01*
X142079020Y-77202000D02*
X141936163Y-77249619D01*
X141936163Y-77249619D02*
X141840925Y-77249619D01*
X141840925Y-77249619D02*
X141698068Y-77202000D01*
X141698068Y-77202000D02*
X141602830Y-77106761D01*
X141602830Y-77106761D02*
X141555211Y-77011523D01*
X141555211Y-77011523D02*
X141507592Y-76821047D01*
X141507592Y-76821047D02*
X141507592Y-76678190D01*
X141507592Y-76678190D02*
X141555211Y-76487714D01*
X141555211Y-76487714D02*
X141602830Y-76392476D01*
X141602830Y-76392476D02*
X141698068Y-76297238D01*
X141698068Y-76297238D02*
X141840925Y-76249619D01*
X141840925Y-76249619D02*
X141936163Y-76249619D01*
X141936163Y-76249619D02*
X142079020Y-76297238D01*
X142079020Y-76297238D02*
X142126639Y-76344857D01*
X142698068Y-76678190D02*
X142602830Y-76630571D01*
X142602830Y-76630571D02*
X142555211Y-76582952D01*
X142555211Y-76582952D02*
X142507592Y-76487714D01*
X142507592Y-76487714D02*
X142507592Y-76440095D01*
X142507592Y-76440095D02*
X142555211Y-76344857D01*
X142555211Y-76344857D02*
X142602830Y-76297238D01*
X142602830Y-76297238D02*
X142698068Y-76249619D01*
X142698068Y-76249619D02*
X142888544Y-76249619D01*
X142888544Y-76249619D02*
X142983782Y-76297238D01*
X142983782Y-76297238D02*
X143031401Y-76344857D01*
X143031401Y-76344857D02*
X143079020Y-76440095D01*
X143079020Y-76440095D02*
X143079020Y-76487714D01*
X143079020Y-76487714D02*
X143031401Y-76582952D01*
X143031401Y-76582952D02*
X142983782Y-76630571D01*
X142983782Y-76630571D02*
X142888544Y-76678190D01*
X142888544Y-76678190D02*
X142698068Y-76678190D01*
X142698068Y-76678190D02*
X142602830Y-76725809D01*
X142602830Y-76725809D02*
X142555211Y-76773428D01*
X142555211Y-76773428D02*
X142507592Y-76868666D01*
X142507592Y-76868666D02*
X142507592Y-77059142D01*
X142507592Y-77059142D02*
X142555211Y-77154380D01*
X142555211Y-77154380D02*
X142602830Y-77202000D01*
X142602830Y-77202000D02*
X142698068Y-77249619D01*
X142698068Y-77249619D02*
X142888544Y-77249619D01*
X142888544Y-77249619D02*
X142983782Y-77202000D01*
X142983782Y-77202000D02*
X143031401Y-77154380D01*
X143031401Y-77154380D02*
X143079020Y-77059142D01*
X143079020Y-77059142D02*
X143079020Y-76868666D01*
X143079020Y-76868666D02*
X143031401Y-76773428D01*
X143031401Y-76773428D02*
X142983782Y-76725809D01*
X142983782Y-76725809D02*
X142888544Y-76678190D01*
X123244780Y-98788457D02*
X123292400Y-98836076D01*
X123292400Y-98836076D02*
X123340019Y-98978933D01*
X123340019Y-98978933D02*
X123340019Y-99074171D01*
X123340019Y-99074171D02*
X123292400Y-99217028D01*
X123292400Y-99217028D02*
X123197161Y-99312266D01*
X123197161Y-99312266D02*
X123101923Y-99359885D01*
X123101923Y-99359885D02*
X122911447Y-99407504D01*
X122911447Y-99407504D02*
X122768590Y-99407504D01*
X122768590Y-99407504D02*
X122578114Y-99359885D01*
X122578114Y-99359885D02*
X122482876Y-99312266D01*
X122482876Y-99312266D02*
X122387638Y-99217028D01*
X122387638Y-99217028D02*
X122340019Y-99074171D01*
X122340019Y-99074171D02*
X122340019Y-98978933D01*
X122340019Y-98978933D02*
X122387638Y-98836076D01*
X122387638Y-98836076D02*
X122435257Y-98788457D01*
X122435257Y-98407504D02*
X122387638Y-98359885D01*
X122387638Y-98359885D02*
X122340019Y-98264647D01*
X122340019Y-98264647D02*
X122340019Y-98026552D01*
X122340019Y-98026552D02*
X122387638Y-97931314D01*
X122387638Y-97931314D02*
X122435257Y-97883695D01*
X122435257Y-97883695D02*
X122530495Y-97836076D01*
X122530495Y-97836076D02*
X122625733Y-97836076D01*
X122625733Y-97836076D02*
X122768590Y-97883695D01*
X122768590Y-97883695D02*
X123340019Y-98455123D01*
X123340019Y-98455123D02*
X123340019Y-97836076D01*
X122340019Y-97502742D02*
X122340019Y-96883695D01*
X122340019Y-96883695D02*
X122720971Y-97217028D01*
X122720971Y-97217028D02*
X122720971Y-97074171D01*
X122720971Y-97074171D02*
X122768590Y-96978933D01*
X122768590Y-96978933D02*
X122816209Y-96931314D01*
X122816209Y-96931314D02*
X122911447Y-96883695D01*
X122911447Y-96883695D02*
X123149542Y-96883695D01*
X123149542Y-96883695D02*
X123244780Y-96931314D01*
X123244780Y-96931314D02*
X123292400Y-96978933D01*
X123292400Y-96978933D02*
X123340019Y-97074171D01*
X123340019Y-97074171D02*
X123340019Y-97359885D01*
X123340019Y-97359885D02*
X123292400Y-97455123D01*
X123292400Y-97455123D02*
X123244780Y-97502742D01*
X128121580Y-78906666D02*
X128169200Y-78954285D01*
X128169200Y-78954285D02*
X128216819Y-79097142D01*
X128216819Y-79097142D02*
X128216819Y-79192380D01*
X128216819Y-79192380D02*
X128169200Y-79335237D01*
X128169200Y-79335237D02*
X128073961Y-79430475D01*
X128073961Y-79430475D02*
X127978723Y-79478094D01*
X127978723Y-79478094D02*
X127788247Y-79525713D01*
X127788247Y-79525713D02*
X127645390Y-79525713D01*
X127645390Y-79525713D02*
X127454914Y-79478094D01*
X127454914Y-79478094D02*
X127359676Y-79430475D01*
X127359676Y-79430475D02*
X127264438Y-79335237D01*
X127264438Y-79335237D02*
X127216819Y-79192380D01*
X127216819Y-79192380D02*
X127216819Y-79097142D01*
X127216819Y-79097142D02*
X127264438Y-78954285D01*
X127264438Y-78954285D02*
X127312057Y-78906666D01*
X128216819Y-77954285D02*
X128216819Y-78525713D01*
X128216819Y-78239999D02*
X127216819Y-78239999D01*
X127216819Y-78239999D02*
X127359676Y-78335237D01*
X127359676Y-78335237D02*
X127454914Y-78430475D01*
X127454914Y-78430475D02*
X127502533Y-78525713D01*
X140821580Y-76080857D02*
X140869200Y-76128476D01*
X140869200Y-76128476D02*
X140916819Y-76271333D01*
X140916819Y-76271333D02*
X140916819Y-76366571D01*
X140916819Y-76366571D02*
X140869200Y-76509428D01*
X140869200Y-76509428D02*
X140773961Y-76604666D01*
X140773961Y-76604666D02*
X140678723Y-76652285D01*
X140678723Y-76652285D02*
X140488247Y-76699904D01*
X140488247Y-76699904D02*
X140345390Y-76699904D01*
X140345390Y-76699904D02*
X140154914Y-76652285D01*
X140154914Y-76652285D02*
X140059676Y-76604666D01*
X140059676Y-76604666D02*
X139964438Y-76509428D01*
X139964438Y-76509428D02*
X139916819Y-76366571D01*
X139916819Y-76366571D02*
X139916819Y-76271333D01*
X139916819Y-76271333D02*
X139964438Y-76128476D01*
X139964438Y-76128476D02*
X140012057Y-76080857D01*
X140916819Y-75128476D02*
X140916819Y-75699904D01*
X140916819Y-75414190D02*
X139916819Y-75414190D01*
X139916819Y-75414190D02*
X140059676Y-75509428D01*
X140059676Y-75509428D02*
X140154914Y-75604666D01*
X140154914Y-75604666D02*
X140202533Y-75699904D01*
X139916819Y-74509428D02*
X139916819Y-74414190D01*
X139916819Y-74414190D02*
X139964438Y-74318952D01*
X139964438Y-74318952D02*
X140012057Y-74271333D01*
X140012057Y-74271333D02*
X140107295Y-74223714D01*
X140107295Y-74223714D02*
X140297771Y-74176095D01*
X140297771Y-74176095D02*
X140535866Y-74176095D01*
X140535866Y-74176095D02*
X140726342Y-74223714D01*
X140726342Y-74223714D02*
X140821580Y-74271333D01*
X140821580Y-74271333D02*
X140869200Y-74318952D01*
X140869200Y-74318952D02*
X140916819Y-74414190D01*
X140916819Y-74414190D02*
X140916819Y-74509428D01*
X140916819Y-74509428D02*
X140869200Y-74604666D01*
X140869200Y-74604666D02*
X140821580Y-74652285D01*
X140821580Y-74652285D02*
X140726342Y-74699904D01*
X140726342Y-74699904D02*
X140535866Y-74747523D01*
X140535866Y-74747523D02*
X140297771Y-74747523D01*
X140297771Y-74747523D02*
X140107295Y-74699904D01*
X140107295Y-74699904D02*
X140012057Y-74652285D01*
X140012057Y-74652285D02*
X139964438Y-74604666D01*
X139964438Y-74604666D02*
X139916819Y-74509428D01*
X143218869Y-67470866D02*
X143218869Y-66866104D01*
X143581726Y-67591818D02*
X142311726Y-67168485D01*
X142311726Y-67168485D02*
X143581726Y-66745151D01*
X142916488Y-66321819D02*
X142916488Y-65898485D01*
X143581726Y-65717057D02*
X143581726Y-66321819D01*
X143581726Y-66321819D02*
X142311726Y-66321819D01*
X142311726Y-66321819D02*
X142311726Y-65717057D01*
X143581726Y-64507532D02*
X143581726Y-65233247D01*
X143581726Y-64870390D02*
X142311726Y-64870390D01*
X142311726Y-64870390D02*
X142493154Y-64991342D01*
X142493154Y-64991342D02*
X142614107Y-65112294D01*
X142614107Y-65112294D02*
X142674583Y-65233247D01*
X150670419Y-94419657D02*
X150194228Y-94752990D01*
X150670419Y-94991085D02*
X149670419Y-94991085D01*
X149670419Y-94991085D02*
X149670419Y-94610133D01*
X149670419Y-94610133D02*
X149718038Y-94514895D01*
X149718038Y-94514895D02*
X149765657Y-94467276D01*
X149765657Y-94467276D02*
X149860895Y-94419657D01*
X149860895Y-94419657D02*
X150003752Y-94419657D01*
X150003752Y-94419657D02*
X150098990Y-94467276D01*
X150098990Y-94467276D02*
X150146609Y-94514895D01*
X150146609Y-94514895D02*
X150194228Y-94610133D01*
X150194228Y-94610133D02*
X150194228Y-94991085D01*
X150670419Y-93467276D02*
X150670419Y-94038704D01*
X150670419Y-93752990D02*
X149670419Y-93752990D01*
X149670419Y-93752990D02*
X149813276Y-93848228D01*
X149813276Y-93848228D02*
X149908514Y-93943466D01*
X149908514Y-93943466D02*
X149956133Y-94038704D01*
X149670419Y-92848228D02*
X149670419Y-92752990D01*
X149670419Y-92752990D02*
X149718038Y-92657752D01*
X149718038Y-92657752D02*
X149765657Y-92610133D01*
X149765657Y-92610133D02*
X149860895Y-92562514D01*
X149860895Y-92562514D02*
X150051371Y-92514895D01*
X150051371Y-92514895D02*
X150289466Y-92514895D01*
X150289466Y-92514895D02*
X150479942Y-92562514D01*
X150479942Y-92562514D02*
X150575180Y-92610133D01*
X150575180Y-92610133D02*
X150622800Y-92657752D01*
X150622800Y-92657752D02*
X150670419Y-92752990D01*
X150670419Y-92752990D02*
X150670419Y-92848228D01*
X150670419Y-92848228D02*
X150622800Y-92943466D01*
X150622800Y-92943466D02*
X150575180Y-92991085D01*
X150575180Y-92991085D02*
X150479942Y-93038704D01*
X150479942Y-93038704D02*
X150289466Y-93086323D01*
X150289466Y-93086323D02*
X150051371Y-93086323D01*
X150051371Y-93086323D02*
X149860895Y-93038704D01*
X149860895Y-93038704D02*
X149765657Y-92991085D01*
X149765657Y-92991085D02*
X149718038Y-92943466D01*
X149718038Y-92943466D02*
X149670419Y-92848228D01*
X142922666Y-104451619D02*
X142922666Y-105165904D01*
X142922666Y-105165904D02*
X142875047Y-105308761D01*
X142875047Y-105308761D02*
X142779809Y-105404000D01*
X142779809Y-105404000D02*
X142636952Y-105451619D01*
X142636952Y-105451619D02*
X142541714Y-105451619D01*
X143303619Y-104451619D02*
X143922666Y-104451619D01*
X143922666Y-104451619D02*
X143589333Y-104832571D01*
X143589333Y-104832571D02*
X143732190Y-104832571D01*
X143732190Y-104832571D02*
X143827428Y-104880190D01*
X143827428Y-104880190D02*
X143875047Y-104927809D01*
X143875047Y-104927809D02*
X143922666Y-105023047D01*
X143922666Y-105023047D02*
X143922666Y-105261142D01*
X143922666Y-105261142D02*
X143875047Y-105356380D01*
X143875047Y-105356380D02*
X143827428Y-105404000D01*
X143827428Y-105404000D02*
X143732190Y-105451619D01*
X143732190Y-105451619D02*
X143446476Y-105451619D01*
X143446476Y-105451619D02*
X143351238Y-105404000D01*
X143351238Y-105404000D02*
X143303619Y-105356380D01*
X126292780Y-83650057D02*
X126340400Y-83697676D01*
X126340400Y-83697676D02*
X126388019Y-83840533D01*
X126388019Y-83840533D02*
X126388019Y-83935771D01*
X126388019Y-83935771D02*
X126340400Y-84078628D01*
X126340400Y-84078628D02*
X126245161Y-84173866D01*
X126245161Y-84173866D02*
X126149923Y-84221485D01*
X126149923Y-84221485D02*
X125959447Y-84269104D01*
X125959447Y-84269104D02*
X125816590Y-84269104D01*
X125816590Y-84269104D02*
X125626114Y-84221485D01*
X125626114Y-84221485D02*
X125530876Y-84173866D01*
X125530876Y-84173866D02*
X125435638Y-84078628D01*
X125435638Y-84078628D02*
X125388019Y-83935771D01*
X125388019Y-83935771D02*
X125388019Y-83840533D01*
X125388019Y-83840533D02*
X125435638Y-83697676D01*
X125435638Y-83697676D02*
X125483257Y-83650057D01*
X126388019Y-82697676D02*
X126388019Y-83269104D01*
X126388019Y-82983390D02*
X125388019Y-82983390D01*
X125388019Y-82983390D02*
X125530876Y-83078628D01*
X125530876Y-83078628D02*
X125626114Y-83173866D01*
X125626114Y-83173866D02*
X125673733Y-83269104D01*
X125483257Y-82316723D02*
X125435638Y-82269104D01*
X125435638Y-82269104D02*
X125388019Y-82173866D01*
X125388019Y-82173866D02*
X125388019Y-81935771D01*
X125388019Y-81935771D02*
X125435638Y-81840533D01*
X125435638Y-81840533D02*
X125483257Y-81792914D01*
X125483257Y-81792914D02*
X125578495Y-81745295D01*
X125578495Y-81745295D02*
X125673733Y-81745295D01*
X125673733Y-81745295D02*
X125816590Y-81792914D01*
X125816590Y-81792914D02*
X126388019Y-82364342D01*
X126388019Y-82364342D02*
X126388019Y-81745295D01*
X131264819Y-103392266D02*
X130788628Y-103725599D01*
X131264819Y-103963694D02*
X130264819Y-103963694D01*
X130264819Y-103963694D02*
X130264819Y-103582742D01*
X130264819Y-103582742D02*
X130312438Y-103487504D01*
X130312438Y-103487504D02*
X130360057Y-103439885D01*
X130360057Y-103439885D02*
X130455295Y-103392266D01*
X130455295Y-103392266D02*
X130598152Y-103392266D01*
X130598152Y-103392266D02*
X130693390Y-103439885D01*
X130693390Y-103439885D02*
X130741009Y-103487504D01*
X130741009Y-103487504D02*
X130788628Y-103582742D01*
X130788628Y-103582742D02*
X130788628Y-103963694D01*
X130264819Y-103058932D02*
X130264819Y-102439885D01*
X130264819Y-102439885D02*
X130645771Y-102773218D01*
X130645771Y-102773218D02*
X130645771Y-102630361D01*
X130645771Y-102630361D02*
X130693390Y-102535123D01*
X130693390Y-102535123D02*
X130741009Y-102487504D01*
X130741009Y-102487504D02*
X130836247Y-102439885D01*
X130836247Y-102439885D02*
X131074342Y-102439885D01*
X131074342Y-102439885D02*
X131169580Y-102487504D01*
X131169580Y-102487504D02*
X131217200Y-102535123D01*
X131217200Y-102535123D02*
X131264819Y-102630361D01*
X131264819Y-102630361D02*
X131264819Y-102916075D01*
X131264819Y-102916075D02*
X131217200Y-103011313D01*
X131217200Y-103011313D02*
X131169580Y-103058932D01*
X120546019Y-98788457D02*
X120069828Y-99121790D01*
X120546019Y-99359885D02*
X119546019Y-99359885D01*
X119546019Y-99359885D02*
X119546019Y-98978933D01*
X119546019Y-98978933D02*
X119593638Y-98883695D01*
X119593638Y-98883695D02*
X119641257Y-98836076D01*
X119641257Y-98836076D02*
X119736495Y-98788457D01*
X119736495Y-98788457D02*
X119879352Y-98788457D01*
X119879352Y-98788457D02*
X119974590Y-98836076D01*
X119974590Y-98836076D02*
X120022209Y-98883695D01*
X120022209Y-98883695D02*
X120069828Y-98978933D01*
X120069828Y-98978933D02*
X120069828Y-99359885D01*
X120546019Y-97836076D02*
X120546019Y-98407504D01*
X120546019Y-98121790D02*
X119546019Y-98121790D01*
X119546019Y-98121790D02*
X119688876Y-98217028D01*
X119688876Y-98217028D02*
X119784114Y-98312266D01*
X119784114Y-98312266D02*
X119831733Y-98407504D01*
X119546019Y-96931314D02*
X119546019Y-97407504D01*
X119546019Y-97407504D02*
X120022209Y-97455123D01*
X120022209Y-97455123D02*
X119974590Y-97407504D01*
X119974590Y-97407504D02*
X119926971Y-97312266D01*
X119926971Y-97312266D02*
X119926971Y-97074171D01*
X119926971Y-97074171D02*
X119974590Y-96978933D01*
X119974590Y-96978933D02*
X120022209Y-96931314D01*
X120022209Y-96931314D02*
X120117447Y-96883695D01*
X120117447Y-96883695D02*
X120355542Y-96883695D01*
X120355542Y-96883695D02*
X120450780Y-96931314D01*
X120450780Y-96931314D02*
X120498400Y-96978933D01*
X120498400Y-96978933D02*
X120546019Y-97074171D01*
X120546019Y-97074171D02*
X120546019Y-97312266D01*
X120546019Y-97312266D02*
X120498400Y-97407504D01*
X120498400Y-97407504D02*
X120450780Y-97455123D01*
X133099980Y-107475257D02*
X133147600Y-107522876D01*
X133147600Y-107522876D02*
X133195219Y-107665733D01*
X133195219Y-107665733D02*
X133195219Y-107760971D01*
X133195219Y-107760971D02*
X133147600Y-107903828D01*
X133147600Y-107903828D02*
X133052361Y-107999066D01*
X133052361Y-107999066D02*
X132957123Y-108046685D01*
X132957123Y-108046685D02*
X132766647Y-108094304D01*
X132766647Y-108094304D02*
X132623790Y-108094304D01*
X132623790Y-108094304D02*
X132433314Y-108046685D01*
X132433314Y-108046685D02*
X132338076Y-107999066D01*
X132338076Y-107999066D02*
X132242838Y-107903828D01*
X132242838Y-107903828D02*
X132195219Y-107760971D01*
X132195219Y-107760971D02*
X132195219Y-107665733D01*
X132195219Y-107665733D02*
X132242838Y-107522876D01*
X132242838Y-107522876D02*
X132290457Y-107475257D01*
X133195219Y-106522876D02*
X133195219Y-107094304D01*
X133195219Y-106808590D02*
X132195219Y-106808590D01*
X132195219Y-106808590D02*
X132338076Y-106903828D01*
X132338076Y-106903828D02*
X132433314Y-106999066D01*
X132433314Y-106999066D02*
X132480933Y-107094304D01*
X132195219Y-106189542D02*
X132195219Y-105522876D01*
X132195219Y-105522876D02*
X133195219Y-105951447D01*
X110238095Y-86654819D02*
X110238095Y-85654819D01*
X110238095Y-86131009D02*
X110809523Y-86131009D01*
X110809523Y-86654819D02*
X110809523Y-85654819D01*
X111238095Y-85750057D02*
X111285714Y-85702438D01*
X111285714Y-85702438D02*
X111380952Y-85654819D01*
X111380952Y-85654819D02*
X111619047Y-85654819D01*
X111619047Y-85654819D02*
X111714285Y-85702438D01*
X111714285Y-85702438D02*
X111761904Y-85750057D01*
X111761904Y-85750057D02*
X111809523Y-85845295D01*
X111809523Y-85845295D02*
X111809523Y-85940533D01*
X111809523Y-85940533D02*
X111761904Y-86083390D01*
X111761904Y-86083390D02*
X111190476Y-86654819D01*
X111190476Y-86654819D02*
X111809523Y-86654819D01*
X138154580Y-71286666D02*
X138202200Y-71334285D01*
X138202200Y-71334285D02*
X138249819Y-71477142D01*
X138249819Y-71477142D02*
X138249819Y-71572380D01*
X138249819Y-71572380D02*
X138202200Y-71715237D01*
X138202200Y-71715237D02*
X138106961Y-71810475D01*
X138106961Y-71810475D02*
X138011723Y-71858094D01*
X138011723Y-71858094D02*
X137821247Y-71905713D01*
X137821247Y-71905713D02*
X137678390Y-71905713D01*
X137678390Y-71905713D02*
X137487914Y-71858094D01*
X137487914Y-71858094D02*
X137392676Y-71810475D01*
X137392676Y-71810475D02*
X137297438Y-71715237D01*
X137297438Y-71715237D02*
X137249819Y-71572380D01*
X137249819Y-71572380D02*
X137249819Y-71477142D01*
X137249819Y-71477142D02*
X137297438Y-71334285D01*
X137297438Y-71334285D02*
X137345057Y-71286666D01*
X138249819Y-70810475D02*
X138249819Y-70619999D01*
X138249819Y-70619999D02*
X138202200Y-70524761D01*
X138202200Y-70524761D02*
X138154580Y-70477142D01*
X138154580Y-70477142D02*
X138011723Y-70381904D01*
X138011723Y-70381904D02*
X137821247Y-70334285D01*
X137821247Y-70334285D02*
X137440295Y-70334285D01*
X137440295Y-70334285D02*
X137345057Y-70381904D01*
X137345057Y-70381904D02*
X137297438Y-70429523D01*
X137297438Y-70429523D02*
X137249819Y-70524761D01*
X137249819Y-70524761D02*
X137249819Y-70715237D01*
X137249819Y-70715237D02*
X137297438Y-70810475D01*
X137297438Y-70810475D02*
X137345057Y-70858094D01*
X137345057Y-70858094D02*
X137440295Y-70905713D01*
X137440295Y-70905713D02*
X137678390Y-70905713D01*
X137678390Y-70905713D02*
X137773628Y-70858094D01*
X137773628Y-70858094D02*
X137821247Y-70810475D01*
X137821247Y-70810475D02*
X137868866Y-70715237D01*
X137868866Y-70715237D02*
X137868866Y-70524761D01*
X137868866Y-70524761D02*
X137821247Y-70429523D01*
X137821247Y-70429523D02*
X137773628Y-70381904D01*
X137773628Y-70381904D02*
X137678390Y-70334285D01*
X128422495Y-111113219D02*
X128422495Y-111922742D01*
X128422495Y-111922742D02*
X128470114Y-112017980D01*
X128470114Y-112017980D02*
X128517733Y-112065600D01*
X128517733Y-112065600D02*
X128612971Y-112113219D01*
X128612971Y-112113219D02*
X128803447Y-112113219D01*
X128803447Y-112113219D02*
X128898685Y-112065600D01*
X128898685Y-112065600D02*
X128946304Y-112017980D01*
X128946304Y-112017980D02*
X128993923Y-111922742D01*
X128993923Y-111922742D02*
X128993923Y-111113219D01*
X129422495Y-111208457D02*
X129470114Y-111160838D01*
X129470114Y-111160838D02*
X129565352Y-111113219D01*
X129565352Y-111113219D02*
X129803447Y-111113219D01*
X129803447Y-111113219D02*
X129898685Y-111160838D01*
X129898685Y-111160838D02*
X129946304Y-111208457D01*
X129946304Y-111208457D02*
X129993923Y-111303695D01*
X129993923Y-111303695D02*
X129993923Y-111398933D01*
X129993923Y-111398933D02*
X129946304Y-111541790D01*
X129946304Y-111541790D02*
X129374876Y-112113219D01*
X129374876Y-112113219D02*
X129993923Y-112113219D01*
X134733466Y-111172619D02*
X134733466Y-111886904D01*
X134733466Y-111886904D02*
X134685847Y-112029761D01*
X134685847Y-112029761D02*
X134590609Y-112125000D01*
X134590609Y-112125000D02*
X134447752Y-112172619D01*
X134447752Y-112172619D02*
X134352514Y-112172619D01*
X135638228Y-111172619D02*
X135447752Y-111172619D01*
X135447752Y-111172619D02*
X135352514Y-111220238D01*
X135352514Y-111220238D02*
X135304895Y-111267857D01*
X135304895Y-111267857D02*
X135209657Y-111410714D01*
X135209657Y-111410714D02*
X135162038Y-111601190D01*
X135162038Y-111601190D02*
X135162038Y-111982142D01*
X135162038Y-111982142D02*
X135209657Y-112077380D01*
X135209657Y-112077380D02*
X135257276Y-112125000D01*
X135257276Y-112125000D02*
X135352514Y-112172619D01*
X135352514Y-112172619D02*
X135542990Y-112172619D01*
X135542990Y-112172619D02*
X135638228Y-112125000D01*
X135638228Y-112125000D02*
X135685847Y-112077380D01*
X135685847Y-112077380D02*
X135733466Y-111982142D01*
X135733466Y-111982142D02*
X135733466Y-111744047D01*
X135733466Y-111744047D02*
X135685847Y-111648809D01*
X135685847Y-111648809D02*
X135638228Y-111601190D01*
X135638228Y-111601190D02*
X135542990Y-111553571D01*
X135542990Y-111553571D02*
X135352514Y-111553571D01*
X135352514Y-111553571D02*
X135257276Y-111601190D01*
X135257276Y-111601190D02*
X135209657Y-111648809D01*
X135209657Y-111648809D02*
X135162038Y-111744047D01*
X129881333Y-88700780D02*
X129833714Y-88748400D01*
X129833714Y-88748400D02*
X129690857Y-88796019D01*
X129690857Y-88796019D02*
X129595619Y-88796019D01*
X129595619Y-88796019D02*
X129452762Y-88748400D01*
X129452762Y-88748400D02*
X129357524Y-88653161D01*
X129357524Y-88653161D02*
X129309905Y-88557923D01*
X129309905Y-88557923D02*
X129262286Y-88367447D01*
X129262286Y-88367447D02*
X129262286Y-88224590D01*
X129262286Y-88224590D02*
X129309905Y-88034114D01*
X129309905Y-88034114D02*
X129357524Y-87938876D01*
X129357524Y-87938876D02*
X129452762Y-87843638D01*
X129452762Y-87843638D02*
X129595619Y-87796019D01*
X129595619Y-87796019D02*
X129690857Y-87796019D01*
X129690857Y-87796019D02*
X129833714Y-87843638D01*
X129833714Y-87843638D02*
X129881333Y-87891257D01*
X130738476Y-88129352D02*
X130738476Y-88796019D01*
X130500381Y-87748400D02*
X130262286Y-88462685D01*
X130262286Y-88462685D02*
X130881333Y-88462685D01*
X158238095Y-86654819D02*
X158238095Y-85654819D01*
X158238095Y-86131009D02*
X158809523Y-86131009D01*
X158809523Y-86654819D02*
X158809523Y-85654819D01*
X159809523Y-86654819D02*
X159238095Y-86654819D01*
X159523809Y-86654819D02*
X159523809Y-85654819D01*
X159523809Y-85654819D02*
X159428571Y-85797676D01*
X159428571Y-85797676D02*
X159333333Y-85892914D01*
X159333333Y-85892914D02*
X159238095Y-85940533D01*
X147286742Y-78845580D02*
X147239123Y-78893200D01*
X147239123Y-78893200D02*
X147096266Y-78940819D01*
X147096266Y-78940819D02*
X147001028Y-78940819D01*
X147001028Y-78940819D02*
X146858171Y-78893200D01*
X146858171Y-78893200D02*
X146762933Y-78797961D01*
X146762933Y-78797961D02*
X146715314Y-78702723D01*
X146715314Y-78702723D02*
X146667695Y-78512247D01*
X146667695Y-78512247D02*
X146667695Y-78369390D01*
X146667695Y-78369390D02*
X146715314Y-78178914D01*
X146715314Y-78178914D02*
X146762933Y-78083676D01*
X146762933Y-78083676D02*
X146858171Y-77988438D01*
X146858171Y-77988438D02*
X147001028Y-77940819D01*
X147001028Y-77940819D02*
X147096266Y-77940819D01*
X147096266Y-77940819D02*
X147239123Y-77988438D01*
X147239123Y-77988438D02*
X147286742Y-78036057D01*
X147667695Y-78036057D02*
X147715314Y-77988438D01*
X147715314Y-77988438D02*
X147810552Y-77940819D01*
X147810552Y-77940819D02*
X148048647Y-77940819D01*
X148048647Y-77940819D02*
X148143885Y-77988438D01*
X148143885Y-77988438D02*
X148191504Y-78036057D01*
X148191504Y-78036057D02*
X148239123Y-78131295D01*
X148239123Y-78131295D02*
X148239123Y-78226533D01*
X148239123Y-78226533D02*
X148191504Y-78369390D01*
X148191504Y-78369390D02*
X147620076Y-78940819D01*
X147620076Y-78940819D02*
X148239123Y-78940819D01*
X148620076Y-78036057D02*
X148667695Y-77988438D01*
X148667695Y-77988438D02*
X148762933Y-77940819D01*
X148762933Y-77940819D02*
X149001028Y-77940819D01*
X149001028Y-77940819D02*
X149096266Y-77988438D01*
X149096266Y-77988438D02*
X149143885Y-78036057D01*
X149143885Y-78036057D02*
X149191504Y-78131295D01*
X149191504Y-78131295D02*
X149191504Y-78226533D01*
X149191504Y-78226533D02*
X149143885Y-78369390D01*
X149143885Y-78369390D02*
X148572457Y-78940819D01*
X148572457Y-78940819D02*
X149191504Y-78940819D01*
X127068342Y-81698780D02*
X127020723Y-81746400D01*
X127020723Y-81746400D02*
X126877866Y-81794019D01*
X126877866Y-81794019D02*
X126782628Y-81794019D01*
X126782628Y-81794019D02*
X126639771Y-81746400D01*
X126639771Y-81746400D02*
X126544533Y-81651161D01*
X126544533Y-81651161D02*
X126496914Y-81555923D01*
X126496914Y-81555923D02*
X126449295Y-81365447D01*
X126449295Y-81365447D02*
X126449295Y-81222590D01*
X126449295Y-81222590D02*
X126496914Y-81032114D01*
X126496914Y-81032114D02*
X126544533Y-80936876D01*
X126544533Y-80936876D02*
X126639771Y-80841638D01*
X126639771Y-80841638D02*
X126782628Y-80794019D01*
X126782628Y-80794019D02*
X126877866Y-80794019D01*
X126877866Y-80794019D02*
X127020723Y-80841638D01*
X127020723Y-80841638D02*
X127068342Y-80889257D01*
X128020723Y-81794019D02*
X127449295Y-81794019D01*
X127735009Y-81794019D02*
X127735009Y-80794019D01*
X127735009Y-80794019D02*
X127639771Y-80936876D01*
X127639771Y-80936876D02*
X127544533Y-81032114D01*
X127544533Y-81032114D02*
X127449295Y-81079733D01*
X128973104Y-81794019D02*
X128401676Y-81794019D01*
X128687390Y-81794019D02*
X128687390Y-80794019D01*
X128687390Y-80794019D02*
X128592152Y-80936876D01*
X128592152Y-80936876D02*
X128496914Y-81032114D01*
X128496914Y-81032114D02*
X128401676Y-81079733D01*
X126113433Y-87083580D02*
X126065814Y-87131200D01*
X126065814Y-87131200D02*
X125922957Y-87178819D01*
X125922957Y-87178819D02*
X125827719Y-87178819D01*
X125827719Y-87178819D02*
X125684862Y-87131200D01*
X125684862Y-87131200D02*
X125589624Y-87035961D01*
X125589624Y-87035961D02*
X125542005Y-86940723D01*
X125542005Y-86940723D02*
X125494386Y-86750247D01*
X125494386Y-86750247D02*
X125494386Y-86607390D01*
X125494386Y-86607390D02*
X125542005Y-86416914D01*
X125542005Y-86416914D02*
X125589624Y-86321676D01*
X125589624Y-86321676D02*
X125684862Y-86226438D01*
X125684862Y-86226438D02*
X125827719Y-86178819D01*
X125827719Y-86178819D02*
X125922957Y-86178819D01*
X125922957Y-86178819D02*
X126065814Y-86226438D01*
X126065814Y-86226438D02*
X126113433Y-86274057D01*
X127018195Y-86178819D02*
X126542005Y-86178819D01*
X126542005Y-86178819D02*
X126494386Y-86655009D01*
X126494386Y-86655009D02*
X126542005Y-86607390D01*
X126542005Y-86607390D02*
X126637243Y-86559771D01*
X126637243Y-86559771D02*
X126875338Y-86559771D01*
X126875338Y-86559771D02*
X126970576Y-86607390D01*
X126970576Y-86607390D02*
X127018195Y-86655009D01*
X127018195Y-86655009D02*
X127065814Y-86750247D01*
X127065814Y-86750247D02*
X127065814Y-86988342D01*
X127065814Y-86988342D02*
X127018195Y-87083580D01*
X127018195Y-87083580D02*
X126970576Y-87131200D01*
X126970576Y-87131200D02*
X126875338Y-87178819D01*
X126875338Y-87178819D02*
X126637243Y-87178819D01*
X126637243Y-87178819D02*
X126542005Y-87131200D01*
X126542005Y-87131200D02*
X126494386Y-87083580D01*
X132128419Y-72880457D02*
X131652228Y-73213790D01*
X132128419Y-73451885D02*
X131128419Y-73451885D01*
X131128419Y-73451885D02*
X131128419Y-73070933D01*
X131128419Y-73070933D02*
X131176038Y-72975695D01*
X131176038Y-72975695D02*
X131223657Y-72928076D01*
X131223657Y-72928076D02*
X131318895Y-72880457D01*
X131318895Y-72880457D02*
X131461752Y-72880457D01*
X131461752Y-72880457D02*
X131556990Y-72928076D01*
X131556990Y-72928076D02*
X131604609Y-72975695D01*
X131604609Y-72975695D02*
X131652228Y-73070933D01*
X131652228Y-73070933D02*
X131652228Y-73451885D01*
X132128419Y-71928076D02*
X132128419Y-72499504D01*
X132128419Y-72213790D02*
X131128419Y-72213790D01*
X131128419Y-72213790D02*
X131271276Y-72309028D01*
X131271276Y-72309028D02*
X131366514Y-72404266D01*
X131366514Y-72404266D02*
X131414133Y-72499504D01*
X131223657Y-71547123D02*
X131176038Y-71499504D01*
X131176038Y-71499504D02*
X131128419Y-71404266D01*
X131128419Y-71404266D02*
X131128419Y-71166171D01*
X131128419Y-71166171D02*
X131176038Y-71070933D01*
X131176038Y-71070933D02*
X131223657Y-71023314D01*
X131223657Y-71023314D02*
X131318895Y-70975695D01*
X131318895Y-70975695D02*
X131414133Y-70975695D01*
X131414133Y-70975695D02*
X131556990Y-71023314D01*
X131556990Y-71023314D02*
X132128419Y-71594742D01*
X132128419Y-71594742D02*
X132128419Y-70975695D01*
X117571619Y-73840933D02*
X118285904Y-73840933D01*
X118285904Y-73840933D02*
X118428761Y-73888552D01*
X118428761Y-73888552D02*
X118524000Y-73983790D01*
X118524000Y-73983790D02*
X118571619Y-74126647D01*
X118571619Y-74126647D02*
X118571619Y-74221885D01*
X117666857Y-73412361D02*
X117619238Y-73364742D01*
X117619238Y-73364742D02*
X117571619Y-73269504D01*
X117571619Y-73269504D02*
X117571619Y-73031409D01*
X117571619Y-73031409D02*
X117619238Y-72936171D01*
X117619238Y-72936171D02*
X117666857Y-72888552D01*
X117666857Y-72888552D02*
X117762095Y-72840933D01*
X117762095Y-72840933D02*
X117857333Y-72840933D01*
X117857333Y-72840933D02*
X118000190Y-72888552D01*
X118000190Y-72888552D02*
X118571619Y-73459980D01*
X118571619Y-73459980D02*
X118571619Y-72840933D01*
X117625905Y-109618819D02*
X117625905Y-108618819D01*
X117625905Y-108618819D02*
X117864000Y-108618819D01*
X117864000Y-108618819D02*
X118006857Y-108666438D01*
X118006857Y-108666438D02*
X118102095Y-108761676D01*
X118102095Y-108761676D02*
X118149714Y-108856914D01*
X118149714Y-108856914D02*
X118197333Y-109047390D01*
X118197333Y-109047390D02*
X118197333Y-109190247D01*
X118197333Y-109190247D02*
X118149714Y-109380723D01*
X118149714Y-109380723D02*
X118102095Y-109475961D01*
X118102095Y-109475961D02*
X118006857Y-109571200D01*
X118006857Y-109571200D02*
X117864000Y-109618819D01*
X117864000Y-109618819D02*
X117625905Y-109618819D01*
X118578286Y-108714057D02*
X118625905Y-108666438D01*
X118625905Y-108666438D02*
X118721143Y-108618819D01*
X118721143Y-108618819D02*
X118959238Y-108618819D01*
X118959238Y-108618819D02*
X119054476Y-108666438D01*
X119054476Y-108666438D02*
X119102095Y-108714057D01*
X119102095Y-108714057D02*
X119149714Y-108809295D01*
X119149714Y-108809295D02*
X119149714Y-108904533D01*
X119149714Y-108904533D02*
X119102095Y-109047390D01*
X119102095Y-109047390D02*
X118530667Y-109618819D01*
X118530667Y-109618819D02*
X119149714Y-109618819D01*
X129373333Y-73917980D02*
X129325714Y-73965600D01*
X129325714Y-73965600D02*
X129182857Y-74013219D01*
X129182857Y-74013219D02*
X129087619Y-74013219D01*
X129087619Y-74013219D02*
X128944762Y-73965600D01*
X128944762Y-73965600D02*
X128849524Y-73870361D01*
X128849524Y-73870361D02*
X128801905Y-73775123D01*
X128801905Y-73775123D02*
X128754286Y-73584647D01*
X128754286Y-73584647D02*
X128754286Y-73441790D01*
X128754286Y-73441790D02*
X128801905Y-73251314D01*
X128801905Y-73251314D02*
X128849524Y-73156076D01*
X128849524Y-73156076D02*
X128944762Y-73060838D01*
X128944762Y-73060838D02*
X129087619Y-73013219D01*
X129087619Y-73013219D02*
X129182857Y-73013219D01*
X129182857Y-73013219D02*
X129325714Y-73060838D01*
X129325714Y-73060838D02*
X129373333Y-73108457D01*
X129706667Y-73013219D02*
X130325714Y-73013219D01*
X130325714Y-73013219D02*
X129992381Y-73394171D01*
X129992381Y-73394171D02*
X130135238Y-73394171D01*
X130135238Y-73394171D02*
X130230476Y-73441790D01*
X130230476Y-73441790D02*
X130278095Y-73489409D01*
X130278095Y-73489409D02*
X130325714Y-73584647D01*
X130325714Y-73584647D02*
X130325714Y-73822742D01*
X130325714Y-73822742D02*
X130278095Y-73917980D01*
X130278095Y-73917980D02*
X130230476Y-73965600D01*
X130230476Y-73965600D02*
X130135238Y-74013219D01*
X130135238Y-74013219D02*
X129849524Y-74013219D01*
X129849524Y-74013219D02*
X129754286Y-73965600D01*
X129754286Y-73965600D02*
X129706667Y-73917980D01*
X129373333Y-72393980D02*
X129325714Y-72441600D01*
X129325714Y-72441600D02*
X129182857Y-72489219D01*
X129182857Y-72489219D02*
X129087619Y-72489219D01*
X129087619Y-72489219D02*
X128944762Y-72441600D01*
X128944762Y-72441600D02*
X128849524Y-72346361D01*
X128849524Y-72346361D02*
X128801905Y-72251123D01*
X128801905Y-72251123D02*
X128754286Y-72060647D01*
X128754286Y-72060647D02*
X128754286Y-71917790D01*
X128754286Y-71917790D02*
X128801905Y-71727314D01*
X128801905Y-71727314D02*
X128849524Y-71632076D01*
X128849524Y-71632076D02*
X128944762Y-71536838D01*
X128944762Y-71536838D02*
X129087619Y-71489219D01*
X129087619Y-71489219D02*
X129182857Y-71489219D01*
X129182857Y-71489219D02*
X129325714Y-71536838D01*
X129325714Y-71536838D02*
X129373333Y-71584457D01*
X129754286Y-71584457D02*
X129801905Y-71536838D01*
X129801905Y-71536838D02*
X129897143Y-71489219D01*
X129897143Y-71489219D02*
X130135238Y-71489219D01*
X130135238Y-71489219D02*
X130230476Y-71536838D01*
X130230476Y-71536838D02*
X130278095Y-71584457D01*
X130278095Y-71584457D02*
X130325714Y-71679695D01*
X130325714Y-71679695D02*
X130325714Y-71774933D01*
X130325714Y-71774933D02*
X130278095Y-71917790D01*
X130278095Y-71917790D02*
X129706667Y-72489219D01*
X129706667Y-72489219D02*
X130325714Y-72489219D01*
X137427619Y-109372304D02*
X138237142Y-109372304D01*
X138237142Y-109372304D02*
X138332380Y-109324685D01*
X138332380Y-109324685D02*
X138380000Y-109277066D01*
X138380000Y-109277066D02*
X138427619Y-109181828D01*
X138427619Y-109181828D02*
X138427619Y-108991352D01*
X138427619Y-108991352D02*
X138380000Y-108896114D01*
X138380000Y-108896114D02*
X138332380Y-108848495D01*
X138332380Y-108848495D02*
X138237142Y-108800876D01*
X138237142Y-108800876D02*
X137427619Y-108800876D01*
X137427619Y-107896114D02*
X137427619Y-108086590D01*
X137427619Y-108086590D02*
X137475238Y-108181828D01*
X137475238Y-108181828D02*
X137522857Y-108229447D01*
X137522857Y-108229447D02*
X137665714Y-108324685D01*
X137665714Y-108324685D02*
X137856190Y-108372304D01*
X137856190Y-108372304D02*
X138237142Y-108372304D01*
X138237142Y-108372304D02*
X138332380Y-108324685D01*
X138332380Y-108324685D02*
X138380000Y-108277066D01*
X138380000Y-108277066D02*
X138427619Y-108181828D01*
X138427619Y-108181828D02*
X138427619Y-107991352D01*
X138427619Y-107991352D02*
X138380000Y-107896114D01*
X138380000Y-107896114D02*
X138332380Y-107848495D01*
X138332380Y-107848495D02*
X138237142Y-107800876D01*
X138237142Y-107800876D02*
X137999047Y-107800876D01*
X137999047Y-107800876D02*
X137903809Y-107848495D01*
X137903809Y-107848495D02*
X137856190Y-107896114D01*
X137856190Y-107896114D02*
X137808571Y-107991352D01*
X137808571Y-107991352D02*
X137808571Y-108181828D01*
X137808571Y-108181828D02*
X137856190Y-108277066D01*
X137856190Y-108277066D02*
X137903809Y-108324685D01*
X137903809Y-108324685D02*
X137999047Y-108372304D01*
X134217580Y-88050666D02*
X134265200Y-88098285D01*
X134265200Y-88098285D02*
X134312819Y-88241142D01*
X134312819Y-88241142D02*
X134312819Y-88336380D01*
X134312819Y-88336380D02*
X134265200Y-88479237D01*
X134265200Y-88479237D02*
X134169961Y-88574475D01*
X134169961Y-88574475D02*
X134074723Y-88622094D01*
X134074723Y-88622094D02*
X133884247Y-88669713D01*
X133884247Y-88669713D02*
X133741390Y-88669713D01*
X133741390Y-88669713D02*
X133550914Y-88622094D01*
X133550914Y-88622094D02*
X133455676Y-88574475D01*
X133455676Y-88574475D02*
X133360438Y-88479237D01*
X133360438Y-88479237D02*
X133312819Y-88336380D01*
X133312819Y-88336380D02*
X133312819Y-88241142D01*
X133312819Y-88241142D02*
X133360438Y-88098285D01*
X133360438Y-88098285D02*
X133408057Y-88050666D01*
X133312819Y-87193523D02*
X133312819Y-87383999D01*
X133312819Y-87383999D02*
X133360438Y-87479237D01*
X133360438Y-87479237D02*
X133408057Y-87526856D01*
X133408057Y-87526856D02*
X133550914Y-87622094D01*
X133550914Y-87622094D02*
X133741390Y-87669713D01*
X133741390Y-87669713D02*
X134122342Y-87669713D01*
X134122342Y-87669713D02*
X134217580Y-87622094D01*
X134217580Y-87622094D02*
X134265200Y-87574475D01*
X134265200Y-87574475D02*
X134312819Y-87479237D01*
X134312819Y-87479237D02*
X134312819Y-87288761D01*
X134312819Y-87288761D02*
X134265200Y-87193523D01*
X134265200Y-87193523D02*
X134217580Y-87145904D01*
X134217580Y-87145904D02*
X134122342Y-87098285D01*
X134122342Y-87098285D02*
X133884247Y-87098285D01*
X133884247Y-87098285D02*
X133789009Y-87145904D01*
X133789009Y-87145904D02*
X133741390Y-87193523D01*
X133741390Y-87193523D02*
X133693771Y-87288761D01*
X133693771Y-87288761D02*
X133693771Y-87479237D01*
X133693771Y-87479237D02*
X133741390Y-87574475D01*
X133741390Y-87574475D02*
X133789009Y-87622094D01*
X133789009Y-87622094D02*
X133884247Y-87669713D01*
D11*
X122560400Y-85867800D02*
X122560400Y-81367800D01*
X122560400Y-81367800D02*
X117160400Y-81367800D01*
X123657000Y-90211000D02*
X123657000Y-90386000D01*
X122982000Y-93431000D02*
X123657000Y-93431000D01*
X122982000Y-90211000D02*
X123657000Y-90211000D01*
X121112000Y-93431000D02*
X120437000Y-93431000D01*
X121112000Y-90211000D02*
X120437000Y-90211000D01*
X120437000Y-93431000D02*
X120437000Y-93256000D01*
X120437000Y-90211000D02*
X120437000Y-90386000D01*
X134393865Y-91181600D02*
X134625535Y-91181600D01*
X134393865Y-91901600D02*
X134625535Y-91901600D01*
X132286321Y-88264000D02*
X131951079Y-88264000D01*
X132286321Y-87504000D02*
X131951079Y-87504000D01*
X121153600Y-95374535D02*
X121153600Y-95142865D01*
X121873600Y-95374535D02*
X121873600Y-95142865D01*
X151942800Y-103301800D02*
X151307800Y-103301800D01*
X151942800Y-102666800D02*
X151942800Y-103301800D01*
X135640400Y-105336265D02*
X135640400Y-105567935D01*
X134920400Y-105336265D02*
X134920400Y-105567935D01*
X155068600Y-81287864D02*
X155068600Y-80833736D01*
X156538600Y-81287864D02*
X156538600Y-80833736D01*
X127149279Y-95936800D02*
X127484521Y-95936800D01*
X127149279Y-96696800D02*
X127484521Y-96696800D01*
X129564400Y-96770879D02*
X129564400Y-97106121D01*
X128804400Y-96770879D02*
X128804400Y-97106121D01*
X132805435Y-101401200D02*
X132573765Y-101401200D01*
X132805435Y-100681200D02*
X132573765Y-100681200D01*
X147574000Y-81197000D02*
X143974000Y-81197000D01*
X147574000Y-81197000D02*
X149774000Y-81197000D01*
X147574000Y-87967000D02*
X145374000Y-87967000D01*
X147574000Y-87967000D02*
X149774000Y-87967000D01*
X136272921Y-75360800D02*
X135937679Y-75360800D01*
X136272921Y-74600800D02*
X135937679Y-74600800D01*
X154151000Y-90333336D02*
X154151000Y-90787464D01*
X152681000Y-90333336D02*
X152681000Y-90787464D01*
X148613800Y-90333336D02*
X148613800Y-90787464D01*
X147143800Y-90333336D02*
X147143800Y-90787464D01*
X126487600Y-109750935D02*
X126487600Y-109519265D01*
X127207600Y-109750935D02*
X127207600Y-109519265D01*
X136656400Y-87759465D02*
X136656400Y-87991135D01*
X135936400Y-87759465D02*
X135936400Y-87991135D01*
X139485258Y-72987300D02*
X139485258Y-73187700D01*
X138765258Y-72987300D02*
X138765258Y-73187700D01*
X155632000Y-77581000D02*
X149532000Y-77581000D01*
X155632000Y-76481000D02*
X155632000Y-77581000D01*
X149532000Y-72181000D02*
X154532000Y-72181000D01*
X122539400Y-80533800D02*
X122539400Y-76033800D01*
X122539400Y-76033800D02*
X117139400Y-76033800D01*
X146125200Y-78330479D02*
X146125200Y-78665721D01*
X145365200Y-78330479D02*
X145365200Y-78665721D01*
X157557800Y-81338664D02*
X157557800Y-80884536D01*
X159027800Y-81338664D02*
X159027800Y-80884536D01*
X132729600Y-94237600D02*
X133869600Y-94237600D01*
X133869600Y-94007600D02*
X133869600Y-94237600D01*
X133869600Y-94007600D02*
X136589600Y-94007600D01*
X133869600Y-98727600D02*
X133869600Y-98497600D01*
X136589600Y-94007600D02*
X136589600Y-95317600D01*
X136589600Y-97417600D02*
X136589600Y-98727600D01*
X136589600Y-98727600D02*
X133869600Y-98727600D01*
X129772500Y-85717500D02*
X129772500Y-85192500D01*
X130297500Y-77497500D02*
X129772500Y-77497500D01*
X130297500Y-85717500D02*
X129772500Y-85717500D01*
X137467500Y-77497500D02*
X137992500Y-77497500D01*
X137467500Y-85717500D02*
X137992500Y-85717500D01*
X137992500Y-77497500D02*
X137992500Y-78022500D01*
X137992500Y-85717500D02*
X137992500Y-85192500D01*
X123109400Y-77831135D02*
X123109400Y-77599465D01*
X123829400Y-77831135D02*
X123829400Y-77599465D01*
X116336400Y-77599465D02*
X116336400Y-77831135D01*
X115616400Y-77599465D02*
X115616400Y-77831135D01*
X116463400Y-83949465D02*
X116463400Y-84181135D01*
X115743400Y-83949465D02*
X115743400Y-84181135D01*
X152579400Y-80913464D02*
X152579400Y-80459336D01*
X154049400Y-80913464D02*
X154049400Y-80459336D01*
X133173200Y-75034721D02*
X133173200Y-74699479D01*
X133933200Y-75034721D02*
X133933200Y-74699479D01*
X142415335Y-78236400D02*
X142183665Y-78236400D01*
X142415335Y-77516400D02*
X142183665Y-77516400D01*
X122474400Y-95374535D02*
X122474400Y-95142865D01*
X123194400Y-95374535D02*
X123194400Y-95142865D01*
X127868000Y-76532665D02*
X127868000Y-76764335D01*
X127148000Y-76532665D02*
X127148000Y-76764335D01*
X138680152Y-75341398D02*
X138448482Y-75341398D01*
X138680152Y-74621398D02*
X138448482Y-74621398D01*
X151306200Y-90333336D02*
X151306200Y-90787464D01*
X149836200Y-90333336D02*
X149836200Y-90787464D01*
X144586000Y-103996800D02*
X143256000Y-103996800D01*
X144586000Y-102666800D02*
X144586000Y-103996800D01*
X144586000Y-101396800D02*
X144586000Y-98796800D01*
X144586000Y-101396800D02*
X141926000Y-101396800D01*
X144586000Y-98796800D02*
X141926000Y-98796800D01*
X141926000Y-101396800D02*
X141926000Y-98796800D01*
X123236400Y-83165135D02*
X123236400Y-82933465D01*
X123956400Y-83165135D02*
X123956400Y-82933465D01*
X131240800Y-105406879D02*
X131240800Y-105742121D01*
X130480800Y-105406879D02*
X130480800Y-105742121D01*
X119711200Y-95456321D02*
X119711200Y-95121079D01*
X120471200Y-95456321D02*
X120471200Y-95121079D01*
X132329600Y-109598535D02*
X132329600Y-109366865D01*
X133049600Y-109598535D02*
X133049600Y-109366865D01*
X139579947Y-70760000D02*
X139811617Y-70760000D01*
X139579947Y-71480000D02*
X139811617Y-71480000D01*
X129712300Y-107543200D02*
X127912300Y-107543200D01*
X129712300Y-107543200D02*
X130512300Y-107543200D01*
X129712300Y-110663200D02*
X128912300Y-110663200D01*
X129712300Y-110663200D02*
X130512300Y-110663200D01*
X131196800Y-113247800D02*
X131196800Y-115317800D01*
X131196800Y-113247800D02*
X132066800Y-113247800D01*
X131196800Y-117717800D02*
X131196800Y-117967800D01*
X136066800Y-112717800D02*
X136666800Y-112717800D01*
X136366800Y-113017800D02*
X136066800Y-112717800D01*
X136366800Y-113017800D02*
X136666800Y-112717800D01*
X138066800Y-113247800D02*
X138936800Y-113247800D01*
X138936800Y-113247800D02*
X138936800Y-115317800D01*
X138936800Y-117717800D02*
X138936800Y-117967800D01*
X130431465Y-86508000D02*
X130663135Y-86508000D01*
X130431465Y-87228000D02*
X130663135Y-87228000D01*
X149549665Y-79243600D02*
X149781335Y-79243600D01*
X149549665Y-79963600D02*
X149781335Y-79963600D01*
X127595365Y-82139200D02*
X127827035Y-82139200D01*
X127595365Y-82859200D02*
X127827035Y-82859200D01*
X126164265Y-87524000D02*
X126395935Y-87524000D01*
X126164265Y-88244000D02*
X126395935Y-88244000D01*
X132053600Y-74699479D02*
X132053600Y-75034721D01*
X131293600Y-74699479D02*
X131293600Y-75034721D01*
X119116800Y-74837600D02*
X119116800Y-73507600D01*
X120446800Y-74837600D02*
X119116800Y-74837600D01*
X121716800Y-74837600D02*
X124316800Y-74837600D01*
X121716800Y-74837600D02*
X121716800Y-72177600D01*
X124316800Y-74837600D02*
X124316800Y-72177600D01*
X121716800Y-72177600D02*
X124316800Y-72177600D01*
X121964000Y-108364000D02*
X115864000Y-108364000D01*
X121964000Y-107264000D02*
X121964000Y-108364000D01*
X115864000Y-102964000D02*
X120864000Y-102964000D01*
X129655835Y-76560000D02*
X129424165Y-76560000D01*
X129655835Y-75840000D02*
X129424165Y-75840000D01*
X129655835Y-75290000D02*
X129424165Y-75290000D01*
X129655835Y-74570000D02*
X129424165Y-74570000D01*
X133720400Y-108813600D02*
X133720400Y-110613600D01*
X133720400Y-108813600D02*
X133720400Y-108013600D01*
X136840400Y-108813600D02*
X136840400Y-109613600D01*
X136840400Y-108813600D02*
X136840400Y-108013600D01*
X135284800Y-87759465D02*
X135284800Y-87991135D01*
X134564800Y-87759465D02*
X134564800Y-87991135D01*
%LPC*%
G36*
X129267494Y-67797294D02*
G01*
X128767500Y-67797294D01*
X128767500Y-63677294D01*
X129267494Y-63677294D01*
X129267494Y-67797294D01*
G37*
G36*
X131067185Y-66496907D02*
G01*
X130567185Y-66496907D01*
X130567185Y-63676907D01*
X131067185Y-63676907D01*
X131067185Y-66496907D01*
G37*
G36*
X131067504Y-63857294D02*
G01*
X128767510Y-63857294D01*
X128767510Y-63357294D01*
X131067504Y-63357294D01*
X131067504Y-63857294D01*
G37*
G36*
X133252891Y-66496974D02*
G01*
X130763691Y-66496974D01*
X130763691Y-65996981D01*
X133252891Y-65996981D01*
X133252891Y-66496974D01*
G37*
G36*
X133267185Y-66496907D02*
G01*
X132767185Y-66496907D01*
X132767185Y-63676907D01*
X133267185Y-63676907D01*
X133267185Y-66496907D01*
G37*
G36*
X135167504Y-66497297D02*
G01*
X134667504Y-66497297D01*
X134667504Y-63677297D01*
X135167504Y-63677297D01*
X135167504Y-66497297D01*
G37*
G36*
X135167507Y-63857297D02*
G01*
X132767507Y-63857297D01*
X132767507Y-63357297D01*
X135167507Y-63357297D01*
X135167507Y-63857297D01*
G37*
G36*
X137277497Y-66497294D02*
G01*
X134737497Y-66497294D01*
X134737497Y-66002494D01*
X137277497Y-66002494D01*
X137277497Y-66497294D01*
G37*
G36*
X137367891Y-66496974D02*
G01*
X136867891Y-66496974D01*
X136867891Y-63676981D01*
X137367891Y-63676981D01*
X137367891Y-66496974D01*
G37*
G36*
X139367889Y-68957495D02*
G01*
X138867890Y-68957495D01*
X138867890Y-63626178D01*
X139367889Y-63626178D01*
X139367889Y-68957495D01*
G37*
G36*
X141067184Y-68957496D02*
G01*
X140167184Y-68957496D01*
X140167184Y-63651510D01*
X141067184Y-63651510D01*
X141067184Y-68957496D01*
G37*
G36*
X141067502Y-63857294D02*
G01*
X136867503Y-63857294D01*
X136867503Y-63357294D01*
X141067502Y-63357294D01*
X141067502Y-63857294D01*
G37*
D12*
X121310400Y-82467800D03*
X118410400Y-82467800D03*
X118410400Y-84767800D03*
X121310400Y-84767800D03*
D13*
X123272000Y-92821000D03*
X123272000Y-92321000D03*
X123272000Y-91821000D03*
X123272000Y-91321000D03*
X123272000Y-90821000D03*
D14*
X122547000Y-90596000D03*
X122047000Y-90596000D03*
X121547000Y-90596000D03*
D13*
X120822000Y-90821000D03*
X120822000Y-91321000D03*
X120822000Y-91821000D03*
X120822000Y-92321000D03*
X120822000Y-92821000D03*
D14*
X121547000Y-93046000D03*
X122047000Y-93046000D03*
X122547000Y-93046000D03*
D15*
X133942200Y-91541600D03*
X135077200Y-91541600D03*
D16*
X132716200Y-87884000D03*
X131521200Y-87884000D03*
D17*
X121513600Y-95826200D03*
X121513600Y-94691200D03*
D18*
X148132800Y-103936800D03*
D19*
X150672800Y-103936800D03*
D18*
X153212800Y-103936800D03*
X148132800Y-98221800D03*
X153212800Y-98221800D03*
D19*
X149656800Y-96316800D03*
X151688800Y-96316800D03*
D20*
X151307800Y-102666800D03*
X151307800Y-101396800D03*
X151307800Y-100126800D03*
X151307800Y-98856800D03*
X151307800Y-97586800D03*
X150037800Y-97586800D03*
X150037800Y-98856800D03*
X150037800Y-100126800D03*
X150037800Y-101396800D03*
X150037800Y-102666800D03*
D21*
X135280400Y-104884600D03*
X135280400Y-106019600D03*
D22*
X155803600Y-82060800D03*
X155803600Y-80060800D03*
D23*
X126719400Y-96316800D03*
X127914400Y-96316800D03*
D24*
X129184400Y-96341000D03*
X129184400Y-97536000D03*
D25*
X133257100Y-101041200D03*
X132122100Y-101041200D03*
D26*
X144711500Y-81657000D03*
X144711500Y-82307000D03*
X144711500Y-82957000D03*
X144711500Y-83607000D03*
X144711500Y-84257000D03*
X144711500Y-84907000D03*
X144711500Y-85557000D03*
X144711500Y-86207000D03*
X144711500Y-86857000D03*
X144711500Y-87507000D03*
X150436500Y-87507000D03*
X150436500Y-86857000D03*
X150436500Y-86207000D03*
X150436500Y-85557000D03*
X150436500Y-84907000D03*
X150436500Y-84257000D03*
X150436500Y-83607000D03*
X150436500Y-82957000D03*
X150436500Y-82307000D03*
X150436500Y-81657000D03*
D16*
X136702800Y-74980800D03*
X135507800Y-74980800D03*
D27*
X153416000Y-89560400D03*
X153416000Y-91560400D03*
X147878800Y-89560400D03*
X147878800Y-91560400D03*
D17*
X126847600Y-110202600D03*
X126847600Y-109067600D03*
D21*
X136296400Y-87307800D03*
X136296400Y-88442800D03*
D28*
X139125258Y-72515000D03*
X139125258Y-73660000D03*
D29*
X154432000Y-76581000D03*
X154432000Y-74881000D03*
X154432000Y-73181000D03*
X149632000Y-73181000D03*
X149632000Y-74881000D03*
X149632000Y-76581000D03*
D12*
X121289400Y-77133800D03*
X118389400Y-77133800D03*
X118389400Y-79433800D03*
X121289400Y-79433800D03*
D24*
X145745200Y-77900600D03*
X145745200Y-79095600D03*
D22*
X158292800Y-82111600D03*
X158292800Y-80111600D03*
D30*
X133279600Y-94867600D03*
D31*
X133367100Y-96367600D03*
D30*
X133279600Y-97867600D03*
D32*
X129995000Y-78407500D03*
X129995000Y-78807500D03*
X129995000Y-79207500D03*
X129995000Y-79607500D03*
X129995000Y-80007500D03*
X129995000Y-80407500D03*
X129995000Y-80807500D03*
X129995000Y-81207500D03*
X129995000Y-81607500D03*
X129995000Y-82007500D03*
X129995000Y-82407500D03*
X129995000Y-82807500D03*
X129995000Y-83207500D03*
X129995000Y-83607500D03*
X129995000Y-84007500D03*
X129995000Y-84407500D03*
X129995000Y-84807500D03*
D33*
X130682500Y-85495000D03*
X131082500Y-85495000D03*
X131482500Y-85495000D03*
X131882500Y-85495000D03*
X132282500Y-85495000D03*
X132682500Y-85495000D03*
X133082500Y-85495000D03*
X133482500Y-85495000D03*
X133882500Y-85495000D03*
X134282500Y-85495000D03*
X134682500Y-85495000D03*
X135082500Y-85495000D03*
X135482500Y-85495000D03*
X135882500Y-85495000D03*
X136282500Y-85495000D03*
X136682500Y-85495000D03*
X137082500Y-85495000D03*
D32*
X137770000Y-84807500D03*
X137770000Y-84407500D03*
X137770000Y-84007500D03*
X137770000Y-83607500D03*
X137770000Y-83207500D03*
X137770000Y-82807500D03*
X137770000Y-82407500D03*
X137770000Y-82007500D03*
X137770000Y-81607500D03*
X137770000Y-81207500D03*
X137770000Y-80807500D03*
X137770000Y-80407500D03*
X137770000Y-80007500D03*
X137770000Y-79607500D03*
X137770000Y-79207500D03*
X137770000Y-78807500D03*
X137770000Y-78407500D03*
D33*
X137082500Y-77720000D03*
X136682500Y-77720000D03*
X136282500Y-77720000D03*
X135882500Y-77720000D03*
X135482500Y-77720000D03*
X135082500Y-77720000D03*
X134682500Y-77720000D03*
X134282500Y-77720000D03*
X133882500Y-77720000D03*
X133482500Y-77720000D03*
X133082500Y-77720000D03*
X132682500Y-77720000D03*
X132282500Y-77720000D03*
X131882500Y-77720000D03*
X131482500Y-77720000D03*
X131082500Y-77720000D03*
X130682500Y-77720000D03*
D34*
X133882500Y-81607500D03*
D17*
X123469400Y-78282800D03*
X123469400Y-77147800D03*
D21*
X115976400Y-77147800D03*
X115976400Y-78282800D03*
X116103400Y-83497800D03*
X116103400Y-84632800D03*
D22*
X153314400Y-81686400D03*
X153314400Y-79686400D03*
D35*
X133553200Y-75464600D03*
X133553200Y-74269600D03*
D25*
X142867000Y-77876400D03*
X141732000Y-77876400D03*
D17*
X122834400Y-95826200D03*
X122834400Y-94691200D03*
D21*
X127508000Y-76081000D03*
X127508000Y-77216000D03*
D25*
X139131817Y-74981398D03*
X137996817Y-74981398D03*
D27*
X150571200Y-89560400D03*
X150571200Y-91560400D03*
D36*
X143256000Y-102666800D03*
D37*
X143256000Y-100126800D03*
D17*
X123596400Y-83616800D03*
X123596400Y-82481800D03*
D24*
X130860800Y-104977000D03*
X130860800Y-106172000D03*
D35*
X120091200Y-95886200D03*
X120091200Y-94691200D03*
D17*
X132689600Y-110050200D03*
X132689600Y-108915200D03*
D38*
X111000000Y-90000000D03*
D39*
X111000000Y-90000000D03*
D15*
X139128282Y-71120000D03*
X140263282Y-71120000D03*
D40*
X128574800Y-108153200D03*
X128574800Y-109103200D03*
X128574800Y-110053200D03*
X130849800Y-110053200D03*
X130849800Y-108153200D03*
D41*
X136366800Y-113842800D03*
X135716800Y-113842800D03*
X135066800Y-113842800D03*
X134416800Y-113842800D03*
X133766800Y-113842800D03*
D42*
X130891800Y-116517800D03*
D43*
X131329300Y-116517800D03*
D44*
X132841800Y-113517800D03*
D45*
X135066800Y-116517800D03*
D44*
X137291800Y-113517800D03*
D43*
X138804300Y-116517800D03*
D42*
X139241800Y-116517800D03*
D15*
X129979800Y-86868000D03*
X131114800Y-86868000D03*
D38*
X159000000Y-90000000D03*
D39*
X159000000Y-90000000D03*
D15*
X149098000Y-79603600D03*
X150233000Y-79603600D03*
X127143700Y-82499200D03*
X128278700Y-82499200D03*
X125712600Y-87884000D03*
X126847600Y-87884000D03*
D24*
X131673600Y-74269600D03*
X131673600Y-75464600D03*
D36*
X120446800Y-73507600D03*
D37*
X122986800Y-73507600D03*
D29*
X120764000Y-107364000D03*
X120764000Y-105664000D03*
X120764000Y-103964000D03*
X115964000Y-103964000D03*
X115964000Y-105664000D03*
X115964000Y-107364000D03*
D25*
X130107500Y-76200000D03*
X128972500Y-76200000D03*
X130107500Y-74930000D03*
X128972500Y-74930000D03*
D46*
X134330400Y-109951100D03*
X135280400Y-109951100D03*
X136230400Y-109951100D03*
X136230400Y-107676100D03*
X135280400Y-107676100D03*
X134330400Y-107676100D03*
D21*
X134924800Y-87307800D03*
X134924800Y-88442800D03*
D47*
X126492000Y-101346000D03*
D48*
X126492000Y-103346000D03*
%LPD*%
M02*
