G04 #@! TF.GenerationSoftware,KiCad,Pcbnew,7.0.5-7.0.5~ubuntu22.04.1*
G04 #@! TF.CreationDate,2023-06-05T00:28:07-04:00*
G04 #@! TF.ProjectId,reaction-trainer,72656163-7469-46f6-9e2d-747261696e65,1.0*
G04 #@! TF.SameCoordinates,Original*
G04 #@! TF.FileFunction,Profile,NP*
%FSLAX46Y46*%
G04 Gerber Fmt 4.6, Leading zero omitted, Abs format (unit mm)*
G04 Created by KiCad (PCBNEW 7.0.5-7.0.5~ubuntu22.04.1) date 2023-06-05 00:28:07*
%MOMM*%
%LPD*%
G01*
G04 APERTURE LIST*
G04 #@! TA.AperFunction,Profile*
%ADD10C,0.100000*%
G04 #@! TD*
G04 APERTURE END LIST*
D10*
X114500000Y-69500000D02*
X127450000Y-62000000D01*
X155500000Y-69500000D02*
X142500000Y-62000000D01*
X107000000Y-82550000D02*
X114500000Y-69500000D01*
X163000000Y-82450000D02*
X155500000Y-69500000D01*
X155500000Y-110500000D02*
X163000000Y-97550000D01*
X142550000Y-117967800D02*
X155500000Y-110500000D01*
X114500000Y-110500000D02*
X127450000Y-117967800D01*
X107000000Y-97500000D02*
X114500000Y-110500000D01*
X138816800Y-117967800D02*
X142550000Y-117967800D01*
X132266800Y-117967800D02*
X127450000Y-117967800D01*
X163000000Y-82450000D02*
X163000000Y-97550000D01*
X127450000Y-62000000D02*
X142500000Y-62000000D01*
X107000000Y-97500000D02*
X107000000Y-82550000D01*
X131316800Y-117967800D02*
X132266800Y-117967800D01*
X132266800Y-116392800D02*
X132266800Y-117967800D01*
X133116800Y-116392800D02*
X133116800Y-117967800D01*
X133116800Y-117967800D02*
X137016800Y-117967800D01*
X137016800Y-116392800D02*
X137016800Y-117967800D01*
X137866800Y-116392800D02*
X137866800Y-117967800D01*
X137866800Y-117967800D02*
X138816800Y-117967800D01*
X133116800Y-116392800D02*
G75*
G03*
X132266800Y-116392800I-425000J0D01*
G01*
X137866800Y-116392800D02*
G75*
G03*
X137016800Y-116392800I-425000J0D01*
G01*
M02*
