M48
; DRILL file {KiCad 7.0.5-7.0.5~ubuntu22.04.1} date Mon 05 Jun 2023 12:28:16 AM
; FORMAT={-:-/ absolute / metric / decimal}
; #@! TF.CreationDate,2023-06-05T00:28:16-04:00
; #@! TF.GenerationSoftware,Kicad,Pcbnew,7.0.5-7.0.5~ubuntu22.04.1
; #@! TF.FileFunction,Plated,1,2,PTH
FMAT,2
METRIC
; #@! TA.AperFunction,Plated,PTH,ComponentDrill
T1C0.200
; #@! TA.AperFunction,Plated,PTH,ViaDrill
T2C0.400
; #@! TA.AperFunction,Plated,PTH,ComponentDrill
T3C0.600
; #@! TA.AperFunction,Plated,PTH,ComponentDrill
T4C0.650
; #@! TA.AperFunction,Plated,PTH,ComponentDrill
T5C0.750
; #@! TA.AperFunction,Plated,PTH,ComponentDrill
T6C1.000
; #@! TA.AperFunction,Plated,PTH,ComponentDrill
T7C3.200
%
G90
G05
T1
X130.933Y-78.657
X130.933Y-80.132
X130.933Y-81.608
X130.933Y-83.082
X130.933Y-84.557
X132.407Y-78.657
X132.407Y-80.132
X132.407Y-81.608
X132.407Y-83.082
X132.407Y-84.557
X133.882Y-78.657
X133.882Y-80.132
X133.882Y-81.608
X133.882Y-83.082
X133.882Y-84.557
X135.357Y-78.657
X135.357Y-80.132
X135.357Y-81.608
X135.357Y-83.082
X135.357Y-84.557
X136.832Y-78.657
X136.832Y-80.132
X136.832Y-81.608
X136.832Y-83.082
X136.832Y-84.557
T2
X116.84Y-70.596
X116.84Y-71.596
X116.84Y-72.596
X116.84Y-73.596
X116.84Y-74.596
X116.84Y-75.596
X117.84Y-69.596
X117.84Y-70.596
X117.84Y-71.596
X117.84Y-72.596
X117.84Y-73.596
X117.84Y-74.596
X117.84Y-75.596
X118.84Y-69.596
X118.84Y-70.596
X118.84Y-71.596
X118.84Y-72.596
X118.84Y-73.596
X118.84Y-74.596
X118.84Y-75.596
X118.974Y-95.91
X119.84Y-69.596
X119.84Y-70.596
X119.84Y-71.596
X119.84Y-75.596
X120.84Y-69.596
X120.84Y-70.596
X120.84Y-71.596
X120.84Y-75.596
X121.107Y-89.459
X121.84Y-69.596
X121.84Y-70.596
X121.84Y-71.596
X121.84Y-75.596
X121.869Y-91.745
X122.53Y-88.646
X122.84Y-69.596
X122.84Y-70.596
X122.84Y-71.596
X122.84Y-75.596
X123.088Y-107.34
X123.139Y-105.664
X123.241Y-103.734
X123.689Y-89.552
X123.84Y-69.596
X123.84Y-70.596
X123.84Y-71.596
X123.84Y-75.596
X124.562Y-91.338
X124.84Y-69.596
X124.84Y-70.596
X124.84Y-71.596
X124.84Y-74.596
X124.84Y-75.596
X124.917Y-82.296
X124.968Y-78.13
X125.527Y-84.887
X125.84Y-69.596
X125.84Y-70.596
X125.84Y-71.596
X125.84Y-74.596
X125.84Y-75.596
X126.746Y-79.733
X126.84Y-69.596
X126.84Y-70.596
X126.84Y-71.596
X126.84Y-74.596
X127.84Y-69.596
X127.84Y-70.596
X127.84Y-71.596
X127.84Y-74.596
X128.84Y-69.596
X128.84Y-70.596
X128.84Y-71.596
X129.084Y-83.208
X129.184Y-77.622
X129.184Y-85.7
X129.84Y-69.596
X129.84Y-70.596
X129.84Y-71.596
X130.134Y-77.622
X130.15Y-100.482
X130.84Y-69.596
X130.84Y-70.596
X130.84Y-71.596
X131.064Y-76.454
X131.166Y-89.916
X131.572Y-92.456
X131.84Y-69.596
X131.84Y-70.596
X131.84Y-71.596
X131.978Y-86.868
X132.08Y-102.006
X132.102Y-103.044
X132.12Y-104.086
X132.74Y-111.811
X132.84Y-69.596
X132.84Y-70.596
X132.84Y-71.596
X132.944Y-86.817
X133.84Y-69.596
X133.84Y-70.596
X133.84Y-71.596
X134.315Y-106.07
X134.366Y-73.152
X134.84Y-69.596
X134.84Y-70.596
X134.84Y-71.596
X135.28Y-111.608
X135.84Y-69.596
X135.84Y-70.596
X135.84Y-71.596
X135.84Y-72.596
X136.144Y-100.635
X136.246Y-106.07
X136.347Y-98.603
X136.84Y-69.596
X136.84Y-70.596
X136.84Y-71.596
X136.84Y-72.596
X136.84Y-73.596
X137.109Y-89.56
X137.16Y-76.302
X137.84Y-69.596
X137.84Y-70.596
X137.84Y-71.596
X137.84Y-72.596
X137.84Y-73.596
X139.04Y-99.009
X139.243Y-78.933
X140.411Y-101.346
X140.84Y-72.596
X140.84Y-73.596
X140.84Y-74.596
X140.84Y-75.596
X140.84Y-76.596
X141.52Y-80.477
X141.84Y-69.596
X141.84Y-70.596
X141.84Y-71.596
X141.84Y-72.596
X141.84Y-73.596
X141.84Y-74.596
X141.84Y-75.596
X141.84Y-76.596
X142.088Y-82.499
X142.138Y-79.756
X142.356Y-80.927
X142.84Y-69.596
X142.84Y-70.596
X142.84Y-71.596
X142.84Y-72.596
X142.84Y-73.596
X142.84Y-74.596
X142.84Y-75.596
X142.84Y-76.596
X143.002Y-81.737
X143.297Y-87.308
X143.307Y-89.51
X143.408Y-96.164
X143.84Y-69.596
X143.84Y-70.596
X143.84Y-71.596
X143.84Y-72.596
X143.84Y-73.596
X143.84Y-74.596
X143.84Y-75.596
X143.84Y-76.596
X144.221Y-97.688
X144.84Y-69.596
X144.84Y-70.596
X144.84Y-71.596
X144.84Y-72.596
X144.84Y-73.596
X144.84Y-74.596
X144.84Y-75.596
X144.84Y-76.596
X145.84Y-69.596
X145.84Y-70.596
X145.84Y-71.596
X145.84Y-72.596
X145.84Y-73.596
X145.84Y-74.596
X145.84Y-75.596
X145.84Y-76.596
X145.898Y-96.215
X146.66Y-92.862
X146.84Y-69.596
X146.84Y-70.596
X146.84Y-71.596
X146.84Y-72.596
X146.84Y-73.596
X146.84Y-74.596
X146.84Y-75.596
X146.964Y-100.178
X147.84Y-69.596
X147.84Y-70.596
X147.84Y-71.596
X147.84Y-72.596
X147.84Y-73.596
X147.84Y-74.596
X147.84Y-75.596
X147.93Y-82.956
X148.84Y-69.596
X148.84Y-70.596
X148.84Y-71.596
X149.149Y-92.964
X149.84Y-69.596
X149.84Y-70.596
X149.84Y-71.596
X150.436Y-80.62
X150.84Y-69.596
X150.84Y-70.596
X150.84Y-71.596
X151.232Y-93.828
X151.84Y-69.596
X151.84Y-70.596
X151.84Y-71.596
X151.84Y-72.596
X151.84Y-73.596
X151.84Y-74.596
X151.84Y-75.596
X151.84Y-76.596
X152.84Y-69.596
X152.84Y-70.596
X152.84Y-71.596
X152.84Y-72.596
X152.84Y-73.596
X152.84Y-74.596
X152.84Y-75.596
X152.84Y-76.596
X155.296Y-101.397
X155.346Y-102.667
X155.397Y-99.162
X155.397Y-100.178
T5
X126.492Y-101.346
X126.492Y-103.346
T6
X120.447Y-73.508
X122.987Y-73.508
X143.256Y-100.127
X143.256Y-102.667
T7
X111.0Y-90.0
X159.0Y-90.0
T3
X130.892Y-116.168G85X130.892Y-116.868
G05
X139.242Y-116.168G85X139.242Y-116.868
G05
T4
X132.842Y-113.418G85X132.842Y-113.618
G05
X137.292Y-113.418G85X137.292Y-113.618
G05
T0
M30
