%TF.GenerationSoftware,KiCad,Pcbnew,7.0.5-7.0.5~ubuntu22.04.1*%
%TF.CreationDate,2023-06-05T00:28:18-04:00*%
%TF.ProjectId,reaction-trainer,72656163-7469-46f6-9e2d-747261696e65,1.0*%
%TF.SameCoordinates,Original*%
%TF.FileFunction,Drillmap*%
%TF.FilePolarity,Positive*%
%FSLAX45Y45*%
G04 Gerber Fmt 4.5, Leading zero omitted, Abs format (unit mm)*
G04 Created by KiCad (PCBNEW 7.0.5-7.0.5~ubuntu22.04.1) date 2023-06-05 00:28:18*
%MOMM*%
%LPD*%
G01*
G04 APERTURE LIST*
%ADD10C,0.100000*%
%ADD11C,0.200000*%
%ADD12C,0.099060*%
%ADD13C,0.237490*%
G04 APERTURE END LIST*
D10*
X11450000Y-6950000D02*
X12745000Y-6200000D01*
X15550000Y-6950000D02*
X14250000Y-6200000D01*
X10700000Y-8255000D02*
X11450000Y-6950000D01*
X16300000Y-8245000D02*
X15550000Y-6950000D01*
X15550000Y-11050000D02*
X16300000Y-9755000D01*
X14255000Y-11796780D02*
X15550000Y-11050000D01*
X11450000Y-11050000D02*
X12745000Y-11796780D01*
X10700000Y-9750000D02*
X11450000Y-11050000D01*
X13881680Y-11796780D02*
X14255000Y-11796780D01*
X13226680Y-11796780D02*
X12745000Y-11796780D01*
X16300000Y-8245000D02*
X16300000Y-9755000D01*
X12745000Y-6200000D02*
X14250000Y-6200000D01*
X10700000Y-9750000D02*
X10700000Y-8255000D01*
D11*
D12*
X14916150Y-9582150D02*
X15015210Y-9681210D01*
X15015210Y-9582150D02*
X14916150Y-9681210D01*
X15017750Y-10344150D02*
X15116810Y-10443210D01*
X15116810Y-10344150D02*
X15017750Y-10443210D01*
X15119350Y-9582150D02*
X15218410Y-9681210D01*
X15218410Y-9582150D02*
X15119350Y-9681210D01*
D13*
X14932025Y-9822180D02*
G75*
G03*
X14932025Y-9822180I-118745J0D01*
G01*
X14932025Y-10393680D02*
G75*
G03*
X14932025Y-10393680I-118745J0D01*
G01*
X15440025Y-9822180D02*
G75*
G03*
X15440025Y-9822180I-118745J0D01*
G01*
X15440025Y-10393680D02*
G75*
G03*
X15440025Y-10393680I-118745J0D01*
G01*
D11*
X10955777Y-12113264D02*
X10955777Y-11913264D01*
X10955777Y-11913264D02*
X11003396Y-11913264D01*
X11003396Y-11913264D02*
X11031967Y-11922788D01*
X11031967Y-11922788D02*
X11051015Y-11941835D01*
X11051015Y-11941835D02*
X11060539Y-11960883D01*
X11060539Y-11960883D02*
X11070063Y-11998978D01*
X11070063Y-11998978D02*
X11070063Y-12027549D01*
X11070063Y-12027549D02*
X11060539Y-12065645D01*
X11060539Y-12065645D02*
X11051015Y-12084692D01*
X11051015Y-12084692D02*
X11031967Y-12103740D01*
X11031967Y-12103740D02*
X11003396Y-12113264D01*
X11003396Y-12113264D02*
X10955777Y-12113264D01*
X11155777Y-12113264D02*
X11155777Y-11979930D01*
X11155777Y-12018026D02*
X11165301Y-11998978D01*
X11165301Y-11998978D02*
X11174824Y-11989454D01*
X11174824Y-11989454D02*
X11193872Y-11979930D01*
X11193872Y-11979930D02*
X11212920Y-11979930D01*
X11279586Y-12113264D02*
X11279586Y-11979930D01*
X11279586Y-11913264D02*
X11270062Y-11922788D01*
X11270062Y-11922788D02*
X11279586Y-11932311D01*
X11279586Y-11932311D02*
X11289110Y-11922788D01*
X11289110Y-11922788D02*
X11279586Y-11913264D01*
X11279586Y-11913264D02*
X11279586Y-11932311D01*
X11403396Y-12113264D02*
X11384348Y-12103740D01*
X11384348Y-12103740D02*
X11374824Y-12084692D01*
X11374824Y-12084692D02*
X11374824Y-11913264D01*
X11508158Y-12113264D02*
X11489110Y-12103740D01*
X11489110Y-12103740D02*
X11479586Y-12084692D01*
X11479586Y-12084692D02*
X11479586Y-11913264D01*
X11736729Y-12113264D02*
X11736729Y-11913264D01*
X11736729Y-11913264D02*
X11803396Y-12056121D01*
X11803396Y-12056121D02*
X11870062Y-11913264D01*
X11870062Y-11913264D02*
X11870062Y-12113264D01*
X12051015Y-12113264D02*
X12051015Y-12008502D01*
X12051015Y-12008502D02*
X12041491Y-11989454D01*
X12041491Y-11989454D02*
X12022443Y-11979930D01*
X12022443Y-11979930D02*
X11984348Y-11979930D01*
X11984348Y-11979930D02*
X11965301Y-11989454D01*
X12051015Y-12103740D02*
X12031967Y-12113264D01*
X12031967Y-12113264D02*
X11984348Y-12113264D01*
X11984348Y-12113264D02*
X11965301Y-12103740D01*
X11965301Y-12103740D02*
X11955777Y-12084692D01*
X11955777Y-12084692D02*
X11955777Y-12065645D01*
X11955777Y-12065645D02*
X11965301Y-12046597D01*
X11965301Y-12046597D02*
X11984348Y-12037073D01*
X11984348Y-12037073D02*
X12031967Y-12037073D01*
X12031967Y-12037073D02*
X12051015Y-12027549D01*
X12146253Y-11979930D02*
X12146253Y-12179930D01*
X12146253Y-11989454D02*
X12165301Y-11979930D01*
X12165301Y-11979930D02*
X12203396Y-11979930D01*
X12203396Y-11979930D02*
X12222443Y-11989454D01*
X12222443Y-11989454D02*
X12231967Y-11998978D01*
X12231967Y-11998978D02*
X12241491Y-12018026D01*
X12241491Y-12018026D02*
X12241491Y-12075168D01*
X12241491Y-12075168D02*
X12231967Y-12094216D01*
X12231967Y-12094216D02*
X12222443Y-12103740D01*
X12222443Y-12103740D02*
X12203396Y-12113264D01*
X12203396Y-12113264D02*
X12165301Y-12113264D01*
X12165301Y-12113264D02*
X12146253Y-12103740D01*
X12327205Y-12094216D02*
X12336729Y-12103740D01*
X12336729Y-12103740D02*
X12327205Y-12113264D01*
X12327205Y-12113264D02*
X12317682Y-12103740D01*
X12317682Y-12103740D02*
X12327205Y-12094216D01*
X12327205Y-12094216D02*
X12327205Y-12113264D01*
X12327205Y-11989454D02*
X12336729Y-11998978D01*
X12336729Y-11998978D02*
X12327205Y-12008502D01*
X12327205Y-12008502D02*
X12317682Y-11998978D01*
X12317682Y-11998978D02*
X12327205Y-11989454D01*
X12327205Y-11989454D02*
X12327205Y-12008502D01*
D12*
X10595940Y-12392250D02*
X10695000Y-12491310D01*
X10695000Y-12392250D02*
X10595940Y-12491310D01*
D11*
X10993872Y-12333264D02*
X11012920Y-12333264D01*
X11012920Y-12333264D02*
X11031967Y-12342788D01*
X11031967Y-12342788D02*
X11041491Y-12352311D01*
X11041491Y-12352311D02*
X11051015Y-12371359D01*
X11051015Y-12371359D02*
X11060539Y-12409454D01*
X11060539Y-12409454D02*
X11060539Y-12457073D01*
X11060539Y-12457073D02*
X11051015Y-12495168D01*
X11051015Y-12495168D02*
X11041491Y-12514216D01*
X11041491Y-12514216D02*
X11031967Y-12523740D01*
X11031967Y-12523740D02*
X11012920Y-12533264D01*
X11012920Y-12533264D02*
X10993872Y-12533264D01*
X10993872Y-12533264D02*
X10974824Y-12523740D01*
X10974824Y-12523740D02*
X10965301Y-12514216D01*
X10965301Y-12514216D02*
X10955777Y-12495168D01*
X10955777Y-12495168D02*
X10946253Y-12457073D01*
X10946253Y-12457073D02*
X10946253Y-12409454D01*
X10946253Y-12409454D02*
X10955777Y-12371359D01*
X10955777Y-12371359D02*
X10965301Y-12352311D01*
X10965301Y-12352311D02*
X10974824Y-12342788D01*
X10974824Y-12342788D02*
X10993872Y-12333264D01*
X11146253Y-12514216D02*
X11155777Y-12523740D01*
X11155777Y-12523740D02*
X11146253Y-12533264D01*
X11146253Y-12533264D02*
X11136729Y-12523740D01*
X11136729Y-12523740D02*
X11146253Y-12514216D01*
X11146253Y-12514216D02*
X11146253Y-12533264D01*
X11251015Y-12533264D02*
X11289110Y-12533264D01*
X11289110Y-12533264D02*
X11308158Y-12523740D01*
X11308158Y-12523740D02*
X11317682Y-12514216D01*
X11317682Y-12514216D02*
X11336729Y-12485645D01*
X11336729Y-12485645D02*
X11346253Y-12447549D01*
X11346253Y-12447549D02*
X11346253Y-12371359D01*
X11346253Y-12371359D02*
X11336729Y-12352311D01*
X11336729Y-12352311D02*
X11327205Y-12342788D01*
X11327205Y-12342788D02*
X11308158Y-12333264D01*
X11308158Y-12333264D02*
X11270062Y-12333264D01*
X11270062Y-12333264D02*
X11251015Y-12342788D01*
X11251015Y-12342788D02*
X11241491Y-12352311D01*
X11241491Y-12352311D02*
X11231967Y-12371359D01*
X11231967Y-12371359D02*
X11231967Y-12418978D01*
X11231967Y-12418978D02*
X11241491Y-12438026D01*
X11241491Y-12438026D02*
X11251015Y-12447549D01*
X11251015Y-12447549D02*
X11270062Y-12457073D01*
X11270062Y-12457073D02*
X11308158Y-12457073D01*
X11308158Y-12457073D02*
X11327205Y-12447549D01*
X11327205Y-12447549D02*
X11336729Y-12438026D01*
X11336729Y-12438026D02*
X11346253Y-12418978D01*
X11441491Y-12533264D02*
X11479586Y-12533264D01*
X11479586Y-12533264D02*
X11498634Y-12523740D01*
X11498634Y-12523740D02*
X11508158Y-12514216D01*
X11508158Y-12514216D02*
X11527205Y-12485645D01*
X11527205Y-12485645D02*
X11536729Y-12447549D01*
X11536729Y-12447549D02*
X11536729Y-12371359D01*
X11536729Y-12371359D02*
X11527205Y-12352311D01*
X11527205Y-12352311D02*
X11517682Y-12342788D01*
X11517682Y-12342788D02*
X11498634Y-12333264D01*
X11498634Y-12333264D02*
X11460539Y-12333264D01*
X11460539Y-12333264D02*
X11441491Y-12342788D01*
X11441491Y-12342788D02*
X11431967Y-12352311D01*
X11431967Y-12352311D02*
X11422443Y-12371359D01*
X11422443Y-12371359D02*
X11422443Y-12418978D01*
X11422443Y-12418978D02*
X11431967Y-12438026D01*
X11431967Y-12438026D02*
X11441491Y-12447549D01*
X11441491Y-12447549D02*
X11460539Y-12457073D01*
X11460539Y-12457073D02*
X11498634Y-12457073D01*
X11498634Y-12457073D02*
X11517682Y-12447549D01*
X11517682Y-12447549D02*
X11527205Y-12438026D01*
X11527205Y-12438026D02*
X11536729Y-12418978D01*
X11727205Y-12533264D02*
X11612920Y-12533264D01*
X11670062Y-12533264D02*
X11670062Y-12333264D01*
X11670062Y-12333264D02*
X11651015Y-12361835D01*
X11651015Y-12361835D02*
X11631967Y-12380883D01*
X11631967Y-12380883D02*
X11612920Y-12390407D01*
X11812920Y-12533264D02*
X11812920Y-12399930D01*
X11812920Y-12418978D02*
X11822443Y-12409454D01*
X11822443Y-12409454D02*
X11841491Y-12399930D01*
X11841491Y-12399930D02*
X11870063Y-12399930D01*
X11870063Y-12399930D02*
X11889110Y-12409454D01*
X11889110Y-12409454D02*
X11898634Y-12428502D01*
X11898634Y-12428502D02*
X11898634Y-12533264D01*
X11898634Y-12428502D02*
X11908158Y-12409454D01*
X11908158Y-12409454D02*
X11927205Y-12399930D01*
X11927205Y-12399930D02*
X11955777Y-12399930D01*
X11955777Y-12399930D02*
X11974824Y-12409454D01*
X11974824Y-12409454D02*
X11984348Y-12428502D01*
X11984348Y-12428502D02*
X11984348Y-12533264D01*
X12079586Y-12533264D02*
X12079586Y-12399930D01*
X12079586Y-12418978D02*
X12089110Y-12409454D01*
X12089110Y-12409454D02*
X12108158Y-12399930D01*
X12108158Y-12399930D02*
X12136729Y-12399930D01*
X12136729Y-12399930D02*
X12155777Y-12409454D01*
X12155777Y-12409454D02*
X12165301Y-12428502D01*
X12165301Y-12428502D02*
X12165301Y-12533264D01*
X12165301Y-12428502D02*
X12174824Y-12409454D01*
X12174824Y-12409454D02*
X12193872Y-12399930D01*
X12193872Y-12399930D02*
X12222443Y-12399930D01*
X12222443Y-12399930D02*
X12241491Y-12409454D01*
X12241491Y-12409454D02*
X12251015Y-12428502D01*
X12251015Y-12428502D02*
X12251015Y-12533264D01*
X12641491Y-12323740D02*
X12470063Y-12580883D01*
X12898634Y-12333264D02*
X12917682Y-12333264D01*
X12917682Y-12333264D02*
X12936729Y-12342788D01*
X12936729Y-12342788D02*
X12946253Y-12352311D01*
X12946253Y-12352311D02*
X12955777Y-12371359D01*
X12955777Y-12371359D02*
X12965301Y-12409454D01*
X12965301Y-12409454D02*
X12965301Y-12457073D01*
X12965301Y-12457073D02*
X12955777Y-12495168D01*
X12955777Y-12495168D02*
X12946253Y-12514216D01*
X12946253Y-12514216D02*
X12936729Y-12523740D01*
X12936729Y-12523740D02*
X12917682Y-12533264D01*
X12917682Y-12533264D02*
X12898634Y-12533264D01*
X12898634Y-12533264D02*
X12879586Y-12523740D01*
X12879586Y-12523740D02*
X12870063Y-12514216D01*
X12870063Y-12514216D02*
X12860539Y-12495168D01*
X12860539Y-12495168D02*
X12851015Y-12457073D01*
X12851015Y-12457073D02*
X12851015Y-12409454D01*
X12851015Y-12409454D02*
X12860539Y-12371359D01*
X12860539Y-12371359D02*
X12870063Y-12352311D01*
X12870063Y-12352311D02*
X12879586Y-12342788D01*
X12879586Y-12342788D02*
X12898634Y-12333264D01*
X13051015Y-12514216D02*
X13060539Y-12523740D01*
X13060539Y-12523740D02*
X13051015Y-12533264D01*
X13051015Y-12533264D02*
X13041491Y-12523740D01*
X13041491Y-12523740D02*
X13051015Y-12514216D01*
X13051015Y-12514216D02*
X13051015Y-12533264D01*
X13184348Y-12333264D02*
X13203396Y-12333264D01*
X13203396Y-12333264D02*
X13222444Y-12342788D01*
X13222444Y-12342788D02*
X13231967Y-12352311D01*
X13231967Y-12352311D02*
X13241491Y-12371359D01*
X13241491Y-12371359D02*
X13251015Y-12409454D01*
X13251015Y-12409454D02*
X13251015Y-12457073D01*
X13251015Y-12457073D02*
X13241491Y-12495168D01*
X13241491Y-12495168D02*
X13231967Y-12514216D01*
X13231967Y-12514216D02*
X13222444Y-12523740D01*
X13222444Y-12523740D02*
X13203396Y-12533264D01*
X13203396Y-12533264D02*
X13184348Y-12533264D01*
X13184348Y-12533264D02*
X13165301Y-12523740D01*
X13165301Y-12523740D02*
X13155777Y-12514216D01*
X13155777Y-12514216D02*
X13146253Y-12495168D01*
X13146253Y-12495168D02*
X13136729Y-12457073D01*
X13136729Y-12457073D02*
X13136729Y-12409454D01*
X13136729Y-12409454D02*
X13146253Y-12371359D01*
X13146253Y-12371359D02*
X13155777Y-12352311D01*
X13155777Y-12352311D02*
X13165301Y-12342788D01*
X13165301Y-12342788D02*
X13184348Y-12333264D01*
X13317682Y-12333264D02*
X13441491Y-12333264D01*
X13441491Y-12333264D02*
X13374825Y-12409454D01*
X13374825Y-12409454D02*
X13403396Y-12409454D01*
X13403396Y-12409454D02*
X13422444Y-12418978D01*
X13422444Y-12418978D02*
X13431967Y-12428502D01*
X13431967Y-12428502D02*
X13441491Y-12447549D01*
X13441491Y-12447549D02*
X13441491Y-12495168D01*
X13441491Y-12495168D02*
X13431967Y-12514216D01*
X13431967Y-12514216D02*
X13422444Y-12523740D01*
X13422444Y-12523740D02*
X13403396Y-12533264D01*
X13403396Y-12533264D02*
X13346253Y-12533264D01*
X13346253Y-12533264D02*
X13327206Y-12523740D01*
X13327206Y-12523740D02*
X13317682Y-12514216D01*
X13536729Y-12533264D02*
X13574825Y-12533264D01*
X13574825Y-12533264D02*
X13593872Y-12523740D01*
X13593872Y-12523740D02*
X13603396Y-12514216D01*
X13603396Y-12514216D02*
X13622444Y-12485645D01*
X13622444Y-12485645D02*
X13631967Y-12447549D01*
X13631967Y-12447549D02*
X13631967Y-12371359D01*
X13631967Y-12371359D02*
X13622444Y-12352311D01*
X13622444Y-12352311D02*
X13612920Y-12342788D01*
X13612920Y-12342788D02*
X13593872Y-12333264D01*
X13593872Y-12333264D02*
X13555777Y-12333264D01*
X13555777Y-12333264D02*
X13536729Y-12342788D01*
X13536729Y-12342788D02*
X13527206Y-12352311D01*
X13527206Y-12352311D02*
X13517682Y-12371359D01*
X13517682Y-12371359D02*
X13517682Y-12418978D01*
X13517682Y-12418978D02*
X13527206Y-12438026D01*
X13527206Y-12438026D02*
X13536729Y-12447549D01*
X13536729Y-12447549D02*
X13555777Y-12457073D01*
X13555777Y-12457073D02*
X13593872Y-12457073D01*
X13593872Y-12457073D02*
X13612920Y-12447549D01*
X13612920Y-12447549D02*
X13622444Y-12438026D01*
X13622444Y-12438026D02*
X13631967Y-12418978D01*
X13755777Y-12333264D02*
X13774825Y-12333264D01*
X13774825Y-12333264D02*
X13793872Y-12342788D01*
X13793872Y-12342788D02*
X13803396Y-12352311D01*
X13803396Y-12352311D02*
X13812920Y-12371359D01*
X13812920Y-12371359D02*
X13822444Y-12409454D01*
X13822444Y-12409454D02*
X13822444Y-12457073D01*
X13822444Y-12457073D02*
X13812920Y-12495168D01*
X13812920Y-12495168D02*
X13803396Y-12514216D01*
X13803396Y-12514216D02*
X13793872Y-12523740D01*
X13793872Y-12523740D02*
X13774825Y-12533264D01*
X13774825Y-12533264D02*
X13755777Y-12533264D01*
X13755777Y-12533264D02*
X13736729Y-12523740D01*
X13736729Y-12523740D02*
X13727206Y-12514216D01*
X13727206Y-12514216D02*
X13717682Y-12495168D01*
X13717682Y-12495168D02*
X13708158Y-12457073D01*
X13708158Y-12457073D02*
X13708158Y-12409454D01*
X13708158Y-12409454D02*
X13717682Y-12371359D01*
X13717682Y-12371359D02*
X13727206Y-12352311D01*
X13727206Y-12352311D02*
X13736729Y-12342788D01*
X13736729Y-12342788D02*
X13755777Y-12333264D01*
X13898634Y-12333264D02*
X13898634Y-12371359D01*
X13974825Y-12333264D02*
X13974825Y-12371359D01*
X14270063Y-12609454D02*
X14260539Y-12599930D01*
X14260539Y-12599930D02*
X14241491Y-12571359D01*
X14241491Y-12571359D02*
X14231968Y-12552311D01*
X14231968Y-12552311D02*
X14222444Y-12523740D01*
X14222444Y-12523740D02*
X14212920Y-12476121D01*
X14212920Y-12476121D02*
X14212920Y-12438026D01*
X14212920Y-12438026D02*
X14222444Y-12390407D01*
X14222444Y-12390407D02*
X14231968Y-12361835D01*
X14231968Y-12361835D02*
X14241491Y-12342788D01*
X14241491Y-12342788D02*
X14260539Y-12314216D01*
X14260539Y-12314216D02*
X14270063Y-12304692D01*
X14327206Y-12333264D02*
X14451015Y-12333264D01*
X14451015Y-12333264D02*
X14384348Y-12409454D01*
X14384348Y-12409454D02*
X14412920Y-12409454D01*
X14412920Y-12409454D02*
X14431968Y-12418978D01*
X14431968Y-12418978D02*
X14441491Y-12428502D01*
X14441491Y-12428502D02*
X14451015Y-12447549D01*
X14451015Y-12447549D02*
X14451015Y-12495168D01*
X14451015Y-12495168D02*
X14441491Y-12514216D01*
X14441491Y-12514216D02*
X14431968Y-12523740D01*
X14431968Y-12523740D02*
X14412920Y-12533264D01*
X14412920Y-12533264D02*
X14355777Y-12533264D01*
X14355777Y-12533264D02*
X14336729Y-12523740D01*
X14336729Y-12523740D02*
X14327206Y-12514216D01*
X14689110Y-12533264D02*
X14689110Y-12333264D01*
X14774825Y-12533264D02*
X14774825Y-12428502D01*
X14774825Y-12428502D02*
X14765301Y-12409454D01*
X14765301Y-12409454D02*
X14746253Y-12399930D01*
X14746253Y-12399930D02*
X14717682Y-12399930D01*
X14717682Y-12399930D02*
X14698634Y-12409454D01*
X14698634Y-12409454D02*
X14689110Y-12418978D01*
X14898634Y-12533264D02*
X14879587Y-12523740D01*
X14879587Y-12523740D02*
X14870063Y-12514216D01*
X14870063Y-12514216D02*
X14860539Y-12495168D01*
X14860539Y-12495168D02*
X14860539Y-12438026D01*
X14860539Y-12438026D02*
X14870063Y-12418978D01*
X14870063Y-12418978D02*
X14879587Y-12409454D01*
X14879587Y-12409454D02*
X14898634Y-12399930D01*
X14898634Y-12399930D02*
X14927206Y-12399930D01*
X14927206Y-12399930D02*
X14946253Y-12409454D01*
X14946253Y-12409454D02*
X14955777Y-12418978D01*
X14955777Y-12418978D02*
X14965301Y-12438026D01*
X14965301Y-12438026D02*
X14965301Y-12495168D01*
X14965301Y-12495168D02*
X14955777Y-12514216D01*
X14955777Y-12514216D02*
X14946253Y-12523740D01*
X14946253Y-12523740D02*
X14927206Y-12533264D01*
X14927206Y-12533264D02*
X14898634Y-12533264D01*
X15079587Y-12533264D02*
X15060539Y-12523740D01*
X15060539Y-12523740D02*
X15051015Y-12504692D01*
X15051015Y-12504692D02*
X15051015Y-12333264D01*
X15231968Y-12523740D02*
X15212920Y-12533264D01*
X15212920Y-12533264D02*
X15174825Y-12533264D01*
X15174825Y-12533264D02*
X15155777Y-12523740D01*
X15155777Y-12523740D02*
X15146253Y-12504692D01*
X15146253Y-12504692D02*
X15146253Y-12428502D01*
X15146253Y-12428502D02*
X15155777Y-12409454D01*
X15155777Y-12409454D02*
X15174825Y-12399930D01*
X15174825Y-12399930D02*
X15212920Y-12399930D01*
X15212920Y-12399930D02*
X15231968Y-12409454D01*
X15231968Y-12409454D02*
X15241491Y-12428502D01*
X15241491Y-12428502D02*
X15241491Y-12447549D01*
X15241491Y-12447549D02*
X15146253Y-12466597D01*
X15317682Y-12523740D02*
X15336730Y-12533264D01*
X15336730Y-12533264D02*
X15374825Y-12533264D01*
X15374825Y-12533264D02*
X15393872Y-12523740D01*
X15393872Y-12523740D02*
X15403396Y-12504692D01*
X15403396Y-12504692D02*
X15403396Y-12495168D01*
X15403396Y-12495168D02*
X15393872Y-12476121D01*
X15393872Y-12476121D02*
X15374825Y-12466597D01*
X15374825Y-12466597D02*
X15346253Y-12466597D01*
X15346253Y-12466597D02*
X15327206Y-12457073D01*
X15327206Y-12457073D02*
X15317682Y-12438026D01*
X15317682Y-12438026D02*
X15317682Y-12428502D01*
X15317682Y-12428502D02*
X15327206Y-12409454D01*
X15327206Y-12409454D02*
X15346253Y-12399930D01*
X15346253Y-12399930D02*
X15374825Y-12399930D01*
X15374825Y-12399930D02*
X15393872Y-12409454D01*
X15470063Y-12609454D02*
X15479587Y-12599930D01*
X15479587Y-12599930D02*
X15498634Y-12571359D01*
X15498634Y-12571359D02*
X15508158Y-12552311D01*
X15508158Y-12552311D02*
X15517682Y-12523740D01*
X15517682Y-12523740D02*
X15527206Y-12476121D01*
X15527206Y-12476121D02*
X15527206Y-12438026D01*
X15527206Y-12438026D02*
X15517682Y-12390407D01*
X15517682Y-12390407D02*
X15508158Y-12361835D01*
X15508158Y-12361835D02*
X15498634Y-12342788D01*
X15498634Y-12342788D02*
X15479587Y-12314216D01*
X15479587Y-12314216D02*
X15470063Y-12304692D01*
X15831968Y-12609454D02*
X15822444Y-12599930D01*
X15822444Y-12599930D02*
X15803396Y-12571359D01*
X15803396Y-12571359D02*
X15793872Y-12552311D01*
X15793872Y-12552311D02*
X15784349Y-12523740D01*
X15784349Y-12523740D02*
X15774825Y-12476121D01*
X15774825Y-12476121D02*
X15774825Y-12438026D01*
X15774825Y-12438026D02*
X15784349Y-12390407D01*
X15784349Y-12390407D02*
X15793872Y-12361835D01*
X15793872Y-12361835D02*
X15803396Y-12342788D01*
X15803396Y-12342788D02*
X15822444Y-12314216D01*
X15822444Y-12314216D02*
X15831968Y-12304692D01*
X15908158Y-12399930D02*
X15908158Y-12533264D01*
X15908158Y-12418978D02*
X15917682Y-12409454D01*
X15917682Y-12409454D02*
X15936730Y-12399930D01*
X15936730Y-12399930D02*
X15965301Y-12399930D01*
X15965301Y-12399930D02*
X15984349Y-12409454D01*
X15984349Y-12409454D02*
X15993872Y-12428502D01*
X15993872Y-12428502D02*
X15993872Y-12533264D01*
X16117682Y-12533264D02*
X16098634Y-12523740D01*
X16098634Y-12523740D02*
X16089111Y-12514216D01*
X16089111Y-12514216D02*
X16079587Y-12495168D01*
X16079587Y-12495168D02*
X16079587Y-12438026D01*
X16079587Y-12438026D02*
X16089111Y-12418978D01*
X16089111Y-12418978D02*
X16098634Y-12409454D01*
X16098634Y-12409454D02*
X16117682Y-12399930D01*
X16117682Y-12399930D02*
X16146253Y-12399930D01*
X16146253Y-12399930D02*
X16165301Y-12409454D01*
X16165301Y-12409454D02*
X16174825Y-12418978D01*
X16174825Y-12418978D02*
X16184349Y-12438026D01*
X16184349Y-12438026D02*
X16184349Y-12495168D01*
X16184349Y-12495168D02*
X16174825Y-12514216D01*
X16174825Y-12514216D02*
X16165301Y-12523740D01*
X16165301Y-12523740D02*
X16146253Y-12533264D01*
X16146253Y-12533264D02*
X16117682Y-12533264D01*
X16241492Y-12399930D02*
X16317682Y-12399930D01*
X16270063Y-12333264D02*
X16270063Y-12504692D01*
X16270063Y-12504692D02*
X16279587Y-12523740D01*
X16279587Y-12523740D02*
X16298634Y-12533264D01*
X16298634Y-12533264D02*
X16317682Y-12533264D01*
X16536730Y-12399930D02*
X16536730Y-12599930D01*
X16536730Y-12409454D02*
X16555777Y-12399930D01*
X16555777Y-12399930D02*
X16593873Y-12399930D01*
X16593873Y-12399930D02*
X16612920Y-12409454D01*
X16612920Y-12409454D02*
X16622444Y-12418978D01*
X16622444Y-12418978D02*
X16631968Y-12438026D01*
X16631968Y-12438026D02*
X16631968Y-12495168D01*
X16631968Y-12495168D02*
X16622444Y-12514216D01*
X16622444Y-12514216D02*
X16612920Y-12523740D01*
X16612920Y-12523740D02*
X16593873Y-12533264D01*
X16593873Y-12533264D02*
X16555777Y-12533264D01*
X16555777Y-12533264D02*
X16536730Y-12523740D01*
X16746253Y-12533264D02*
X16727206Y-12523740D01*
X16727206Y-12523740D02*
X16717682Y-12504692D01*
X16717682Y-12504692D02*
X16717682Y-12333264D01*
X16908158Y-12533264D02*
X16908158Y-12428502D01*
X16908158Y-12428502D02*
X16898635Y-12409454D01*
X16898635Y-12409454D02*
X16879587Y-12399930D01*
X16879587Y-12399930D02*
X16841492Y-12399930D01*
X16841492Y-12399930D02*
X16822444Y-12409454D01*
X16908158Y-12523740D02*
X16889111Y-12533264D01*
X16889111Y-12533264D02*
X16841492Y-12533264D01*
X16841492Y-12533264D02*
X16822444Y-12523740D01*
X16822444Y-12523740D02*
X16812920Y-12504692D01*
X16812920Y-12504692D02*
X16812920Y-12485645D01*
X16812920Y-12485645D02*
X16822444Y-12466597D01*
X16822444Y-12466597D02*
X16841492Y-12457073D01*
X16841492Y-12457073D02*
X16889111Y-12457073D01*
X16889111Y-12457073D02*
X16908158Y-12447549D01*
X16974825Y-12399930D02*
X17051015Y-12399930D01*
X17003396Y-12333264D02*
X17003396Y-12504692D01*
X17003396Y-12504692D02*
X17012920Y-12523740D01*
X17012920Y-12523740D02*
X17031968Y-12533264D01*
X17031968Y-12533264D02*
X17051015Y-12533264D01*
X17193873Y-12523740D02*
X17174825Y-12533264D01*
X17174825Y-12533264D02*
X17136730Y-12533264D01*
X17136730Y-12533264D02*
X17117682Y-12523740D01*
X17117682Y-12523740D02*
X17108158Y-12504692D01*
X17108158Y-12504692D02*
X17108158Y-12428502D01*
X17108158Y-12428502D02*
X17117682Y-12409454D01*
X17117682Y-12409454D02*
X17136730Y-12399930D01*
X17136730Y-12399930D02*
X17174825Y-12399930D01*
X17174825Y-12399930D02*
X17193873Y-12409454D01*
X17193873Y-12409454D02*
X17203396Y-12428502D01*
X17203396Y-12428502D02*
X17203396Y-12447549D01*
X17203396Y-12447549D02*
X17108158Y-12466597D01*
X17374825Y-12533264D02*
X17374825Y-12333264D01*
X17374825Y-12523740D02*
X17355777Y-12533264D01*
X17355777Y-12533264D02*
X17317682Y-12533264D01*
X17317682Y-12533264D02*
X17298635Y-12523740D01*
X17298635Y-12523740D02*
X17289111Y-12514216D01*
X17289111Y-12514216D02*
X17279587Y-12495168D01*
X17279587Y-12495168D02*
X17279587Y-12438026D01*
X17279587Y-12438026D02*
X17289111Y-12418978D01*
X17289111Y-12418978D02*
X17298635Y-12409454D01*
X17298635Y-12409454D02*
X17317682Y-12399930D01*
X17317682Y-12399930D02*
X17355777Y-12399930D01*
X17355777Y-12399930D02*
X17374825Y-12409454D01*
X17451016Y-12609454D02*
X17460539Y-12599930D01*
X17460539Y-12599930D02*
X17479587Y-12571359D01*
X17479587Y-12571359D02*
X17489111Y-12552311D01*
X17489111Y-12552311D02*
X17498635Y-12523740D01*
X17498635Y-12523740D02*
X17508158Y-12476121D01*
X17508158Y-12476121D02*
X17508158Y-12438026D01*
X17508158Y-12438026D02*
X17498635Y-12390407D01*
X17498635Y-12390407D02*
X17489111Y-12361835D01*
X17489111Y-12361835D02*
X17479587Y-12342788D01*
X17479587Y-12342788D02*
X17460539Y-12314216D01*
X17460539Y-12314216D02*
X17451016Y-12304692D01*
X10695000Y-12705780D02*
G75*
G03*
X10695000Y-12705780I-100000J0D01*
G01*
X10946253Y-12616311D02*
X10955777Y-12606788D01*
X10955777Y-12606788D02*
X10974824Y-12597264D01*
X10974824Y-12597264D02*
X11022444Y-12597264D01*
X11022444Y-12597264D02*
X11041491Y-12606788D01*
X11041491Y-12606788D02*
X11051015Y-12616311D01*
X11051015Y-12616311D02*
X11060539Y-12635359D01*
X11060539Y-12635359D02*
X11060539Y-12654407D01*
X11060539Y-12654407D02*
X11051015Y-12682978D01*
X11051015Y-12682978D02*
X10936729Y-12797264D01*
X10936729Y-12797264D02*
X11060539Y-12797264D01*
X11146253Y-12778216D02*
X11155777Y-12787740D01*
X11155777Y-12787740D02*
X11146253Y-12797264D01*
X11146253Y-12797264D02*
X11136729Y-12787740D01*
X11136729Y-12787740D02*
X11146253Y-12778216D01*
X11146253Y-12778216D02*
X11146253Y-12797264D01*
X11222443Y-12597264D02*
X11346253Y-12597264D01*
X11346253Y-12597264D02*
X11279586Y-12673454D01*
X11279586Y-12673454D02*
X11308158Y-12673454D01*
X11308158Y-12673454D02*
X11327205Y-12682978D01*
X11327205Y-12682978D02*
X11336729Y-12692502D01*
X11336729Y-12692502D02*
X11346253Y-12711549D01*
X11346253Y-12711549D02*
X11346253Y-12759168D01*
X11346253Y-12759168D02*
X11336729Y-12778216D01*
X11336729Y-12778216D02*
X11327205Y-12787740D01*
X11327205Y-12787740D02*
X11308158Y-12797264D01*
X11308158Y-12797264D02*
X11251015Y-12797264D01*
X11251015Y-12797264D02*
X11231967Y-12787740D01*
X11231967Y-12787740D02*
X11222443Y-12778216D01*
X11412920Y-12597264D02*
X11546253Y-12597264D01*
X11546253Y-12597264D02*
X11460539Y-12797264D01*
X11717682Y-12597264D02*
X11622443Y-12597264D01*
X11622443Y-12597264D02*
X11612920Y-12692502D01*
X11612920Y-12692502D02*
X11622443Y-12682978D01*
X11622443Y-12682978D02*
X11641491Y-12673454D01*
X11641491Y-12673454D02*
X11689110Y-12673454D01*
X11689110Y-12673454D02*
X11708158Y-12682978D01*
X11708158Y-12682978D02*
X11717682Y-12692502D01*
X11717682Y-12692502D02*
X11727205Y-12711549D01*
X11727205Y-12711549D02*
X11727205Y-12759168D01*
X11727205Y-12759168D02*
X11717682Y-12778216D01*
X11717682Y-12778216D02*
X11708158Y-12787740D01*
X11708158Y-12787740D02*
X11689110Y-12797264D01*
X11689110Y-12797264D02*
X11641491Y-12797264D01*
X11641491Y-12797264D02*
X11622443Y-12787740D01*
X11622443Y-12787740D02*
X11612920Y-12778216D01*
X11812920Y-12797264D02*
X11812920Y-12663930D01*
X11812920Y-12682978D02*
X11822443Y-12673454D01*
X11822443Y-12673454D02*
X11841491Y-12663930D01*
X11841491Y-12663930D02*
X11870063Y-12663930D01*
X11870063Y-12663930D02*
X11889110Y-12673454D01*
X11889110Y-12673454D02*
X11898634Y-12692502D01*
X11898634Y-12692502D02*
X11898634Y-12797264D01*
X11898634Y-12692502D02*
X11908158Y-12673454D01*
X11908158Y-12673454D02*
X11927205Y-12663930D01*
X11927205Y-12663930D02*
X11955777Y-12663930D01*
X11955777Y-12663930D02*
X11974824Y-12673454D01*
X11974824Y-12673454D02*
X11984348Y-12692502D01*
X11984348Y-12692502D02*
X11984348Y-12797264D01*
X12079586Y-12797264D02*
X12079586Y-12663930D01*
X12079586Y-12682978D02*
X12089110Y-12673454D01*
X12089110Y-12673454D02*
X12108158Y-12663930D01*
X12108158Y-12663930D02*
X12136729Y-12663930D01*
X12136729Y-12663930D02*
X12155777Y-12673454D01*
X12155777Y-12673454D02*
X12165301Y-12692502D01*
X12165301Y-12692502D02*
X12165301Y-12797264D01*
X12165301Y-12692502D02*
X12174824Y-12673454D01*
X12174824Y-12673454D02*
X12193872Y-12663930D01*
X12193872Y-12663930D02*
X12222443Y-12663930D01*
X12222443Y-12663930D02*
X12241491Y-12673454D01*
X12241491Y-12673454D02*
X12251015Y-12692502D01*
X12251015Y-12692502D02*
X12251015Y-12797264D01*
X12641491Y-12587740D02*
X12470063Y-12844883D01*
X12898634Y-12597264D02*
X12917682Y-12597264D01*
X12917682Y-12597264D02*
X12936729Y-12606788D01*
X12936729Y-12606788D02*
X12946253Y-12616311D01*
X12946253Y-12616311D02*
X12955777Y-12635359D01*
X12955777Y-12635359D02*
X12965301Y-12673454D01*
X12965301Y-12673454D02*
X12965301Y-12721073D01*
X12965301Y-12721073D02*
X12955777Y-12759168D01*
X12955777Y-12759168D02*
X12946253Y-12778216D01*
X12946253Y-12778216D02*
X12936729Y-12787740D01*
X12936729Y-12787740D02*
X12917682Y-12797264D01*
X12917682Y-12797264D02*
X12898634Y-12797264D01*
X12898634Y-12797264D02*
X12879586Y-12787740D01*
X12879586Y-12787740D02*
X12870063Y-12778216D01*
X12870063Y-12778216D02*
X12860539Y-12759168D01*
X12860539Y-12759168D02*
X12851015Y-12721073D01*
X12851015Y-12721073D02*
X12851015Y-12673454D01*
X12851015Y-12673454D02*
X12860539Y-12635359D01*
X12860539Y-12635359D02*
X12870063Y-12616311D01*
X12870063Y-12616311D02*
X12879586Y-12606788D01*
X12879586Y-12606788D02*
X12898634Y-12597264D01*
X13051015Y-12778216D02*
X13060539Y-12787740D01*
X13060539Y-12787740D02*
X13051015Y-12797264D01*
X13051015Y-12797264D02*
X13041491Y-12787740D01*
X13041491Y-12787740D02*
X13051015Y-12778216D01*
X13051015Y-12778216D02*
X13051015Y-12797264D01*
X13184348Y-12597264D02*
X13203396Y-12597264D01*
X13203396Y-12597264D02*
X13222444Y-12606788D01*
X13222444Y-12606788D02*
X13231967Y-12616311D01*
X13231967Y-12616311D02*
X13241491Y-12635359D01*
X13241491Y-12635359D02*
X13251015Y-12673454D01*
X13251015Y-12673454D02*
X13251015Y-12721073D01*
X13251015Y-12721073D02*
X13241491Y-12759168D01*
X13241491Y-12759168D02*
X13231967Y-12778216D01*
X13231967Y-12778216D02*
X13222444Y-12787740D01*
X13222444Y-12787740D02*
X13203396Y-12797264D01*
X13203396Y-12797264D02*
X13184348Y-12797264D01*
X13184348Y-12797264D02*
X13165301Y-12787740D01*
X13165301Y-12787740D02*
X13155777Y-12778216D01*
X13155777Y-12778216D02*
X13146253Y-12759168D01*
X13146253Y-12759168D02*
X13136729Y-12721073D01*
X13136729Y-12721073D02*
X13136729Y-12673454D01*
X13136729Y-12673454D02*
X13146253Y-12635359D01*
X13146253Y-12635359D02*
X13155777Y-12616311D01*
X13155777Y-12616311D02*
X13165301Y-12606788D01*
X13165301Y-12606788D02*
X13184348Y-12597264D01*
X13346253Y-12797264D02*
X13384348Y-12797264D01*
X13384348Y-12797264D02*
X13403396Y-12787740D01*
X13403396Y-12787740D02*
X13412920Y-12778216D01*
X13412920Y-12778216D02*
X13431967Y-12749645D01*
X13431967Y-12749645D02*
X13441491Y-12711549D01*
X13441491Y-12711549D02*
X13441491Y-12635359D01*
X13441491Y-12635359D02*
X13431967Y-12616311D01*
X13431967Y-12616311D02*
X13422444Y-12606788D01*
X13422444Y-12606788D02*
X13403396Y-12597264D01*
X13403396Y-12597264D02*
X13365301Y-12597264D01*
X13365301Y-12597264D02*
X13346253Y-12606788D01*
X13346253Y-12606788D02*
X13336729Y-12616311D01*
X13336729Y-12616311D02*
X13327206Y-12635359D01*
X13327206Y-12635359D02*
X13327206Y-12682978D01*
X13327206Y-12682978D02*
X13336729Y-12702026D01*
X13336729Y-12702026D02*
X13346253Y-12711549D01*
X13346253Y-12711549D02*
X13365301Y-12721073D01*
X13365301Y-12721073D02*
X13403396Y-12721073D01*
X13403396Y-12721073D02*
X13422444Y-12711549D01*
X13422444Y-12711549D02*
X13431967Y-12702026D01*
X13431967Y-12702026D02*
X13441491Y-12682978D01*
X13508158Y-12597264D02*
X13631967Y-12597264D01*
X13631967Y-12597264D02*
X13565301Y-12673454D01*
X13565301Y-12673454D02*
X13593872Y-12673454D01*
X13593872Y-12673454D02*
X13612920Y-12682978D01*
X13612920Y-12682978D02*
X13622444Y-12692502D01*
X13622444Y-12692502D02*
X13631967Y-12711549D01*
X13631967Y-12711549D02*
X13631967Y-12759168D01*
X13631967Y-12759168D02*
X13622444Y-12778216D01*
X13622444Y-12778216D02*
X13612920Y-12787740D01*
X13612920Y-12787740D02*
X13593872Y-12797264D01*
X13593872Y-12797264D02*
X13536729Y-12797264D01*
X13536729Y-12797264D02*
X13517682Y-12787740D01*
X13517682Y-12787740D02*
X13508158Y-12778216D01*
X13812920Y-12597264D02*
X13717682Y-12597264D01*
X13717682Y-12597264D02*
X13708158Y-12692502D01*
X13708158Y-12692502D02*
X13717682Y-12682978D01*
X13717682Y-12682978D02*
X13736729Y-12673454D01*
X13736729Y-12673454D02*
X13784348Y-12673454D01*
X13784348Y-12673454D02*
X13803396Y-12682978D01*
X13803396Y-12682978D02*
X13812920Y-12692502D01*
X13812920Y-12692502D02*
X13822444Y-12711549D01*
X13822444Y-12711549D02*
X13822444Y-12759168D01*
X13822444Y-12759168D02*
X13812920Y-12778216D01*
X13812920Y-12778216D02*
X13803396Y-12787740D01*
X13803396Y-12787740D02*
X13784348Y-12797264D01*
X13784348Y-12797264D02*
X13736729Y-12797264D01*
X13736729Y-12797264D02*
X13717682Y-12787740D01*
X13717682Y-12787740D02*
X13708158Y-12778216D01*
X13898634Y-12597264D02*
X13898634Y-12635359D01*
X13974825Y-12597264D02*
X13974825Y-12635359D01*
X14270063Y-12873454D02*
X14260539Y-12863930D01*
X14260539Y-12863930D02*
X14241491Y-12835359D01*
X14241491Y-12835359D02*
X14231968Y-12816311D01*
X14231968Y-12816311D02*
X14222444Y-12787740D01*
X14222444Y-12787740D02*
X14212920Y-12740121D01*
X14212920Y-12740121D02*
X14212920Y-12702026D01*
X14212920Y-12702026D02*
X14222444Y-12654407D01*
X14222444Y-12654407D02*
X14231968Y-12625835D01*
X14231968Y-12625835D02*
X14241491Y-12606788D01*
X14241491Y-12606788D02*
X14260539Y-12578216D01*
X14260539Y-12578216D02*
X14270063Y-12568692D01*
X14431968Y-12663930D02*
X14431968Y-12797264D01*
X14384348Y-12587740D02*
X14336729Y-12730597D01*
X14336729Y-12730597D02*
X14460539Y-12730597D01*
X14689110Y-12797264D02*
X14689110Y-12597264D01*
X14774825Y-12797264D02*
X14774825Y-12692502D01*
X14774825Y-12692502D02*
X14765301Y-12673454D01*
X14765301Y-12673454D02*
X14746253Y-12663930D01*
X14746253Y-12663930D02*
X14717682Y-12663930D01*
X14717682Y-12663930D02*
X14698634Y-12673454D01*
X14698634Y-12673454D02*
X14689110Y-12682978D01*
X14898634Y-12797264D02*
X14879587Y-12787740D01*
X14879587Y-12787740D02*
X14870063Y-12778216D01*
X14870063Y-12778216D02*
X14860539Y-12759168D01*
X14860539Y-12759168D02*
X14860539Y-12702026D01*
X14860539Y-12702026D02*
X14870063Y-12682978D01*
X14870063Y-12682978D02*
X14879587Y-12673454D01*
X14879587Y-12673454D02*
X14898634Y-12663930D01*
X14898634Y-12663930D02*
X14927206Y-12663930D01*
X14927206Y-12663930D02*
X14946253Y-12673454D01*
X14946253Y-12673454D02*
X14955777Y-12682978D01*
X14955777Y-12682978D02*
X14965301Y-12702026D01*
X14965301Y-12702026D02*
X14965301Y-12759168D01*
X14965301Y-12759168D02*
X14955777Y-12778216D01*
X14955777Y-12778216D02*
X14946253Y-12787740D01*
X14946253Y-12787740D02*
X14927206Y-12797264D01*
X14927206Y-12797264D02*
X14898634Y-12797264D01*
X15079587Y-12797264D02*
X15060539Y-12787740D01*
X15060539Y-12787740D02*
X15051015Y-12768692D01*
X15051015Y-12768692D02*
X15051015Y-12597264D01*
X15231968Y-12787740D02*
X15212920Y-12797264D01*
X15212920Y-12797264D02*
X15174825Y-12797264D01*
X15174825Y-12797264D02*
X15155777Y-12787740D01*
X15155777Y-12787740D02*
X15146253Y-12768692D01*
X15146253Y-12768692D02*
X15146253Y-12692502D01*
X15146253Y-12692502D02*
X15155777Y-12673454D01*
X15155777Y-12673454D02*
X15174825Y-12663930D01*
X15174825Y-12663930D02*
X15212920Y-12663930D01*
X15212920Y-12663930D02*
X15231968Y-12673454D01*
X15231968Y-12673454D02*
X15241491Y-12692502D01*
X15241491Y-12692502D02*
X15241491Y-12711549D01*
X15241491Y-12711549D02*
X15146253Y-12730597D01*
X15317682Y-12787740D02*
X15336730Y-12797264D01*
X15336730Y-12797264D02*
X15374825Y-12797264D01*
X15374825Y-12797264D02*
X15393872Y-12787740D01*
X15393872Y-12787740D02*
X15403396Y-12768692D01*
X15403396Y-12768692D02*
X15403396Y-12759168D01*
X15403396Y-12759168D02*
X15393872Y-12740121D01*
X15393872Y-12740121D02*
X15374825Y-12730597D01*
X15374825Y-12730597D02*
X15346253Y-12730597D01*
X15346253Y-12730597D02*
X15327206Y-12721073D01*
X15327206Y-12721073D02*
X15317682Y-12702026D01*
X15317682Y-12702026D02*
X15317682Y-12692502D01*
X15317682Y-12692502D02*
X15327206Y-12673454D01*
X15327206Y-12673454D02*
X15346253Y-12663930D01*
X15346253Y-12663930D02*
X15374825Y-12663930D01*
X15374825Y-12663930D02*
X15393872Y-12673454D01*
X15470063Y-12873454D02*
X15479587Y-12863930D01*
X15479587Y-12863930D02*
X15498634Y-12835359D01*
X15498634Y-12835359D02*
X15508158Y-12816311D01*
X15508158Y-12816311D02*
X15517682Y-12787740D01*
X15517682Y-12787740D02*
X15527206Y-12740121D01*
X15527206Y-12740121D02*
X15527206Y-12702026D01*
X15527206Y-12702026D02*
X15517682Y-12654407D01*
X15517682Y-12654407D02*
X15508158Y-12625835D01*
X15508158Y-12625835D02*
X15498634Y-12606788D01*
X15498634Y-12606788D02*
X15479587Y-12578216D01*
X15479587Y-12578216D02*
X15470063Y-12568692D01*
X15831968Y-12873454D02*
X15822444Y-12863930D01*
X15822444Y-12863930D02*
X15803396Y-12835359D01*
X15803396Y-12835359D02*
X15793872Y-12816311D01*
X15793872Y-12816311D02*
X15784349Y-12787740D01*
X15784349Y-12787740D02*
X15774825Y-12740121D01*
X15774825Y-12740121D02*
X15774825Y-12702026D01*
X15774825Y-12702026D02*
X15784349Y-12654407D01*
X15784349Y-12654407D02*
X15793872Y-12625835D01*
X15793872Y-12625835D02*
X15803396Y-12606788D01*
X15803396Y-12606788D02*
X15822444Y-12578216D01*
X15822444Y-12578216D02*
X15831968Y-12568692D01*
X15908158Y-12663930D02*
X15908158Y-12797264D01*
X15908158Y-12682978D02*
X15917682Y-12673454D01*
X15917682Y-12673454D02*
X15936730Y-12663930D01*
X15936730Y-12663930D02*
X15965301Y-12663930D01*
X15965301Y-12663930D02*
X15984349Y-12673454D01*
X15984349Y-12673454D02*
X15993872Y-12692502D01*
X15993872Y-12692502D02*
X15993872Y-12797264D01*
X16117682Y-12797264D02*
X16098634Y-12787740D01*
X16098634Y-12787740D02*
X16089111Y-12778216D01*
X16089111Y-12778216D02*
X16079587Y-12759168D01*
X16079587Y-12759168D02*
X16079587Y-12702026D01*
X16079587Y-12702026D02*
X16089111Y-12682978D01*
X16089111Y-12682978D02*
X16098634Y-12673454D01*
X16098634Y-12673454D02*
X16117682Y-12663930D01*
X16117682Y-12663930D02*
X16146253Y-12663930D01*
X16146253Y-12663930D02*
X16165301Y-12673454D01*
X16165301Y-12673454D02*
X16174825Y-12682978D01*
X16174825Y-12682978D02*
X16184349Y-12702026D01*
X16184349Y-12702026D02*
X16184349Y-12759168D01*
X16184349Y-12759168D02*
X16174825Y-12778216D01*
X16174825Y-12778216D02*
X16165301Y-12787740D01*
X16165301Y-12787740D02*
X16146253Y-12797264D01*
X16146253Y-12797264D02*
X16117682Y-12797264D01*
X16241492Y-12663930D02*
X16317682Y-12663930D01*
X16270063Y-12597264D02*
X16270063Y-12768692D01*
X16270063Y-12768692D02*
X16279587Y-12787740D01*
X16279587Y-12787740D02*
X16298634Y-12797264D01*
X16298634Y-12797264D02*
X16317682Y-12797264D01*
X16536730Y-12663930D02*
X16536730Y-12863930D01*
X16536730Y-12673454D02*
X16555777Y-12663930D01*
X16555777Y-12663930D02*
X16593873Y-12663930D01*
X16593873Y-12663930D02*
X16612920Y-12673454D01*
X16612920Y-12673454D02*
X16622444Y-12682978D01*
X16622444Y-12682978D02*
X16631968Y-12702026D01*
X16631968Y-12702026D02*
X16631968Y-12759168D01*
X16631968Y-12759168D02*
X16622444Y-12778216D01*
X16622444Y-12778216D02*
X16612920Y-12787740D01*
X16612920Y-12787740D02*
X16593873Y-12797264D01*
X16593873Y-12797264D02*
X16555777Y-12797264D01*
X16555777Y-12797264D02*
X16536730Y-12787740D01*
X16746253Y-12797264D02*
X16727206Y-12787740D01*
X16727206Y-12787740D02*
X16717682Y-12768692D01*
X16717682Y-12768692D02*
X16717682Y-12597264D01*
X16908158Y-12797264D02*
X16908158Y-12692502D01*
X16908158Y-12692502D02*
X16898635Y-12673454D01*
X16898635Y-12673454D02*
X16879587Y-12663930D01*
X16879587Y-12663930D02*
X16841492Y-12663930D01*
X16841492Y-12663930D02*
X16822444Y-12673454D01*
X16908158Y-12787740D02*
X16889111Y-12797264D01*
X16889111Y-12797264D02*
X16841492Y-12797264D01*
X16841492Y-12797264D02*
X16822444Y-12787740D01*
X16822444Y-12787740D02*
X16812920Y-12768692D01*
X16812920Y-12768692D02*
X16812920Y-12749645D01*
X16812920Y-12749645D02*
X16822444Y-12730597D01*
X16822444Y-12730597D02*
X16841492Y-12721073D01*
X16841492Y-12721073D02*
X16889111Y-12721073D01*
X16889111Y-12721073D02*
X16908158Y-12711549D01*
X16974825Y-12663930D02*
X17051015Y-12663930D01*
X17003396Y-12597264D02*
X17003396Y-12768692D01*
X17003396Y-12768692D02*
X17012920Y-12787740D01*
X17012920Y-12787740D02*
X17031968Y-12797264D01*
X17031968Y-12797264D02*
X17051015Y-12797264D01*
X17193873Y-12787740D02*
X17174825Y-12797264D01*
X17174825Y-12797264D02*
X17136730Y-12797264D01*
X17136730Y-12797264D02*
X17117682Y-12787740D01*
X17117682Y-12787740D02*
X17108158Y-12768692D01*
X17108158Y-12768692D02*
X17108158Y-12692502D01*
X17108158Y-12692502D02*
X17117682Y-12673454D01*
X17117682Y-12673454D02*
X17136730Y-12663930D01*
X17136730Y-12663930D02*
X17174825Y-12663930D01*
X17174825Y-12663930D02*
X17193873Y-12673454D01*
X17193873Y-12673454D02*
X17203396Y-12692502D01*
X17203396Y-12692502D02*
X17203396Y-12711549D01*
X17203396Y-12711549D02*
X17108158Y-12730597D01*
X17374825Y-12797264D02*
X17374825Y-12597264D01*
X17374825Y-12787740D02*
X17355777Y-12797264D01*
X17355777Y-12797264D02*
X17317682Y-12797264D01*
X17317682Y-12797264D02*
X17298635Y-12787740D01*
X17298635Y-12787740D02*
X17289111Y-12778216D01*
X17289111Y-12778216D02*
X17279587Y-12759168D01*
X17279587Y-12759168D02*
X17279587Y-12702026D01*
X17279587Y-12702026D02*
X17289111Y-12682978D01*
X17289111Y-12682978D02*
X17298635Y-12673454D01*
X17298635Y-12673454D02*
X17317682Y-12663930D01*
X17317682Y-12663930D02*
X17355777Y-12663930D01*
X17355777Y-12663930D02*
X17374825Y-12673454D01*
X17451016Y-12873454D02*
X17460539Y-12863930D01*
X17460539Y-12863930D02*
X17479587Y-12835359D01*
X17479587Y-12835359D02*
X17489111Y-12816311D01*
X17489111Y-12816311D02*
X17498635Y-12787740D01*
X17498635Y-12787740D02*
X17508158Y-12740121D01*
X17508158Y-12740121D02*
X17508158Y-12702026D01*
X17508158Y-12702026D02*
X17498635Y-12654407D01*
X17498635Y-12654407D02*
X17489111Y-12625835D01*
X17489111Y-12625835D02*
X17479587Y-12606788D01*
X17479587Y-12606788D02*
X17460539Y-12578216D01*
X17460539Y-12578216D02*
X17451016Y-12568692D01*
M02*
