G04 #@! TF.GenerationSoftware,KiCad,Pcbnew,7.0.5-7.0.5~ubuntu22.04.1*
G04 #@! TF.CreationDate,2023-06-04T23:43:17-04:00*
G04 #@! TF.ProjectId,reaction-trainer,72656163-7469-46f6-9e2d-747261696e65,1.0*
G04 #@! TF.SameCoordinates,Original*
G04 #@! TF.FileFunction,Copper,L1,Top*
G04 #@! TF.FilePolarity,Positive*
%FSLAX46Y46*%
G04 Gerber Fmt 4.6, Leading zero omitted, Abs format (unit mm)*
G04 Created by KiCad (PCBNEW 7.0.5-7.0.5~ubuntu22.04.1) date 2023-06-04 23:43:17*
%MOMM*%
%LPD*%
G01*
G04 APERTURE LIST*
G04 Aperture macros list*
%AMRoundRect*
0 Rectangle with rounded corners*
0 $1 Rounding radius*
0 $2 $3 $4 $5 $6 $7 $8 $9 X,Y pos of 4 corners*
0 Add a 4 corners polygon primitive as box body*
4,1,4,$2,$3,$4,$5,$6,$7,$8,$9,$2,$3,0*
0 Add four circle primitives for the rounded corners*
1,1,$1+$1,$2,$3*
1,1,$1+$1,$4,$5*
1,1,$1+$1,$6,$7*
1,1,$1+$1,$8,$9*
0 Add four rect primitives between the rounded corners*
20,1,$1+$1,$2,$3,$4,$5,0*
20,1,$1+$1,$4,$5,$6,$7,0*
20,1,$1+$1,$6,$7,$8,$9,0*
20,1,$1+$1,$8,$9,$2,$3,0*%
%AMFreePoly0*
4,1,9,3.862500,-0.866500,0.737500,-0.866500,0.737500,-0.450000,-0.737500,-0.450000,-0.737500,0.450000,0.737500,0.450000,0.737500,0.866500,3.862500,0.866500,3.862500,-0.866500,3.862500,-0.866500,$1*%
G04 Aperture macros list end*
G04 #@! TA.AperFunction,SMDPad,CuDef*
%ADD10R,2.100000X1.800000*%
G04 #@! TD*
G04 #@! TA.AperFunction,SMDPad,CuDef*
%ADD11RoundRect,0.087500X0.187500X0.087500X-0.187500X0.087500X-0.187500X-0.087500X0.187500X-0.087500X0*%
G04 #@! TD*
G04 #@! TA.AperFunction,SMDPad,CuDef*
%ADD12RoundRect,0.087500X0.087500X0.187500X-0.087500X0.187500X-0.087500X-0.187500X0.087500X-0.187500X0*%
G04 #@! TD*
G04 #@! TA.AperFunction,SMDPad,CuDef*
%ADD13RoundRect,0.155000X-0.212500X-0.155000X0.212500X-0.155000X0.212500X0.155000X-0.212500X0.155000X0*%
G04 #@! TD*
G04 #@! TA.AperFunction,SMDPad,CuDef*
%ADD14RoundRect,0.160000X0.197500X0.160000X-0.197500X0.160000X-0.197500X-0.160000X0.197500X-0.160000X0*%
G04 #@! TD*
G04 #@! TA.AperFunction,SMDPad,CuDef*
%ADD15RoundRect,0.155000X0.155000X-0.212500X0.155000X0.212500X-0.155000X0.212500X-0.155000X-0.212500X0*%
G04 #@! TD*
G04 #@! TA.AperFunction,ConnectorPad*
%ADD16C,0.787400*%
G04 #@! TD*
G04 #@! TA.AperFunction,SMDPad,CuDef*
%ADD17RoundRect,0.155000X-0.155000X0.212500X-0.155000X-0.212500X0.155000X-0.212500X0.155000X0.212500X0*%
G04 #@! TD*
G04 #@! TA.AperFunction,SMDPad,CuDef*
%ADD18RoundRect,0.250000X0.450000X-0.350000X0.450000X0.350000X-0.450000X0.350000X-0.450000X-0.350000X0*%
G04 #@! TD*
G04 #@! TA.AperFunction,SMDPad,CuDef*
%ADD19RoundRect,0.160000X-0.197500X-0.160000X0.197500X-0.160000X0.197500X0.160000X-0.197500X0.160000X0*%
G04 #@! TD*
G04 #@! TA.AperFunction,SMDPad,CuDef*
%ADD20RoundRect,0.160000X-0.160000X0.197500X-0.160000X-0.197500X0.160000X-0.197500X0.160000X0.197500X0*%
G04 #@! TD*
G04 #@! TA.AperFunction,SMDPad,CuDef*
%ADD21RoundRect,0.155000X0.212500X0.155000X-0.212500X0.155000X-0.212500X-0.155000X0.212500X-0.155000X0*%
G04 #@! TD*
G04 #@! TA.AperFunction,SMDPad,CuDef*
%ADD22RoundRect,0.100000X-0.637500X-0.100000X0.637500X-0.100000X0.637500X0.100000X-0.637500X0.100000X0*%
G04 #@! TD*
G04 #@! TA.AperFunction,SMDPad,CuDef*
%ADD23RoundRect,0.250000X-0.450000X0.350000X-0.450000X-0.350000X0.450000X-0.350000X0.450000X0.350000X0*%
G04 #@! TD*
G04 #@! TA.AperFunction,SMDPad,CuDef*
%ADD24RoundRect,0.160000X-0.160000X0.222500X-0.160000X-0.222500X0.160000X-0.222500X0.160000X0.222500X0*%
G04 #@! TD*
G04 #@! TA.AperFunction,SMDPad,CuDef*
%ADD25R,2.000000X1.100000*%
G04 #@! TD*
G04 #@! TA.AperFunction,SMDPad,CuDef*
%ADD26R,1.300000X0.900000*%
G04 #@! TD*
G04 #@! TA.AperFunction,SMDPad,CuDef*
%ADD27FreePoly0,0.000000*%
G04 #@! TD*
G04 #@! TA.AperFunction,SMDPad,CuDef*
%ADD28RoundRect,0.062500X-0.400000X-0.062500X0.400000X-0.062500X0.400000X0.062500X-0.400000X0.062500X0*%
G04 #@! TD*
G04 #@! TA.AperFunction,SMDPad,CuDef*
%ADD29RoundRect,0.062500X-0.062500X-0.400000X0.062500X-0.400000X0.062500X0.400000X-0.062500X0.400000X0*%
G04 #@! TD*
G04 #@! TA.AperFunction,ComponentPad*
%ADD30C,0.500000*%
G04 #@! TD*
G04 #@! TA.AperFunction,SMDPad,CuDef*
%ADD31R,6.400000X6.400000*%
G04 #@! TD*
G04 #@! TA.AperFunction,SMDPad,CuDef*
%ADD32RoundRect,0.160000X0.160000X-0.197500X0.160000X0.197500X-0.160000X0.197500X-0.160000X-0.197500X0*%
G04 #@! TD*
G04 #@! TA.AperFunction,SMDPad,CuDef*
%ADD33R,0.200000X0.200000*%
G04 #@! TD*
G04 #@! TA.AperFunction,ComponentPad*
%ADD34R,1.700000X1.700000*%
G04 #@! TD*
G04 #@! TA.AperFunction,ComponentPad*
%ADD35O,1.700000X1.700000*%
G04 #@! TD*
G04 #@! TA.AperFunction,ComponentPad*
%ADD36C,3.600000*%
G04 #@! TD*
G04 #@! TA.AperFunction,ConnectorPad*
%ADD37C,5.600000*%
G04 #@! TD*
G04 #@! TA.AperFunction,SMDPad,CuDef*
%ADD38RoundRect,0.150000X-0.512500X-0.150000X0.512500X-0.150000X0.512500X0.150000X-0.512500X0.150000X0*%
G04 #@! TD*
G04 #@! TA.AperFunction,SMDPad,CuDef*
%ADD39R,0.400000X1.350000*%
G04 #@! TD*
G04 #@! TA.AperFunction,ComponentPad*
%ADD40O,1.000000X1.900000*%
G04 #@! TD*
G04 #@! TA.AperFunction,SMDPad,CuDef*
%ADD41R,0.875000X1.900000*%
G04 #@! TD*
G04 #@! TA.AperFunction,ComponentPad*
%ADD42O,1.050000X1.250000*%
G04 #@! TD*
G04 #@! TA.AperFunction,SMDPad,CuDef*
%ADD43R,2.900000X1.900000*%
G04 #@! TD*
G04 #@! TA.AperFunction,SMDPad,CuDef*
%ADD44RoundRect,0.150000X0.150000X-0.512500X0.150000X0.512500X-0.150000X0.512500X-0.150000X-0.512500X0*%
G04 #@! TD*
G04 #@! TA.AperFunction,ComponentPad*
%ADD45RoundRect,0.250000X-0.625000X0.350000X-0.625000X-0.350000X0.625000X-0.350000X0.625000X0.350000X0*%
G04 #@! TD*
G04 #@! TA.AperFunction,ComponentPad*
%ADD46O,1.750000X1.200000*%
G04 #@! TD*
G04 #@! TA.AperFunction,ViaPad*
%ADD47C,0.600000*%
G04 #@! TD*
G04 #@! TA.AperFunction,ViaPad*
%ADD48C,0.800000*%
G04 #@! TD*
G04 #@! TA.AperFunction,Conductor*
%ADD49C,0.250000*%
G04 #@! TD*
G04 #@! TA.AperFunction,Conductor*
%ADD50C,0.500000*%
G04 #@! TD*
G04 #@! TA.AperFunction,Conductor*
%ADD51C,0.400000*%
G04 #@! TD*
G04 #@! TA.AperFunction,Conductor*
%ADD52C,0.900000*%
G04 #@! TD*
G04 APERTURE END LIST*
G04 #@! TA.AperFunction,EtchedComponent*
G36*
X129267493Y-67797294D02*
G01*
X128767496Y-67797294D01*
X128767496Y-63677294D01*
X129267493Y-63677294D01*
X129267493Y-67797294D01*
G37*
G04 #@! TD.AperFunction*
G04 #@! TA.AperFunction,EtchedComponent*
G36*
X131067185Y-66496907D02*
G01*
X130567185Y-66496907D01*
X130567185Y-63676907D01*
X131067185Y-63676907D01*
X131067185Y-66496907D01*
G37*
G04 #@! TD.AperFunction*
G04 #@! TA.AperFunction,EtchedComponent*
G36*
X131067503Y-63857294D02*
G01*
X128767506Y-63857294D01*
X128767506Y-63357294D01*
X131067503Y-63357294D01*
X131067503Y-63857294D01*
G37*
G04 #@! TD.AperFunction*
G04 #@! TA.AperFunction,EtchedComponent*
G36*
X133252891Y-66496975D02*
G01*
X130763691Y-66496975D01*
X130763691Y-65996979D01*
X133252891Y-65996979D01*
X133252891Y-66496975D01*
G37*
G04 #@! TD.AperFunction*
G04 #@! TA.AperFunction,EtchedComponent*
G36*
X133267185Y-66496907D02*
G01*
X132767185Y-66496907D01*
X132767185Y-63676907D01*
X133267185Y-63676907D01*
X133267185Y-66496907D01*
G37*
G04 #@! TD.AperFunction*
G04 #@! TA.AperFunction,EtchedComponent*
G36*
X135167504Y-66497297D02*
G01*
X134667500Y-66497297D01*
X134667500Y-63677297D01*
X135167504Y-63677297D01*
X135167504Y-66497297D01*
G37*
G04 #@! TD.AperFunction*
G04 #@! TA.AperFunction,EtchedComponent*
G36*
X135167507Y-63857297D02*
G01*
X132767507Y-63857297D01*
X132767507Y-63357297D01*
X135167507Y-63357297D01*
X135167507Y-63857297D01*
G37*
G04 #@! TD.AperFunction*
G04 #@! TA.AperFunction,EtchedComponent*
G36*
X137277497Y-66497294D02*
G01*
X134737497Y-66497294D01*
X134737497Y-66002494D01*
X137277497Y-66002494D01*
X137277497Y-66497294D01*
G37*
G04 #@! TD.AperFunction*
G04 #@! TA.AperFunction,EtchedComponent*
G36*
X137367891Y-66496975D02*
G01*
X136867891Y-66496975D01*
X136867891Y-63676979D01*
X137367891Y-63676979D01*
X137367891Y-66496975D01*
G37*
G04 #@! TD.AperFunction*
G04 #@! TA.AperFunction,EtchedComponent*
G36*
X139367889Y-68957495D02*
G01*
X138867890Y-68957495D01*
X138867890Y-63626178D01*
X139367889Y-63626178D01*
X139367889Y-68957495D01*
G37*
G04 #@! TD.AperFunction*
G04 #@! TA.AperFunction,EtchedComponent*
G36*
X141067184Y-68957495D02*
G01*
X140167184Y-68957495D01*
X140167184Y-63651506D01*
X141067184Y-63651506D01*
X141067184Y-68957495D01*
G37*
G04 #@! TD.AperFunction*
G04 #@! TA.AperFunction,EtchedComponent*
G36*
X141067502Y-63857294D02*
G01*
X136867503Y-63857294D01*
X136867503Y-63357294D01*
X141067502Y-63357294D01*
X141067502Y-63857294D01*
G37*
G04 #@! TD.AperFunction*
D10*
X121310400Y-82467800D03*
X118410400Y-82467800D03*
X118410400Y-84767800D03*
X121310400Y-84767800D03*
D11*
X123272000Y-92821000D03*
X123272000Y-92321000D03*
X123272000Y-91821000D03*
X123272000Y-91321000D03*
X123272000Y-90821000D03*
D12*
X122547000Y-90596000D03*
X122047000Y-90596000D03*
X121547000Y-90596000D03*
D11*
X120822000Y-90821000D03*
X120822000Y-91321000D03*
X120822000Y-91821000D03*
X120822000Y-92321000D03*
X120822000Y-92821000D03*
D12*
X121547000Y-93046000D03*
X122047000Y-93046000D03*
X122547000Y-93046000D03*
D13*
X133942200Y-91541600D03*
X135077200Y-91541600D03*
D14*
X132716200Y-87884000D03*
X131521200Y-87884000D03*
D15*
X121513600Y-95826200D03*
X121513600Y-94691200D03*
D16*
X151307800Y-102666800D03*
X151307800Y-101396800D03*
X151307800Y-100126800D03*
X151307800Y-98856800D03*
X151307800Y-97586800D03*
X150037800Y-97586800D03*
X150037800Y-98856800D03*
X150037800Y-100126800D03*
X150037800Y-101396800D03*
X150037800Y-102666800D03*
D17*
X135280400Y-104884600D03*
X135280400Y-106019600D03*
D18*
X155803600Y-82060800D03*
X155803600Y-80060800D03*
D19*
X126719400Y-96316800D03*
X127914400Y-96316800D03*
D20*
X129184400Y-96341000D03*
X129184400Y-97536000D03*
D21*
X133257100Y-101041200D03*
X132122100Y-101041200D03*
D22*
X144711500Y-81657000D03*
X144711500Y-82307000D03*
X144711500Y-82957000D03*
X144711500Y-83607000D03*
X144711500Y-84257000D03*
X144711500Y-84907000D03*
X144711500Y-85557000D03*
X144711500Y-86207000D03*
X144711500Y-86857000D03*
X144711500Y-87507000D03*
X150436500Y-87507000D03*
X150436500Y-86857000D03*
X150436500Y-86207000D03*
X150436500Y-85557000D03*
X150436500Y-84907000D03*
X150436500Y-84257000D03*
X150436500Y-83607000D03*
X150436500Y-82957000D03*
X150436500Y-82307000D03*
X150436500Y-81657000D03*
D14*
X136702800Y-74980800D03*
X135507800Y-74980800D03*
D23*
X153416000Y-89560400D03*
X153416000Y-91560400D03*
X147878800Y-89560400D03*
X147878800Y-91560400D03*
D15*
X126847600Y-110202600D03*
X126847600Y-109067600D03*
D17*
X136296400Y-87307800D03*
X136296400Y-88442800D03*
D24*
X139125258Y-72515000D03*
X139125258Y-73660000D03*
D25*
X154432000Y-76581000D03*
X154432000Y-74881000D03*
X154432000Y-73181000D03*
X149632000Y-73181000D03*
X149632000Y-74881000D03*
X149632000Y-76581000D03*
D10*
X121289400Y-77133800D03*
X118389400Y-77133800D03*
X118389400Y-79433800D03*
X121289400Y-79433800D03*
D20*
X145745200Y-77900600D03*
X145745200Y-79095600D03*
D18*
X158292800Y-82111600D03*
X158292800Y-80111600D03*
D26*
X133279600Y-94867600D03*
D27*
X133367100Y-96367600D03*
D26*
X133279600Y-97867600D03*
D28*
X129995000Y-78407500D03*
X129995000Y-78807500D03*
X129995000Y-79207500D03*
X129995000Y-79607500D03*
X129995000Y-80007500D03*
X129995000Y-80407500D03*
X129995000Y-80807500D03*
X129995000Y-81207500D03*
X129995000Y-81607500D03*
X129995000Y-82007500D03*
X129995000Y-82407500D03*
X129995000Y-82807500D03*
X129995000Y-83207500D03*
X129995000Y-83607500D03*
X129995000Y-84007500D03*
X129995000Y-84407500D03*
X129995000Y-84807500D03*
D29*
X130682500Y-85495000D03*
X131082500Y-85495000D03*
X131482500Y-85495000D03*
X131882500Y-85495000D03*
X132282500Y-85495000D03*
X132682500Y-85495000D03*
X133082500Y-85495000D03*
X133482500Y-85495000D03*
X133882500Y-85495000D03*
X134282500Y-85495000D03*
X134682500Y-85495000D03*
X135082500Y-85495000D03*
X135482500Y-85495000D03*
X135882500Y-85495000D03*
X136282500Y-85495000D03*
X136682500Y-85495000D03*
X137082500Y-85495000D03*
D28*
X137770000Y-84807500D03*
X137770000Y-84407500D03*
X137770000Y-84007500D03*
X137770000Y-83607500D03*
X137770000Y-83207500D03*
X137770000Y-82807500D03*
X137770000Y-82407500D03*
X137770000Y-82007500D03*
X137770000Y-81607500D03*
X137770000Y-81207500D03*
X137770000Y-80807500D03*
X137770000Y-80407500D03*
X137770000Y-80007500D03*
X137770000Y-79607500D03*
X137770000Y-79207500D03*
X137770000Y-78807500D03*
X137770000Y-78407500D03*
D29*
X137082500Y-77720000D03*
X136682500Y-77720000D03*
X136282500Y-77720000D03*
X135882500Y-77720000D03*
X135482500Y-77720000D03*
X135082500Y-77720000D03*
X134682500Y-77720000D03*
X134282500Y-77720000D03*
X133882500Y-77720000D03*
X133482500Y-77720000D03*
X133082500Y-77720000D03*
X132682500Y-77720000D03*
X132282500Y-77720000D03*
X131882500Y-77720000D03*
X131482500Y-77720000D03*
X131082500Y-77720000D03*
X130682500Y-77720000D03*
D30*
X130932500Y-78657500D03*
X130932500Y-80132500D03*
X130932500Y-81607500D03*
X130932500Y-83082500D03*
X130932500Y-84557500D03*
X132407500Y-78657500D03*
X132407500Y-80132500D03*
X132407500Y-81607500D03*
X132407500Y-83082500D03*
X132407500Y-84557500D03*
X133882500Y-78657500D03*
X133882500Y-80132500D03*
X133882500Y-81607500D03*
D31*
X133882500Y-81607500D03*
D30*
X133882500Y-83082500D03*
X133882500Y-84557500D03*
X135357500Y-78657500D03*
X135357500Y-80132500D03*
X135357500Y-81607500D03*
X135357500Y-83082500D03*
X135357500Y-84557500D03*
X136832500Y-78657500D03*
X136832500Y-80132500D03*
X136832500Y-81607500D03*
X136832500Y-83082500D03*
X136832500Y-84557500D03*
D15*
X123469400Y-78282800D03*
X123469400Y-77147800D03*
D17*
X115976400Y-77147800D03*
X115976400Y-78282800D03*
X116103400Y-83497800D03*
X116103400Y-84632800D03*
D18*
X153314400Y-81686400D03*
X153314400Y-79686400D03*
D32*
X133553200Y-75464600D03*
X133553200Y-74269600D03*
D21*
X142867000Y-77876400D03*
X141732000Y-77876400D03*
D15*
X122834400Y-95826200D03*
X122834400Y-94691200D03*
D17*
X127508000Y-76081000D03*
X127508000Y-77216000D03*
D21*
X139131817Y-74981398D03*
X137996817Y-74981398D03*
D33*
X139127500Y-68857500D03*
X140610300Y-68857500D03*
D23*
X150571200Y-89560400D03*
X150571200Y-91560400D03*
D34*
X143256000Y-102666800D03*
D35*
X143256000Y-100126800D03*
D15*
X123596400Y-83616800D03*
X123596400Y-82481800D03*
D20*
X130860800Y-104977000D03*
X130860800Y-106172000D03*
D32*
X120091200Y-95886200D03*
X120091200Y-94691200D03*
D15*
X132689600Y-110050200D03*
X132689600Y-108915200D03*
D36*
X111000000Y-90000000D03*
D37*
X111000000Y-90000000D03*
D13*
X139128282Y-71120000D03*
X140263282Y-71120000D03*
D38*
X128574800Y-108153200D03*
X128574800Y-109103200D03*
X128574800Y-110053200D03*
X130849800Y-110053200D03*
X130849800Y-108153200D03*
D39*
X136366800Y-113842800D03*
X135716800Y-113842800D03*
X135066800Y-113842800D03*
X134416800Y-113842800D03*
X133766800Y-113842800D03*
D40*
X130891800Y-116517800D03*
D41*
X131329300Y-116517800D03*
D42*
X132841800Y-113517800D03*
D43*
X135066800Y-116517800D03*
D42*
X137291800Y-113517800D03*
D41*
X138804300Y-116517800D03*
D40*
X139241800Y-116517800D03*
D13*
X129979800Y-86868000D03*
X131114800Y-86868000D03*
D36*
X159000000Y-90000000D03*
D37*
X159000000Y-90000000D03*
D13*
X149098000Y-79603600D03*
X150233000Y-79603600D03*
X127143700Y-82499200D03*
X128278700Y-82499200D03*
X125712600Y-87884000D03*
X126847600Y-87884000D03*
D20*
X131673600Y-74269600D03*
X131673600Y-75464600D03*
D34*
X120446800Y-73507600D03*
D35*
X122986800Y-73507600D03*
D25*
X120764000Y-107364000D03*
X120764000Y-105664000D03*
X120764000Y-103964000D03*
X115964000Y-103964000D03*
X115964000Y-105664000D03*
X115964000Y-107364000D03*
D21*
X130107500Y-76200000D03*
X128972500Y-76200000D03*
X130107500Y-74930000D03*
X128972500Y-74930000D03*
D44*
X134330400Y-109951100D03*
X135280400Y-109951100D03*
X136230400Y-109951100D03*
X136230400Y-107676100D03*
X135280400Y-107676100D03*
X134330400Y-107676100D03*
D17*
X134924800Y-87307800D03*
X134924800Y-88442800D03*
D45*
X126492000Y-101346000D03*
D46*
X126492000Y-103346000D03*
D47*
X141840000Y-71596000D03*
X123840000Y-75596000D03*
X151840000Y-74596000D03*
X143840000Y-74596000D03*
D48*
X135280400Y-111607600D03*
D47*
X141840000Y-69596000D03*
X137840000Y-69596000D03*
X152840000Y-72596000D03*
X116840000Y-72596000D03*
X128840000Y-70596000D03*
X148840000Y-69596000D03*
X118840000Y-71596000D03*
X117840000Y-75596000D03*
X150840000Y-71596000D03*
X117840000Y-74596000D03*
X116840000Y-73596000D03*
X117840000Y-71596000D03*
X141840000Y-70596000D03*
X141840000Y-72596000D03*
X144840000Y-72596000D03*
X117840000Y-70596000D03*
X152840000Y-71596000D03*
X142840000Y-71596000D03*
X143840000Y-73596000D03*
X141840000Y-73596000D03*
X146840000Y-75596000D03*
X136840000Y-71596000D03*
X151840000Y-71596000D03*
X141840000Y-76596000D03*
X127840000Y-71596000D03*
X149840000Y-69596000D03*
X121840000Y-70596000D03*
X116840000Y-75596000D03*
X141840000Y-74596000D03*
X147840000Y-69596000D03*
D48*
X139039600Y-99009200D03*
D47*
X134840000Y-71596000D03*
X147840000Y-74596000D03*
X144840000Y-69596000D03*
X140840000Y-74596000D03*
X133840000Y-70596000D03*
X142840000Y-75596000D03*
X146840000Y-72596000D03*
X118840000Y-72596000D03*
X145840000Y-73596000D03*
X143840000Y-75596000D03*
X143840000Y-70596000D03*
X118840000Y-70596000D03*
X121840000Y-69596000D03*
X131840000Y-69596000D03*
X122840000Y-70596000D03*
X129840000Y-70596000D03*
X146840000Y-70596000D03*
X121840000Y-75596000D03*
X144840000Y-76596000D03*
X125840000Y-74596000D03*
X134840000Y-70596000D03*
X117840000Y-72596000D03*
X147840000Y-73596000D03*
X145840000Y-70596000D03*
X124840000Y-74596000D03*
D48*
X124917200Y-82296000D03*
D47*
X126840000Y-71596000D03*
X137840000Y-71596000D03*
D48*
X136144000Y-100634800D03*
D47*
X132840000Y-71596000D03*
X150840000Y-70596000D03*
X126840000Y-69596000D03*
X130840000Y-70596000D03*
X152840000Y-74596000D03*
X140840000Y-76596000D03*
X134840000Y-69596000D03*
X144840000Y-70596000D03*
X130840000Y-69596000D03*
X152840000Y-73596000D03*
X136840000Y-69596000D03*
X142840000Y-74596000D03*
D48*
X146964400Y-100177600D03*
D47*
X152840000Y-70596000D03*
X152840000Y-76596000D03*
X145840000Y-69596000D03*
X144840000Y-73596000D03*
X119840000Y-69596000D03*
X144840000Y-71596000D03*
D48*
X131572000Y-92456000D03*
D47*
X116840000Y-74596000D03*
X146840000Y-73596000D03*
X119840000Y-70596000D03*
X118840000Y-75596000D03*
D48*
X139242800Y-78933000D03*
X126746000Y-79733000D03*
D47*
X126840000Y-74596000D03*
X144840000Y-75596000D03*
X135840000Y-71596000D03*
D48*
X147929600Y-82956400D03*
D47*
X132840000Y-69596000D03*
X128840000Y-69596000D03*
X125840000Y-71596000D03*
X117840000Y-69596000D03*
X143840000Y-69596000D03*
X147840000Y-72596000D03*
D48*
X143306800Y-89509600D03*
D47*
X135840000Y-70596000D03*
X142840000Y-73596000D03*
X142840000Y-70596000D03*
X123840000Y-69596000D03*
X136840000Y-73596000D03*
X137840000Y-72596000D03*
X123840000Y-70596000D03*
X151840000Y-76596000D03*
X125840000Y-70596000D03*
X142840000Y-69596000D03*
X147840000Y-70596000D03*
X120840000Y-75596000D03*
X142840000Y-76596000D03*
X127840000Y-69596000D03*
X147840000Y-75596000D03*
X147840000Y-71596000D03*
X121840000Y-71596000D03*
X145840000Y-76596000D03*
X146840000Y-71596000D03*
X135840000Y-69596000D03*
X120840000Y-71596000D03*
X143840000Y-72596000D03*
X142840000Y-72596000D03*
D48*
X123689300Y-89551700D03*
X132740400Y-111810800D03*
D47*
X131840000Y-71596000D03*
D48*
X129184400Y-77622400D03*
D47*
X141840000Y-75596000D03*
D48*
X124968000Y-78130400D03*
D47*
X151840000Y-70596000D03*
X124840000Y-70596000D03*
X145840000Y-74596000D03*
X150840000Y-69596000D03*
X118840000Y-69596000D03*
X152840000Y-75596000D03*
X123840000Y-71596000D03*
X116840000Y-71596000D03*
X124840000Y-69596000D03*
X131840000Y-70596000D03*
X152840000Y-69596000D03*
D48*
X121869200Y-91744800D03*
D47*
X119840000Y-75596000D03*
X125840000Y-69596000D03*
X146840000Y-74596000D03*
X151840000Y-72596000D03*
X149840000Y-70596000D03*
X133840000Y-71596000D03*
X133840000Y-69596000D03*
X122840000Y-75596000D03*
X132840000Y-70596000D03*
X149840000Y-71596000D03*
X136840000Y-70596000D03*
X129840000Y-71596000D03*
X146840000Y-69596000D03*
X144840000Y-74596000D03*
X124840000Y-71596000D03*
D48*
X131978400Y-86868000D03*
D47*
X143840000Y-71596000D03*
X151840000Y-73596000D03*
X120840000Y-69596000D03*
X127840000Y-70596000D03*
X120840000Y-70596000D03*
X116840000Y-70596000D03*
X148840000Y-71596000D03*
X143840000Y-76596000D03*
D48*
X125526800Y-84886800D03*
D47*
X125840000Y-75596000D03*
X151840000Y-69596000D03*
X137840000Y-73596000D03*
X140840000Y-73596000D03*
X128840000Y-71596000D03*
X140840000Y-72596000D03*
X122840000Y-69596000D03*
X129840000Y-69596000D03*
X118840000Y-74596000D03*
D48*
X144221200Y-97688400D03*
D47*
X148840000Y-70596000D03*
X127840000Y-74596000D03*
X140840000Y-75596000D03*
X124840000Y-75596000D03*
X122840000Y-71596000D03*
X130840000Y-71596000D03*
X119840000Y-71596000D03*
X145840000Y-71596000D03*
X145840000Y-75596000D03*
X151840000Y-75596000D03*
X117840000Y-73596000D03*
X126840000Y-70596000D03*
D48*
X143296700Y-87307859D03*
D47*
X136840000Y-72596000D03*
X137840000Y-70596000D03*
X135840000Y-72596000D03*
X145840000Y-72596000D03*
X118840000Y-73596000D03*
D48*
X129184400Y-85699600D03*
X130133903Y-77622400D03*
X129084231Y-83207864D03*
X150436500Y-80619600D03*
X136347200Y-98602800D03*
X132120186Y-104086122D03*
X151231600Y-93827600D03*
X140411200Y-101346000D03*
X123088400Y-107340400D03*
X149148800Y-92964000D03*
X132101977Y-103044377D03*
X123139200Y-105664000D03*
X145897600Y-96215200D03*
X123240800Y-103733600D03*
X143408400Y-96164400D03*
X146659600Y-92862400D03*
X132080000Y-102006400D03*
X137160000Y-76301600D03*
X155346400Y-102666800D03*
X142087600Y-82499200D03*
X155295600Y-101396800D03*
X142138400Y-79756000D03*
X155397200Y-100177600D03*
X143002000Y-81737200D03*
X155397200Y-99161600D03*
X121107200Y-89458800D03*
X118973600Y-95910400D03*
X131165600Y-89916000D03*
X132943600Y-86817200D03*
X136245600Y-106070400D03*
X142356285Y-80927440D03*
X141520472Y-80476916D03*
X134315200Y-106070400D03*
X137109200Y-89560400D03*
X130149600Y-100482400D03*
X131064000Y-76454000D03*
X122529600Y-88646000D03*
X134366000Y-73152000D03*
X124561600Y-91338400D03*
D49*
X139125258Y-71123024D02*
X139128282Y-71120000D01*
D50*
X139125258Y-72515000D02*
X139125258Y-71123024D01*
X139128282Y-71120000D02*
X139128282Y-68000000D01*
D49*
X133279600Y-94867600D02*
X133279600Y-94163600D01*
X146710400Y-100177600D02*
X144221200Y-97688400D01*
X124044900Y-89551700D02*
X125712600Y-87884000D01*
X123689300Y-89551700D02*
X124044900Y-89551700D01*
X138968300Y-79207500D02*
X139242800Y-78933000D01*
X121293000Y-92321000D02*
X121869200Y-91744800D01*
D51*
X144711500Y-86857000D02*
X144711500Y-86207000D01*
D49*
X148717000Y-100177600D02*
X146964400Y-100177600D01*
X127020500Y-80007500D02*
X126746000Y-79733000D01*
D51*
X143495841Y-87507000D02*
X143296700Y-87307859D01*
D49*
X121310400Y-84767800D02*
X122445400Y-84767800D01*
X123272000Y-89969000D02*
X123689300Y-89551700D01*
X150037800Y-100126800D02*
X147015200Y-100126800D01*
X131521200Y-87325200D02*
X131978400Y-86868000D01*
X124815600Y-78282800D02*
X124968000Y-78130400D01*
X129995000Y-80007500D02*
X127020500Y-80007500D01*
D51*
X144711500Y-87507000D02*
X147929600Y-84288900D01*
D49*
X123596400Y-83616800D02*
X124917200Y-82296000D01*
D51*
X144711500Y-87507000D02*
X143495841Y-87507000D01*
D49*
X128539200Y-109067600D02*
X128574800Y-109103200D01*
X133766800Y-113842800D02*
X133166800Y-113842800D01*
X135737600Y-101041200D02*
X136144000Y-100634800D01*
X130891800Y-116517800D02*
X131585600Y-115824000D01*
X123272000Y-90821000D02*
X123272000Y-89969000D01*
X122445400Y-84767800D02*
X123596400Y-83616800D01*
X120822000Y-92321000D02*
X120226200Y-92321000D01*
X133279600Y-94163600D02*
X131572000Y-92456000D01*
X138564416Y-115840416D02*
X135744184Y-115840416D01*
X131585600Y-115824000D02*
X134373000Y-115824000D01*
X131521200Y-87884000D02*
X131521200Y-87325200D01*
X136144000Y-100634800D02*
X137414000Y-100634800D01*
X135280400Y-109951100D02*
X135280400Y-111607600D01*
X150037800Y-98856800D02*
X148717000Y-100177600D01*
D51*
X144711500Y-87507000D02*
X144711500Y-86857000D01*
D49*
X121445400Y-91321000D02*
X121869200Y-91744800D01*
X137414000Y-100634800D02*
X139039600Y-99009200D01*
D51*
X147929600Y-84288900D02*
X147929600Y-82956400D01*
D49*
X147015200Y-100126800D02*
X146964400Y-100177600D01*
X120822000Y-92321000D02*
X121293000Y-92321000D01*
X122318400Y-79433800D02*
X123469400Y-78282800D01*
D52*
X140610300Y-70000000D02*
X140610300Y-68000000D01*
D49*
X120226200Y-92321000D02*
X119532400Y-93014800D01*
X137770000Y-79207500D02*
X138968300Y-79207500D01*
X133166800Y-113842800D02*
X132841800Y-113517800D01*
X126847600Y-109067600D02*
X128539200Y-109067600D01*
X120822000Y-91321000D02*
X121445400Y-91321000D01*
X135744184Y-115840416D02*
X135066800Y-116517800D01*
X131114800Y-86868000D02*
X131978400Y-86868000D01*
X133766800Y-112837200D02*
X132740400Y-111810800D01*
X128972500Y-77410500D02*
X129184400Y-77622400D01*
X133766800Y-113842800D02*
X133766800Y-112837200D01*
X134373000Y-115824000D02*
X135066800Y-116517800D01*
X128972500Y-76200000D02*
X128972500Y-77410500D01*
X121289400Y-79433800D02*
X122318400Y-79433800D01*
X123469400Y-78282800D02*
X124815600Y-78282800D01*
X133257100Y-101041200D02*
X135737600Y-101041200D01*
X139241800Y-116517800D02*
X138564416Y-115840416D01*
X146964400Y-100177600D02*
X146710400Y-100177600D01*
X128699500Y-78407500D02*
X127508000Y-77216000D01*
X129995000Y-78407500D02*
X128699500Y-78407500D01*
X130107500Y-76200000D02*
X130107500Y-77145000D01*
X121513600Y-94691200D02*
X120091200Y-94691200D01*
X121547000Y-93046000D02*
X121547000Y-94657800D01*
X126873000Y-89981595D02*
X126873000Y-87909400D01*
X124033595Y-92821000D02*
X126873000Y-89981595D01*
D51*
X150602100Y-97022500D02*
X150037800Y-97586800D01*
X150743500Y-97022500D02*
X150602100Y-97022500D01*
X134924800Y-87307800D02*
X136207500Y-86025100D01*
X139375700Y-95371500D02*
X138907100Y-95371500D01*
X129979800Y-86868000D02*
X129979800Y-84882500D01*
X133678600Y-88554000D02*
X134924800Y-87307800D01*
D49*
X133553200Y-74269600D02*
X131673600Y-74269600D01*
X130107500Y-77145000D02*
X130682500Y-77720000D01*
X122834400Y-94691200D02*
X121513600Y-94691200D01*
D51*
X129979800Y-87421349D02*
X131112451Y-88554000D01*
X138907100Y-95371500D02*
X135077200Y-91541600D01*
X137105876Y-97852800D02*
X133294400Y-97852800D01*
X129979800Y-86868000D02*
X129979800Y-87421349D01*
X135957500Y-86968900D02*
X135957500Y-85570000D01*
D49*
X128685100Y-73507600D02*
X130107500Y-74930000D01*
X130133903Y-77622400D02*
X130133903Y-76226403D01*
X126847600Y-87884000D02*
X127000000Y-87884000D01*
D51*
X136207500Y-86025100D02*
X136207500Y-85570000D01*
X129979800Y-84882500D02*
X129995000Y-84882500D01*
X139375700Y-95371500D02*
X139375700Y-95582976D01*
D49*
X123272000Y-92821000D02*
X124033595Y-92821000D01*
D51*
X133678600Y-90143000D02*
X133678600Y-88554000D01*
D49*
X131673600Y-74269600D02*
X130767900Y-74269600D01*
X129995000Y-83207500D02*
X129084595Y-83207500D01*
D51*
X135077200Y-91541600D02*
X133678600Y-90143000D01*
D49*
X130133903Y-76226403D02*
X130107500Y-76200000D01*
D51*
X139375700Y-95582976D02*
X137105876Y-97852800D01*
D49*
X122986800Y-73507600D02*
X128685100Y-73507600D01*
X129995000Y-84807500D02*
X129995000Y-84889000D01*
X123272000Y-92821000D02*
X123272000Y-94253600D01*
D51*
X150602100Y-95925244D02*
X150602100Y-97022500D01*
X139375700Y-95371500D02*
X150048356Y-95371500D01*
X136296400Y-87307800D02*
X135957500Y-86968900D01*
D49*
X127000000Y-87884000D02*
X129184400Y-85699600D01*
X126873000Y-87909400D02*
X126847600Y-87884000D01*
D51*
X151307800Y-97586800D02*
X150743500Y-97022500D01*
D49*
X131082500Y-77720000D02*
X130682500Y-77720000D01*
X129995000Y-84889000D02*
X129184400Y-85699600D01*
X130767900Y-74269600D02*
X130107500Y-74930000D01*
X121547000Y-94657800D02*
X121513600Y-94691200D01*
X129084595Y-83207500D02*
X129084231Y-83207864D01*
X130107500Y-76200000D02*
X130107500Y-74930000D01*
D51*
X133294400Y-97852800D02*
X133279600Y-97867600D01*
D49*
X123272000Y-94253600D02*
X122834400Y-94691200D01*
D51*
X131112451Y-88554000D02*
X133678600Y-88554000D01*
X150048356Y-95371500D02*
X150602100Y-95925244D01*
D49*
X141732000Y-77876400D02*
X139240897Y-77876400D01*
X139240897Y-77876400D02*
X138309797Y-78807500D01*
X138309797Y-78807500D02*
X137770000Y-78807500D01*
D50*
X139131817Y-74981398D02*
X139131817Y-73663535D01*
D49*
X139125258Y-73663024D02*
X139128282Y-73660000D01*
X139131817Y-73663535D02*
X139127500Y-73659218D01*
X139128282Y-73660000D02*
X139127500Y-73659218D01*
D50*
X139125258Y-73661460D02*
X139127500Y-73659218D01*
D49*
X139245079Y-77084928D02*
X137911309Y-78402626D01*
D50*
X139131817Y-74981398D02*
X139131817Y-77045683D01*
D49*
X138975148Y-77037599D02*
X137641378Y-78355297D01*
X139131817Y-77045683D02*
X137770000Y-78407500D01*
X129455203Y-81207500D02*
X128278700Y-82384003D01*
X129995000Y-81207500D02*
X129455203Y-81207500D01*
X128278700Y-82384003D02*
X128278700Y-82499200D01*
X123582400Y-82467800D02*
X123596400Y-82481800D01*
X125670700Y-80407500D02*
X123596400Y-82481800D01*
X129995000Y-80407500D02*
X125670700Y-80407500D01*
X121310400Y-82467800D02*
X123582400Y-82467800D01*
X116103400Y-84632800D02*
X118275400Y-84632800D01*
X127770700Y-80807500D02*
X122635400Y-85942800D01*
X129995000Y-80807500D02*
X127770700Y-80807500D01*
X122635400Y-85942800D02*
X119585400Y-85942800D01*
X118275400Y-84632800D02*
X118410400Y-84767800D01*
X119585400Y-85942800D02*
X118410400Y-84767800D01*
X123469400Y-77147800D02*
X121303400Y-77147800D01*
X121303400Y-77147800D02*
X121289400Y-77133800D01*
X127740781Y-79207500D02*
X125681081Y-77147800D01*
X129995000Y-79207500D02*
X127740781Y-79207500D01*
X125681081Y-77147800D02*
X123469400Y-77147800D01*
X127025595Y-79058000D02*
X124192800Y-79058000D01*
X117127400Y-79433800D02*
X115976400Y-78282800D01*
X119564400Y-80608800D02*
X118389400Y-79433800D01*
X127575095Y-79607500D02*
X127025595Y-79058000D01*
X129995000Y-79607500D02*
X127575095Y-79607500D01*
X122642000Y-80608800D02*
X119564400Y-80608800D01*
X124192800Y-79058000D02*
X122642000Y-80608800D01*
X118389400Y-79433800D02*
X117127400Y-79433800D01*
D51*
X129170400Y-98667600D02*
X126492000Y-101346000D01*
D49*
X149632000Y-76581000D02*
X149632000Y-74881000D01*
D51*
X145745200Y-77900600D02*
X147064800Y-76581000D01*
D49*
X149632000Y-74881000D02*
X149632000Y-73181000D01*
X150436500Y-81657000D02*
X150436500Y-80619600D01*
D51*
X132122100Y-101041200D02*
X132122100Y-98710100D01*
X132122100Y-98710100D02*
X132122100Y-97225100D01*
D49*
X149632000Y-79002600D02*
X149632000Y-76581000D01*
D51*
X118582000Y-101346000D02*
X126492000Y-101346000D01*
X126847600Y-110202600D02*
X125267000Y-108622000D01*
X115964000Y-105664000D02*
X115964000Y-103964000D01*
X132122100Y-97225100D02*
X132979600Y-96367600D01*
X136282400Y-98667600D02*
X136347200Y-98602800D01*
X129184400Y-98653600D02*
X129170400Y-98667600D01*
D49*
X150233000Y-79603600D02*
X149632000Y-79002600D01*
D51*
X132979600Y-96367600D02*
X133367100Y-96367600D01*
D49*
X150436500Y-79807100D02*
X150233000Y-79603600D01*
D51*
X128574800Y-110053200D02*
X126997000Y-110053200D01*
X115964000Y-107364000D02*
X115964000Y-105664000D01*
X125267000Y-102571000D02*
X126492000Y-101346000D01*
X129184400Y-97536000D02*
X129184400Y-98653600D01*
D49*
X150436500Y-80619600D02*
X150436500Y-79807100D01*
D51*
X132079600Y-98667600D02*
X136282400Y-98667600D01*
X132079600Y-98667600D02*
X129170400Y-98667600D01*
X115964000Y-103964000D02*
X118582000Y-101346000D01*
X126997000Y-110053200D02*
X126847600Y-110202600D01*
X132122100Y-98710100D02*
X132079600Y-98667600D01*
X147064800Y-76581000D02*
X149632000Y-76581000D01*
X125267000Y-108622000D02*
X125267000Y-102571000D01*
X136366800Y-113842800D02*
X136366800Y-113105363D01*
X135280400Y-106019600D02*
X135280400Y-107676100D01*
X136366800Y-112939552D02*
X141630400Y-107675952D01*
X136880400Y-112591763D02*
X136880400Y-109231493D01*
X136266800Y-114867800D02*
X132851000Y-114867800D01*
X135280400Y-108095707D02*
X135280400Y-107676100D01*
X130849800Y-110053200D02*
X132686600Y-110053200D01*
X136366800Y-113105363D02*
X136880400Y-112591763D01*
X132686600Y-110053200D02*
X132689600Y-110050200D01*
X136366800Y-114767800D02*
X136266800Y-114867800D01*
X141630400Y-107675952D02*
X141630400Y-101752400D01*
X135947493Y-108762800D02*
X135280400Y-108095707D01*
X136366800Y-113842800D02*
X136366800Y-112939552D01*
X132851000Y-114867800D02*
X130849800Y-112866600D01*
D49*
X135280400Y-108153200D02*
X135280400Y-107676100D01*
D51*
X130849800Y-112866600D02*
X130849800Y-110053200D01*
X136366800Y-113842800D02*
X136366800Y-114767800D01*
X136411707Y-108762800D02*
X135947493Y-108762800D01*
X141630400Y-101752400D02*
X143256000Y-100126800D01*
X136880400Y-109231493D02*
X136411707Y-108762800D01*
D50*
X153688800Y-79686400D02*
X154432000Y-78943200D01*
X154432000Y-76581000D02*
X154432000Y-78943200D01*
D49*
X153314400Y-79686400D02*
X153688800Y-79686400D01*
D50*
X156768800Y-78689200D02*
X156768800Y-76767800D01*
X155803600Y-80060800D02*
X155803600Y-79654400D01*
X154882000Y-74881000D02*
X154432000Y-74881000D01*
X156768800Y-76767800D02*
X154882000Y-74881000D01*
X155803600Y-79654400D02*
X156768800Y-78689200D01*
X154882000Y-73181000D02*
X158292800Y-76591800D01*
D49*
X154432000Y-73181000D02*
X154882000Y-73181000D01*
D50*
X158292800Y-76591800D02*
X158292800Y-80111600D01*
D51*
X153416000Y-91725608D02*
X151212408Y-93929200D01*
D49*
X153416000Y-91560400D02*
X153416000Y-91725608D01*
D51*
X137452200Y-104086122D02*
X132120186Y-104086122D01*
X120787600Y-107340400D02*
X120764000Y-107364000D01*
X151212408Y-93846792D02*
X151231600Y-93827600D01*
X140192322Y-101346000D02*
X137452200Y-104086122D01*
X151212408Y-93929200D02*
X151212408Y-93846792D01*
X140411200Y-101346000D02*
X140192322Y-101346000D01*
X123088400Y-107340400D02*
X120787600Y-107340400D01*
X145897600Y-96215200D02*
X145198400Y-96914400D01*
X123139200Y-105664000D02*
X120764000Y-105664000D01*
X150571200Y-91560400D02*
X149167600Y-92964000D01*
X137392023Y-103044377D02*
X132101977Y-103044377D01*
X145198400Y-96914400D02*
X143522000Y-96914400D01*
X143522000Y-96914400D02*
X137392023Y-103044377D01*
X149167600Y-92964000D02*
X149148800Y-92964000D01*
X123240800Y-103733600D02*
X120994400Y-103733600D01*
X146576800Y-92862400D02*
X146659600Y-92862400D01*
X137566400Y-102006400D02*
X132080000Y-102006400D01*
X143408400Y-96164400D02*
X137566400Y-102006400D01*
X120994400Y-103733600D02*
X120764000Y-103964000D01*
X147878800Y-91560400D02*
X146576800Y-92862400D01*
D49*
X155346400Y-102666800D02*
X155053950Y-102374350D01*
X137082500Y-77720000D02*
X137082500Y-76379100D01*
X137082500Y-76379100D02*
X137160000Y-76301600D01*
X151600250Y-102374350D02*
X151307800Y-102666800D01*
X155053950Y-102374350D02*
X151600250Y-102374350D01*
X155295600Y-101396800D02*
X151307800Y-101396800D01*
X141261028Y-82499200D02*
X142087600Y-82499200D01*
X137770000Y-81207500D02*
X139969328Y-81207500D01*
X140766800Y-82004972D02*
X141261028Y-82499200D01*
X139969328Y-81207500D02*
X140766800Y-82004972D01*
X141989900Y-79607500D02*
X142138400Y-79756000D01*
X155054301Y-100520499D02*
X151701499Y-100520499D01*
X151701499Y-100520499D02*
X151307800Y-100126800D01*
X137770000Y-79607500D02*
X141989900Y-79607500D01*
X155397200Y-100177600D02*
X155054301Y-100520499D01*
X141071600Y-81737200D02*
X143002000Y-81737200D01*
X155397200Y-99161600D02*
X154774550Y-99784250D01*
X140912314Y-81584800D02*
X140919200Y-81584800D01*
X140135014Y-80807500D02*
X140912314Y-81584800D01*
X154774550Y-99784250D02*
X152235250Y-99784250D01*
X152235250Y-99784250D02*
X151307800Y-98856800D01*
X137770000Y-80807500D02*
X140135014Y-80807500D01*
X140919200Y-81584800D02*
X141071600Y-81737200D01*
D51*
X143649699Y-102273101D02*
X143256000Y-102666800D01*
X149644101Y-102273101D02*
X143649699Y-102273101D01*
D49*
X149644101Y-101790499D02*
X149644101Y-102273101D01*
X150037800Y-101396800D02*
X149644101Y-101790499D01*
D51*
X150037800Y-102666800D02*
X149644101Y-102273101D01*
D49*
X121571800Y-72382600D02*
X120446800Y-73507600D01*
X135507800Y-73328600D02*
X135507800Y-74980800D01*
X132682500Y-77180203D02*
X133408703Y-76454000D01*
X133408703Y-76454000D02*
X134670800Y-76454000D01*
X124989800Y-72382600D02*
X121571800Y-72382600D01*
X125084200Y-72477000D02*
X134656200Y-72477000D01*
X132682500Y-77720000D02*
X132682500Y-77180203D01*
X135507800Y-75617000D02*
X135507800Y-74980800D01*
X125084200Y-72477000D02*
X124989800Y-72382600D01*
X134656200Y-72477000D02*
X135507800Y-73328600D01*
X134670800Y-76454000D02*
X135507800Y-75617000D01*
X136230400Y-112404200D02*
X135716800Y-112917800D01*
X135716800Y-112917800D02*
X135716800Y-113842800D01*
X136230400Y-109951100D02*
X136230400Y-112404200D01*
X134330400Y-112181400D02*
X135066800Y-112917800D01*
X135066800Y-112917800D02*
X135066800Y-113842800D01*
X134330400Y-109951100D02*
X134330400Y-112181400D01*
X134682500Y-85495000D02*
X134682500Y-86200483D01*
X134682500Y-86200483D02*
X132998983Y-87884000D01*
X132998983Y-87884000D02*
X132716200Y-87884000D01*
X130849800Y-106183000D02*
X130860800Y-106172000D01*
X130849800Y-108153200D02*
X130849800Y-106183000D01*
D51*
X150436500Y-82307000D02*
X152693800Y-82307000D01*
X152693800Y-82307000D02*
X153314400Y-81686400D01*
X158292800Y-82111600D02*
X156797400Y-83607000D01*
X156797400Y-83607000D02*
X150436500Y-83607000D01*
X155803600Y-82060800D02*
X154907400Y-82957000D01*
X154907400Y-82957000D02*
X150436500Y-82957000D01*
X153416000Y-85293200D02*
X153416000Y-89560400D01*
X150436500Y-84257000D02*
X152379800Y-84257000D01*
X152379800Y-84257000D02*
X153416000Y-85293200D01*
X152064600Y-84907000D02*
X152806400Y-85648800D01*
D49*
X151079200Y-89560400D02*
X150571200Y-89560400D01*
D51*
X150436500Y-84907000D02*
X152064600Y-84907000D01*
X152806400Y-85648800D02*
X152806400Y-87833200D01*
X152806400Y-87833200D02*
X151079200Y-89560400D01*
X150436500Y-85557000D02*
X151882200Y-85557000D01*
D49*
X151882200Y-85557000D02*
X151892000Y-85547200D01*
D51*
X151892000Y-85547200D02*
X151892000Y-87923400D01*
X148982200Y-88457000D02*
X147878800Y-89560400D01*
X151892000Y-87923400D02*
X151358400Y-88457000D01*
X151358400Y-88457000D02*
X148982200Y-88457000D01*
D49*
X144711500Y-81657000D02*
X144093670Y-81657000D01*
X139716300Y-82007500D02*
X137770000Y-82007500D01*
X145745200Y-80623300D02*
X144711500Y-81657000D01*
X141732000Y-84018670D02*
X141732000Y-84023200D01*
X144093670Y-81657000D02*
X141732000Y-84018670D01*
X141732000Y-84023200D02*
X139716300Y-82007500D01*
X145745200Y-79095600D02*
X145745200Y-80623300D01*
X121547000Y-90596000D02*
X121547000Y-89898600D01*
X118973600Y-95910400D02*
X120067000Y-95910400D01*
X120067000Y-95910400D02*
X120091200Y-95886200D01*
X121547000Y-89898600D02*
X121107200Y-89458800D01*
X149961500Y-87982000D02*
X150436500Y-87507000D01*
X140944500Y-87982000D02*
X149961500Y-87982000D01*
X137770000Y-84807500D02*
X140944500Y-87982000D01*
X144711500Y-85557000D02*
X144093670Y-85557000D01*
X141484297Y-87582000D02*
X138309797Y-84407500D01*
X138309797Y-84407500D02*
X137770000Y-84407500D01*
X142068670Y-87582000D02*
X141484297Y-87582000D01*
X144093670Y-85557000D02*
X142068670Y-87582000D01*
X142198400Y-86766400D02*
X141234383Y-86766400D01*
X144711500Y-84907000D02*
X144057800Y-84907000D01*
X144057800Y-84907000D02*
X142198400Y-86766400D01*
X138475483Y-84007500D02*
X137770000Y-84007500D01*
X141234383Y-86766400D02*
X138475483Y-84007500D01*
X144093670Y-84257000D02*
X142092270Y-86258400D01*
X144711500Y-84257000D02*
X144093670Y-84257000D01*
X138641168Y-83607500D02*
X137770000Y-83607500D01*
X141292069Y-86258400D02*
X138641168Y-83607500D01*
X142092270Y-86258400D02*
X141292069Y-86258400D01*
X141298955Y-85699600D02*
X138806854Y-83207500D01*
X144093670Y-83607000D02*
X142001070Y-85699600D01*
X142001070Y-85699600D02*
X141298955Y-85699600D01*
X144711500Y-83607000D02*
X144093670Y-83607000D01*
X138806854Y-83207500D02*
X137770000Y-83207500D01*
X144711500Y-82957000D02*
X144093670Y-82957000D01*
X141808270Y-85242400D02*
X141630400Y-85242400D01*
X141630400Y-85242400D02*
X139195500Y-82807500D01*
X144093670Y-82957000D02*
X141808270Y-85242400D01*
X139195500Y-82807500D02*
X137770000Y-82807500D01*
X139361186Y-82407500D02*
X137770000Y-82407500D01*
X141384464Y-84430778D02*
X139361186Y-82407500D01*
X141969892Y-84430778D02*
X141384464Y-84430778D01*
X144711500Y-82307000D02*
X144093670Y-82307000D01*
X144093670Y-82307000D02*
X141969892Y-84430778D01*
X129184400Y-91897200D02*
X131165600Y-89916000D01*
X134282500Y-86034797D02*
X133500097Y-86817200D01*
X133500097Y-86817200D02*
X132943600Y-86817200D01*
X129184400Y-96341000D02*
X129184400Y-91897200D01*
X127914400Y-96316800D02*
X129160200Y-96316800D01*
X134282500Y-85495000D02*
X134282500Y-86034797D01*
X129160200Y-96316800D02*
X129184400Y-96341000D01*
X140300700Y-80407500D02*
X140970000Y-81076800D01*
X137770000Y-80407500D02*
X140300700Y-80407500D01*
X142131809Y-81151916D02*
X142356285Y-80927440D01*
X136230400Y-107676100D02*
X136230400Y-106085600D01*
X141045116Y-81151916D02*
X142131809Y-81151916D01*
X140970000Y-81076800D02*
X141045116Y-81151916D01*
X136230400Y-106085600D02*
X136245600Y-106070400D01*
X140611900Y-80007500D02*
X141071600Y-80467200D01*
X134330400Y-107676100D02*
X134330400Y-106085600D01*
X141071600Y-80467200D02*
X141510756Y-80467200D01*
X137770000Y-80007500D02*
X140611900Y-80007500D01*
X141510756Y-80467200D02*
X141520472Y-80476916D01*
X134330400Y-106085600D02*
X134315200Y-106070400D01*
X128574800Y-102057200D02*
X130149600Y-100482400D01*
X137109200Y-89560400D02*
X137109200Y-85521700D01*
X128574800Y-108153200D02*
X128574800Y-102057200D01*
X137109200Y-85521700D02*
X137082500Y-85495000D01*
X119500114Y-91821000D02*
X119183200Y-91504086D01*
X129289518Y-84007500D02*
X129995000Y-84007500D01*
X119183200Y-91504086D02*
X119183200Y-89862520D01*
X120822000Y-91821000D02*
X119500114Y-91821000D01*
X119183200Y-89862520D02*
X122526920Y-86518800D01*
X126778218Y-86518800D02*
X129289518Y-84007500D01*
X122526920Y-86518800D02*
X126778218Y-86518800D01*
X127762000Y-86100703D02*
X127762000Y-86106000D01*
X127762000Y-86106000D02*
X126949200Y-86918800D01*
X126949200Y-86918800D02*
X122692605Y-86918800D01*
X129455203Y-84407500D02*
X127762000Y-86100703D01*
X120432200Y-89179205D02*
X120432200Y-90431200D01*
X122692605Y-86918800D02*
X120432200Y-89179205D01*
X129995000Y-84407500D02*
X129455203Y-84407500D01*
X120432200Y-90431200D02*
X120822000Y-90821000D01*
X131882500Y-75673500D02*
X131673600Y-75464600D01*
X131882500Y-77720000D02*
X131882500Y-75673500D01*
X131673600Y-75464600D02*
X131673600Y-75844400D01*
X131673600Y-75844400D02*
X131064000Y-76454000D01*
X122529600Y-90578600D02*
X122547000Y-90596000D01*
X122529600Y-88646000D02*
X122529600Y-90578600D01*
X124561600Y-91338400D02*
X123289400Y-91338400D01*
X132282500Y-77720000D02*
X132282500Y-76735300D01*
X134366000Y-74651800D02*
X134366000Y-73152000D01*
X133553200Y-75464600D02*
X134366000Y-74651800D01*
X132282500Y-76735300D02*
X133553200Y-75464600D01*
X123289400Y-91338400D02*
X123272000Y-91321000D01*
G04 #@! TA.AperFunction,Conductor*
G36*
X138320821Y-69107685D02*
G01*
X138366576Y-69160489D01*
X138377782Y-69212000D01*
X138377782Y-69596000D01*
X116840000Y-69596000D01*
X116840000Y-76180375D01*
X116839400Y-76185955D01*
X116839400Y-76417627D01*
X116819715Y-76484666D01*
X116766911Y-76530421D01*
X116697753Y-76540365D01*
X116634197Y-76511340D01*
X116627719Y-76505308D01*
X116536050Y-76413639D01*
X116536042Y-76413633D01*
X116393597Y-76329392D01*
X116393594Y-76329390D01*
X116234680Y-76283221D01*
X116234681Y-76283221D01*
X116226399Y-76282569D01*
X116226400Y-76897800D01*
X116804955Y-76897800D01*
X116825404Y-76886634D01*
X116840000Y-76885064D01*
X116840000Y-77383800D01*
X116820845Y-77383800D01*
X116800396Y-77394966D01*
X116774038Y-77397800D01*
X115166400Y-77397800D01*
X115166400Y-77426457D01*
X115169321Y-77463577D01*
X115169322Y-77463583D01*
X115215491Y-77622494D01*
X115215493Y-77622499D01*
X115232755Y-77651689D01*
X115249936Y-77719413D01*
X115232755Y-77777927D01*
X115215031Y-77807896D01*
X115215028Y-77807904D01*
X115168824Y-77966937D01*
X115168823Y-77966943D01*
X115165900Y-78004089D01*
X115165900Y-78561490D01*
X115165901Y-78561515D01*
X115168823Y-78598654D01*
X115168823Y-78598657D01*
X115168824Y-78598658D01*
X115184201Y-78651585D01*
X115215030Y-78757700D01*
X115299334Y-78900250D01*
X115299341Y-78900259D01*
X115416440Y-79017358D01*
X115416444Y-79017361D01*
X115416446Y-79017363D01*
X115559000Y-79101670D01*
X115568445Y-79104414D01*
X115718037Y-79147875D01*
X115718040Y-79147875D01*
X115718042Y-79147876D01*
X115755197Y-79150800D01*
X115908446Y-79150799D01*
X115975486Y-79170483D01*
X115996128Y-79187118D01*
X116626597Y-79817588D01*
X116636422Y-79829851D01*
X116636643Y-79829669D01*
X116641611Y-79835674D01*
X116691332Y-79882366D01*
X116692732Y-79883723D01*
X116712923Y-79903915D01*
X116712927Y-79903918D01*
X116712929Y-79903920D01*
X116718411Y-79908173D01*
X116722843Y-79911957D01*
X116756818Y-79943862D01*
X116774372Y-79953512D01*
X116790558Y-79964136D01*
X116790824Y-79964342D01*
X116831775Y-80020953D01*
X116838900Y-80062380D01*
X116838900Y-80381669D01*
X116838901Y-80381676D01*
X116845308Y-80441283D01*
X116895602Y-80576128D01*
X116895606Y-80576135D01*
X116981852Y-80691344D01*
X116981855Y-80691347D01*
X117097064Y-80777593D01*
X117097071Y-80777597D01*
X117228292Y-80826539D01*
X117231917Y-80827891D01*
X117242755Y-80829056D01*
X117307304Y-80855791D01*
X117347154Y-80913182D01*
X117349650Y-80983008D01*
X117313999Y-81043097D01*
X117258020Y-81073021D01*
X117253024Y-81074201D01*
X117118313Y-81124445D01*
X117118306Y-81124449D01*
X117003212Y-81210609D01*
X117003209Y-81210612D01*
X116917049Y-81325706D01*
X116917045Y-81325713D01*
X116866803Y-81460420D01*
X116866801Y-81460427D01*
X116860400Y-81519955D01*
X116860400Y-82217800D01*
X118536400Y-82217800D01*
X118603439Y-82237485D01*
X118649194Y-82290289D01*
X118660400Y-82341800D01*
X118660400Y-82593800D01*
X118640715Y-82660839D01*
X118587911Y-82706594D01*
X118536400Y-82717800D01*
X116860400Y-82717800D01*
X116825677Y-82752523D01*
X116764353Y-82786007D01*
X116694662Y-82781022D01*
X116669963Y-82767261D01*
X116669760Y-82767606D01*
X116520597Y-82679392D01*
X116520594Y-82679390D01*
X116361680Y-82633221D01*
X116361681Y-82633221D01*
X116353399Y-82632569D01*
X116353400Y-83623800D01*
X116333715Y-83690839D01*
X116280911Y-83736594D01*
X116229400Y-83747800D01*
X115293400Y-83747800D01*
X115293400Y-83776457D01*
X115296321Y-83813577D01*
X115296322Y-83813583D01*
X115342491Y-83972494D01*
X115342493Y-83972499D01*
X115359755Y-84001689D01*
X115376936Y-84069413D01*
X115359755Y-84127927D01*
X115342031Y-84157896D01*
X115342028Y-84157904D01*
X115295824Y-84316937D01*
X115295823Y-84316943D01*
X115292900Y-84354089D01*
X115292900Y-84911490D01*
X115292901Y-84911515D01*
X115295823Y-84948654D01*
X115342030Y-85107700D01*
X115426334Y-85250250D01*
X115426341Y-85250259D01*
X115543440Y-85367358D01*
X115543444Y-85367361D01*
X115543446Y-85367363D01*
X115686000Y-85451670D01*
X115727941Y-85463855D01*
X115845037Y-85497875D01*
X115845040Y-85497875D01*
X115845042Y-85497876D01*
X115882197Y-85500800D01*
X116324602Y-85500799D01*
X116361758Y-85497876D01*
X116520800Y-85451670D01*
X116663354Y-85367363D01*
X116663353Y-85367363D01*
X116670069Y-85363392D01*
X116671344Y-85365549D01*
X116724933Y-85344507D01*
X116793451Y-85358185D01*
X116843697Y-85406735D01*
X116859901Y-85468021D01*
X116859900Y-85715670D01*
X116859901Y-85715676D01*
X116866308Y-85775283D01*
X116916602Y-85910128D01*
X116916606Y-85910135D01*
X117002852Y-86025344D01*
X117002855Y-86025347D01*
X117118064Y-86111593D01*
X117118071Y-86111597D01*
X117252917Y-86161891D01*
X117252916Y-86161891D01*
X117259844Y-86162635D01*
X117312527Y-86168300D01*
X118874946Y-86168299D01*
X118941985Y-86187984D01*
X118962627Y-86204618D01*
X119084597Y-86326588D01*
X119094422Y-86338851D01*
X119094643Y-86338669D01*
X119099611Y-86344674D01*
X119099613Y-86344676D01*
X119099614Y-86344677D01*
X119125495Y-86368981D01*
X119149332Y-86391366D01*
X119150732Y-86392723D01*
X119170923Y-86412915D01*
X119170927Y-86412918D01*
X119170929Y-86412920D01*
X119176411Y-86417173D01*
X119180843Y-86420957D01*
X119214818Y-86452862D01*
X119232376Y-86462514D01*
X119248633Y-86473193D01*
X119264464Y-86485473D01*
X119284137Y-86493986D01*
X119307233Y-86503982D01*
X119312477Y-86506550D01*
X119353308Y-86528997D01*
X119365001Y-86531999D01*
X119372705Y-86533977D01*
X119391119Y-86540281D01*
X119409504Y-86548238D01*
X119455557Y-86555532D01*
X119461226Y-86556706D01*
X119506381Y-86568300D01*
X119526416Y-86568300D01*
X119545813Y-86569826D01*
X119565596Y-86572960D01*
X119611983Y-86568575D01*
X119617822Y-86568300D01*
X121293467Y-86568300D01*
X121360506Y-86587985D01*
X121406261Y-86640789D01*
X121416205Y-86709947D01*
X121387180Y-86773503D01*
X121381148Y-86779981D01*
X118799408Y-89361719D01*
X118787151Y-89371540D01*
X118787334Y-89371761D01*
X118781322Y-89376734D01*
X118734632Y-89426452D01*
X118733279Y-89427849D01*
X118713089Y-89448039D01*
X118713077Y-89448052D01*
X118708821Y-89453537D01*
X118705037Y-89457967D01*
X118673137Y-89491938D01*
X118673136Y-89491940D01*
X118663484Y-89509496D01*
X118652810Y-89525746D01*
X118640529Y-89541581D01*
X118640524Y-89541588D01*
X118622015Y-89584358D01*
X118619445Y-89589604D01*
X118597003Y-89630426D01*
X118592022Y-89649827D01*
X118585721Y-89668230D01*
X118577762Y-89686622D01*
X118577761Y-89686625D01*
X118570471Y-89732647D01*
X118569287Y-89738366D01*
X118557701Y-89783492D01*
X118557700Y-89783502D01*
X118557700Y-89803536D01*
X118556173Y-89822933D01*
X118553040Y-89842716D01*
X118557031Y-89884935D01*
X118557425Y-89889103D01*
X118557700Y-89894941D01*
X118557700Y-91421341D01*
X118555975Y-91436958D01*
X118556261Y-91436985D01*
X118555526Y-91444752D01*
X118557669Y-91512932D01*
X118557700Y-91514879D01*
X118557700Y-91543429D01*
X118557701Y-91543446D01*
X118558568Y-91550317D01*
X118559026Y-91556136D01*
X118560490Y-91602710D01*
X118560491Y-91602713D01*
X118566080Y-91621953D01*
X118570024Y-91640997D01*
X118572536Y-91660878D01*
X118586030Y-91694960D01*
X118589690Y-91704205D01*
X118591582Y-91709733D01*
X118594944Y-91721305D01*
X118604582Y-91754476D01*
X118613891Y-91770218D01*
X118614780Y-91771720D01*
X118623336Y-91789186D01*
X118627571Y-91799881D01*
X118630714Y-91807818D01*
X118658098Y-91845509D01*
X118661306Y-91850393D01*
X118685027Y-91890502D01*
X118685033Y-91890510D01*
X118699190Y-91904666D01*
X118711827Y-91919461D01*
X118723606Y-91935673D01*
X118753515Y-91960416D01*
X118759508Y-91965374D01*
X118763819Y-91969296D01*
X118895766Y-92101242D01*
X118999308Y-92204784D01*
X119009131Y-92217045D01*
X119009353Y-92216863D01*
X119014325Y-92222873D01*
X119014328Y-92222877D01*
X119038734Y-92245796D01*
X119064048Y-92269568D01*
X119065447Y-92270924D01*
X119085637Y-92291115D01*
X119085641Y-92291118D01*
X119085643Y-92291120D01*
X119091125Y-92295373D01*
X119095557Y-92299157D01*
X119129532Y-92331062D01*
X119147090Y-92340714D01*
X119163349Y-92351395D01*
X119179178Y-92363673D01*
X119221952Y-92382182D01*
X119227170Y-92384738D01*
X119268022Y-92407197D01*
X119287430Y-92412180D01*
X119305831Y-92418480D01*
X119324218Y-92426437D01*
X119367602Y-92433308D01*
X119370233Y-92433725D01*
X119375953Y-92434909D01*
X119421095Y-92446500D01*
X119441130Y-92446500D01*
X119460528Y-92448026D01*
X119480308Y-92451159D01*
X119480309Y-92451160D01*
X119480309Y-92451159D01*
X119480310Y-92451160D01*
X119526697Y-92446775D01*
X119532536Y-92446500D01*
X119937815Y-92446500D01*
X120004854Y-92466185D01*
X120050609Y-92518989D01*
X120060754Y-92586685D01*
X120046501Y-92694949D01*
X120046500Y-92694966D01*
X120046500Y-92947047D01*
X120049056Y-92966456D01*
X120061275Y-93059267D01*
X120061635Y-93061997D01*
X120061636Y-93062002D01*
X120120882Y-93205036D01*
X120124331Y-93209531D01*
X120215133Y-93327867D01*
X120337963Y-93422117D01*
X120337962Y-93422117D01*
X120402075Y-93448673D01*
X120481001Y-93481365D01*
X120590786Y-93495818D01*
X120593787Y-93496214D01*
X120595960Y-93496500D01*
X120797500Y-93496500D01*
X120864539Y-93516185D01*
X120910294Y-93568989D01*
X120921500Y-93620500D01*
X120921500Y-93930550D01*
X120901815Y-93997589D01*
X120849011Y-94043344D01*
X120779853Y-94053288D01*
X120716297Y-94024263D01*
X120709819Y-94018231D01*
X120661534Y-93969946D01*
X120661529Y-93969942D01*
X120524270Y-93886967D01*
X120524266Y-93886965D01*
X120371133Y-93839248D01*
X120371135Y-93839248D01*
X120344512Y-93836828D01*
X120304581Y-93833200D01*
X120304578Y-93833200D01*
X119877811Y-93833200D01*
X119811273Y-93839246D01*
X119811266Y-93839248D01*
X119658133Y-93886965D01*
X119658129Y-93886967D01*
X119520870Y-93969942D01*
X119520865Y-93969946D01*
X119407446Y-94083365D01*
X119407442Y-94083370D01*
X119324467Y-94220629D01*
X119324465Y-94220633D01*
X119276748Y-94373765D01*
X119270700Y-94440321D01*
X119270700Y-94899806D01*
X119251015Y-94966845D01*
X119198211Y-95012600D01*
X119129053Y-95022544D01*
X119120919Y-95021096D01*
X119068246Y-95009900D01*
X118878954Y-95009900D01*
X118850561Y-95015935D01*
X118693797Y-95049255D01*
X118693792Y-95049257D01*
X118520870Y-95126248D01*
X118520865Y-95126251D01*
X118367729Y-95237511D01*
X118241066Y-95378185D01*
X118146421Y-95542115D01*
X118146418Y-95542122D01*
X118095056Y-95700200D01*
X118087926Y-95722144D01*
X118068140Y-95910400D01*
X118087926Y-96098656D01*
X118087927Y-96098659D01*
X118146418Y-96278677D01*
X118146421Y-96278684D01*
X118241067Y-96442616D01*
X118347090Y-96560366D01*
X118367729Y-96583288D01*
X118520865Y-96694548D01*
X118520870Y-96694551D01*
X118693792Y-96771542D01*
X118693797Y-96771544D01*
X118878954Y-96810900D01*
X118878955Y-96810900D01*
X119068244Y-96810900D01*
X119068246Y-96810900D01*
X119253403Y-96771544D01*
X119426330Y-96694551D01*
X119468108Y-96664197D01*
X119533909Y-96640718D01*
X119601964Y-96656542D01*
X119605114Y-96658383D01*
X119658131Y-96690433D01*
X119658134Y-96690434D01*
X119658133Y-96690434D01*
X119712300Y-96707312D01*
X119811267Y-96738152D01*
X119877819Y-96744200D01*
X120304580Y-96744199D01*
X120304588Y-96744199D01*
X120371126Y-96738153D01*
X120371127Y-96738152D01*
X120371133Y-96738152D01*
X120514897Y-96693353D01*
X120524266Y-96690434D01*
X120524266Y-96690433D01*
X120524269Y-96690433D01*
X120606508Y-96640718D01*
X120661529Y-96607457D01*
X120661529Y-96607456D01*
X120661535Y-96607453D01*
X120743610Y-96525377D01*
X120804929Y-96491895D01*
X120874621Y-96496879D01*
X120918969Y-96525380D01*
X120953949Y-96560360D01*
X120953957Y-96560366D01*
X121096402Y-96644607D01*
X121096405Y-96644609D01*
X121255317Y-96690777D01*
X121255324Y-96690779D01*
X121263598Y-96691429D01*
X121263600Y-96691428D01*
X121263600Y-96076200D01*
X121763599Y-96076200D01*
X121763599Y-96691429D01*
X121771878Y-96690778D01*
X121771879Y-96690778D01*
X121930794Y-96644609D01*
X121930797Y-96644607D01*
X122073240Y-96560368D01*
X122073248Y-96560361D01*
X122086319Y-96547291D01*
X122147642Y-96513806D01*
X122217334Y-96518790D01*
X122261681Y-96547291D01*
X122274751Y-96560361D01*
X122274759Y-96560368D01*
X122417202Y-96644607D01*
X122417205Y-96644609D01*
X122576117Y-96690777D01*
X122576124Y-96690779D01*
X122584398Y-96691429D01*
X122584400Y-96691428D01*
X122584400Y-96076200D01*
X123084400Y-96076200D01*
X123084400Y-96691428D01*
X123084401Y-96691429D01*
X123092675Y-96690779D01*
X123092682Y-96690777D01*
X123251594Y-96644609D01*
X123251597Y-96644607D01*
X123383163Y-96566800D01*
X125865231Y-96566800D01*
X125867943Y-96596644D01*
X125915624Y-96749659D01*
X125915626Y-96749663D01*
X125998539Y-96886819D01*
X125998542Y-96886823D01*
X126111876Y-97000157D01*
X126111880Y-97000160D01*
X126249036Y-97083073D01*
X126249040Y-97083075D01*
X126402057Y-97130756D01*
X126402056Y-97130756D01*
X126468563Y-97136800D01*
X126469400Y-97136800D01*
X126469400Y-96566800D01*
X125865231Y-96566800D01*
X123383163Y-96566800D01*
X123394042Y-96560366D01*
X123394050Y-96560360D01*
X123511060Y-96443350D01*
X123511066Y-96443342D01*
X123595307Y-96300897D01*
X123595308Y-96300894D01*
X123641477Y-96141983D01*
X123641478Y-96141977D01*
X123644399Y-96104857D01*
X123644400Y-96104842D01*
X123644400Y-96076200D01*
X123084400Y-96076200D01*
X122584400Y-96076200D01*
X121763599Y-96076200D01*
X121263600Y-96076200D01*
X121263600Y-96066800D01*
X125865231Y-96066800D01*
X126469400Y-96066800D01*
X126469400Y-95496800D01*
X126468563Y-95496800D01*
X126402056Y-95502843D01*
X126249040Y-95550524D01*
X126249036Y-95550526D01*
X126111880Y-95633439D01*
X126111876Y-95633442D01*
X125998542Y-95746776D01*
X125998539Y-95746780D01*
X125915626Y-95883936D01*
X125915624Y-95883940D01*
X125867943Y-96036955D01*
X125865231Y-96066800D01*
X121263600Y-96066800D01*
X121263600Y-95700200D01*
X121283285Y-95633161D01*
X121336089Y-95587406D01*
X121387600Y-95576200D01*
X123644400Y-95576200D01*
X123644400Y-95547557D01*
X123644399Y-95547542D01*
X123641478Y-95510422D01*
X123641477Y-95510416D01*
X123595308Y-95351505D01*
X123595306Y-95351500D01*
X123578045Y-95322313D01*
X123560861Y-95254589D01*
X123578045Y-95196070D01*
X123595770Y-95166100D01*
X123641150Y-95009900D01*
X123641975Y-95007062D01*
X123641976Y-95007056D01*
X123642484Y-95000599D01*
X123644900Y-94969903D01*
X123644899Y-94819338D01*
X123664583Y-94752299D01*
X123678498Y-94734464D01*
X123720636Y-94689591D01*
X123721844Y-94688345D01*
X123742120Y-94668071D01*
X123746379Y-94662578D01*
X123750152Y-94658161D01*
X123782062Y-94624182D01*
X123791715Y-94606620D01*
X123802389Y-94590370D01*
X123814673Y-94574536D01*
X123833180Y-94531767D01*
X123835749Y-94526524D01*
X123837953Y-94522513D01*
X123858197Y-94485692D01*
X123863177Y-94466291D01*
X123869478Y-94447888D01*
X123877438Y-94429496D01*
X123884730Y-94383449D01*
X123885911Y-94377752D01*
X123897500Y-94332619D01*
X123897499Y-94312586D01*
X123899027Y-94293183D01*
X123902159Y-94273408D01*
X123902160Y-94273406D01*
X123901996Y-94271676D01*
X123897775Y-94227015D01*
X123897500Y-94221177D01*
X123897500Y-93571249D01*
X123917185Y-93504210D01*
X123969989Y-93458455D01*
X124017606Y-93447310D01*
X124030442Y-93446907D01*
X124042445Y-93446531D01*
X124044390Y-93446500D01*
X124072942Y-93446500D01*
X124072945Y-93446500D01*
X124079823Y-93445630D01*
X124085636Y-93445172D01*
X124132222Y-93443709D01*
X124151464Y-93438117D01*
X124170507Y-93434174D01*
X124190387Y-93431664D01*
X124233717Y-93414507D01*
X124239241Y-93412617D01*
X124242991Y-93411527D01*
X124283985Y-93399618D01*
X124301224Y-93389422D01*
X124318698Y-93380862D01*
X124337322Y-93373488D01*
X124337322Y-93373487D01*
X124337327Y-93373486D01*
X124375044Y-93346082D01*
X124379900Y-93342892D01*
X124420015Y-93319170D01*
X124434184Y-93304999D01*
X124448974Y-93292368D01*
X124465182Y-93280594D01*
X124494894Y-93244676D01*
X124498807Y-93240376D01*
X127256788Y-90482396D01*
X127269042Y-90472581D01*
X127268859Y-90472359D01*
X127274868Y-90467386D01*
X127274877Y-90467381D01*
X127321607Y-90417617D01*
X127322846Y-90416338D01*
X127343120Y-90396066D01*
X127347379Y-90390573D01*
X127351152Y-90386156D01*
X127383062Y-90352177D01*
X127392715Y-90334615D01*
X127403389Y-90318365D01*
X127415673Y-90302531D01*
X127434180Y-90259762D01*
X127436749Y-90254519D01*
X127450375Y-90229734D01*
X127459197Y-90213687D01*
X127464177Y-90194286D01*
X127470478Y-90175883D01*
X127478438Y-90157491D01*
X127485730Y-90111444D01*
X127486911Y-90105747D01*
X127487294Y-90104256D01*
X127498500Y-90060614D01*
X127498500Y-90040578D01*
X127500027Y-90021177D01*
X127503160Y-90001399D01*
X127498775Y-89955010D01*
X127498500Y-89949172D01*
X127498500Y-88578979D01*
X127518185Y-88511940D01*
X127534820Y-88491297D01*
X127582158Y-88443959D01*
X127582163Y-88443954D01*
X127666470Y-88301400D01*
X127702960Y-88175800D01*
X127712675Y-88142362D01*
X127712676Y-88142356D01*
X127713334Y-88134000D01*
X127715600Y-88105203D01*
X127715599Y-88104385D01*
X127715636Y-88104260D01*
X127715695Y-88102774D01*
X127715790Y-88102777D01*
X127715791Y-88102775D01*
X127715861Y-88102780D01*
X127716068Y-88102788D01*
X127735263Y-88037343D01*
X127751913Y-88016675D01*
X128900120Y-86868468D01*
X128961442Y-86834985D01*
X129031134Y-86839969D01*
X129087067Y-86881841D01*
X129111484Y-86947305D01*
X129111800Y-86956150D01*
X129111800Y-87089189D01*
X129111801Y-87089215D01*
X129114723Y-87126354D01*
X129114723Y-87126357D01*
X129114724Y-87126358D01*
X129150752Y-87250368D01*
X129160930Y-87285400D01*
X129245234Y-87427950D01*
X129245241Y-87427959D01*
X129246818Y-87429536D01*
X129247658Y-87431075D01*
X129250020Y-87434120D01*
X129249529Y-87434500D01*
X129280303Y-87490859D01*
X129281106Y-87494867D01*
X129286621Y-87524960D01*
X129287184Y-87528662D01*
X129294659Y-87590219D01*
X129294660Y-87590223D01*
X129298251Y-87599692D01*
X129304274Y-87621295D01*
X129306104Y-87631279D01*
X129331559Y-87687839D01*
X129332989Y-87691290D01*
X129354982Y-87749279D01*
X129354983Y-87749280D01*
X129360736Y-87757615D01*
X129371761Y-87777162D01*
X129375920Y-87786404D01*
X129375924Y-87786409D01*
X129414171Y-87835227D01*
X129416391Y-87838245D01*
X129451612Y-87889273D01*
X129451616Y-87889277D01*
X129451617Y-87889278D01*
X129498050Y-87930413D01*
X129500741Y-87932947D01*
X130600849Y-89033055D01*
X130603401Y-89035767D01*
X130607470Y-89040360D01*
X130637192Y-89103592D01*
X130628009Y-89172856D01*
X130587542Y-89222904D01*
X130559728Y-89243112D01*
X130433066Y-89383785D01*
X130338421Y-89547715D01*
X130338418Y-89547722D01*
X130279927Y-89727740D01*
X130279926Y-89727744D01*
X130262967Y-89889103D01*
X130262279Y-89895649D01*
X130235694Y-89960263D01*
X130226639Y-89970368D01*
X128800608Y-91396399D01*
X128788351Y-91406220D01*
X128788534Y-91406441D01*
X128782522Y-91411414D01*
X128735832Y-91461132D01*
X128734479Y-91462529D01*
X128714289Y-91482719D01*
X128714277Y-91482732D01*
X128710021Y-91488217D01*
X128706237Y-91492647D01*
X128674337Y-91526618D01*
X128674336Y-91526620D01*
X128664684Y-91544176D01*
X128654010Y-91560426D01*
X128641729Y-91576261D01*
X128641724Y-91576268D01*
X128623215Y-91619038D01*
X128620645Y-91624284D01*
X128598203Y-91665106D01*
X128593222Y-91684507D01*
X128586921Y-91702910D01*
X128578962Y-91721302D01*
X128578961Y-91721305D01*
X128571671Y-91767327D01*
X128570487Y-91773046D01*
X128558901Y-91818172D01*
X128558900Y-91818182D01*
X128558900Y-91838216D01*
X128557373Y-91857615D01*
X128554240Y-91877394D01*
X128554240Y-91877395D01*
X128558625Y-91923783D01*
X128558900Y-91929621D01*
X128558900Y-95436559D01*
X128539215Y-95503598D01*
X128486411Y-95549353D01*
X128417253Y-95559297D01*
X128392216Y-95552020D01*
X128392130Y-95552298D01*
X128231833Y-95502348D01*
X128231835Y-95502348D01*
X128205212Y-95499928D01*
X128165281Y-95496300D01*
X128165278Y-95496300D01*
X127663511Y-95496300D01*
X127596973Y-95502346D01*
X127596966Y-95502348D01*
X127443837Y-95550064D01*
X127443831Y-95550067D01*
X127380564Y-95588312D01*
X127313009Y-95606147D01*
X127252267Y-95588311D01*
X127189763Y-95550526D01*
X127189759Y-95550524D01*
X127036742Y-95502843D01*
X127036743Y-95502843D01*
X126970237Y-95496800D01*
X126969400Y-95496800D01*
X126969400Y-97136800D01*
X126970237Y-97136800D01*
X127036738Y-97130757D01*
X127189762Y-97083073D01*
X127252265Y-97045289D01*
X127319820Y-97027452D01*
X127380565Y-97045288D01*
X127443829Y-97083532D01*
X127443833Y-97083534D01*
X127498000Y-97100412D01*
X127596967Y-97131252D01*
X127663519Y-97137300D01*
X128165280Y-97137299D01*
X128165287Y-97137299D01*
X128230920Y-97131335D01*
X128299466Y-97144872D01*
X128349812Y-97193318D01*
X128365973Y-97261293D01*
X128365633Y-97266046D01*
X128363900Y-97285119D01*
X128363900Y-97786888D01*
X128369946Y-97853426D01*
X128369948Y-97853433D01*
X128417665Y-98006566D01*
X128417667Y-98006569D01*
X128466017Y-98086550D01*
X128483900Y-98150699D01*
X128483900Y-98312080D01*
X128464215Y-98379119D01*
X128447581Y-98399761D01*
X126638160Y-100209181D01*
X126576837Y-100242666D01*
X126550479Y-100245500D01*
X125816998Y-100245500D01*
X125816980Y-100245501D01*
X125714203Y-100256000D01*
X125714200Y-100256001D01*
X125547668Y-100311185D01*
X125547663Y-100311187D01*
X125398342Y-100403289D01*
X125274289Y-100527342D01*
X125237741Y-100586597D01*
X125185793Y-100633321D01*
X125132202Y-100645500D01*
X118605037Y-100645500D01*
X118601293Y-100645387D01*
X118539397Y-100641643D01*
X118539390Y-100641643D01*
X118478402Y-100652819D01*
X118474701Y-100653382D01*
X118413125Y-100660860D01*
X118403642Y-100664456D01*
X118382038Y-100670478D01*
X118381071Y-100670656D01*
X118372065Y-100672306D01*
X118315522Y-100697754D01*
X118312063Y-100699187D01*
X118288495Y-100708126D01*
X118254070Y-100721182D01*
X118254068Y-100721183D01*
X118254066Y-100721184D01*
X118254061Y-100721186D01*
X118245722Y-100726942D01*
X118226190Y-100737959D01*
X118216946Y-100742120D01*
X118216944Y-100742121D01*
X118216943Y-100742122D01*
X118187244Y-100765388D01*
X118168124Y-100780368D01*
X118165109Y-100782586D01*
X118114068Y-100817818D01*
X118072942Y-100864240D01*
X118070375Y-100866966D01*
X116060160Y-102877181D01*
X115998837Y-102910666D01*
X115972479Y-102913500D01*
X114916129Y-102913500D01*
X114916123Y-102913501D01*
X114856516Y-102919908D01*
X114721671Y-102970202D01*
X114721664Y-102970206D01*
X114606455Y-103056452D01*
X114606452Y-103056455D01*
X114520206Y-103171664D01*
X114520202Y-103171671D01*
X114469908Y-103306517D01*
X114463501Y-103366116D01*
X114463500Y-103366135D01*
X114463500Y-104561870D01*
X114463501Y-104561876D01*
X114469908Y-104621483D01*
X114523303Y-104764641D01*
X114521575Y-104765285D01*
X114534095Y-104822853D01*
X114522310Y-104862988D01*
X114523303Y-104863359D01*
X114469908Y-105006517D01*
X114463501Y-105066116D01*
X114463501Y-105066123D01*
X114463500Y-105066135D01*
X114463500Y-106261870D01*
X114463501Y-106261876D01*
X114469908Y-106321483D01*
X114523303Y-106464641D01*
X114521575Y-106465285D01*
X114534095Y-106522853D01*
X114522310Y-106562988D01*
X114523303Y-106563359D01*
X114469908Y-106706517D01*
X114467409Y-106729767D01*
X114463501Y-106766123D01*
X114463500Y-106766135D01*
X114463500Y-107961870D01*
X114463501Y-107961876D01*
X114469908Y-108021483D01*
X114520202Y-108156328D01*
X114520206Y-108156335D01*
X114606452Y-108271544D01*
X114606455Y-108271547D01*
X114721664Y-108357793D01*
X114721671Y-108357797D01*
X114856517Y-108408091D01*
X114856516Y-108408091D01*
X114863444Y-108408835D01*
X114916127Y-108414500D01*
X117011872Y-108414499D01*
X117071483Y-108408091D01*
X117206331Y-108357796D01*
X117321546Y-108271546D01*
X117407796Y-108156331D01*
X117458091Y-108021483D01*
X117464500Y-107961873D01*
X117464500Y-107961870D01*
X119263500Y-107961870D01*
X119263501Y-107961876D01*
X119269908Y-108021483D01*
X119320202Y-108156328D01*
X119320206Y-108156335D01*
X119406452Y-108271544D01*
X119406455Y-108271547D01*
X119521664Y-108357793D01*
X119521671Y-108357797D01*
X119656517Y-108408091D01*
X119656516Y-108408091D01*
X119663444Y-108408835D01*
X119716127Y-108414500D01*
X121811872Y-108414499D01*
X121871483Y-108408091D01*
X122006331Y-108357796D01*
X122121546Y-108271546D01*
X122207796Y-108156331D01*
X122219649Y-108124551D01*
X122220762Y-108121568D01*
X122262632Y-108065634D01*
X122328096Y-108041216D01*
X122336944Y-108040900D01*
X122480244Y-108040900D01*
X122547283Y-108060585D01*
X122553129Y-108064582D01*
X122635665Y-108124548D01*
X122635670Y-108124551D01*
X122808592Y-108201542D01*
X122808597Y-108201544D01*
X122993754Y-108240900D01*
X122993755Y-108240900D01*
X123183044Y-108240900D01*
X123183046Y-108240900D01*
X123368203Y-108201544D01*
X123541130Y-108124551D01*
X123694271Y-108013288D01*
X123820933Y-107872616D01*
X123915579Y-107708684D01*
X123974074Y-107528656D01*
X123993860Y-107340400D01*
X123974074Y-107152144D01*
X123915579Y-106972116D01*
X123820933Y-106808184D01*
X123694271Y-106667512D01*
X123688754Y-106663504D01*
X123630214Y-106620972D01*
X123587548Y-106565642D01*
X123581569Y-106496029D01*
X123614174Y-106434234D01*
X123630214Y-106420336D01*
X123673025Y-106389232D01*
X123745071Y-106336888D01*
X123871733Y-106196216D01*
X123966379Y-106032284D01*
X124024874Y-105852256D01*
X124044660Y-105664000D01*
X124024874Y-105475744D01*
X123966379Y-105295716D01*
X123871733Y-105131784D01*
X123745071Y-104991112D01*
X123738891Y-104986622D01*
X123591934Y-104879851D01*
X123591932Y-104879850D01*
X123484087Y-104831833D01*
X123430851Y-104786582D01*
X123410530Y-104719733D01*
X123429576Y-104652509D01*
X123481943Y-104606254D01*
X123508738Y-104597265D01*
X123520603Y-104594744D01*
X123520607Y-104594742D01*
X123520608Y-104594742D01*
X123594425Y-104561876D01*
X123693530Y-104517751D01*
X123846671Y-104406488D01*
X123973333Y-104265816D01*
X124067979Y-104101884D01*
X124126474Y-103921856D01*
X124146260Y-103733600D01*
X124126474Y-103545344D01*
X124067979Y-103365316D01*
X123973333Y-103201384D01*
X123846671Y-103060712D01*
X123840812Y-103056455D01*
X123693534Y-102949451D01*
X123693529Y-102949448D01*
X123520607Y-102872457D01*
X123520602Y-102872455D01*
X123374801Y-102841465D01*
X123335446Y-102833100D01*
X123146154Y-102833100D01*
X123113697Y-102839998D01*
X122960997Y-102872455D01*
X122960992Y-102872457D01*
X122788070Y-102949448D01*
X122788065Y-102949451D01*
X122705529Y-103009418D01*
X122639723Y-103032898D01*
X122632644Y-103033100D01*
X122131621Y-103033100D01*
X122064582Y-103013415D01*
X122057310Y-103008367D01*
X122006330Y-102970203D01*
X122006328Y-102970202D01*
X121871482Y-102919908D01*
X121871483Y-102919908D01*
X121811883Y-102913501D01*
X121811881Y-102913500D01*
X121811873Y-102913500D01*
X121811864Y-102913500D01*
X119716129Y-102913500D01*
X119716123Y-102913501D01*
X119656516Y-102919908D01*
X119521671Y-102970202D01*
X119521664Y-102970206D01*
X119406455Y-103056452D01*
X119406452Y-103056455D01*
X119320206Y-103171664D01*
X119320202Y-103171671D01*
X119269908Y-103306517D01*
X119263501Y-103366116D01*
X119263500Y-103366135D01*
X119263500Y-104561870D01*
X119263501Y-104561876D01*
X119269908Y-104621483D01*
X119323303Y-104764641D01*
X119321575Y-104765285D01*
X119334095Y-104822853D01*
X119322310Y-104862988D01*
X119323303Y-104863359D01*
X119269908Y-105006517D01*
X119263501Y-105066116D01*
X119263501Y-105066123D01*
X119263500Y-105066135D01*
X119263500Y-106261870D01*
X119263501Y-106261876D01*
X119269908Y-106321483D01*
X119323303Y-106464641D01*
X119321575Y-106465285D01*
X119334095Y-106522853D01*
X119322310Y-106562988D01*
X119323303Y-106563359D01*
X119269908Y-106706517D01*
X119267409Y-106729767D01*
X119263501Y-106766123D01*
X119263500Y-106766135D01*
X119263500Y-107961870D01*
X117464500Y-107961870D01*
X117464499Y-106766128D01*
X117458091Y-106706517D01*
X117443543Y-106667511D01*
X117404697Y-106563359D01*
X117406425Y-106562714D01*
X117393904Y-106505153D01*
X117405691Y-106465011D01*
X117404696Y-106464640D01*
X117407794Y-106456333D01*
X117407796Y-106456331D01*
X117458091Y-106321483D01*
X117464500Y-106261873D01*
X117464499Y-105066128D01*
X117458091Y-105006517D01*
X117407796Y-104871669D01*
X117407794Y-104871666D01*
X117404696Y-104863360D01*
X117406426Y-104862714D01*
X117393902Y-104805163D01*
X117405691Y-104765011D01*
X117404696Y-104764640D01*
X117407794Y-104756333D01*
X117407796Y-104756331D01*
X117458091Y-104621483D01*
X117464500Y-104561873D01*
X117464499Y-103505517D01*
X117484183Y-103438479D01*
X117500813Y-103417842D01*
X118835837Y-102082819D01*
X118897161Y-102049334D01*
X118923519Y-102046500D01*
X124541602Y-102046500D01*
X124608641Y-102066185D01*
X124654396Y-102118989D01*
X124664340Y-102188147D01*
X124645461Y-102236326D01*
X124645666Y-102236434D01*
X124644694Y-102238284D01*
X124643656Y-102240933D01*
X124642182Y-102243070D01*
X124642180Y-102243074D01*
X124642179Y-102243077D01*
X124620189Y-102301055D01*
X124618757Y-102304513D01*
X124593305Y-102361068D01*
X124591477Y-102371042D01*
X124585453Y-102392653D01*
X124581860Y-102402127D01*
X124581859Y-102402128D01*
X124574384Y-102463685D01*
X124573821Y-102467386D01*
X124562642Y-102528390D01*
X124562642Y-102528395D01*
X124566387Y-102590302D01*
X124566500Y-102594047D01*
X124566500Y-108598951D01*
X124566387Y-108602696D01*
X124562642Y-108664603D01*
X124562642Y-108664605D01*
X124573821Y-108725612D01*
X124574384Y-108729313D01*
X124581859Y-108790870D01*
X124581860Y-108790874D01*
X124585451Y-108800343D01*
X124591474Y-108821946D01*
X124593304Y-108831930D01*
X124618759Y-108888490D01*
X124620189Y-108891941D01*
X124642182Y-108949930D01*
X124642781Y-108950798D01*
X124647936Y-108958266D01*
X124658961Y-108977813D01*
X124663120Y-108987055D01*
X124663124Y-108987060D01*
X124701371Y-109035878D01*
X124703591Y-109038896D01*
X124738812Y-109089924D01*
X124738816Y-109089928D01*
X124738817Y-109089929D01*
X124785250Y-109131064D01*
X124787941Y-109133598D01*
X125412404Y-109758061D01*
X126000781Y-110346438D01*
X126034266Y-110407761D01*
X126037100Y-110434117D01*
X126037100Y-110481290D01*
X126037101Y-110481316D01*
X126040023Y-110518454D01*
X126040023Y-110518457D01*
X126040024Y-110518458D01*
X126055349Y-110571206D01*
X126086230Y-110677500D01*
X126170534Y-110820050D01*
X126170541Y-110820059D01*
X126287640Y-110937158D01*
X126287644Y-110937161D01*
X126287646Y-110937163D01*
X126430200Y-111021470D01*
X126472141Y-111033655D01*
X126589237Y-111067675D01*
X126589240Y-111067675D01*
X126589242Y-111067676D01*
X126626397Y-111070600D01*
X127068802Y-111070599D01*
X127069489Y-111070545D01*
X127071312Y-111070401D01*
X127105958Y-111067676D01*
X127265000Y-111021470D01*
X127407554Y-110937163D01*
X127524663Y-110820054D01*
X127527900Y-110814579D01*
X127578969Y-110766896D01*
X127634633Y-110753700D01*
X127681331Y-110753700D01*
X127744451Y-110770967D01*
X127801902Y-110804944D01*
X127821477Y-110810631D01*
X127959726Y-110850797D01*
X127959729Y-110850797D01*
X127959731Y-110850798D01*
X127996606Y-110853700D01*
X127996614Y-110853700D01*
X129152986Y-110853700D01*
X129152994Y-110853700D01*
X129189869Y-110850798D01*
X129189871Y-110850797D01*
X129189873Y-110850797D01*
X129231491Y-110838705D01*
X129347698Y-110804944D01*
X129489165Y-110721281D01*
X129605381Y-110605065D01*
X129605567Y-110604749D01*
X129605777Y-110604553D01*
X129610161Y-110598902D01*
X129611072Y-110599609D01*
X129656636Y-110557066D01*
X129725377Y-110544562D01*
X129789967Y-110571206D01*
X129814155Y-110599121D01*
X129814439Y-110598902D01*
X129818479Y-110604111D01*
X129819032Y-110604748D01*
X129819219Y-110605065D01*
X129819221Y-110605067D01*
X129819223Y-110605070D01*
X129935429Y-110721276D01*
X129935433Y-110721279D01*
X129935435Y-110721281D01*
X130042774Y-110784761D01*
X130083617Y-110808915D01*
X130082601Y-110810631D01*
X130128244Y-110848598D01*
X130149275Y-110915227D01*
X130149300Y-110917725D01*
X130149300Y-112843551D01*
X130149187Y-112847296D01*
X130145442Y-112909203D01*
X130145442Y-112909205D01*
X130156621Y-112970212D01*
X130157184Y-112973913D01*
X130164659Y-113035470D01*
X130164660Y-113035474D01*
X130168251Y-113044943D01*
X130174274Y-113066546D01*
X130176104Y-113076530D01*
X130201559Y-113133090D01*
X130202989Y-113136541D01*
X130224982Y-113194530D01*
X130224983Y-113194531D01*
X130230736Y-113202866D01*
X130241761Y-113222413D01*
X130245920Y-113231655D01*
X130245922Y-113231657D01*
X130276458Y-113270634D01*
X130284171Y-113280478D01*
X130286391Y-113283496D01*
X130321612Y-113334524D01*
X130321616Y-113334528D01*
X130321617Y-113334529D01*
X130368050Y-113375664D01*
X130370741Y-113378198D01*
X131159843Y-114167300D01*
X131848662Y-114856119D01*
X131882147Y-114917442D01*
X131877163Y-114987134D01*
X131835291Y-115043067D01*
X131769827Y-115067484D01*
X131760981Y-115067800D01*
X131579300Y-115067800D01*
X131579300Y-116267800D01*
X132142300Y-116267800D01*
X132209339Y-116287485D01*
X132255094Y-116340289D01*
X132266300Y-116391800D01*
X132266300Y-116643800D01*
X132246615Y-116710839D01*
X132193811Y-116756594D01*
X132142300Y-116767800D01*
X131579300Y-116767800D01*
X131579300Y-117843300D01*
X131559615Y-117910339D01*
X131506811Y-117956094D01*
X131455300Y-117967300D01*
X131316701Y-117967300D01*
X131316417Y-117967417D01*
X131316416Y-117967417D01*
X131302107Y-117973312D01*
X131259305Y-117996672D01*
X131232974Y-117999500D01*
X130765800Y-117999500D01*
X130698761Y-117979815D01*
X130653006Y-117927011D01*
X130641800Y-117875500D01*
X130641800Y-117033910D01*
X130666257Y-117073410D01*
X130755762Y-117141001D01*
X130863640Y-117171695D01*
X130975321Y-117161346D01*
X131075722Y-117111352D01*
X131151284Y-117028466D01*
X131191800Y-116923880D01*
X131191800Y-116139998D01*
X131176388Y-116057550D01*
X131117343Y-115962190D01*
X131027838Y-115894599D01*
X130919960Y-115863905D01*
X130808279Y-115874254D01*
X130707878Y-115924248D01*
X130641800Y-115996730D01*
X130641800Y-115094433D01*
X130639853Y-115094731D01*
X130639847Y-115094733D01*
X130449142Y-115165362D01*
X130449135Y-115165365D01*
X130276532Y-115272949D01*
X130129131Y-115413064D01*
X130129130Y-115413066D01*
X130012943Y-115579995D01*
X129932740Y-115766892D01*
X129891800Y-115966109D01*
X129891800Y-116267800D01*
X130591800Y-116267800D01*
X130591800Y-116767800D01*
X129891800Y-116767800D01*
X129891800Y-117018513D01*
X129907218Y-117170138D01*
X129968099Y-117364181D01*
X129968104Y-117364191D01*
X130066805Y-117542015D01*
X130066805Y-117542016D01*
X130199278Y-117696330D01*
X130199279Y-117696331D01*
X130304069Y-117777444D01*
X130345033Y-117834045D01*
X130348894Y-117903808D01*
X130314424Y-117964583D01*
X130252569Y-117997075D01*
X130228168Y-117999500D01*
X127484487Y-117999500D01*
X127452763Y-117995373D01*
X127198741Y-117928146D01*
X127065022Y-117892757D01*
X127062818Y-117892130D01*
X126039766Y-117580499D01*
X126037586Y-117579791D01*
X125026740Y-117230568D01*
X125024588Y-117229779D01*
X124027318Y-116843435D01*
X124025196Y-116842567D01*
X123042942Y-116419661D01*
X123040854Y-116418716D01*
X122074836Y-115959774D01*
X122072785Y-115958753D01*
X121124417Y-115464444D01*
X121122405Y-115463348D01*
X120598855Y-115165362D01*
X120192940Y-114934328D01*
X120190987Y-114933169D01*
X119281699Y-114370161D01*
X119279774Y-114368919D01*
X118391904Y-113772693D01*
X118390050Y-113771397D01*
X117524816Y-113142769D01*
X117523002Y-113141399D01*
X117516822Y-113136550D01*
X116681578Y-112481219D01*
X116679814Y-112479781D01*
X116659664Y-112462732D01*
X116257044Y-112122066D01*
X115863394Y-111788990D01*
X115861672Y-111787478D01*
X115254537Y-111234001D01*
X115071324Y-111066980D01*
X115069666Y-111065411D01*
X114909365Y-110908046D01*
X114306478Y-110316199D01*
X114304873Y-110314564D01*
X113569902Y-109537673D01*
X113568358Y-109535980D01*
X113362365Y-109301455D01*
X113263493Y-109188888D01*
X112862579Y-108732442D01*
X112861099Y-108730692D01*
X112537378Y-108333439D01*
X112185494Y-107901625D01*
X112184126Y-107899881D01*
X111757120Y-107334433D01*
X111539602Y-107046391D01*
X111538255Y-107044537D01*
X110925741Y-106167864D01*
X110924463Y-106165962D01*
X110838231Y-106032277D01*
X110344723Y-105267193D01*
X110343549Y-105265295D01*
X109797440Y-104345757D01*
X109796324Y-104343797D01*
X109284539Y-103404661D01*
X109283526Y-103402719D01*
X108806792Y-102445306D01*
X108805817Y-102443252D01*
X108364808Y-101468926D01*
X108363902Y-101466822D01*
X108172322Y-100998195D01*
X107959202Y-100476881D01*
X107958384Y-100474767D01*
X107774456Y-99972643D01*
X107590519Y-99470489D01*
X107589798Y-99468401D01*
X107259291Y-98451206D01*
X107258651Y-98449109D01*
X107005232Y-97558429D01*
X107000500Y-97524509D01*
X107000500Y-90000002D01*
X107695153Y-90000002D01*
X107714526Y-90357314D01*
X107714527Y-90357331D01*
X107772415Y-90710431D01*
X107772421Y-90710457D01*
X107868147Y-91055232D01*
X107868149Y-91055239D01*
X108000597Y-91387659D01*
X108000606Y-91387677D01*
X108168218Y-91703827D01*
X108369033Y-92000007D01*
X108496441Y-92150003D01*
X108496442Y-92150004D01*
X109702266Y-90944180D01*
X109865130Y-91134870D01*
X110055818Y-91297732D01*
X108847255Y-92506295D01*
X108847256Y-92506296D01*
X108860485Y-92518828D01*
X108860486Y-92518829D01*
X109145367Y-92735388D01*
X109145370Y-92735390D01*
X109451990Y-92919876D01*
X109776739Y-93070122D01*
X109776744Y-93070123D01*
X110115855Y-93184383D01*
X110465339Y-93261311D01*
X110821075Y-93299999D01*
X110821085Y-93300000D01*
X111178915Y-93300000D01*
X111178924Y-93299999D01*
X111534660Y-93261311D01*
X111884144Y-93184383D01*
X112223255Y-93070123D01*
X112223260Y-93070122D01*
X112548009Y-92919876D01*
X112854629Y-92735390D01*
X112854632Y-92735388D01*
X113139504Y-92518836D01*
X113152742Y-92506294D01*
X111944180Y-91297733D01*
X112134870Y-91134870D01*
X112297733Y-90944180D01*
X113503556Y-92150003D01*
X113630964Y-92000008D01*
X113630975Y-91999994D01*
X113831781Y-91703827D01*
X113999393Y-91387677D01*
X113999402Y-91387659D01*
X114131850Y-91055239D01*
X114131852Y-91055232D01*
X114227578Y-90710457D01*
X114227584Y-90710431D01*
X114285472Y-90357331D01*
X114285473Y-90357314D01*
X114304847Y-90000002D01*
X114304847Y-89999997D01*
X114285473Y-89642685D01*
X114285472Y-89642668D01*
X114227584Y-89289568D01*
X114227578Y-89289542D01*
X114131852Y-88944767D01*
X114131850Y-88944760D01*
X113999402Y-88612340D01*
X113999393Y-88612322D01*
X113831781Y-88296172D01*
X113630966Y-87999992D01*
X113503557Y-87849995D01*
X113503556Y-87849994D01*
X112297732Y-89055818D01*
X112134870Y-88865130D01*
X111944180Y-88702266D01*
X113152743Y-87493703D01*
X113152742Y-87493702D01*
X113139514Y-87481171D01*
X113139513Y-87481170D01*
X112854632Y-87264611D01*
X112854629Y-87264609D01*
X112548009Y-87080123D01*
X112223260Y-86929877D01*
X112223255Y-86929876D01*
X111884144Y-86815616D01*
X111534660Y-86738688D01*
X111178924Y-86700000D01*
X110821075Y-86700000D01*
X110465339Y-86738688D01*
X110115855Y-86815616D01*
X109776744Y-86929876D01*
X109776739Y-86929877D01*
X109451990Y-87080123D01*
X109145370Y-87264609D01*
X109145367Y-87264611D01*
X108860491Y-87481166D01*
X108847256Y-87493703D01*
X108847255Y-87493703D01*
X110055819Y-88702266D01*
X109865130Y-88865130D01*
X109702266Y-89055818D01*
X108496442Y-87849994D01*
X108496441Y-87849995D01*
X108369040Y-87999983D01*
X108369033Y-87999993D01*
X108168218Y-88296172D01*
X108000606Y-88612322D01*
X108000597Y-88612340D01*
X107868149Y-88944760D01*
X107868147Y-88944767D01*
X107772421Y-89289542D01*
X107772415Y-89289568D01*
X107714527Y-89642668D01*
X107714526Y-89642685D01*
X107695153Y-89999997D01*
X107695153Y-90000002D01*
X107000500Y-90000002D01*
X107000500Y-83247799D01*
X115293399Y-83247799D01*
X115293400Y-83247800D01*
X115853400Y-83247800D01*
X115853400Y-82632569D01*
X115845118Y-82633221D01*
X115686205Y-82679390D01*
X115686202Y-82679392D01*
X115543757Y-82763633D01*
X115543749Y-82763639D01*
X115426739Y-82880649D01*
X115426733Y-82880657D01*
X115342492Y-83023102D01*
X115342491Y-83023105D01*
X115296322Y-83182016D01*
X115296321Y-83182022D01*
X115293400Y-83219142D01*
X115293400Y-83219157D01*
X115293399Y-83247799D01*
X107000500Y-83247799D01*
X107000500Y-82475488D01*
X107005231Y-82441570D01*
X107258656Y-81550875D01*
X107259286Y-81548808D01*
X107589803Y-80531581D01*
X107590513Y-80529527D01*
X107891839Y-79706900D01*
X107958384Y-79525232D01*
X107959195Y-79523136D01*
X108363902Y-78533175D01*
X108364808Y-78531073D01*
X108805817Y-77556747D01*
X108806782Y-77554714D01*
X109133885Y-76897800D01*
X115166400Y-76897800D01*
X115726400Y-76897800D01*
X115726400Y-76282569D01*
X115718118Y-76283221D01*
X115559205Y-76329390D01*
X115559202Y-76329392D01*
X115416757Y-76413633D01*
X115416749Y-76413639D01*
X115299739Y-76530649D01*
X115299733Y-76530657D01*
X115215492Y-76673102D01*
X115215491Y-76673105D01*
X115169322Y-76832016D01*
X115169321Y-76832022D01*
X115166400Y-76869142D01*
X115166400Y-76897800D01*
X109133885Y-76897800D01*
X109283537Y-76597258D01*
X109284527Y-76595360D01*
X109796336Y-75656179D01*
X109797426Y-75654265D01*
X110343563Y-74734679D01*
X110344708Y-74732829D01*
X110924486Y-73834002D01*
X110925722Y-73832162D01*
X111538261Y-72955453D01*
X111539602Y-72953608D01*
X111541555Y-72951022D01*
X112184146Y-72100091D01*
X112185473Y-72098401D01*
X112861105Y-71269299D01*
X112862579Y-71267557D01*
X112865188Y-71264587D01*
X113568388Y-70463985D01*
X113569879Y-70462350D01*
X114304899Y-69685408D01*
X114306452Y-69683825D01*
X114808974Y-69190507D01*
X114877219Y-69123512D01*
X114938849Y-69090595D01*
X114964086Y-69088000D01*
X138253782Y-69088000D01*
X138320821Y-69107685D01*
G37*
G04 #@! TD.AperFunction*
G04 #@! TA.AperFunction,Conductor*
G36*
X155102953Y-69107685D02*
G01*
X155122781Y-69123512D01*
X155693521Y-69683800D01*
X155695126Y-69685435D01*
X156430097Y-70462326D01*
X156431641Y-70464019D01*
X157137420Y-71267557D01*
X157138900Y-71269307D01*
X157423616Y-71618695D01*
X157814499Y-72098367D01*
X157815878Y-72100125D01*
X157966858Y-72300055D01*
X158460397Y-72953608D01*
X158461744Y-72955462D01*
X159074258Y-73832135D01*
X159075536Y-73834037D01*
X159184153Y-74002426D01*
X159648978Y-74723043D01*
X159655262Y-74732784D01*
X159656459Y-74734720D01*
X159835832Y-75036747D01*
X160202559Y-75654242D01*
X160203685Y-75656219D01*
X160715448Y-76595316D01*
X160716483Y-76597300D01*
X161074725Y-77316749D01*
X161193199Y-77554677D01*
X161194182Y-77556747D01*
X161635191Y-78531073D01*
X161636097Y-78533177D01*
X162040788Y-79523096D01*
X162041615Y-79525232D01*
X162409469Y-80529479D01*
X162410212Y-80531630D01*
X162623291Y-81187418D01*
X162740699Y-81548763D01*
X162741357Y-81550924D01*
X162956793Y-82308100D01*
X162994766Y-82441562D01*
X162999500Y-82475496D01*
X162999500Y-97524502D01*
X162994766Y-97558436D01*
X162985230Y-97591953D01*
X162750406Y-98417276D01*
X162741367Y-98449044D01*
X162740699Y-98451236D01*
X162410217Y-99468354D01*
X162409469Y-99470520D01*
X162041615Y-100474767D01*
X162040788Y-100476903D01*
X161636097Y-101466822D01*
X161635191Y-101468926D01*
X161194182Y-102443252D01*
X161193199Y-102445322D01*
X160989177Y-102855056D01*
X160716494Y-103402677D01*
X160715448Y-103404683D01*
X160203693Y-104343766D01*
X160202559Y-104345757D01*
X159656468Y-105265266D01*
X159655262Y-105267215D01*
X159075536Y-106165962D01*
X159074258Y-106167864D01*
X158461744Y-107044537D01*
X158460397Y-107046391D01*
X157815894Y-107899854D01*
X157814479Y-107901657D01*
X157138900Y-108730692D01*
X157137420Y-108732442D01*
X156431641Y-109535980D01*
X156430097Y-109537673D01*
X155695126Y-110314564D01*
X155693521Y-110316199D01*
X154930333Y-111065411D01*
X154928668Y-111066986D01*
X154138327Y-111787478D01*
X154136605Y-111788990D01*
X153320185Y-112479781D01*
X153318409Y-112481229D01*
X152476997Y-113141399D01*
X152475168Y-113142780D01*
X151609973Y-113771381D01*
X151608095Y-113772693D01*
X150720225Y-114368919D01*
X150718300Y-114370161D01*
X149809012Y-114933169D01*
X149807042Y-114934339D01*
X148877594Y-115463348D01*
X148875582Y-115464444D01*
X147927214Y-115958753D01*
X147925163Y-115959774D01*
X146959145Y-116418716D01*
X146957057Y-116419661D01*
X145974803Y-116842567D01*
X145972681Y-116843435D01*
X144975411Y-117229779D01*
X144973259Y-117230568D01*
X143962413Y-117579791D01*
X143960233Y-117580499D01*
X142937181Y-117892130D01*
X142934977Y-117892757D01*
X142663579Y-117964583D01*
X142547236Y-117995373D01*
X142515513Y-117999500D01*
X139910438Y-117999500D01*
X139843399Y-117979815D01*
X139797644Y-117927011D01*
X139787700Y-117857853D01*
X139816725Y-117794297D01*
X139844846Y-117770268D01*
X139857066Y-117762650D01*
X140004468Y-117622535D01*
X140004469Y-117622533D01*
X140120656Y-117455604D01*
X140200859Y-117268707D01*
X140241800Y-117069490D01*
X140241800Y-116767800D01*
X139541800Y-116767800D01*
X139541800Y-116267800D01*
X140241800Y-116267800D01*
X140241800Y-116017086D01*
X140226381Y-115865461D01*
X140165500Y-115671418D01*
X140165495Y-115671408D01*
X140066794Y-115493584D01*
X140066794Y-115493583D01*
X139934321Y-115339269D01*
X139934320Y-115339268D01*
X139773495Y-115214781D01*
X139590893Y-115125211D01*
X139491800Y-115099553D01*
X139491800Y-116001689D01*
X139467343Y-115962190D01*
X139377838Y-115894599D01*
X139269960Y-115863905D01*
X139158279Y-115874254D01*
X139057878Y-115924248D01*
X138982316Y-116007134D01*
X138941800Y-116111720D01*
X138941800Y-116895602D01*
X138957212Y-116978050D01*
X139016257Y-117073410D01*
X139105762Y-117141001D01*
X139213640Y-117171695D01*
X139325321Y-117161346D01*
X139425722Y-117111352D01*
X139491800Y-117038869D01*
X139491800Y-117875500D01*
X139472115Y-117942539D01*
X139419311Y-117988294D01*
X139367800Y-117999500D01*
X138900626Y-117999500D01*
X138833587Y-117979815D01*
X138819261Y-117968273D01*
X138817183Y-117967417D01*
X138816899Y-117967300D01*
X138816898Y-117967300D01*
X138678300Y-117967300D01*
X138611261Y-117947615D01*
X138565506Y-117894811D01*
X138554300Y-117843300D01*
X138554300Y-116767800D01*
X137991300Y-116767800D01*
X137924261Y-116748115D01*
X137878506Y-116695311D01*
X137867300Y-116643800D01*
X137867300Y-116391800D01*
X137886985Y-116324761D01*
X137939789Y-116279006D01*
X137991300Y-116267800D01*
X138554300Y-116267800D01*
X138554300Y-115067800D01*
X138318955Y-115067800D01*
X138259427Y-115074201D01*
X138259420Y-115074203D01*
X138124713Y-115124445D01*
X138124706Y-115124449D01*
X138009612Y-115210609D01*
X138009609Y-115210612D01*
X137923449Y-115325706D01*
X137923445Y-115325713D01*
X137873203Y-115460420D01*
X137873201Y-115460427D01*
X137866800Y-115519955D01*
X137866800Y-115927846D01*
X137847115Y-115994885D01*
X137794311Y-116040640D01*
X137725153Y-116050584D01*
X137682374Y-116034630D01*
X137682275Y-116034849D01*
X137679224Y-116033456D01*
X137675771Y-116032168D01*
X137674214Y-116031167D01*
X137562913Y-115980337D01*
X137562909Y-115980336D01*
X137441800Y-115962924D01*
X137320690Y-115980336D01*
X137320686Y-115980337D01*
X137209385Y-116031167D01*
X137207829Y-116032168D01*
X137206056Y-116032688D01*
X137201325Y-116034849D01*
X137201014Y-116034168D01*
X137140787Y-116051846D01*
X137073750Y-116032155D01*
X137028000Y-115979346D01*
X137016800Y-115927846D01*
X137016800Y-115519972D01*
X137016799Y-115519955D01*
X137010398Y-115460427D01*
X137010397Y-115460423D01*
X136960151Y-115325708D01*
X136948381Y-115309986D01*
X136923963Y-115244522D01*
X136938814Y-115176249D01*
X136950028Y-115159212D01*
X136970677Y-115132857D01*
X136974829Y-115123628D01*
X136985862Y-115104068D01*
X136988979Y-115099553D01*
X136991618Y-115095730D01*
X137013612Y-115037733D01*
X137015031Y-115034305D01*
X137040494Y-114977732D01*
X137042320Y-114967765D01*
X137048348Y-114946140D01*
X137051940Y-114936672D01*
X137059415Y-114875109D01*
X137059979Y-114871405D01*
X137064256Y-114848058D01*
X137071157Y-114810406D01*
X137067413Y-114748507D01*
X137067300Y-114744763D01*
X137067300Y-113853679D01*
X137126793Y-113903601D01*
X137234494Y-113942800D01*
X137349106Y-113942800D01*
X137456807Y-113903601D01*
X137541800Y-113832282D01*
X137541800Y-114613085D01*
X137685953Y-114569357D01*
X137864009Y-114474184D01*
X137864015Y-114474179D01*
X138020092Y-114346092D01*
X138148179Y-114190015D01*
X138148184Y-114190009D01*
X138243356Y-114011954D01*
X138301970Y-113818731D01*
X138306987Y-113767800D01*
X137580475Y-113767800D01*
X137601912Y-113730671D01*
X137616800Y-113646236D01*
X137616800Y-113389364D01*
X137601912Y-113304929D01*
X137580475Y-113267800D01*
X138306987Y-113267800D01*
X138301970Y-113216868D01*
X138243356Y-113023645D01*
X138148184Y-112845590D01*
X138148179Y-112845584D01*
X138020092Y-112689507D01*
X137899234Y-112590323D01*
X137859899Y-112532577D01*
X137858028Y-112462732D01*
X137890214Y-112406792D01*
X142109448Y-108187558D01*
X142112140Y-108185024D01*
X142158583Y-108143881D01*
X142193827Y-108092819D01*
X142196034Y-108089821D01*
X142234278Y-108041008D01*
X142238437Y-108031765D01*
X142249461Y-108012220D01*
X142255218Y-108003882D01*
X142277210Y-107945891D01*
X142278632Y-107942455D01*
X142304095Y-107885883D01*
X142305922Y-107875911D01*
X142311946Y-107854299D01*
X142315540Y-107844824D01*
X142323013Y-107783276D01*
X142323577Y-107779571D01*
X142330314Y-107742806D01*
X142334758Y-107718558D01*
X142331013Y-107656648D01*
X142330900Y-107652903D01*
X142330900Y-104141299D01*
X142350585Y-104074260D01*
X142403389Y-104028505D01*
X142454895Y-104017299D01*
X144153872Y-104017299D01*
X144213483Y-104010891D01*
X144348331Y-103960596D01*
X144463546Y-103874346D01*
X144549796Y-103759131D01*
X144600091Y-103624283D01*
X144606500Y-103564673D01*
X144606500Y-103097600D01*
X144626185Y-103030562D01*
X144678989Y-102984807D01*
X144730500Y-102973601D01*
X146810947Y-102973601D01*
X146877986Y-102993286D01*
X146923741Y-103046090D01*
X146933685Y-103115248D01*
X146920002Y-103156616D01*
X146887159Y-103217305D01*
X146811451Y-103357201D01*
X146811448Y-103357210D01*
X146734074Y-103582591D01*
X146710978Y-103721000D01*
X146694850Y-103817648D01*
X146694850Y-104055952D01*
X146714419Y-104173224D01*
X146734074Y-104291008D01*
X146811448Y-104516389D01*
X146811454Y-104516403D01*
X146924869Y-104725976D01*
X146924876Y-104725987D01*
X147071233Y-104914027D01*
X147071236Y-104914030D01*
X147071240Y-104914035D01*
X147246566Y-105075433D01*
X147446066Y-105205773D01*
X147664298Y-105301499D01*
X147895310Y-105359999D01*
X148073328Y-105374750D01*
X148073332Y-105374750D01*
X148192268Y-105374750D01*
X148192272Y-105374750D01*
X148370290Y-105359999D01*
X148601302Y-105301499D01*
X148819534Y-105205773D01*
X149019034Y-105075433D01*
X149194360Y-104914035D01*
X149311389Y-104763675D01*
X149340723Y-104725987D01*
X149340724Y-104725985D01*
X149340729Y-104725979D01*
X149454149Y-104516397D01*
X149531526Y-104291006D01*
X149570750Y-104055952D01*
X149570750Y-103817648D01*
X149540219Y-103634686D01*
X149548601Y-103565322D01*
X149593154Y-103511500D01*
X149659732Y-103490309D01*
X149712962Y-103500997D01*
X149759955Y-103521920D01*
X149853875Y-103541882D01*
X149871438Y-103545616D01*
X149932920Y-103578808D01*
X149966697Y-103639971D01*
X149964449Y-103702469D01*
X149933332Y-103806408D01*
X149933330Y-103806416D01*
X149923193Y-103980459D01*
X149941824Y-104086122D01*
X149953468Y-104152154D01*
X150022521Y-104312238D01*
X150022522Y-104312240D01*
X150022524Y-104312243D01*
X150113244Y-104434100D01*
X150126632Y-104452083D01*
X150260186Y-104564149D01*
X150415985Y-104642394D01*
X150585629Y-104682600D01*
X150585631Y-104682600D01*
X150716229Y-104682600D01*
X150716236Y-104682600D01*
X150845964Y-104667437D01*
X151009793Y-104607808D01*
X151155454Y-104512005D01*
X151275096Y-104385193D01*
X151362267Y-104234207D01*
X151412269Y-104067188D01*
X151422407Y-103893140D01*
X151392132Y-103721446D01*
X151389479Y-103715297D01*
X151381001Y-103645947D01*
X151411362Y-103583019D01*
X151470926Y-103546495D01*
X151477558Y-103544894D01*
X151585645Y-103521920D01*
X151632637Y-103500997D01*
X151701883Y-103491712D01*
X151765160Y-103521340D01*
X151802375Y-103580474D01*
X151805380Y-103634686D01*
X151774849Y-103817648D01*
X151774850Y-103960593D01*
X151774850Y-104055952D01*
X151794419Y-104173224D01*
X151814074Y-104291008D01*
X151891448Y-104516389D01*
X151891454Y-104516403D01*
X152004869Y-104725976D01*
X152004876Y-104725987D01*
X152151233Y-104914027D01*
X152151236Y-104914030D01*
X152151240Y-104914035D01*
X152326566Y-105075433D01*
X152526066Y-105205773D01*
X152744298Y-105301499D01*
X152975310Y-105359999D01*
X153153328Y-105374750D01*
X153153332Y-105374750D01*
X153272268Y-105374750D01*
X153272272Y-105374750D01*
X153450290Y-105359999D01*
X153681302Y-105301499D01*
X153899534Y-105205773D01*
X154099034Y-105075433D01*
X154274360Y-104914035D01*
X154391389Y-104763675D01*
X154420723Y-104725987D01*
X154420724Y-104725985D01*
X154420729Y-104725979D01*
X154534149Y-104516397D01*
X154611526Y-104291006D01*
X154650750Y-104055952D01*
X154650750Y-103817648D01*
X154611526Y-103582594D01*
X154604113Y-103561000D01*
X154585050Y-103505470D01*
X154581900Y-103435671D01*
X154616986Y-103375250D01*
X154679169Y-103343389D01*
X154748705Y-103350205D01*
X154775210Y-103364885D01*
X154872639Y-103435671D01*
X154893670Y-103450951D01*
X155066592Y-103527942D01*
X155066597Y-103527944D01*
X155251754Y-103567300D01*
X155251755Y-103567300D01*
X155441044Y-103567300D01*
X155441046Y-103567300D01*
X155626203Y-103527944D01*
X155799130Y-103450951D01*
X155952271Y-103339688D01*
X156078933Y-103199016D01*
X156173579Y-103035084D01*
X156232074Y-102855056D01*
X156251860Y-102666800D01*
X156232074Y-102478544D01*
X156173579Y-102298516D01*
X156078933Y-102134584D01*
X156035350Y-102086180D01*
X156005121Y-102023191D01*
X156013745Y-101953855D01*
X156027191Y-101930311D01*
X156028123Y-101929026D01*
X156028133Y-101929016D01*
X156122779Y-101765084D01*
X156181274Y-101585056D01*
X156201060Y-101396800D01*
X156181274Y-101208544D01*
X156122779Y-101028516D01*
X156113543Y-101012518D01*
X156058428Y-100917055D01*
X156041955Y-100849155D01*
X156064808Y-100783128D01*
X156073661Y-100772088D01*
X156129733Y-100709816D01*
X156224379Y-100545884D01*
X156282874Y-100365856D01*
X156302660Y-100177600D01*
X156282874Y-99989344D01*
X156224379Y-99809316D01*
X156179508Y-99731597D01*
X156163036Y-99663700D01*
X156179508Y-99607602D01*
X156224379Y-99529884D01*
X156282874Y-99349856D01*
X156302660Y-99161600D01*
X156282874Y-98973344D01*
X156224379Y-98793316D01*
X156129733Y-98629384D01*
X156003071Y-98488712D01*
X156003070Y-98488711D01*
X155849934Y-98377451D01*
X155849929Y-98377448D01*
X155677007Y-98300457D01*
X155677002Y-98300455D01*
X155531200Y-98269465D01*
X155491846Y-98261100D01*
X155302554Y-98261100D01*
X155270097Y-98267998D01*
X155117397Y-98300455D01*
X155117392Y-98300457D01*
X154944470Y-98377448D01*
X154944465Y-98377451D01*
X154847511Y-98447893D01*
X154781705Y-98471373D01*
X154713651Y-98455547D01*
X154664956Y-98405442D01*
X154652840Y-98346081D01*
X154650750Y-98346081D01*
X154650750Y-98102649D01*
X154650750Y-98102648D01*
X154611526Y-97867594D01*
X154534149Y-97642203D01*
X154420729Y-97432621D01*
X154420727Y-97432619D01*
X154420723Y-97432612D01*
X154274366Y-97244572D01*
X154274363Y-97244569D01*
X154274360Y-97244565D01*
X154099034Y-97083167D01*
X154099031Y-97083165D01*
X154099030Y-97083164D01*
X153994954Y-97015168D01*
X153899534Y-96952827D01*
X153899531Y-96952825D01*
X153899530Y-96952825D01*
X153681302Y-96857101D01*
X153450286Y-96798600D01*
X153272282Y-96783850D01*
X153272272Y-96783850D01*
X153153328Y-96783850D01*
X153153317Y-96783850D01*
X152975313Y-96798600D01*
X152744297Y-96857101D01*
X152526066Y-96952826D01*
X152328578Y-97081851D01*
X152261688Y-97102039D01*
X152194503Y-97082858D01*
X152148353Y-97030399D01*
X152137890Y-96961317D01*
X152166437Y-96897546D01*
X152170563Y-96892947D01*
X152171448Y-96892008D01*
X152171454Y-96892005D01*
X152291096Y-96765193D01*
X152378267Y-96614207D01*
X152428269Y-96447188D01*
X152438407Y-96273140D01*
X152408132Y-96101446D01*
X152339079Y-95941362D01*
X152333158Y-95933409D01*
X152234967Y-95801516D01*
X152101414Y-95689451D01*
X152101412Y-95689450D01*
X151945618Y-95611207D01*
X151945616Y-95611206D01*
X151945615Y-95611206D01*
X151775971Y-95571000D01*
X151645364Y-95571000D01*
X151531851Y-95584267D01*
X151515635Y-95586163D01*
X151515631Y-95586164D01*
X151368769Y-95639617D01*
X151299040Y-95644048D01*
X151237984Y-95610077D01*
X151224309Y-95593535D01*
X151221158Y-95588970D01*
X151210130Y-95569416D01*
X151209492Y-95567999D01*
X151205977Y-95560187D01*
X151205974Y-95560182D01*
X151167733Y-95511371D01*
X151165513Y-95508354D01*
X151151929Y-95488675D01*
X151130283Y-95457315D01*
X151083850Y-95416179D01*
X151081156Y-95413643D01*
X150559954Y-94892441D01*
X150557420Y-94889750D01*
X150516285Y-94843317D01*
X150516284Y-94843316D01*
X150516280Y-94843312D01*
X150465252Y-94808091D01*
X150462243Y-94805877D01*
X150413416Y-94767624D01*
X150413411Y-94767620D01*
X150404169Y-94763461D01*
X150384622Y-94752436D01*
X150376287Y-94746683D01*
X150376288Y-94746683D01*
X150376286Y-94746682D01*
X150318297Y-94724689D01*
X150314846Y-94723259D01*
X150258286Y-94697804D01*
X150248302Y-94695974D01*
X150226699Y-94689951D01*
X150217230Y-94686360D01*
X150217226Y-94686359D01*
X150155669Y-94678884D01*
X150151968Y-94678321D01*
X150090964Y-94667142D01*
X150090959Y-94667142D01*
X150029053Y-94670887D01*
X150025308Y-94671000D01*
X139248618Y-94671000D01*
X139181579Y-94651315D01*
X139160937Y-94634681D01*
X135981518Y-91455261D01*
X135948033Y-91393938D01*
X135945199Y-91367580D01*
X135945199Y-91320409D01*
X135945198Y-91320384D01*
X135943471Y-91298430D01*
X135942276Y-91283242D01*
X135896070Y-91124200D01*
X135811763Y-90981646D01*
X135811761Y-90981644D01*
X135811758Y-90981640D01*
X135694659Y-90864541D01*
X135694650Y-90864534D01*
X135552098Y-90780229D01*
X135552095Y-90780228D01*
X135393062Y-90734024D01*
X135393056Y-90734023D01*
X135355910Y-90731100D01*
X135355903Y-90731100D01*
X135308719Y-90731100D01*
X135241680Y-90711415D01*
X135221038Y-90694781D01*
X134415419Y-89889162D01*
X134381934Y-89827839D01*
X134379100Y-89801481D01*
X134379100Y-89389026D01*
X134398785Y-89321987D01*
X134451589Y-89276232D01*
X134520747Y-89266288D01*
X134537696Y-89269950D01*
X134666521Y-89307378D01*
X134666524Y-89307379D01*
X134674798Y-89308029D01*
X134674800Y-89308028D01*
X134674800Y-88599818D01*
X134694485Y-88532779D01*
X134711116Y-88512139D01*
X134994137Y-88229118D01*
X135055460Y-88195634D01*
X135081818Y-88192800D01*
X136359700Y-88192800D01*
X136426739Y-88212485D01*
X136472494Y-88265289D01*
X136483700Y-88316800D01*
X136483700Y-88568800D01*
X136464015Y-88635839D01*
X136411211Y-88681594D01*
X136359700Y-88692800D01*
X135174800Y-88692800D01*
X135174800Y-89308028D01*
X135174801Y-89308029D01*
X135183075Y-89307379D01*
X135183082Y-89307377D01*
X135341994Y-89261209D01*
X135341997Y-89261207D01*
X135484442Y-89176966D01*
X135484450Y-89176960D01*
X135522918Y-89138492D01*
X135584241Y-89105006D01*
X135653932Y-89109990D01*
X135698282Y-89138492D01*
X135736749Y-89176960D01*
X135736757Y-89176966D01*
X135879202Y-89261207D01*
X135879205Y-89261208D01*
X136038116Y-89307377D01*
X136038122Y-89307378D01*
X136075242Y-89310299D01*
X136075258Y-89310300D01*
X136092311Y-89310300D01*
X136159350Y-89329985D01*
X136205105Y-89382789D01*
X136215631Y-89447258D01*
X136203740Y-89560400D01*
X136223526Y-89748656D01*
X136223527Y-89748659D01*
X136282018Y-89928677D01*
X136282021Y-89928684D01*
X136376667Y-90092616D01*
X136451634Y-90175875D01*
X136503329Y-90233288D01*
X136656465Y-90344548D01*
X136656470Y-90344551D01*
X136829392Y-90421542D01*
X136829397Y-90421544D01*
X137014554Y-90460900D01*
X137014555Y-90460900D01*
X137203844Y-90460900D01*
X137203846Y-90460900D01*
X137389003Y-90421544D01*
X137561930Y-90344551D01*
X137715071Y-90233288D01*
X137841733Y-90092616D01*
X137936379Y-89928684D01*
X137994874Y-89748656D01*
X138014660Y-89560400D01*
X137994874Y-89372144D01*
X137936379Y-89192116D01*
X137841733Y-89028184D01*
X137841732Y-89028184D01*
X137766550Y-88944684D01*
X137736320Y-88881692D01*
X137734700Y-88861712D01*
X137734700Y-85956152D01*
X137754385Y-85889113D01*
X137807189Y-85843358D01*
X137876347Y-85833414D01*
X137939903Y-85862439D01*
X137946379Y-85868469D01*
X139204263Y-87126354D01*
X140443697Y-88365788D01*
X140453522Y-88378051D01*
X140453743Y-88377869D01*
X140458711Y-88383874D01*
X140508432Y-88430566D01*
X140509832Y-88431923D01*
X140530023Y-88452115D01*
X140530027Y-88452118D01*
X140530029Y-88452120D01*
X140535511Y-88456373D01*
X140539943Y-88460157D01*
X140573918Y-88492062D01*
X140591476Y-88501714D01*
X140607733Y-88512393D01*
X140623564Y-88524673D01*
X140642296Y-88532779D01*
X140666333Y-88543182D01*
X140671577Y-88545750D01*
X140712408Y-88568197D01*
X140719357Y-88569981D01*
X140731805Y-88573177D01*
X140750219Y-88579481D01*
X140768604Y-88587438D01*
X140814657Y-88594732D01*
X140820326Y-88595906D01*
X140865481Y-88607500D01*
X140885516Y-88607500D01*
X140904913Y-88609026D01*
X140924696Y-88612160D01*
X140971083Y-88607775D01*
X140976922Y-88607500D01*
X146696716Y-88607500D01*
X146763755Y-88627185D01*
X146809510Y-88679989D01*
X146819454Y-88749147D01*
X146802255Y-88796596D01*
X146743989Y-88891059D01*
X146743985Y-88891068D01*
X146726191Y-88944767D01*
X146688801Y-89057603D01*
X146688801Y-89057604D01*
X146688800Y-89057604D01*
X146678300Y-89160383D01*
X146678300Y-89960401D01*
X146678301Y-89960419D01*
X146688800Y-90063196D01*
X146688801Y-90063199D01*
X146738669Y-90213688D01*
X146743986Y-90229734D01*
X146819973Y-90352930D01*
X146836089Y-90379057D01*
X146929751Y-90472719D01*
X146963236Y-90534042D01*
X146958252Y-90603734D01*
X146929751Y-90648081D01*
X146836089Y-90741742D01*
X146743987Y-90891063D01*
X146743985Y-90891066D01*
X146743986Y-90891066D01*
X146688801Y-91057603D01*
X146688801Y-91057604D01*
X146688800Y-91057604D01*
X146678300Y-91160383D01*
X146678300Y-91718879D01*
X146658615Y-91785918D01*
X146641981Y-91806560D01*
X146491476Y-91957065D01*
X146430153Y-91990550D01*
X146429578Y-91990674D01*
X146379794Y-92001256D01*
X146379792Y-92001257D01*
X146206870Y-92078248D01*
X146206865Y-92078251D01*
X146053729Y-92189511D01*
X145927066Y-92330185D01*
X145832421Y-92494115D01*
X145832418Y-92494122D01*
X145773927Y-92674140D01*
X145773926Y-92674144D01*
X145754140Y-92862400D01*
X145773926Y-93050656D01*
X145773927Y-93050659D01*
X145832418Y-93230677D01*
X145832421Y-93230684D01*
X145927067Y-93394616D01*
X146018803Y-93496499D01*
X146053729Y-93535288D01*
X146206865Y-93646548D01*
X146206870Y-93646551D01*
X146379792Y-93723542D01*
X146379797Y-93723544D01*
X146564954Y-93762900D01*
X146564955Y-93762900D01*
X146754244Y-93762900D01*
X146754246Y-93762900D01*
X146939403Y-93723544D01*
X147112330Y-93646551D01*
X147265471Y-93535288D01*
X147392133Y-93394616D01*
X147486779Y-93230684D01*
X147545274Y-93050656D01*
X147560188Y-92908746D01*
X147586772Y-92844133D01*
X147595810Y-92834045D01*
X147732640Y-92697215D01*
X147793961Y-92663733D01*
X147820319Y-92660899D01*
X148137481Y-92660899D01*
X148204520Y-92680584D01*
X148250275Y-92733388D01*
X148260801Y-92797858D01*
X148253737Y-92865078D01*
X148245123Y-92947040D01*
X148243340Y-92964000D01*
X148263126Y-93152256D01*
X148263127Y-93152258D01*
X148263127Y-93152259D01*
X148321618Y-93332277D01*
X148321621Y-93332284D01*
X148416267Y-93496216D01*
X148528173Y-93620500D01*
X148542929Y-93636888D01*
X148696065Y-93748148D01*
X148696070Y-93748151D01*
X148868992Y-93825142D01*
X148868997Y-93825144D01*
X149054154Y-93864500D01*
X149054155Y-93864500D01*
X149243444Y-93864500D01*
X149243446Y-93864500D01*
X149428603Y-93825144D01*
X149601530Y-93748151D01*
X149754671Y-93636888D01*
X149881333Y-93496216D01*
X149975979Y-93332284D01*
X150034474Y-93152256D01*
X150037456Y-93123878D01*
X150064038Y-93059267D01*
X150073086Y-93049169D01*
X150425037Y-92697218D01*
X150486361Y-92663733D01*
X150512719Y-92660899D01*
X151071202Y-92660899D01*
X151071208Y-92660899D01*
X151173997Y-92650399D01*
X151174000Y-92650397D01*
X151179065Y-92649314D01*
X151248740Y-92654530D01*
X151304534Y-92696586D01*
X151328734Y-92762131D01*
X151313656Y-92830354D01*
X151292704Y-92858246D01*
X151260169Y-92890781D01*
X151198849Y-92924266D01*
X151172489Y-92927100D01*
X151136954Y-92927100D01*
X151104497Y-92933998D01*
X150951797Y-92966455D01*
X150951792Y-92966457D01*
X150778870Y-93043448D01*
X150778865Y-93043451D01*
X150625729Y-93154711D01*
X150499066Y-93295385D01*
X150404421Y-93459315D01*
X150404418Y-93459322D01*
X150346724Y-93636888D01*
X150345926Y-93639344D01*
X150326140Y-93827600D01*
X150345926Y-94015856D01*
X150345927Y-94015859D01*
X150404418Y-94195877D01*
X150404421Y-94195884D01*
X150499067Y-94359816D01*
X150625728Y-94500487D01*
X150625729Y-94500488D01*
X150778865Y-94611748D01*
X150778870Y-94611751D01*
X150951792Y-94688742D01*
X150951797Y-94688744D01*
X151136954Y-94728100D01*
X151136955Y-94728100D01*
X151326244Y-94728100D01*
X151326246Y-94728100D01*
X151511403Y-94688744D01*
X151684330Y-94611751D01*
X151837471Y-94500488D01*
X151964133Y-94359816D01*
X152058779Y-94195884D01*
X152108492Y-94042882D01*
X152138739Y-93993524D01*
X153435045Y-92697217D01*
X153496369Y-92663733D01*
X153522727Y-92660899D01*
X153916002Y-92660899D01*
X153916008Y-92660899D01*
X154018797Y-92650399D01*
X154185334Y-92595214D01*
X154334656Y-92503112D01*
X154458712Y-92379056D01*
X154550814Y-92229734D01*
X154605999Y-92063197D01*
X154616500Y-91960409D01*
X154616499Y-91160392D01*
X154605999Y-91057603D01*
X154550814Y-90891066D01*
X154458712Y-90741744D01*
X154365049Y-90648081D01*
X154331564Y-90586758D01*
X154336548Y-90517066D01*
X154365049Y-90472719D01*
X154400555Y-90437213D01*
X154458712Y-90379056D01*
X154550814Y-90229734D01*
X154605999Y-90063197D01*
X154612455Y-90000002D01*
X155695153Y-90000002D01*
X155714526Y-90357314D01*
X155714527Y-90357331D01*
X155772415Y-90710431D01*
X155772421Y-90710457D01*
X155868147Y-91055232D01*
X155868149Y-91055239D01*
X156000597Y-91387659D01*
X156000606Y-91387677D01*
X156168218Y-91703827D01*
X156369033Y-92000007D01*
X156496441Y-92150003D01*
X156496442Y-92150004D01*
X157702266Y-90944180D01*
X157865130Y-91134870D01*
X158055818Y-91297732D01*
X156847255Y-92506295D01*
X156847256Y-92506296D01*
X156860485Y-92518828D01*
X156860486Y-92518829D01*
X157145367Y-92735388D01*
X157145370Y-92735390D01*
X157451990Y-92919876D01*
X157776739Y-93070122D01*
X157776744Y-93070123D01*
X158115855Y-93184383D01*
X158465339Y-93261311D01*
X158821075Y-93299999D01*
X158821085Y-93300000D01*
X159178915Y-93300000D01*
X159178924Y-93299999D01*
X159534660Y-93261311D01*
X159884144Y-93184383D01*
X160223255Y-93070123D01*
X160223260Y-93070122D01*
X160548009Y-92919876D01*
X160854629Y-92735390D01*
X160854632Y-92735388D01*
X161139504Y-92518836D01*
X161152742Y-92506294D01*
X159944180Y-91297733D01*
X160134870Y-91134870D01*
X160297733Y-90944180D01*
X161503556Y-92150003D01*
X161630964Y-92000008D01*
X161630975Y-91999994D01*
X161831781Y-91703827D01*
X161999393Y-91387677D01*
X161999402Y-91387659D01*
X162131850Y-91055239D01*
X162131852Y-91055232D01*
X162227578Y-90710457D01*
X162227584Y-90710431D01*
X162285472Y-90357331D01*
X162285473Y-90357314D01*
X162304846Y-90000002D01*
X162304846Y-89999997D01*
X162285473Y-89642685D01*
X162285472Y-89642668D01*
X162227584Y-89289568D01*
X162227578Y-89289542D01*
X162131852Y-88944767D01*
X162131850Y-88944760D01*
X161999402Y-88612340D01*
X161999393Y-88612322D01*
X161831781Y-88296172D01*
X161630966Y-87999992D01*
X161503557Y-87849995D01*
X161503556Y-87849994D01*
X160297732Y-89055818D01*
X160134870Y-88865130D01*
X159944180Y-88702266D01*
X161152743Y-87493703D01*
X161152742Y-87493702D01*
X161139514Y-87481171D01*
X161139513Y-87481170D01*
X160854632Y-87264611D01*
X160854629Y-87264609D01*
X160548009Y-87080123D01*
X160223260Y-86929877D01*
X160223255Y-86929876D01*
X159884144Y-86815616D01*
X159534660Y-86738688D01*
X159178924Y-86700000D01*
X158821075Y-86700000D01*
X158465339Y-86738688D01*
X158115855Y-86815616D01*
X157776744Y-86929876D01*
X157776739Y-86929877D01*
X157451990Y-87080123D01*
X157145370Y-87264609D01*
X157145367Y-87264611D01*
X156860491Y-87481166D01*
X156847256Y-87493703D01*
X156847255Y-87493703D01*
X158055819Y-88702266D01*
X157865130Y-88865130D01*
X157702266Y-89055818D01*
X156496442Y-87849994D01*
X156496441Y-87849995D01*
X156369040Y-87999983D01*
X156369033Y-87999993D01*
X156168218Y-88296172D01*
X156000606Y-88612322D01*
X156000597Y-88612340D01*
X155868149Y-88944760D01*
X155868147Y-88944767D01*
X155772421Y-89289542D01*
X155772415Y-89289568D01*
X155714527Y-89642668D01*
X155714526Y-89642685D01*
X155695153Y-89999997D01*
X155695153Y-90000002D01*
X154612455Y-90000002D01*
X154616500Y-89960409D01*
X154616499Y-89160392D01*
X154605999Y-89057603D01*
X154550814Y-88891066D01*
X154458712Y-88741744D01*
X154334656Y-88617688D01*
X154185334Y-88525586D01*
X154185332Y-88525585D01*
X154179187Y-88521795D01*
X154180290Y-88520005D01*
X154135649Y-88480690D01*
X154116500Y-88414491D01*
X154116500Y-85316235D01*
X154116613Y-85312490D01*
X154120357Y-85250594D01*
X154120294Y-85250250D01*
X154109173Y-85189566D01*
X154108614Y-85185886D01*
X154101140Y-85124327D01*
X154097548Y-85114856D01*
X154091522Y-85093242D01*
X154089695Y-85083268D01*
X154064234Y-85026696D01*
X154062806Y-85023249D01*
X154040818Y-84965271D01*
X154040818Y-84965270D01*
X154035063Y-84956933D01*
X154024036Y-84937382D01*
X154019879Y-84928146D01*
X154019878Y-84928143D01*
X154002287Y-84905690D01*
X153981630Y-84879322D01*
X153979410Y-84876306D01*
X153944182Y-84825270D01*
X153939148Y-84820810D01*
X153897750Y-84784135D01*
X153895056Y-84781599D01*
X153632638Y-84519181D01*
X153599153Y-84457858D01*
X153604137Y-84388166D01*
X153646009Y-84332233D01*
X153711473Y-84307816D01*
X153720319Y-84307500D01*
X156774352Y-84307500D01*
X156778097Y-84307613D01*
X156785442Y-84308057D01*
X156840006Y-84311358D01*
X156877714Y-84304447D01*
X156901021Y-84300177D01*
X156904725Y-84299613D01*
X156922570Y-84297446D01*
X156966272Y-84292140D01*
X156975735Y-84288550D01*
X156997361Y-84282522D01*
X156998293Y-84282351D01*
X157007332Y-84280695D01*
X157063912Y-84255229D01*
X157067342Y-84253809D01*
X157125330Y-84231818D01*
X157133666Y-84226062D01*
X157153221Y-84215034D01*
X157162457Y-84210878D01*
X157211296Y-84172613D01*
X157214276Y-84170421D01*
X157265329Y-84135183D01*
X157306465Y-84088748D01*
X157308999Y-84086056D01*
X158146638Y-83248418D01*
X158207961Y-83214933D01*
X158234319Y-83212099D01*
X158792802Y-83212099D01*
X158792808Y-83212099D01*
X158895597Y-83201599D01*
X159062134Y-83146414D01*
X159211456Y-83054312D01*
X159335512Y-82930256D01*
X159427614Y-82780934D01*
X159482799Y-82614397D01*
X159493300Y-82511609D01*
X159493299Y-81711592D01*
X159491355Y-81692565D01*
X159482799Y-81608803D01*
X159482798Y-81608800D01*
X159482036Y-81606500D01*
X159427614Y-81442266D01*
X159335512Y-81292944D01*
X159241848Y-81199280D01*
X159208364Y-81137956D01*
X159213348Y-81068265D01*
X159241845Y-81023922D01*
X159335512Y-80930256D01*
X159427614Y-80780934D01*
X159482799Y-80614397D01*
X159493300Y-80511609D01*
X159493299Y-79711592D01*
X159490429Y-79683500D01*
X159482799Y-79608803D01*
X159482798Y-79608800D01*
X159468670Y-79566166D01*
X159427614Y-79442266D01*
X159335512Y-79292944D01*
X159211456Y-79168888D01*
X159102202Y-79101500D01*
X159055479Y-79049553D01*
X159043300Y-78995962D01*
X159043300Y-76655505D01*
X159044609Y-76637535D01*
X159045993Y-76628088D01*
X159048089Y-76613777D01*
X159047332Y-76605127D01*
X159043536Y-76561734D01*
X159043300Y-76556328D01*
X159043300Y-76548096D01*
X159043300Y-76548091D01*
X159039595Y-76516402D01*
X159039418Y-76514676D01*
X159032799Y-76439003D01*
X159032799Y-76439001D01*
X159031339Y-76431929D01*
X159031397Y-76431916D01*
X159029765Y-76424557D01*
X159029706Y-76424572D01*
X159028041Y-76417551D01*
X159028041Y-76417545D01*
X159002067Y-76346182D01*
X159001491Y-76344523D01*
X159001220Y-76343704D01*
X158977614Y-76272466D01*
X158977610Y-76272459D01*
X158974560Y-76265918D01*
X158974615Y-76265891D01*
X158971333Y-76259113D01*
X158971280Y-76259140D01*
X158968036Y-76252681D01*
X158926329Y-76189270D01*
X158925360Y-76187749D01*
X158885510Y-76123142D01*
X158881034Y-76117482D01*
X158881081Y-76117444D01*
X158876319Y-76111599D01*
X158876274Y-76111638D01*
X158871631Y-76106105D01*
X158816416Y-76054012D01*
X158815156Y-76052789D01*
X155968818Y-73206450D01*
X155935333Y-73145127D01*
X155932499Y-73118769D01*
X155932499Y-72583129D01*
X155932498Y-72583123D01*
X155932497Y-72583116D01*
X155926091Y-72523517D01*
X155885715Y-72415264D01*
X155875797Y-72388671D01*
X155875793Y-72388664D01*
X155789547Y-72273455D01*
X155789544Y-72273452D01*
X155674335Y-72187206D01*
X155674328Y-72187202D01*
X155539482Y-72136908D01*
X155539483Y-72136908D01*
X155479883Y-72130501D01*
X155479881Y-72130500D01*
X155479873Y-72130500D01*
X155479864Y-72130500D01*
X153416000Y-72130500D01*
X153416000Y-69596000D01*
X139878782Y-69596000D01*
X139878782Y-69564780D01*
X139898467Y-69497741D01*
X139951271Y-69451986D01*
X140020429Y-69442042D01*
X140024726Y-69442659D01*
X140024727Y-69442660D01*
X140051751Y-69446545D01*
X140069030Y-69450304D01*
X140095223Y-69457995D01*
X141139144Y-69457995D01*
X141139145Y-69457995D01*
X141165337Y-69450304D01*
X141182620Y-69446545D01*
X141187066Y-69445905D01*
X141209641Y-69442660D01*
X141234471Y-69431319D01*
X141251046Y-69425137D01*
X141277237Y-69417448D01*
X141300204Y-69402687D01*
X141315724Y-69394212D01*
X141340557Y-69382872D01*
X141361190Y-69364992D01*
X141375332Y-69354405D01*
X141398312Y-69339638D01*
X141416199Y-69318994D01*
X141428683Y-69306510D01*
X141449327Y-69288623D01*
X141464094Y-69265643D01*
X141474681Y-69251501D01*
X141492561Y-69230868D01*
X141503901Y-69206035D01*
X141512376Y-69190515D01*
X141527137Y-69167548D01*
X141527138Y-69167541D01*
X141530360Y-69160490D01*
X141576114Y-69107686D01*
X141643153Y-69088000D01*
X155035914Y-69088000D01*
X155102953Y-69107685D01*
G37*
G04 #@! TD.AperFunction*
G04 #@! TA.AperFunction,Conductor*
G36*
X136959339Y-116287485D02*
G01*
X137005094Y-116340289D01*
X137016300Y-116391800D01*
X137016300Y-116643800D01*
X136996615Y-116710839D01*
X136943811Y-116756594D01*
X136892300Y-116767800D01*
X135316800Y-116767800D01*
X135316800Y-117843300D01*
X135297115Y-117910339D01*
X135244311Y-117956094D01*
X135192800Y-117967300D01*
X134940800Y-117967300D01*
X134873761Y-117947615D01*
X134828006Y-117894811D01*
X134816800Y-117843300D01*
X134816800Y-116767800D01*
X133241300Y-116767800D01*
X133174261Y-116748115D01*
X133128506Y-116695311D01*
X133117300Y-116643800D01*
X133117300Y-116391800D01*
X133136985Y-116324761D01*
X133189789Y-116279006D01*
X133241300Y-116267800D01*
X136892300Y-116267800D01*
X136959339Y-116287485D01*
G37*
G04 #@! TD.AperFunction*
G04 #@! TA.AperFunction,Conductor*
G36*
X132467274Y-115457052D02*
G01*
X132485939Y-115471676D01*
X132485941Y-115471677D01*
X132495180Y-115475835D01*
X132514726Y-115486858D01*
X132523070Y-115492618D01*
X132581052Y-115514607D01*
X132584514Y-115516041D01*
X132641068Y-115541494D01*
X132651030Y-115543319D01*
X132672651Y-115549346D01*
X132682125Y-115552939D01*
X132682128Y-115552940D01*
X132696310Y-115554662D01*
X132743689Y-115560415D01*
X132747386Y-115560977D01*
X132808394Y-115572157D01*
X132808395Y-115572156D01*
X132808396Y-115572157D01*
X132870293Y-115568413D01*
X132874037Y-115568300D01*
X132992800Y-115568300D01*
X133059839Y-115587985D01*
X133105594Y-115640789D01*
X133116800Y-115692300D01*
X133116800Y-115927846D01*
X133097115Y-115994885D01*
X133044311Y-116040640D01*
X132975153Y-116050584D01*
X132932374Y-116034630D01*
X132932275Y-116034849D01*
X132929224Y-116033456D01*
X132925771Y-116032168D01*
X132924214Y-116031167D01*
X132812913Y-115980337D01*
X132812909Y-115980336D01*
X132691800Y-115962924D01*
X132570690Y-115980336D01*
X132570686Y-115980337D01*
X132459387Y-116031167D01*
X132457823Y-116032172D01*
X132456043Y-116032694D01*
X132451325Y-116034849D01*
X132451014Y-116034169D01*
X132390780Y-116051846D01*
X132323744Y-116032151D01*
X132277997Y-115979340D01*
X132266799Y-115927846D01*
X132266800Y-115554662D01*
X132286485Y-115487622D01*
X132339289Y-115441867D01*
X132408447Y-115431924D01*
X132467274Y-115457052D01*
G37*
G04 #@! TD.AperFunction*
G04 #@! TA.AperFunction,Conductor*
G36*
X133501000Y-110635830D02*
G01*
X133556934Y-110677701D01*
X133576742Y-110717414D01*
X133578652Y-110723991D01*
X133578655Y-110723996D01*
X133655360Y-110853699D01*
X133662319Y-110865465D01*
X133668579Y-110871725D01*
X133702065Y-110933045D01*
X133704900Y-110959408D01*
X133704900Y-112098655D01*
X133703175Y-112114272D01*
X133703461Y-112114299D01*
X133702726Y-112122066D01*
X133704869Y-112190246D01*
X133704900Y-112192193D01*
X133704900Y-112220743D01*
X133704901Y-112220760D01*
X133705768Y-112227631D01*
X133706226Y-112233450D01*
X133707690Y-112280024D01*
X133707691Y-112280027D01*
X133713280Y-112299267D01*
X133717224Y-112318311D01*
X133719736Y-112338191D01*
X133736890Y-112381519D01*
X133738782Y-112387047D01*
X133751781Y-112431788D01*
X133761980Y-112449034D01*
X133770536Y-112466500D01*
X133775795Y-112479781D01*
X133780786Y-112492384D01*
X133779292Y-112492975D01*
X133792372Y-112552298D01*
X133768140Y-112617831D01*
X133712324Y-112659859D01*
X133668664Y-112667800D01*
X133588008Y-112667800D01*
X133520969Y-112648115D01*
X133509344Y-112639654D01*
X133414009Y-112561416D01*
X133235950Y-112466241D01*
X133091800Y-112422512D01*
X133091800Y-113203317D01*
X133006807Y-113131999D01*
X132899106Y-113092800D01*
X132784494Y-113092800D01*
X132676793Y-113131999D01*
X132591798Y-113203318D01*
X132591798Y-112422512D01*
X132447649Y-112466241D01*
X132269590Y-112561415D01*
X132269584Y-112561420D01*
X132113507Y-112689508D01*
X131997397Y-112830989D01*
X131939652Y-112870323D01*
X131869807Y-112872194D01*
X131813863Y-112840005D01*
X131701295Y-112727437D01*
X131586616Y-112612758D01*
X131553133Y-112551438D01*
X131550300Y-112525089D01*
X131550300Y-110917725D01*
X131569985Y-110850685D01*
X131616731Y-110810180D01*
X131615983Y-110808915D01*
X131656826Y-110784761D01*
X131680148Y-110770967D01*
X131743269Y-110753700D01*
X132047220Y-110753700D01*
X132114259Y-110773385D01*
X132123081Y-110780494D01*
X132123480Y-110779980D01*
X132129644Y-110784761D01*
X132129646Y-110784763D01*
X132272200Y-110869070D01*
X132281332Y-110871723D01*
X132431237Y-110915275D01*
X132431240Y-110915275D01*
X132431242Y-110915276D01*
X132468397Y-110918200D01*
X132910802Y-110918199D01*
X132947958Y-110915276D01*
X133107000Y-110869070D01*
X133249554Y-110784763D01*
X133366663Y-110667654D01*
X133366664Y-110667651D01*
X133369985Y-110664331D01*
X133431308Y-110630846D01*
X133501000Y-110635830D01*
G37*
G04 #@! TD.AperFunction*
G04 #@! TA.AperFunction,Conductor*
G36*
X135372939Y-109720785D02*
G01*
X135418694Y-109773589D01*
X135429900Y-109825100D01*
X135429900Y-110529301D01*
X135432801Y-110566167D01*
X135432802Y-110566173D01*
X135478654Y-110723993D01*
X135478655Y-110723996D01*
X135478656Y-110723998D01*
X135513132Y-110782294D01*
X135530400Y-110845414D01*
X135530400Y-111110895D01*
X135565071Y-111142945D01*
X135600938Y-111202906D01*
X135604900Y-111234001D01*
X135604900Y-112093746D01*
X135585215Y-112160785D01*
X135568581Y-112181427D01*
X135479480Y-112270528D01*
X135418157Y-112304013D01*
X135348465Y-112299029D01*
X135304118Y-112270528D01*
X135155657Y-112122067D01*
X134992219Y-111958628D01*
X134958734Y-111897305D01*
X134955900Y-111870947D01*
X134955900Y-111234001D01*
X134975585Y-111166962D01*
X134995729Y-111142945D01*
X135030400Y-111110895D01*
X135030400Y-110845414D01*
X135047667Y-110782294D01*
X135082144Y-110723998D01*
X135118283Y-110599609D01*
X135127997Y-110566173D01*
X135127998Y-110566167D01*
X135130899Y-110529301D01*
X135130900Y-110529294D01*
X135130900Y-109825100D01*
X135150585Y-109758061D01*
X135203389Y-109712306D01*
X135254900Y-109701100D01*
X135305900Y-109701100D01*
X135372939Y-109720785D01*
G37*
G04 #@! TD.AperFunction*
G04 #@! TA.AperFunction,Conductor*
G36*
X131364639Y-99387785D02*
G01*
X131410394Y-99440589D01*
X131421600Y-99492100D01*
X131421600Y-100395820D01*
X131401915Y-100462859D01*
X131392164Y-100474959D01*
X131392320Y-100475080D01*
X131387534Y-100481249D01*
X131303229Y-100623801D01*
X131303227Y-100623804D01*
X131278730Y-100708126D01*
X131251849Y-100750217D01*
X131257687Y-100772425D01*
X131257356Y-100778611D01*
X131254100Y-100819984D01*
X131254100Y-101262390D01*
X131254101Y-101262415D01*
X131257023Y-101299554D01*
X131257023Y-101299557D01*
X131257024Y-101299558D01*
X131299576Y-101446024D01*
X131305407Y-101466092D01*
X131302843Y-101466836D01*
X131309827Y-101523407D01*
X131294854Y-101565311D01*
X131252820Y-101638116D01*
X131194327Y-101818140D01*
X131194326Y-101818144D01*
X131174540Y-102006400D01*
X131194326Y-102194656D01*
X131194327Y-102194659D01*
X131252818Y-102374677D01*
X131252823Y-102374689D01*
X131315022Y-102482421D01*
X131331495Y-102550321D01*
X131315023Y-102606419D01*
X131274797Y-102676093D01*
X131216649Y-102855056D01*
X131216303Y-102856121D01*
X131196517Y-103044377D01*
X131216303Y-103232633D01*
X131216304Y-103232636D01*
X131274795Y-103412654D01*
X131274798Y-103412661D01*
X131328381Y-103505470D01*
X131336203Y-103519017D01*
X131352676Y-103586917D01*
X131336204Y-103643016D01*
X131293006Y-103717837D01*
X131234513Y-103897862D01*
X131234512Y-103897866D01*
X131225831Y-103980460D01*
X131222701Y-104010244D01*
X131196116Y-104074858D01*
X131138819Y-104114843D01*
X131116712Y-104117430D01*
X131110800Y-104122830D01*
X131110800Y-104727000D01*
X131431165Y-104727000D01*
X131498204Y-104746685D01*
X131514134Y-104758847D01*
X131514310Y-104759005D01*
X131514315Y-104759010D01*
X131590003Y-104814000D01*
X131667451Y-104870270D01*
X131667456Y-104870273D01*
X131840378Y-104947264D01*
X131840383Y-104947266D01*
X132025540Y-104986622D01*
X132025541Y-104986622D01*
X132214830Y-104986622D01*
X132214832Y-104986622D01*
X132399989Y-104947266D01*
X132572916Y-104870273D01*
X132588506Y-104858945D01*
X132655457Y-104810304D01*
X132721263Y-104786824D01*
X132728342Y-104786622D01*
X137429152Y-104786622D01*
X137432897Y-104786735D01*
X137440242Y-104787179D01*
X137494806Y-104790480D01*
X137532514Y-104783569D01*
X137555821Y-104779299D01*
X137559525Y-104778735D01*
X137577370Y-104776568D01*
X137621072Y-104771262D01*
X137630535Y-104767672D01*
X137652161Y-104761644D01*
X137653093Y-104761473D01*
X137662132Y-104759817D01*
X137718712Y-104734351D01*
X137722142Y-104732931D01*
X137780130Y-104710940D01*
X137788466Y-104705184D01*
X137808021Y-104694156D01*
X137817257Y-104690000D01*
X137866096Y-104651735D01*
X137869076Y-104649543D01*
X137920129Y-104614305D01*
X137961265Y-104567870D01*
X137963799Y-104565178D01*
X140246159Y-102282818D01*
X140307482Y-102249334D01*
X140333840Y-102246500D01*
X140505844Y-102246500D01*
X140505846Y-102246500D01*
X140691003Y-102207144D01*
X140738548Y-102185975D01*
X140755464Y-102178444D01*
X140824714Y-102169159D01*
X140887990Y-102198787D01*
X140925204Y-102257921D01*
X140929900Y-102291723D01*
X140929900Y-107334433D01*
X140910215Y-107401472D01*
X140893581Y-107422114D01*
X137792581Y-110523114D01*
X137731258Y-110556599D01*
X137661566Y-110551615D01*
X137605633Y-110509743D01*
X137581216Y-110444279D01*
X137580900Y-110435433D01*
X137580900Y-109254540D01*
X137581013Y-109250795D01*
X137582938Y-109218972D01*
X137584758Y-109188887D01*
X137573575Y-109127863D01*
X137573013Y-109124166D01*
X137565540Y-109062620D01*
X137561948Y-109053149D01*
X137555922Y-109031535D01*
X137554095Y-109021561D01*
X137528634Y-108964989D01*
X137527206Y-108961542D01*
X137524232Y-108953699D01*
X137505218Y-108903563D01*
X137499463Y-108895226D01*
X137488436Y-108875675D01*
X137487384Y-108873338D01*
X137484278Y-108866436D01*
X137457246Y-108831932D01*
X137446030Y-108817615D01*
X137443810Y-108814599D01*
X137408583Y-108763564D01*
X137362150Y-108722428D01*
X137359456Y-108719892D01*
X137057955Y-108418392D01*
X137024471Y-108357069D01*
X137026561Y-108296114D01*
X137027998Y-108291169D01*
X137030900Y-108254294D01*
X137030900Y-107097906D01*
X137027998Y-107061031D01*
X137024496Y-107048978D01*
X136982145Y-106903206D01*
X136982144Y-106903203D01*
X136982144Y-106903202D01*
X136919627Y-106797491D01*
X136902444Y-106729767D01*
X136924604Y-106663504D01*
X136934199Y-106651408D01*
X136978133Y-106602616D01*
X137072779Y-106438684D01*
X137131274Y-106258656D01*
X137151060Y-106070400D01*
X137131274Y-105882144D01*
X137072779Y-105702116D01*
X136978133Y-105538184D01*
X136851471Y-105397512D01*
X136820142Y-105374750D01*
X136698334Y-105286251D01*
X136698329Y-105286248D01*
X136525407Y-105209257D01*
X136525402Y-105209255D01*
X136379600Y-105178265D01*
X136340246Y-105169900D01*
X136177062Y-105169900D01*
X136110023Y-105150215D01*
X136090646Y-105134600D01*
X134469553Y-105134600D01*
X134410096Y-105167066D01*
X134383738Y-105169900D01*
X134220554Y-105169900D01*
X134188097Y-105176798D01*
X134035397Y-105209255D01*
X134035392Y-105209257D01*
X133862470Y-105286248D01*
X133862465Y-105286251D01*
X133709329Y-105397511D01*
X133582666Y-105538185D01*
X133488021Y-105702115D01*
X133488018Y-105702122D01*
X133438486Y-105854567D01*
X133429526Y-105882144D01*
X133409740Y-106070400D01*
X133429526Y-106258656D01*
X133429527Y-106258659D01*
X133488018Y-106438677D01*
X133488021Y-106438684D01*
X133582665Y-106602614D01*
X133582666Y-106602615D01*
X133582667Y-106602616D01*
X133626590Y-106651398D01*
X133656820Y-106714389D01*
X133648195Y-106783724D01*
X133641173Y-106797490D01*
X133578654Y-106903205D01*
X133578654Y-106903206D01*
X133532802Y-107061026D01*
X133532801Y-107061032D01*
X133529900Y-107097898D01*
X133529899Y-107097913D01*
X133529899Y-108162327D01*
X133510214Y-108229367D01*
X133457410Y-108275121D01*
X133388252Y-108285065D01*
X133324696Y-108256040D01*
X133318217Y-108250008D01*
X133249246Y-108181036D01*
X133249242Y-108181033D01*
X133106797Y-108096792D01*
X133106794Y-108096790D01*
X132947880Y-108050621D01*
X132947881Y-108050621D01*
X132939600Y-108049969D01*
X132939600Y-108665200D01*
X133499598Y-108665200D01*
X133530644Y-108634154D01*
X133591967Y-108600669D01*
X133661659Y-108605653D01*
X133706007Y-108634154D01*
X133778529Y-108706676D01*
X133778540Y-108706685D01*
X133778855Y-108706871D01*
X133779050Y-108707080D01*
X133784698Y-108711461D01*
X133783991Y-108712372D01*
X133826536Y-108757943D01*
X133839037Y-108826685D01*
X133812388Y-108891273D01*
X133784478Y-108915456D01*
X133784698Y-108915739D01*
X133779492Y-108919776D01*
X133778855Y-108920329D01*
X133778540Y-108920514D01*
X133778529Y-108920523D01*
X133662323Y-109036729D01*
X133662317Y-109036737D01*
X133622349Y-109104321D01*
X133571280Y-109152004D01*
X133515617Y-109165200D01*
X131879600Y-109165200D01*
X131879600Y-109193857D01*
X131881577Y-109218972D01*
X131867212Y-109287349D01*
X131818161Y-109337105D01*
X131757959Y-109352700D01*
X131743269Y-109352700D01*
X131680148Y-109335432D01*
X131678741Y-109334600D01*
X131622698Y-109301456D01*
X131622697Y-109301455D01*
X131622696Y-109301455D01*
X131622693Y-109301454D01*
X131464873Y-109255602D01*
X131464867Y-109255601D01*
X131428001Y-109252700D01*
X131427994Y-109252700D01*
X130271606Y-109252700D01*
X130271598Y-109252700D01*
X130234732Y-109255601D01*
X130234726Y-109255602D01*
X130076906Y-109301454D01*
X130076903Y-109301455D01*
X129935437Y-109385117D01*
X129929269Y-109389902D01*
X129927964Y-109388219D01*
X129876254Y-109416446D01*
X129806563Y-109411451D01*
X129758858Y-109379447D01*
X129734596Y-109353200D01*
X129469115Y-109353200D01*
X129405994Y-109335932D01*
X129347696Y-109301455D01*
X129347693Y-109301454D01*
X129189873Y-109255602D01*
X129189867Y-109255601D01*
X129153001Y-109252700D01*
X129152994Y-109252700D01*
X127996606Y-109252700D01*
X127996598Y-109252700D01*
X127959732Y-109255601D01*
X127959726Y-109255602D01*
X127801906Y-109301454D01*
X127801903Y-109301455D01*
X127777923Y-109315637D01*
X127745859Y-109334600D01*
X127744452Y-109335432D01*
X127681331Y-109352700D01*
X127458762Y-109352700D01*
X127391723Y-109333015D01*
X127372594Y-109317600D01*
X127004619Y-109317600D01*
X126937580Y-109297915D01*
X126916938Y-109281281D01*
X126633919Y-108998261D01*
X126600434Y-108936938D01*
X126597600Y-108910580D01*
X126597599Y-108202369D01*
X126589318Y-108203021D01*
X126430405Y-108249190D01*
X126430402Y-108249192D01*
X126287957Y-108333433D01*
X126287949Y-108333439D01*
X126216204Y-108405185D01*
X126154881Y-108438670D01*
X126085189Y-108433686D01*
X126040842Y-108405185D01*
X126003819Y-108368162D01*
X125970334Y-108306839D01*
X125967500Y-108280481D01*
X125967500Y-106434234D01*
X125967500Y-104568334D01*
X125987184Y-104501299D01*
X126039988Y-104455544D01*
X126106025Y-104446048D01*
X126106084Y-104445439D01*
X126108596Y-104445678D01*
X126109146Y-104445600D01*
X126110955Y-104445904D01*
X126111959Y-104446000D01*
X126242000Y-104446000D01*
X126242000Y-103626617D01*
X126311052Y-103680363D01*
X126429424Y-103721000D01*
X126523073Y-103721000D01*
X126615446Y-103705586D01*
X126725514Y-103646019D01*
X126741999Y-103628110D01*
X126742000Y-104446000D01*
X126819398Y-104446000D01*
X126976122Y-104431034D01*
X126976126Y-104431033D01*
X127177686Y-104371850D01*
X127364414Y-104275586D01*
X127529537Y-104145731D01*
X127529540Y-104145728D01*
X127667105Y-103986969D01*
X127667114Y-103986958D01*
X127717913Y-103898971D01*
X127768479Y-103850756D01*
X127837086Y-103837532D01*
X127901951Y-103863500D01*
X127942480Y-103920414D01*
X127949300Y-103960971D01*
X127949300Y-107265530D01*
X127929615Y-107332569D01*
X127876811Y-107378324D01*
X127859896Y-107384606D01*
X127801905Y-107401454D01*
X127801903Y-107401455D01*
X127660437Y-107485117D01*
X127660429Y-107485123D01*
X127544223Y-107601329D01*
X127544217Y-107601337D01*
X127460555Y-107742803D01*
X127460554Y-107742806D01*
X127414702Y-107900626D01*
X127414701Y-107900632D01*
X127411800Y-107937498D01*
X127411799Y-107937514D01*
X127411799Y-108126748D01*
X127392114Y-108193787D01*
X127339310Y-108239542D01*
X127270151Y-108249485D01*
X127253204Y-108245823D01*
X127105880Y-108203021D01*
X127105881Y-108203021D01*
X127097599Y-108202369D01*
X127097599Y-108817599D01*
X127097600Y-108817600D01*
X127610638Y-108817600D01*
X127677677Y-108837285D01*
X127698319Y-108853919D01*
X127704045Y-108859645D01*
X127743606Y-108870468D01*
X127801902Y-108904944D01*
X127821301Y-108910580D01*
X127959726Y-108950797D01*
X127959729Y-108950797D01*
X127959731Y-108950798D01*
X127996606Y-108953700D01*
X127996614Y-108953700D01*
X129152986Y-108953700D01*
X129152994Y-108953700D01*
X129189869Y-108950798D01*
X129189871Y-108950797D01*
X129189873Y-108950797D01*
X129237575Y-108936938D01*
X129347698Y-108904944D01*
X129405993Y-108870468D01*
X129469115Y-108853200D01*
X129734594Y-108853200D01*
X129758857Y-108826952D01*
X129818818Y-108791085D01*
X129888652Y-108793329D01*
X129928312Y-108817730D01*
X129929269Y-108816498D01*
X129935432Y-108821278D01*
X129935435Y-108821281D01*
X130076902Y-108904944D01*
X130096301Y-108910580D01*
X130234726Y-108950797D01*
X130234729Y-108950797D01*
X130234731Y-108950798D01*
X130271606Y-108953700D01*
X130271614Y-108953700D01*
X131427986Y-108953700D01*
X131427994Y-108953700D01*
X131464869Y-108950798D01*
X131464871Y-108950797D01*
X131464873Y-108950797D01*
X131512575Y-108936938D01*
X131622698Y-108904944D01*
X131764165Y-108821281D01*
X131821883Y-108763563D01*
X131883928Y-108701519D01*
X131945251Y-108668034D01*
X131971609Y-108665200D01*
X132439600Y-108665200D01*
X132439600Y-108049969D01*
X132431318Y-108050621D01*
X132272405Y-108096790D01*
X132272404Y-108096791D01*
X132199919Y-108139658D01*
X132132195Y-108156839D01*
X132065932Y-108134679D01*
X132022170Y-108080213D01*
X132012800Y-108032929D01*
X132012800Y-107937506D01*
X132009898Y-107900631D01*
X132009672Y-107899854D01*
X131964045Y-107742806D01*
X131964044Y-107742803D01*
X131964044Y-107742802D01*
X131880381Y-107601335D01*
X131880379Y-107601333D01*
X131880376Y-107601329D01*
X131764170Y-107485123D01*
X131764162Y-107485117D01*
X131622696Y-107401455D01*
X131622695Y-107401454D01*
X131564703Y-107384606D01*
X131505818Y-107346999D01*
X131476612Y-107283527D01*
X131475300Y-107265543D01*
X131475300Y-106900449D01*
X131494985Y-106833410D01*
X131511620Y-106812768D01*
X131544550Y-106779838D01*
X131544550Y-106779837D01*
X131544553Y-106779835D01*
X131627533Y-106642569D01*
X131675252Y-106489433D01*
X131681300Y-106422881D01*
X131681299Y-105921120D01*
X131681299Y-105921119D01*
X131681299Y-105921111D01*
X131675253Y-105854573D01*
X131675252Y-105854570D01*
X131675252Y-105854567D01*
X131644412Y-105755600D01*
X131627534Y-105701433D01*
X131627532Y-105701429D01*
X131589288Y-105638165D01*
X131571452Y-105570611D01*
X131589289Y-105509865D01*
X131627073Y-105447362D01*
X131674757Y-105294338D01*
X131680800Y-105227837D01*
X131680800Y-105227000D01*
X130040800Y-105227000D01*
X130040800Y-105227837D01*
X130046843Y-105294343D01*
X130094524Y-105447359D01*
X130094526Y-105447363D01*
X130132311Y-105509867D01*
X130150147Y-105577421D01*
X130132312Y-105638164D01*
X130094067Y-105701431D01*
X130094064Y-105701437D01*
X130046348Y-105854565D01*
X130040300Y-105921121D01*
X130040300Y-106422888D01*
X130046346Y-106489426D01*
X130046348Y-106489433D01*
X130094065Y-106642566D01*
X130094067Y-106642570D01*
X130177042Y-106779829D01*
X130177046Y-106779834D01*
X130187981Y-106790769D01*
X130221466Y-106852092D01*
X130224300Y-106878450D01*
X130224299Y-107265530D01*
X130204614Y-107332570D01*
X130151810Y-107378325D01*
X130134896Y-107384606D01*
X130076903Y-107401455D01*
X129935437Y-107485117D01*
X129935429Y-107485123D01*
X129819223Y-107601329D01*
X129819214Y-107601340D01*
X129819029Y-107601655D01*
X129818819Y-107601850D01*
X129814439Y-107607498D01*
X129813527Y-107606791D01*
X129767957Y-107649336D01*
X129699215Y-107661837D01*
X129634627Y-107635188D01*
X129610443Y-107607278D01*
X129610161Y-107607498D01*
X129606123Y-107602292D01*
X129605571Y-107601655D01*
X129605385Y-107601340D01*
X129605376Y-107601329D01*
X129489170Y-107485123D01*
X129489162Y-107485117D01*
X129347696Y-107401455D01*
X129347694Y-107401454D01*
X129289704Y-107384606D01*
X129230818Y-107346999D01*
X129201613Y-107283526D01*
X129200300Y-107265530D01*
X129200300Y-104727000D01*
X130040800Y-104727000D01*
X130610799Y-104727000D01*
X130610799Y-104122830D01*
X130580955Y-104125543D01*
X130427940Y-104173224D01*
X130427936Y-104173226D01*
X130290780Y-104256139D01*
X130290776Y-104256142D01*
X130177442Y-104369476D01*
X130177439Y-104369480D01*
X130094526Y-104506636D01*
X130094524Y-104506640D01*
X130046843Y-104659656D01*
X130040800Y-104726162D01*
X130040800Y-104727000D01*
X129200300Y-104727000D01*
X129200300Y-102367651D01*
X129219985Y-102300612D01*
X129236619Y-102279970D01*
X130097371Y-101419219D01*
X130158694Y-101385734D01*
X130185052Y-101382900D01*
X130244244Y-101382900D01*
X130244246Y-101382900D01*
X130429403Y-101343544D01*
X130602330Y-101266551D01*
X130755471Y-101155288D01*
X130882133Y-101014616D01*
X130976779Y-100850684D01*
X131015808Y-100730565D01*
X131041377Y-100693171D01*
X131035655Y-100673885D01*
X131036331Y-100660590D01*
X131055060Y-100482400D01*
X131035274Y-100294144D01*
X130976779Y-100114116D01*
X130882133Y-99950184D01*
X130755471Y-99809512D01*
X130755470Y-99809511D01*
X130602334Y-99698251D01*
X130602329Y-99698248D01*
X130429407Y-99621257D01*
X130429402Y-99621255D01*
X130392397Y-99613390D01*
X130330915Y-99580198D01*
X130297139Y-99519035D01*
X130301791Y-99449320D01*
X130343396Y-99393188D01*
X130408743Y-99368459D01*
X130418178Y-99368100D01*
X131297600Y-99368100D01*
X131364639Y-99387785D01*
G37*
G04 #@! TD.AperFunction*
G04 #@! TA.AperFunction,Conductor*
G36*
X148859602Y-96091685D02*
G01*
X148905357Y-96144489D01*
X148916352Y-96203208D01*
X148907193Y-96360460D01*
X148910576Y-96379644D01*
X148936273Y-96525380D01*
X148937468Y-96532154D01*
X149006521Y-96692238D01*
X149006522Y-96692240D01*
X149006524Y-96692243D01*
X149110632Y-96832083D01*
X149249719Y-96948792D01*
X149248488Y-96950258D01*
X149287391Y-96996125D01*
X149296604Y-97065384D01*
X149281444Y-97108445D01*
X149277337Y-97115558D01*
X149226769Y-97163772D01*
X149158161Y-97176993D01*
X149093297Y-97151023D01*
X149085970Y-97144786D01*
X149077295Y-97136800D01*
X149019034Y-97083167D01*
X149019031Y-97083165D01*
X149019030Y-97083164D01*
X148914954Y-97015168D01*
X148819534Y-96952827D01*
X148819531Y-96952825D01*
X148819530Y-96952825D01*
X148601302Y-96857101D01*
X148370286Y-96798600D01*
X148192282Y-96783850D01*
X148192272Y-96783850D01*
X148073328Y-96783850D01*
X148073317Y-96783850D01*
X147895313Y-96798600D01*
X147664297Y-96857101D01*
X147446069Y-96952825D01*
X147246569Y-97083164D01*
X147071243Y-97244562D01*
X147071233Y-97244572D01*
X146924876Y-97432612D01*
X146924869Y-97432623D01*
X146811454Y-97642196D01*
X146811448Y-97642210D01*
X146734074Y-97867591D01*
X146726974Y-97910139D01*
X146694850Y-98102648D01*
X146694850Y-98340952D01*
X146712888Y-98449044D01*
X146734074Y-98576008D01*
X146811448Y-98801389D01*
X146811454Y-98801403D01*
X146924869Y-99010976D01*
X146924876Y-99010987D01*
X147071233Y-99199027D01*
X147071236Y-99199030D01*
X147071240Y-99199035D01*
X147246566Y-99360433D01*
X147446066Y-99490773D01*
X147664298Y-99586499D01*
X147895310Y-99644999D01*
X148073328Y-99659750D01*
X148073332Y-99659750D01*
X148192268Y-99659750D01*
X148192272Y-99659750D01*
X148370290Y-99644999D01*
X148601302Y-99586499D01*
X148819534Y-99490773D01*
X149019034Y-99360433D01*
X149086347Y-99298466D01*
X149148999Y-99267545D01*
X149218425Y-99275405D01*
X149228345Y-99283491D01*
X149254156Y-99286890D01*
X149826119Y-98714927D01*
X149887442Y-98681442D01*
X149957134Y-98686426D01*
X150013067Y-98728298D01*
X150037484Y-98793762D01*
X150037800Y-98802608D01*
X150037800Y-99158990D01*
X150018115Y-99226029D01*
X150001481Y-99246671D01*
X149756353Y-99491799D01*
X149756353Y-99491800D01*
X150001481Y-99736928D01*
X150034966Y-99798251D01*
X150037800Y-99824609D01*
X150037800Y-100180991D01*
X150018115Y-100248030D01*
X149965311Y-100293785D01*
X149896153Y-100303729D01*
X149832597Y-100274704D01*
X149826119Y-100268672D01*
X149254156Y-99696709D01*
X149216866Y-99761298D01*
X149158815Y-99939962D01*
X149139177Y-100126799D01*
X149158815Y-100313637D01*
X149216864Y-100492297D01*
X149216867Y-100492303D01*
X149310797Y-100654995D01*
X149331919Y-100678453D01*
X149362149Y-100741444D01*
X149353524Y-100810779D01*
X149331922Y-100844394D01*
X149310395Y-100868302D01*
X149310390Y-100868309D01*
X149216408Y-101031092D01*
X149216405Y-101031099D01*
X149158323Y-101209856D01*
X149158322Y-101209858D01*
X149139379Y-101390091D01*
X149124724Y-101436859D01*
X149124392Y-101437463D01*
X149113710Y-101453728D01*
X149101427Y-101469564D01*
X149101426Y-101469565D01*
X149089187Y-101497849D01*
X149044496Y-101551556D01*
X148977863Y-101572576D01*
X148975386Y-101572601D01*
X144610467Y-101572601D01*
X144543428Y-101552916D01*
X144511202Y-101522913D01*
X144463546Y-101459254D01*
X144434437Y-101437463D01*
X144348335Y-101373006D01*
X144348328Y-101373002D01*
X144216917Y-101323989D01*
X144160983Y-101282118D01*
X144136566Y-101216653D01*
X144151418Y-101148380D01*
X144172563Y-101120132D01*
X144294495Y-100998201D01*
X144430035Y-100804630D01*
X144529903Y-100590463D01*
X144591063Y-100362208D01*
X144611659Y-100126800D01*
X144591063Y-99891392D01*
X144539311Y-99698248D01*
X144529905Y-99663144D01*
X144529904Y-99663143D01*
X144529903Y-99663137D01*
X144430035Y-99448971D01*
X144413294Y-99425061D01*
X144294494Y-99255397D01*
X144127402Y-99088306D01*
X144127395Y-99088301D01*
X143933834Y-98952767D01*
X143933830Y-98952765D01*
X143933829Y-98952764D01*
X143719663Y-98852897D01*
X143719659Y-98852896D01*
X143719655Y-98852894D01*
X143491413Y-98791738D01*
X143491403Y-98791736D01*
X143256001Y-98771141D01*
X143255999Y-98771141D01*
X143020596Y-98791736D01*
X143020583Y-98791739D01*
X142941302Y-98812981D01*
X142871452Y-98811317D01*
X142813590Y-98772154D01*
X142786087Y-98707925D01*
X142797674Y-98639023D01*
X142821524Y-98605530D01*
X143775836Y-97651219D01*
X143837160Y-97617734D01*
X143863518Y-97614900D01*
X145175352Y-97614900D01*
X145179097Y-97615013D01*
X145186442Y-97615457D01*
X145241006Y-97618758D01*
X145278714Y-97611847D01*
X145302021Y-97607577D01*
X145305725Y-97607013D01*
X145323570Y-97604846D01*
X145367272Y-97599540D01*
X145376735Y-97595950D01*
X145398361Y-97589922D01*
X145399293Y-97589751D01*
X145408332Y-97588095D01*
X145464912Y-97562629D01*
X145468342Y-97561209D01*
X145526330Y-97539218D01*
X145534666Y-97533462D01*
X145554221Y-97522434D01*
X145563457Y-97518278D01*
X145612296Y-97480013D01*
X145615276Y-97477821D01*
X145666329Y-97442583D01*
X145707465Y-97396148D01*
X145709999Y-97393456D01*
X145960576Y-97142880D01*
X146021895Y-97109398D01*
X146021904Y-97109395D01*
X146177403Y-97076344D01*
X146177407Y-97076342D01*
X146177408Y-97076342D01*
X146280596Y-97030399D01*
X146350330Y-96999351D01*
X146503471Y-96888088D01*
X146630133Y-96747416D01*
X146724779Y-96583484D01*
X146783274Y-96403456D01*
X146803060Y-96215200D01*
X146802404Y-96208960D01*
X146814973Y-96140232D01*
X146862705Y-96089208D01*
X146925725Y-96072000D01*
X148792563Y-96072000D01*
X148859602Y-96091685D01*
G37*
G04 #@! TD.AperFunction*
G04 #@! TA.AperFunction,Conductor*
G36*
X142277820Y-96091685D02*
G01*
X142323575Y-96144489D01*
X142333519Y-96213647D01*
X142304494Y-96277203D01*
X142298462Y-96283681D01*
X137312562Y-101269581D01*
X137251239Y-101303066D01*
X137224881Y-101305900D01*
X134190159Y-101305900D01*
X134140097Y-101291200D01*
X133131100Y-101291200D01*
X133064061Y-101271515D01*
X133018306Y-101218711D01*
X133007100Y-101167200D01*
X133007100Y-100231200D01*
X133507100Y-100231200D01*
X133507100Y-100791200D01*
X134122330Y-100791200D01*
X134121678Y-100782918D01*
X134075509Y-100624005D01*
X134075507Y-100624002D01*
X133991266Y-100481557D01*
X133991260Y-100481549D01*
X133874250Y-100364539D01*
X133874242Y-100364533D01*
X133731797Y-100280292D01*
X133731794Y-100280291D01*
X133572883Y-100234122D01*
X133572877Y-100234121D01*
X133535757Y-100231200D01*
X133507100Y-100231200D01*
X133007100Y-100231200D01*
X132978458Y-100231200D01*
X132978431Y-100231201D01*
X132956324Y-100232940D01*
X132887947Y-100218573D01*
X132838192Y-100169520D01*
X132822600Y-100109322D01*
X132822600Y-99492100D01*
X132842285Y-99425061D01*
X132895089Y-99379306D01*
X132946600Y-99368100D01*
X135828593Y-99368100D01*
X135890592Y-99384712D01*
X135894465Y-99386947D01*
X135894470Y-99386951D01*
X135997786Y-99432951D01*
X136067392Y-99463942D01*
X136067397Y-99463944D01*
X136252554Y-99503300D01*
X136252555Y-99503300D01*
X136441844Y-99503300D01*
X136441846Y-99503300D01*
X136627003Y-99463944D01*
X136799930Y-99386951D01*
X136953071Y-99275688D01*
X137079733Y-99135016D01*
X137174379Y-98971084D01*
X137232874Y-98791056D01*
X137250494Y-98623401D01*
X137277077Y-98558791D01*
X137322917Y-98523295D01*
X137372393Y-98501027D01*
X137375790Y-98499619D01*
X137433806Y-98477618D01*
X137442142Y-98471862D01*
X137461697Y-98460834D01*
X137470933Y-98456678D01*
X137519772Y-98418413D01*
X137522752Y-98416221D01*
X137573805Y-98380983D01*
X137614941Y-98334548D01*
X137617475Y-98331856D01*
X139841012Y-96108319D01*
X139902336Y-96074834D01*
X139928694Y-96072000D01*
X142210781Y-96072000D01*
X142277820Y-96091685D01*
G37*
G04 #@! TD.AperFunction*
G04 #@! TA.AperFunction,Conductor*
G36*
X132921139Y-89274185D02*
G01*
X132966894Y-89326989D01*
X132978100Y-89378500D01*
X132978100Y-90119951D01*
X132977987Y-90123696D01*
X132974242Y-90185603D01*
X132974242Y-90185605D01*
X132985421Y-90246612D01*
X132985984Y-90250313D01*
X132993459Y-90311870D01*
X132993460Y-90311874D01*
X132997051Y-90321343D01*
X133003074Y-90342946D01*
X133004904Y-90352930D01*
X133030359Y-90409490D01*
X133031789Y-90412941D01*
X133053782Y-90470930D01*
X133054922Y-90472581D01*
X133059536Y-90479266D01*
X133070561Y-90498813D01*
X133074720Y-90508055D01*
X133074722Y-90508057D01*
X133110912Y-90554251D01*
X133112971Y-90556878D01*
X133115191Y-90559896D01*
X133150412Y-90610924D01*
X133150416Y-90610928D01*
X133150417Y-90610929D01*
X133196850Y-90652064D01*
X133199541Y-90654598D01*
X133239724Y-90694781D01*
X133279785Y-90734842D01*
X133313270Y-90796165D01*
X133308286Y-90865857D01*
X133279785Y-90910204D01*
X133208039Y-90981949D01*
X133208033Y-90981957D01*
X133123792Y-91124402D01*
X133123790Y-91124405D01*
X133077621Y-91283318D01*
X133076970Y-91291600D01*
X133785181Y-91291600D01*
X133852220Y-91311285D01*
X133872862Y-91327919D01*
X134155881Y-91610938D01*
X134189366Y-91672261D01*
X134192200Y-91698619D01*
X134192200Y-92351600D01*
X134220842Y-92351600D01*
X134220857Y-92351599D01*
X134257977Y-92348678D01*
X134257983Y-92348677D01*
X134416894Y-92302508D01*
X134416902Y-92302505D01*
X134446086Y-92285246D01*
X134513809Y-92268062D01*
X134572328Y-92285244D01*
X134602300Y-92302970D01*
X134644241Y-92315155D01*
X134761337Y-92349175D01*
X134761340Y-92349175D01*
X134761342Y-92349176D01*
X134798497Y-92352100D01*
X134845679Y-92352099D01*
X134912717Y-92371782D01*
X134933361Y-92388418D01*
X136569206Y-94024263D01*
X137329255Y-94784311D01*
X137362740Y-94845634D01*
X137357756Y-94915326D01*
X137315884Y-94971259D01*
X137250420Y-94995676D01*
X137232738Y-94995677D01*
X137229602Y-94995453D01*
X137229600Y-94995453D01*
X134104600Y-94995453D01*
X134104597Y-94995453D01*
X134032639Y-95000599D01*
X134032634Y-95000600D01*
X133894549Y-95041145D01*
X133894544Y-95041147D01*
X133806213Y-95097915D01*
X133739174Y-95117600D01*
X132129600Y-95117600D01*
X132129600Y-95365444D01*
X132136001Y-95424972D01*
X132136003Y-95424979D01*
X132186247Y-95559691D01*
X132187313Y-95561643D01*
X132187785Y-95563814D01*
X132189346Y-95567999D01*
X132188744Y-95568223D01*
X132202164Y-95629917D01*
X132191274Y-95672579D01*
X132144435Y-95775141D01*
X132144435Y-95775142D01*
X132123953Y-95917601D01*
X132123953Y-96181227D01*
X132104268Y-96248266D01*
X132087634Y-96268908D01*
X131643066Y-96713475D01*
X131640340Y-96716042D01*
X131593918Y-96757168D01*
X131558686Y-96808209D01*
X131556468Y-96811224D01*
X131518224Y-96860039D01*
X131518219Y-96860048D01*
X131514060Y-96869288D01*
X131503042Y-96888823D01*
X131497287Y-96897161D01*
X131497283Y-96897167D01*
X131497282Y-96897170D01*
X131497280Y-96897174D01*
X131497279Y-96897177D01*
X131475289Y-96955155D01*
X131473857Y-96958613D01*
X131448405Y-97015168D01*
X131446577Y-97025142D01*
X131440553Y-97046753D01*
X131436960Y-97056227D01*
X131436959Y-97056228D01*
X131429484Y-97117785D01*
X131428921Y-97121486D01*
X131417742Y-97182490D01*
X131417742Y-97182495D01*
X131421487Y-97244402D01*
X131421600Y-97248147D01*
X131421600Y-97843100D01*
X131401915Y-97910139D01*
X131349111Y-97955894D01*
X131297600Y-97967100D01*
X130124302Y-97967100D01*
X130057263Y-97947415D01*
X130011508Y-97894611D01*
X130000811Y-97831879D01*
X130001529Y-97823967D01*
X130004900Y-97786881D01*
X130004899Y-97285120D01*
X130004899Y-97285119D01*
X130004899Y-97285111D01*
X129998853Y-97218573D01*
X129998852Y-97218570D01*
X129998852Y-97218567D01*
X129964537Y-97108445D01*
X129951134Y-97065433D01*
X129951133Y-97065431D01*
X129913179Y-97002649D01*
X129895344Y-96935095D01*
X129913180Y-96874350D01*
X129921829Y-96860043D01*
X129951133Y-96811569D01*
X129951342Y-96810900D01*
X129955260Y-96798323D01*
X129998852Y-96658433D01*
X130004900Y-96591881D01*
X130004899Y-96090120D01*
X130004899Y-96090119D01*
X130004899Y-96090111D01*
X129998853Y-96023573D01*
X129998852Y-96023570D01*
X129998852Y-96023567D01*
X129955343Y-95883940D01*
X129951134Y-95870433D01*
X129951132Y-95870429D01*
X129868157Y-95733170D01*
X129868153Y-95733165D01*
X129846218Y-95711230D01*
X129812733Y-95649907D01*
X129809899Y-95623558D01*
X129809899Y-94617600D01*
X132129600Y-94617600D01*
X133029600Y-94617600D01*
X133029600Y-93917600D01*
X133529600Y-93917600D01*
X133529600Y-94617600D01*
X134429600Y-94617600D01*
X134429600Y-94369772D01*
X134429599Y-94369755D01*
X134423198Y-94310227D01*
X134423196Y-94310220D01*
X134372954Y-94175513D01*
X134372950Y-94175506D01*
X134286790Y-94060412D01*
X134286787Y-94060409D01*
X134171693Y-93974249D01*
X134171686Y-93974245D01*
X134036979Y-93924003D01*
X134036972Y-93924001D01*
X133977444Y-93917600D01*
X133529600Y-93917600D01*
X133029600Y-93917600D01*
X132581755Y-93917600D01*
X132522227Y-93924001D01*
X132522220Y-93924003D01*
X132387513Y-93974245D01*
X132387506Y-93974249D01*
X132272412Y-94060409D01*
X132272409Y-94060412D01*
X132186249Y-94175506D01*
X132186245Y-94175513D01*
X132136003Y-94310220D01*
X132136001Y-94310227D01*
X132129600Y-94369755D01*
X132129600Y-94617600D01*
X129809899Y-94617600D01*
X129809899Y-92207651D01*
X129829584Y-92140613D01*
X129846218Y-92119971D01*
X130148008Y-91818182D01*
X130174590Y-91791600D01*
X133076970Y-91791600D01*
X133077621Y-91799881D01*
X133123790Y-91958794D01*
X133123792Y-91958797D01*
X133208033Y-92101242D01*
X133208039Y-92101250D01*
X133325049Y-92218260D01*
X133325057Y-92218266D01*
X133467502Y-92302507D01*
X133467505Y-92302508D01*
X133626416Y-92348677D01*
X133626422Y-92348678D01*
X133663542Y-92351599D01*
X133663558Y-92351600D01*
X133692200Y-92351600D01*
X133692200Y-91791600D01*
X133076970Y-91791600D01*
X130174590Y-91791600D01*
X130770690Y-91195500D01*
X131113372Y-90852819D01*
X131174695Y-90819334D01*
X131201053Y-90816500D01*
X131260244Y-90816500D01*
X131260246Y-90816500D01*
X131445403Y-90777144D01*
X131618330Y-90700151D01*
X131771471Y-90588888D01*
X131898133Y-90448216D01*
X131992779Y-90284284D01*
X132051274Y-90104256D01*
X132071060Y-89916000D01*
X132051274Y-89727744D01*
X131992779Y-89547716D01*
X131930878Y-89440500D01*
X131914405Y-89372599D01*
X131937258Y-89306573D01*
X131992179Y-89263382D01*
X132038265Y-89254500D01*
X132854100Y-89254500D01*
X132921139Y-89274185D01*
G37*
G04 #@! TD.AperFunction*
G04 #@! TA.AperFunction,Conductor*
G36*
X121920960Y-91371500D02*
G01*
X121920967Y-91371500D01*
X122173033Y-91371500D01*
X122173040Y-91371500D01*
X122280821Y-91357310D01*
X122313179Y-91357310D01*
X122393380Y-91367868D01*
X122457274Y-91396135D01*
X122495745Y-91454460D01*
X122500131Y-91474621D01*
X122510689Y-91554814D01*
X122510689Y-91587186D01*
X122496500Y-91694952D01*
X122496500Y-91947047D01*
X122510689Y-92054814D01*
X122510689Y-92087186D01*
X122500131Y-92167378D01*
X122471864Y-92231274D01*
X122413539Y-92269745D01*
X122393378Y-92274131D01*
X122313186Y-92284689D01*
X122280814Y-92284689D01*
X122173047Y-92270500D01*
X122173040Y-92270500D01*
X121920960Y-92270500D01*
X121920952Y-92270500D01*
X121813186Y-92284689D01*
X121780814Y-92284689D01*
X121770411Y-92283319D01*
X121700107Y-92274063D01*
X121636211Y-92245796D01*
X121597741Y-92187471D01*
X121593355Y-92167308D01*
X121583059Y-92089096D01*
X121583059Y-92056726D01*
X121590527Y-92000007D01*
X121597500Y-91947040D01*
X121597500Y-91694960D01*
X121583059Y-91585272D01*
X121583059Y-91552904D01*
X121593356Y-91474690D01*
X121621622Y-91410793D01*
X121679947Y-91372322D01*
X121700103Y-91367936D01*
X121780821Y-91357310D01*
X121813179Y-91357310D01*
X121920960Y-91371500D01*
G37*
G04 #@! TD.AperFunction*
G04 #@! TA.AperFunction,Conductor*
G36*
X124787324Y-87563985D02*
G01*
X124833079Y-87616789D01*
X124833461Y-87618953D01*
X124847369Y-87634000D01*
X125838600Y-87634000D01*
X125905639Y-87653685D01*
X125951394Y-87706489D01*
X125962600Y-87758000D01*
X125962600Y-88694000D01*
X125991242Y-88694000D01*
X125991257Y-88693999D01*
X126028377Y-88691078D01*
X126088903Y-88673493D01*
X126158773Y-88673692D01*
X126217443Y-88711633D01*
X126246288Y-88775271D01*
X126247500Y-88792569D01*
X126247500Y-89671142D01*
X126227815Y-89738181D01*
X126211181Y-89758823D01*
X125321719Y-90648284D01*
X125260396Y-90681769D01*
X125190704Y-90676785D01*
X125161153Y-90660921D01*
X125014334Y-90554251D01*
X125014329Y-90554248D01*
X124841407Y-90477257D01*
X124841402Y-90477255D01*
X124695600Y-90446265D01*
X124656246Y-90437900D01*
X124466954Y-90437900D01*
X124434497Y-90444798D01*
X124281797Y-90477255D01*
X124281792Y-90477257D01*
X124151100Y-90535446D01*
X124081850Y-90544731D01*
X124018573Y-90515103D01*
X123986102Y-90469617D01*
X123972682Y-90437217D01*
X123972680Y-90437213D01*
X123878510Y-90314490D01*
X123878509Y-90314489D01*
X123755786Y-90220319D01*
X123755780Y-90220316D01*
X123612871Y-90161122D01*
X123612866Y-90161120D01*
X123498012Y-90146000D01*
X123447000Y-90146000D01*
X123447000Y-90210141D01*
X123427315Y-90277180D01*
X123374511Y-90322935D01*
X123305353Y-90332879D01*
X123241797Y-90303854D01*
X123208439Y-90257593D01*
X123164539Y-90151608D01*
X123155100Y-90104156D01*
X123155100Y-89344687D01*
X123174785Y-89277648D01*
X123186950Y-89261715D01*
X123221895Y-89222904D01*
X123262133Y-89178216D01*
X123356779Y-89014284D01*
X123415274Y-88834256D01*
X123435060Y-88646000D01*
X123415274Y-88457744D01*
X123356779Y-88277716D01*
X123273805Y-88134000D01*
X124847370Y-88134000D01*
X124848021Y-88142281D01*
X124894190Y-88301194D01*
X124894192Y-88301197D01*
X124978433Y-88443642D01*
X124978439Y-88443650D01*
X125095449Y-88560660D01*
X125095457Y-88560666D01*
X125237902Y-88644907D01*
X125237905Y-88644908D01*
X125396816Y-88691077D01*
X125396822Y-88691078D01*
X125433942Y-88693999D01*
X125433958Y-88694000D01*
X125462599Y-88694000D01*
X125462600Y-88134000D01*
X124847370Y-88134000D01*
X123273805Y-88134000D01*
X123262133Y-88113784D01*
X123135471Y-87973112D01*
X123080212Y-87932964D01*
X122982334Y-87861851D01*
X122982332Y-87861850D01*
X122906232Y-87827967D01*
X122852995Y-87782716D01*
X122832675Y-87715866D01*
X122851721Y-87648643D01*
X122868990Y-87627005D01*
X122915380Y-87580617D01*
X122976704Y-87547133D01*
X123003059Y-87544300D01*
X124720285Y-87544300D01*
X124787324Y-87563985D01*
G37*
G04 #@! TD.AperFunction*
G04 #@! TA.AperFunction,Conductor*
G36*
X149006500Y-77755499D02*
G01*
X149006500Y-78669600D01*
X148986815Y-78736639D01*
X148934011Y-78782394D01*
X148882500Y-78793600D01*
X148819342Y-78793600D01*
X148782222Y-78796521D01*
X148782216Y-78796522D01*
X148623305Y-78842691D01*
X148623302Y-78842692D01*
X148480857Y-78926933D01*
X148480849Y-78926939D01*
X148363839Y-79043949D01*
X148363833Y-79043957D01*
X148279592Y-79186402D01*
X148279590Y-79186405D01*
X148233421Y-79345318D01*
X148232770Y-79353600D01*
X149047048Y-79353600D01*
X149114087Y-79373285D01*
X149134729Y-79389919D01*
X149147991Y-79403181D01*
X149160626Y-79417974D01*
X149172406Y-79434187D01*
X149208304Y-79463884D01*
X149212626Y-79467817D01*
X149311682Y-79566872D01*
X149345166Y-79628193D01*
X149348000Y-79654552D01*
X149348000Y-80413600D01*
X149376642Y-80413600D01*
X149376652Y-80413599D01*
X149405524Y-80411327D01*
X149473901Y-80425691D01*
X149523658Y-80474741D01*
X149538998Y-80542906D01*
X149538575Y-80547906D01*
X149531040Y-80619600D01*
X149550826Y-80807856D01*
X149550827Y-80807859D01*
X149573243Y-80876848D01*
X149575238Y-80946689D01*
X149539158Y-81006522D01*
X149502767Y-81029726D01*
X149496163Y-81032461D01*
X149496158Y-81032464D01*
X149370719Y-81128716D01*
X149274463Y-81254160D01*
X149213956Y-81400237D01*
X149213955Y-81400239D01*
X149198500Y-81517638D01*
X149198500Y-81796363D01*
X149213953Y-81913753D01*
X149213957Y-81913765D01*
X149222566Y-81934550D01*
X149230033Y-82004019D01*
X149222567Y-82029449D01*
X149213955Y-82050240D01*
X149198500Y-82167638D01*
X149198500Y-82446363D01*
X149213953Y-82563753D01*
X149213957Y-82563765D01*
X149222566Y-82584550D01*
X149230033Y-82654019D01*
X149222566Y-82679450D01*
X149213957Y-82700234D01*
X149213955Y-82700239D01*
X149198500Y-82817638D01*
X149198500Y-83096363D01*
X149213953Y-83213753D01*
X149213957Y-83213765D01*
X149222566Y-83234550D01*
X149230033Y-83304019D01*
X149222566Y-83329450D01*
X149213957Y-83350234D01*
X149213955Y-83350239D01*
X149198500Y-83467638D01*
X149198500Y-83746363D01*
X149213953Y-83863753D01*
X149213955Y-83863758D01*
X149213956Y-83863762D01*
X149222566Y-83884548D01*
X149230034Y-83954017D01*
X149222567Y-83979448D01*
X149213956Y-84000237D01*
X149213955Y-84000239D01*
X149198500Y-84117638D01*
X149198500Y-84396363D01*
X149213953Y-84513753D01*
X149213957Y-84513765D01*
X149222566Y-84534550D01*
X149230033Y-84604019D01*
X149222566Y-84629450D01*
X149213957Y-84650234D01*
X149213955Y-84650239D01*
X149198500Y-84767638D01*
X149198500Y-85046363D01*
X149213953Y-85163753D01*
X149213957Y-85163765D01*
X149222566Y-85184550D01*
X149230033Y-85254019D01*
X149222566Y-85279450D01*
X149213957Y-85300234D01*
X149213955Y-85300239D01*
X149198500Y-85417638D01*
X149198500Y-85696363D01*
X149213953Y-85813753D01*
X149213957Y-85813765D01*
X149222566Y-85834550D01*
X149230033Y-85904019D01*
X149222566Y-85929450D01*
X149213957Y-85950234D01*
X149213955Y-85950239D01*
X149198500Y-86067638D01*
X149198500Y-86346363D01*
X149213953Y-86463753D01*
X149213957Y-86463765D01*
X149222566Y-86484550D01*
X149230033Y-86554019D01*
X149222567Y-86579449D01*
X149213955Y-86600240D01*
X149198500Y-86717638D01*
X149198500Y-86996363D01*
X149213953Y-87113753D01*
X149213955Y-87113758D01*
X149213956Y-87113762D01*
X149222566Y-87134547D01*
X149230034Y-87204017D01*
X149222567Y-87229448D01*
X149213956Y-87250237D01*
X149211853Y-87258088D01*
X149210196Y-87257644D01*
X149185899Y-87312576D01*
X149127577Y-87351051D01*
X149091222Y-87356500D01*
X146056274Y-87356500D01*
X145989235Y-87336815D01*
X145943480Y-87284011D01*
X145936045Y-87258122D01*
X145935661Y-87258225D01*
X145933555Y-87250368D01*
X145924892Y-87229453D01*
X145917423Y-87159983D01*
X145924892Y-87134546D01*
X145933556Y-87113629D01*
X145941012Y-87057000D01*
X144911500Y-87057000D01*
X144911500Y-87232500D01*
X144891815Y-87299539D01*
X144839011Y-87345294D01*
X144787500Y-87356500D01*
X144635500Y-87356500D01*
X144568461Y-87336815D01*
X144522706Y-87284011D01*
X144511500Y-87232500D01*
X144511500Y-86381499D01*
X144531185Y-86314460D01*
X144583989Y-86268705D01*
X144635500Y-86257499D01*
X144787500Y-86257499D01*
X144854539Y-86277184D01*
X144900294Y-86329988D01*
X144911500Y-86381499D01*
X144911500Y-86657000D01*
X145941010Y-86657000D01*
X145941011Y-86656998D01*
X145933558Y-86600377D01*
X145933555Y-86600368D01*
X145924892Y-86579454D01*
X145917422Y-86509984D01*
X145924894Y-86484540D01*
X145933555Y-86463632D01*
X145933555Y-86463630D01*
X145941012Y-86407000D01*
X145723303Y-86407000D01*
X145656264Y-86387315D01*
X145610509Y-86334511D01*
X145600565Y-86265353D01*
X145629590Y-86201797D01*
X145647816Y-86184624D01*
X145651839Y-86181536D01*
X145651841Y-86181536D01*
X145777282Y-86085282D01*
X145790821Y-86067638D01*
X145800125Y-86055513D01*
X145856553Y-86014310D01*
X145898500Y-86007000D01*
X145941010Y-86007000D01*
X145941011Y-86006998D01*
X145933558Y-85950377D01*
X145933554Y-85950365D01*
X145925163Y-85930106D01*
X145917694Y-85860637D01*
X145925164Y-85835199D01*
X145925433Y-85834550D01*
X145934044Y-85813762D01*
X145949500Y-85696361D01*
X145949499Y-85417640D01*
X145948063Y-85406735D01*
X145946277Y-85393170D01*
X145934044Y-85300238D01*
X145934042Y-85300234D01*
X145925435Y-85279455D01*
X145917965Y-85209986D01*
X145925435Y-85184545D01*
X145934044Y-85163762D01*
X145949500Y-85046361D01*
X145949499Y-84767640D01*
X145934044Y-84650238D01*
X145934042Y-84650234D01*
X145925435Y-84629455D01*
X145917965Y-84559986D01*
X145925435Y-84534545D01*
X145926489Y-84532000D01*
X145934044Y-84513762D01*
X145949500Y-84396361D01*
X145949499Y-84117640D01*
X145934044Y-84000238D01*
X145925434Y-83979454D01*
X145917965Y-83909986D01*
X145925435Y-83884545D01*
X145927006Y-83880752D01*
X145934044Y-83863762D01*
X145949500Y-83746361D01*
X145949499Y-83467640D01*
X145934044Y-83350238D01*
X145934042Y-83350234D01*
X145925435Y-83329455D01*
X145917965Y-83259986D01*
X145925435Y-83234545D01*
X145934044Y-83213762D01*
X145949500Y-83096361D01*
X145949499Y-82817640D01*
X145934044Y-82700238D01*
X145934042Y-82700234D01*
X145925435Y-82679455D01*
X145917965Y-82609986D01*
X145925435Y-82584545D01*
X145927678Y-82579130D01*
X145934044Y-82563762D01*
X145949500Y-82446361D01*
X145949499Y-82167640D01*
X145949499Y-82167638D01*
X145949499Y-82167636D01*
X145934046Y-82050246D01*
X145934044Y-82050240D01*
X145934044Y-82050238D01*
X145925434Y-82029451D01*
X145917965Y-81959982D01*
X145925432Y-81934549D01*
X145934044Y-81913762D01*
X145949500Y-81796361D01*
X145949499Y-81517640D01*
X145949499Y-81517638D01*
X145949499Y-81517636D01*
X145932984Y-81392179D01*
X145935736Y-81391816D01*
X145937079Y-81335499D01*
X145967507Y-81285581D01*
X146128986Y-81124102D01*
X146141248Y-81114280D01*
X146141065Y-81114059D01*
X146147073Y-81109088D01*
X146147077Y-81109086D01*
X146193849Y-81059277D01*
X146195091Y-81057997D01*
X146215320Y-81037770D01*
X146219573Y-81032286D01*
X146223350Y-81027863D01*
X146255262Y-80993882D01*
X146264914Y-80976323D01*
X146275589Y-80960072D01*
X146287874Y-80944236D01*
X146306386Y-80901452D01*
X146308942Y-80896235D01*
X146331397Y-80855392D01*
X146336380Y-80835980D01*
X146342677Y-80817591D01*
X146350638Y-80799195D01*
X146357929Y-80753153D01*
X146359108Y-80747462D01*
X146370700Y-80702319D01*
X146370700Y-80682283D01*
X146372227Y-80662882D01*
X146372677Y-80660042D01*
X146375360Y-80643104D01*
X146370975Y-80596715D01*
X146370700Y-80590877D01*
X146370700Y-79853600D01*
X148232770Y-79853600D01*
X148233421Y-79861881D01*
X148279590Y-80020794D01*
X148279592Y-80020797D01*
X148363833Y-80163242D01*
X148363839Y-80163250D01*
X148480849Y-80280260D01*
X148480857Y-80280266D01*
X148623302Y-80364507D01*
X148623305Y-80364508D01*
X148782216Y-80410677D01*
X148782222Y-80410678D01*
X148819342Y-80413599D01*
X148819358Y-80413600D01*
X148848000Y-80413600D01*
X148848000Y-79853600D01*
X148232770Y-79853600D01*
X146370700Y-79853600D01*
X146370700Y-79813050D01*
X146390385Y-79746011D01*
X146407019Y-79725369D01*
X146412569Y-79719819D01*
X146428953Y-79703435D01*
X146429105Y-79703185D01*
X146486162Y-79608800D01*
X146511933Y-79566169D01*
X146559652Y-79413033D01*
X146565700Y-79346481D01*
X146565699Y-78844720D01*
X146565699Y-78844719D01*
X146565699Y-78844711D01*
X146559653Y-78778173D01*
X146559652Y-78778170D01*
X146559652Y-78778167D01*
X146515759Y-78637308D01*
X146511934Y-78625033D01*
X146495987Y-78598654D01*
X146473979Y-78562249D01*
X146456144Y-78494695D01*
X146473980Y-78433950D01*
X146474110Y-78433735D01*
X146511933Y-78371169D01*
X146559652Y-78218033D01*
X146565700Y-78151481D01*
X146565699Y-78122119D01*
X146585381Y-78055082D01*
X146602013Y-78034442D01*
X146912455Y-77724000D01*
X148999648Y-77724000D01*
X149006500Y-77755499D01*
G37*
G04 #@! TD.AperFunction*
G04 #@! TA.AperFunction,Conductor*
G36*
X127336739Y-82268885D02*
G01*
X127382494Y-82321689D01*
X127393700Y-82373200D01*
X127393700Y-83309200D01*
X127422342Y-83309200D01*
X127422357Y-83309199D01*
X127459477Y-83306278D01*
X127459483Y-83306277D01*
X127618394Y-83260108D01*
X127618402Y-83260105D01*
X127647586Y-83242846D01*
X127715309Y-83225662D01*
X127773828Y-83242844D01*
X127803800Y-83260570D01*
X127845741Y-83272755D01*
X127962837Y-83306775D01*
X127962840Y-83306775D01*
X127962842Y-83306776D01*
X127999997Y-83309700D01*
X128080386Y-83309699D01*
X128147424Y-83329383D01*
X128193180Y-83382186D01*
X128198317Y-83395381D01*
X128257049Y-83576142D01*
X128257052Y-83576148D01*
X128351698Y-83740080D01*
X128373957Y-83764801D01*
X128424882Y-83821359D01*
X128455112Y-83884350D01*
X128446487Y-83953686D01*
X128420413Y-83992012D01*
X126555446Y-85856981D01*
X126494123Y-85890466D01*
X126467765Y-85893300D01*
X123868852Y-85893300D01*
X123801813Y-85873615D01*
X123756058Y-85820811D01*
X123746114Y-85751653D01*
X123775139Y-85688097D01*
X123781171Y-85681619D01*
X125005290Y-84457500D01*
X126319061Y-83143729D01*
X126380381Y-83110246D01*
X126450073Y-83115230D01*
X126494420Y-83143731D01*
X126526549Y-83175860D01*
X126526557Y-83175866D01*
X126669002Y-83260107D01*
X126669005Y-83260108D01*
X126827916Y-83306277D01*
X126827922Y-83306278D01*
X126865042Y-83309199D01*
X126865058Y-83309200D01*
X126893700Y-83309200D01*
X126893700Y-82620452D01*
X126913385Y-82553413D01*
X126930015Y-82532774D01*
X127177271Y-82285519D01*
X127238595Y-82252034D01*
X127264953Y-82249200D01*
X127269700Y-82249200D01*
X127336739Y-82268885D01*
G37*
G04 #@! TD.AperFunction*
G04 #@! TA.AperFunction,Conductor*
G36*
X126428287Y-81052685D02*
G01*
X126474042Y-81105489D01*
X126483986Y-81174647D01*
X126454961Y-81238203D01*
X126448929Y-81244681D01*
X124542513Y-83151094D01*
X124481190Y-83184579D01*
X124411498Y-83179595D01*
X124355565Y-83137723D01*
X124348100Y-83126534D01*
X124340044Y-83112912D01*
X124322861Y-83045188D01*
X124340045Y-82986670D01*
X124357770Y-82956700D01*
X124403976Y-82797658D01*
X124406900Y-82760503D01*
X124406899Y-82607251D01*
X124426583Y-82540212D01*
X124443213Y-82519575D01*
X125893471Y-81069319D01*
X125954795Y-81035834D01*
X125981153Y-81033000D01*
X126361248Y-81033000D01*
X126428287Y-81052685D01*
G37*
G04 #@! TD.AperFunction*
G04 #@! TA.AperFunction,Conductor*
G36*
X153624539Y-77651183D02*
G01*
X153670294Y-77703987D01*
X153681500Y-77755499D01*
X153681500Y-78461900D01*
X153661815Y-78528939D01*
X153609011Y-78574694D01*
X153557500Y-78585900D01*
X152814398Y-78585900D01*
X152814380Y-78585901D01*
X152711603Y-78596400D01*
X152711600Y-78596401D01*
X152545068Y-78651585D01*
X152545063Y-78651587D01*
X152395742Y-78743689D01*
X152271689Y-78867742D01*
X152179587Y-79017063D01*
X152179585Y-79017068D01*
X152179487Y-79017365D01*
X152124401Y-79183603D01*
X152124401Y-79183604D01*
X152124400Y-79183604D01*
X152113900Y-79286383D01*
X152113900Y-80086401D01*
X152113901Y-80086419D01*
X152124400Y-80189196D01*
X152124401Y-80189199D01*
X152179585Y-80355731D01*
X152179587Y-80355736D01*
X152195587Y-80381676D01*
X152244396Y-80460809D01*
X152271689Y-80505057D01*
X152365351Y-80598719D01*
X152398836Y-80660042D01*
X152393852Y-80729734D01*
X152365351Y-80774081D01*
X152271689Y-80867742D01*
X152179587Y-81017063D01*
X152179585Y-81017068D01*
X152158677Y-81080165D01*
X152124401Y-81183603D01*
X152124401Y-81183604D01*
X152124400Y-81183604D01*
X152113900Y-81286383D01*
X152113900Y-81482500D01*
X152094215Y-81549539D01*
X152041411Y-81595294D01*
X151989900Y-81606500D01*
X151794943Y-81606500D01*
X151727904Y-81586815D01*
X151682149Y-81534011D01*
X151672004Y-81498684D01*
X151659045Y-81400245D01*
X151659044Y-81400244D01*
X151659044Y-81400238D01*
X151598536Y-81254159D01*
X151502282Y-81128718D01*
X151502280Y-81128717D01*
X151502280Y-81128716D01*
X151376841Y-81032464D01*
X151376836Y-81032461D01*
X151370235Y-81029727D01*
X151315831Y-80985886D01*
X151293766Y-80919592D01*
X151299757Y-80876846D01*
X151301812Y-80870521D01*
X151322174Y-80807856D01*
X151341960Y-80619600D01*
X151322174Y-80431344D01*
X151263679Y-80251316D01*
X151169033Y-80087384D01*
X151112051Y-80024099D01*
X151081821Y-79961109D01*
X151085124Y-79906535D01*
X151098076Y-79861958D01*
X151101000Y-79824803D01*
X151100999Y-79382398D01*
X151098076Y-79345242D01*
X151051870Y-79186200D01*
X150972344Y-79051730D01*
X150967565Y-79043649D01*
X150967558Y-79043640D01*
X150850459Y-78926541D01*
X150850450Y-78926534D01*
X150712110Y-78844720D01*
X150707900Y-78842230D01*
X150707899Y-78842229D01*
X150707898Y-78842229D01*
X150707895Y-78842228D01*
X150548862Y-78796024D01*
X150548856Y-78796023D01*
X150511710Y-78793100D01*
X150511703Y-78793100D01*
X150381500Y-78793100D01*
X150314461Y-78773415D01*
X150268706Y-78720611D01*
X150257500Y-78669100D01*
X150257500Y-77755499D01*
X150266749Y-77724000D01*
X153416000Y-77724000D01*
X153416000Y-77631499D01*
X153557500Y-77631499D01*
X153624539Y-77651183D01*
G37*
G04 #@! TD.AperFunction*
G04 #@! TA.AperFunction,Conductor*
G36*
X144924700Y-78151488D02*
G01*
X144930746Y-78218026D01*
X144930748Y-78218033D01*
X144978465Y-78371166D01*
X144978467Y-78371169D01*
X145016344Y-78433826D01*
X145016419Y-78433949D01*
X145034255Y-78501504D01*
X145016420Y-78562247D01*
X144978466Y-78625031D01*
X144978465Y-78625033D01*
X144930748Y-78778165D01*
X144929125Y-78796023D01*
X144924927Y-78842228D01*
X144924700Y-78844721D01*
X144924700Y-79346488D01*
X144930746Y-79413026D01*
X144930748Y-79413033D01*
X144978465Y-79566166D01*
X144978467Y-79566170D01*
X145061442Y-79703429D01*
X145061445Y-79703432D01*
X145061447Y-79703435D01*
X145083382Y-79725370D01*
X145116866Y-79786689D01*
X145119700Y-79813049D01*
X145119700Y-80312846D01*
X145100015Y-80379885D01*
X145083381Y-80400527D01*
X144563726Y-80920181D01*
X144502403Y-80953666D01*
X144476045Y-80956500D01*
X144034636Y-80956500D01*
X143917246Y-80971953D01*
X143917237Y-80971956D01*
X143771158Y-81032464D01*
X143743882Y-81053393D01*
X143678712Y-81078585D01*
X143610267Y-81064545D01*
X143595513Y-81055333D01*
X143454734Y-80953051D01*
X143454729Y-80953048D01*
X143320496Y-80893283D01*
X143267259Y-80848033D01*
X143247611Y-80792964D01*
X143245996Y-80777593D01*
X143241959Y-80739184D01*
X143183464Y-80559156D01*
X143088818Y-80395224D01*
X142978697Y-80272923D01*
X142948468Y-80209933D01*
X142957093Y-80140598D01*
X142963455Y-80127962D01*
X142965579Y-80124284D01*
X143024074Y-79944256D01*
X143043860Y-79756000D01*
X143024074Y-79567744D01*
X142965579Y-79387716D01*
X142870933Y-79223784D01*
X142744271Y-79083112D01*
X142726974Y-79070545D01*
X142591134Y-78971851D01*
X142591129Y-78971848D01*
X142463684Y-78915105D01*
X142410447Y-78869855D01*
X142390126Y-78803005D01*
X142409172Y-78735782D01*
X142461538Y-78689527D01*
X142530599Y-78678926D01*
X142548720Y-78682751D01*
X142551223Y-78683478D01*
X142551222Y-78683478D01*
X142588342Y-78686399D01*
X142588358Y-78686400D01*
X142617000Y-78686400D01*
X142617000Y-78126400D01*
X143117000Y-78126400D01*
X143117000Y-78686400D01*
X143145642Y-78686400D01*
X143145657Y-78686399D01*
X143182777Y-78683478D01*
X143182783Y-78683477D01*
X143341694Y-78637308D01*
X143341697Y-78637307D01*
X143484142Y-78553066D01*
X143484150Y-78553060D01*
X143601160Y-78436050D01*
X143601166Y-78436042D01*
X143685407Y-78293597D01*
X143685409Y-78293594D01*
X143731578Y-78134681D01*
X143732230Y-78126400D01*
X143117000Y-78126400D01*
X142617000Y-78126400D01*
X142617000Y-77724000D01*
X144924700Y-77724000D01*
X144924700Y-78151488D01*
G37*
G04 #@! TD.AperFunction*
G04 #@! TA.AperFunction,Conductor*
G36*
X141078659Y-78521585D02*
G01*
X141099301Y-78538219D01*
X141114540Y-78553458D01*
X141114544Y-78553461D01*
X141114546Y-78553463D01*
X141257100Y-78637770D01*
X141299041Y-78649955D01*
X141416137Y-78683975D01*
X141416140Y-78683975D01*
X141416142Y-78683976D01*
X141453297Y-78686900D01*
X141742302Y-78686899D01*
X141809340Y-78706583D01*
X141855095Y-78759387D01*
X141865039Y-78828546D01*
X141836014Y-78892101D01*
X141792738Y-78924178D01*
X141749865Y-78943267D01*
X141686949Y-78971279D01*
X141636514Y-78982000D01*
X139319249Y-78982000D01*
X139252210Y-78962315D01*
X139206455Y-78909511D01*
X139196511Y-78840353D01*
X139225536Y-78776797D01*
X139231568Y-78770319D01*
X139265249Y-78736639D01*
X139463668Y-78538219D01*
X139524992Y-78504734D01*
X139551350Y-78501900D01*
X141011620Y-78501900D01*
X141078659Y-78521585D01*
G37*
G04 #@! TD.AperFunction*
G04 #@! TA.AperFunction,Conductor*
G36*
X125437668Y-77792985D02*
G01*
X125458310Y-77809619D01*
X125869510Y-78220819D01*
X125902995Y-78282142D01*
X125898011Y-78351834D01*
X125856139Y-78407767D01*
X125790675Y-78432184D01*
X125781829Y-78432500D01*
X124275537Y-78432500D01*
X124259920Y-78430776D01*
X124259893Y-78431062D01*
X124252131Y-78430327D01*
X124183971Y-78432469D01*
X124182024Y-78432500D01*
X124153450Y-78432500D01*
X124152729Y-78432590D01*
X124146557Y-78433369D01*
X124140745Y-78433826D01*
X124094172Y-78435290D01*
X124094169Y-78435291D01*
X124074926Y-78440881D01*
X124055883Y-78444825D01*
X124036004Y-78447336D01*
X124036003Y-78447337D01*
X123992678Y-78464490D01*
X123987152Y-78466382D01*
X123942408Y-78479383D01*
X123942404Y-78479385D01*
X123925165Y-78489580D01*
X123907698Y-78498137D01*
X123889074Y-78505511D01*
X123889061Y-78505518D01*
X123884102Y-78509121D01*
X123818295Y-78532598D01*
X123811221Y-78532800D01*
X123343400Y-78532800D01*
X123276361Y-78513115D01*
X123230606Y-78460311D01*
X123219400Y-78408800D01*
X123219400Y-78156800D01*
X123239085Y-78089761D01*
X123291889Y-78044006D01*
X123343400Y-78032800D01*
X124279400Y-78032800D01*
X124279400Y-78004157D01*
X124279399Y-78004142D01*
X124276478Y-77967022D01*
X124276477Y-77967019D01*
X124266273Y-77931896D01*
X124266472Y-77862027D01*
X124304413Y-77803356D01*
X124368052Y-77774512D01*
X124385349Y-77773300D01*
X125370629Y-77773300D01*
X125437668Y-77792985D01*
G37*
G04 #@! TD.AperFunction*
G04 #@! TA.AperFunction,Conductor*
G36*
X129170522Y-77764792D02*
G01*
X129107502Y-77782000D01*
X129009953Y-77782000D01*
X128942914Y-77762315D01*
X128922272Y-77745681D01*
X128900591Y-77724000D01*
X129208681Y-77724000D01*
X129170522Y-77764792D01*
G37*
G04 #@! TD.AperFunction*
G04 #@! TA.AperFunction,Conductor*
G36*
X138377782Y-70553070D02*
G01*
X138360514Y-70616191D01*
X138309411Y-70702601D01*
X138309410Y-70702604D01*
X138263206Y-70861637D01*
X138263205Y-70861643D01*
X138260282Y-70898789D01*
X138260282Y-71341190D01*
X138260283Y-71341215D01*
X138263205Y-71378354D01*
X138309412Y-71537400D01*
X138357490Y-71618695D01*
X138374758Y-71681816D01*
X138374758Y-71958011D01*
X138359772Y-72011768D01*
X138361603Y-72012592D01*
X138358523Y-72019433D01*
X138310806Y-72172565D01*
X138304758Y-72239121D01*
X138304758Y-72790888D01*
X138310804Y-72857426D01*
X138310806Y-72857433D01*
X138358523Y-73010566D01*
X138366253Y-73023353D01*
X138384087Y-73090909D01*
X138366253Y-73151647D01*
X138358523Y-73164433D01*
X138310806Y-73317565D01*
X138304758Y-73384121D01*
X138304758Y-73935888D01*
X138310804Y-74002426D01*
X138310806Y-74002433D01*
X138313445Y-74010902D01*
X138314597Y-74080762D01*
X138282742Y-74135473D01*
X138246817Y-74171398D01*
X138246817Y-75107398D01*
X138227132Y-75174437D01*
X138174328Y-75220192D01*
X138122817Y-75231398D01*
X137141277Y-75231398D01*
X137139240Y-75230800D01*
X136576800Y-75230800D01*
X136509761Y-75211115D01*
X136464006Y-75158311D01*
X136452800Y-75106800D01*
X136452800Y-74160800D01*
X136952800Y-74160800D01*
X136952800Y-74730800D01*
X137548340Y-74730800D01*
X137550377Y-74731398D01*
X137746817Y-74731398D01*
X137746817Y-74171398D01*
X137718159Y-74171398D01*
X137681039Y-74174319D01*
X137681033Y-74174320D01*
X137522122Y-74220489D01*
X137522121Y-74220489D01*
X137414531Y-74284117D01*
X137346807Y-74301299D01*
X137287262Y-74283501D01*
X137173163Y-74214526D01*
X137173159Y-74214524D01*
X137020142Y-74166843D01*
X137020143Y-74166843D01*
X136953637Y-74160800D01*
X136952800Y-74160800D01*
X136452800Y-74160800D01*
X136451963Y-74160800D01*
X136385459Y-74166843D01*
X136294189Y-74195283D01*
X136224329Y-74196433D01*
X136164937Y-74159632D01*
X136134869Y-74096563D01*
X136133300Y-74076897D01*
X136133300Y-73411337D01*
X136135024Y-73395723D01*
X136134738Y-73395696D01*
X136135472Y-73387933D01*
X136133331Y-73319771D01*
X136133300Y-73317824D01*
X136133300Y-73289251D01*
X136133300Y-73289250D01*
X136132429Y-73282359D01*
X136131972Y-73276545D01*
X136130509Y-73229972D01*
X136124922Y-73210744D01*
X136120974Y-73191684D01*
X136119898Y-73183166D01*
X136118464Y-73171808D01*
X136101307Y-73128475D01*
X136099419Y-73122959D01*
X136086419Y-73078212D01*
X136076218Y-73060963D01*
X136067660Y-73043494D01*
X136060286Y-73024868D01*
X136060283Y-73024864D01*
X136060283Y-73024863D01*
X136032898Y-72987171D01*
X136029690Y-72982287D01*
X136005972Y-72942182D01*
X136005963Y-72942171D01*
X135991805Y-72928013D01*
X135979170Y-72913220D01*
X135967393Y-72897012D01*
X135931493Y-72867313D01*
X135927181Y-72863390D01*
X135157002Y-72093211D01*
X135147180Y-72080950D01*
X135146959Y-72081134D01*
X135141986Y-72075122D01*
X135092266Y-72028432D01*
X135090866Y-72027075D01*
X135070676Y-72006884D01*
X135065186Y-72002625D01*
X135060761Y-71998847D01*
X135026782Y-71966938D01*
X135026780Y-71966936D01*
X135026777Y-71966935D01*
X135009229Y-71957288D01*
X134992963Y-71946604D01*
X134977133Y-71934325D01*
X134934368Y-71915818D01*
X134929122Y-71913248D01*
X134888293Y-71890803D01*
X134888292Y-71890802D01*
X134868893Y-71885822D01*
X134850481Y-71879518D01*
X134832098Y-71871562D01*
X134832092Y-71871560D01*
X134786074Y-71864272D01*
X134780352Y-71863087D01*
X134735221Y-71851500D01*
X134735219Y-71851500D01*
X134715184Y-71851500D01*
X134695786Y-71849973D01*
X134688362Y-71848797D01*
X134676005Y-71846840D01*
X134676004Y-71846840D01*
X134629616Y-71851225D01*
X134623778Y-71851500D01*
X125363159Y-71851500D01*
X125313910Y-71841300D01*
X125267968Y-71821418D01*
X125262722Y-71818848D01*
X125221893Y-71796403D01*
X125221892Y-71796402D01*
X125202493Y-71791422D01*
X125184081Y-71785118D01*
X125165698Y-71777162D01*
X125165692Y-71777160D01*
X125119674Y-71769872D01*
X125113952Y-71768687D01*
X125068821Y-71757100D01*
X125068819Y-71757100D01*
X125048784Y-71757100D01*
X125029386Y-71755573D01*
X125021962Y-71754397D01*
X125009605Y-71752440D01*
X125009604Y-71752440D01*
X124963216Y-71756825D01*
X124957378Y-71757100D01*
X121654537Y-71757100D01*
X121638920Y-71755376D01*
X121638893Y-71755662D01*
X121631131Y-71754927D01*
X121562971Y-71757069D01*
X121561024Y-71757100D01*
X121532450Y-71757100D01*
X121531729Y-71757190D01*
X121525557Y-71757969D01*
X121519745Y-71758426D01*
X121473173Y-71759890D01*
X121473172Y-71759890D01*
X121453929Y-71765481D01*
X121434879Y-71769425D01*
X121415011Y-71771934D01*
X121415009Y-71771935D01*
X121371684Y-71789088D01*
X121366157Y-71790980D01*
X121321410Y-71803981D01*
X121321409Y-71803982D01*
X121304167Y-71814179D01*
X121286699Y-71822737D01*
X121268069Y-71830113D01*
X121268067Y-71830114D01*
X121230376Y-71857498D01*
X121225494Y-71860705D01*
X121185379Y-71884430D01*
X121171208Y-71898600D01*
X121156423Y-71911228D01*
X121140212Y-71923007D01*
X121110509Y-71958910D01*
X121106577Y-71963231D01*
X120949026Y-72120781D01*
X120887703Y-72154266D01*
X120861345Y-72157100D01*
X119548929Y-72157100D01*
X119548923Y-72157101D01*
X119489316Y-72163508D01*
X119354471Y-72213802D01*
X119354464Y-72213806D01*
X119239255Y-72300052D01*
X119239252Y-72300055D01*
X119153006Y-72415264D01*
X119153002Y-72415271D01*
X119102708Y-72550117D01*
X119096301Y-72609716D01*
X119096300Y-72609735D01*
X119096300Y-74405470D01*
X119096301Y-74405476D01*
X119102708Y-74465083D01*
X119153002Y-74599928D01*
X119153006Y-74599935D01*
X119239252Y-74715144D01*
X119239255Y-74715147D01*
X119354464Y-74801393D01*
X119354471Y-74801397D01*
X119489317Y-74851691D01*
X119489316Y-74851691D01*
X119496244Y-74852435D01*
X119548927Y-74858100D01*
X121344672Y-74858099D01*
X121404283Y-74851691D01*
X121539131Y-74801396D01*
X121654346Y-74715146D01*
X121740596Y-74599931D01*
X121789610Y-74468516D01*
X121831481Y-74412584D01*
X121896945Y-74388166D01*
X121965218Y-74403017D01*
X121993473Y-74424169D01*
X122115399Y-74546095D01*
X122212184Y-74613864D01*
X122308965Y-74681632D01*
X122308967Y-74681633D01*
X122308970Y-74681635D01*
X122523137Y-74781503D01*
X122751392Y-74842663D01*
X122927834Y-74858100D01*
X122986799Y-74863259D01*
X122986800Y-74863259D01*
X122986801Y-74863259D01*
X123045766Y-74858100D01*
X123222208Y-74842663D01*
X123450463Y-74781503D01*
X123664630Y-74681635D01*
X123858201Y-74546095D01*
X124025295Y-74379001D01*
X124160451Y-74185977D01*
X124215029Y-74142352D01*
X124262027Y-74133100D01*
X128176227Y-74133100D01*
X128243266Y-74152785D01*
X128289021Y-74205589D01*
X128298965Y-74274747D01*
X128269940Y-74338303D01*
X128263908Y-74344781D01*
X128238339Y-74370349D01*
X128238333Y-74370357D01*
X128154092Y-74512802D01*
X128154090Y-74512805D01*
X128107921Y-74671718D01*
X128107270Y-74680000D01*
X128921547Y-74680000D01*
X128988586Y-74699685D01*
X129009228Y-74716319D01*
X129186182Y-74893273D01*
X129219666Y-74954594D01*
X129222500Y-74980952D01*
X129222500Y-77010000D01*
X129232890Y-77010000D01*
X129299929Y-77029685D01*
X129345684Y-77082489D01*
X129355628Y-77151647D01*
X129340278Y-77195998D01*
X129319946Y-77231215D01*
X129306723Y-77254118D01*
X129306721Y-77254122D01*
X129248230Y-77434140D01*
X129248229Y-77434144D01*
X129228901Y-77618042D01*
X129228443Y-77622400D01*
X129239121Y-77724000D01*
X128900591Y-77724000D01*
X128354818Y-77178226D01*
X128321333Y-77116903D01*
X128318499Y-77090545D01*
X128318499Y-77072087D01*
X128338184Y-77005048D01*
X128390988Y-76959293D01*
X128460146Y-76949349D01*
X128491755Y-76958290D01*
X128497805Y-76960909D01*
X128656716Y-77007077D01*
X128656722Y-77007078D01*
X128693842Y-77009999D01*
X128693858Y-77010000D01*
X128722500Y-77010000D01*
X128722500Y-76450000D01*
X128189000Y-76450000D01*
X128121961Y-76430315D01*
X128076206Y-76377511D01*
X128066390Y-76332390D01*
X128065000Y-76331000D01*
X126698000Y-76331000D01*
X126698000Y-76359657D01*
X126700921Y-76396777D01*
X126700922Y-76396783D01*
X126747091Y-76555694D01*
X126747093Y-76555699D01*
X126764355Y-76584889D01*
X126781536Y-76652613D01*
X126764355Y-76711127D01*
X126746631Y-76741096D01*
X126746628Y-76741104D01*
X126700424Y-76900137D01*
X126700423Y-76900143D01*
X126697500Y-76937289D01*
X126697500Y-76980266D01*
X126677815Y-77047305D01*
X126625011Y-77093060D01*
X126555853Y-77103004D01*
X126492297Y-77073979D01*
X126485819Y-77067947D01*
X126181884Y-76764012D01*
X126172061Y-76751750D01*
X126171840Y-76751934D01*
X126166867Y-76745922D01*
X126117147Y-76699232D01*
X126115747Y-76697875D01*
X126095557Y-76677684D01*
X126090067Y-76673425D01*
X126085642Y-76669647D01*
X126051663Y-76637738D01*
X126051661Y-76637736D01*
X126051658Y-76637735D01*
X126034110Y-76628088D01*
X126017844Y-76617404D01*
X126002014Y-76605125D01*
X125959249Y-76586618D01*
X125954003Y-76584048D01*
X125913174Y-76561603D01*
X125913173Y-76561602D01*
X125893774Y-76556622D01*
X125875362Y-76550318D01*
X125856979Y-76542362D01*
X125856973Y-76542360D01*
X125810955Y-76535072D01*
X125805233Y-76533887D01*
X125760102Y-76522300D01*
X125760100Y-76522300D01*
X125740065Y-76522300D01*
X125720667Y-76520773D01*
X125713243Y-76519597D01*
X125700886Y-76517640D01*
X125700885Y-76517640D01*
X125654497Y-76522025D01*
X125648659Y-76522300D01*
X124189779Y-76522300D01*
X124122740Y-76502615D01*
X124102102Y-76485985D01*
X124029354Y-76413237D01*
X124029353Y-76413236D01*
X124029350Y-76413234D01*
X123911781Y-76343704D01*
X123886800Y-76328930D01*
X123886799Y-76328929D01*
X123886798Y-76328929D01*
X123886795Y-76328928D01*
X123727762Y-76282724D01*
X123727756Y-76282723D01*
X123690603Y-76279800D01*
X123248209Y-76279800D01*
X123248184Y-76279801D01*
X123211045Y-76282723D01*
X123051998Y-76328930D01*
X123027017Y-76343704D01*
X122959292Y-76360885D01*
X122893030Y-76338724D01*
X122849268Y-76284258D01*
X122839899Y-76236974D01*
X122839899Y-76185928D01*
X122833491Y-76126317D01*
X122828652Y-76113344D01*
X122783197Y-75991471D01*
X122783193Y-75991464D01*
X122696947Y-75876255D01*
X122696944Y-75876252D01*
X122636496Y-75831000D01*
X126698000Y-75831000D01*
X127258000Y-75831000D01*
X127758000Y-75831000D01*
X128234000Y-75831000D01*
X128301039Y-75850685D01*
X128346794Y-75903489D01*
X128356609Y-75948609D01*
X128358000Y-75950000D01*
X128722500Y-75950000D01*
X128722500Y-75180000D01*
X128107270Y-75180000D01*
X128092971Y-75195467D01*
X128089896Y-75210114D01*
X128040847Y-75259873D01*
X127972683Y-75275215D01*
X127931395Y-75265274D01*
X127925194Y-75262591D01*
X127766280Y-75216421D01*
X127766281Y-75216421D01*
X127758000Y-75215769D01*
X127758000Y-75831000D01*
X127258000Y-75831000D01*
X127258000Y-75215769D01*
X127249718Y-75216421D01*
X127090805Y-75262590D01*
X127090802Y-75262592D01*
X126948357Y-75346833D01*
X126948349Y-75346839D01*
X126831339Y-75463849D01*
X126831333Y-75463857D01*
X126747092Y-75606302D01*
X126747091Y-75606305D01*
X126700922Y-75765216D01*
X126700921Y-75765222D01*
X126698000Y-75802342D01*
X126698000Y-75831000D01*
X122636496Y-75831000D01*
X122581735Y-75790006D01*
X122581728Y-75790002D01*
X122446882Y-75739708D01*
X122446883Y-75739708D01*
X122387283Y-75733301D01*
X122387281Y-75733300D01*
X122387273Y-75733300D01*
X122387264Y-75733300D01*
X120191529Y-75733300D01*
X120191523Y-75733301D01*
X120131916Y-75739708D01*
X119997071Y-75790002D01*
X119997069Y-75790004D01*
X119913294Y-75852718D01*
X119847830Y-75877135D01*
X119779557Y-75862284D01*
X119764672Y-75852718D01*
X119681488Y-75790446D01*
X119681486Y-75790445D01*
X119546779Y-75740203D01*
X119546772Y-75740201D01*
X119487244Y-75733800D01*
X118639400Y-75733800D01*
X118639400Y-77259800D01*
X118619715Y-77326839D01*
X118566911Y-77372594D01*
X118515400Y-77383800D01*
X116840000Y-77383800D01*
X116840000Y-76883800D01*
X118139400Y-76883800D01*
X118139400Y-75733800D01*
X117291555Y-75733800D01*
X117232027Y-75740201D01*
X117232020Y-75740203D01*
X117097313Y-75790445D01*
X117097306Y-75790449D01*
X116982212Y-75876609D01*
X116982209Y-75876612D01*
X116896049Y-75991706D01*
X116896045Y-75991713D01*
X116845803Y-76126420D01*
X116845801Y-76126427D01*
X116840000Y-76180375D01*
X116840000Y-69596000D01*
X138377782Y-69596000D01*
X138377782Y-70553070D01*
G37*
G04 #@! TD.AperFunction*
G04 #@! TA.AperFunction,Conductor*
G36*
X153416000Y-72130500D02*
G01*
X153384130Y-72130500D01*
X153384123Y-72130501D01*
X153324516Y-72136908D01*
X153189671Y-72187202D01*
X153189664Y-72187206D01*
X153074455Y-72273452D01*
X153074452Y-72273455D01*
X152988206Y-72388664D01*
X152988202Y-72388671D01*
X152937908Y-72523517D01*
X152931501Y-72583116D01*
X152931501Y-72583123D01*
X152931500Y-72583135D01*
X152931500Y-73778870D01*
X152931501Y-73778876D01*
X152937908Y-73838483D01*
X152991303Y-73981641D01*
X152989575Y-73982285D01*
X153002095Y-74039853D01*
X152990310Y-74079988D01*
X152991303Y-74080359D01*
X152937908Y-74223517D01*
X152932401Y-74274747D01*
X152931501Y-74283123D01*
X152931500Y-74283135D01*
X152931500Y-75478870D01*
X152931501Y-75478876D01*
X152937908Y-75538483D01*
X152991303Y-75681641D01*
X152989575Y-75682285D01*
X153002095Y-75739853D01*
X152990310Y-75779988D01*
X152991303Y-75780359D01*
X152937908Y-75923517D01*
X152931501Y-75983116D01*
X152931501Y-75983123D01*
X152931500Y-75983135D01*
X152931500Y-77178870D01*
X152931501Y-77178876D01*
X152937908Y-77238483D01*
X152988202Y-77373328D01*
X152988206Y-77373335D01*
X153074452Y-77488544D01*
X153074455Y-77488547D01*
X153189664Y-77574793D01*
X153189671Y-77574797D01*
X153234618Y-77591561D01*
X153324517Y-77625091D01*
X153384127Y-77631500D01*
X153416000Y-77631499D01*
X153416000Y-77724000D01*
X150266749Y-77724000D01*
X150277185Y-77688460D01*
X150329989Y-77642705D01*
X150381500Y-77631499D01*
X150679871Y-77631499D01*
X150679872Y-77631499D01*
X150739483Y-77625091D01*
X150874331Y-77574796D01*
X150989546Y-77488546D01*
X151075796Y-77373331D01*
X151126091Y-77238483D01*
X151132500Y-77178873D01*
X151132499Y-75983128D01*
X151126091Y-75923517D01*
X151075796Y-75788669D01*
X151075794Y-75788666D01*
X151072696Y-75780360D01*
X151074424Y-75779715D01*
X151061903Y-75722153D01*
X151073692Y-75682011D01*
X151072696Y-75681640D01*
X151075794Y-75673333D01*
X151075796Y-75673331D01*
X151126091Y-75538483D01*
X151132500Y-75478873D01*
X151132499Y-74283128D01*
X151126091Y-74223517D01*
X151075796Y-74088669D01*
X151075794Y-74088666D01*
X151072696Y-74080360D01*
X151074424Y-74079715D01*
X151061903Y-74022153D01*
X151073692Y-73982011D01*
X151072696Y-73981640D01*
X151075794Y-73973333D01*
X151075796Y-73973331D01*
X151126091Y-73838483D01*
X151132500Y-73778873D01*
X151132499Y-72583128D01*
X151126091Y-72523517D01*
X151085715Y-72415264D01*
X151075797Y-72388671D01*
X151075793Y-72388664D01*
X150989547Y-72273455D01*
X150989544Y-72273452D01*
X150874335Y-72187206D01*
X150874328Y-72187202D01*
X150739482Y-72136908D01*
X150739483Y-72136908D01*
X150679883Y-72130501D01*
X150679881Y-72130500D01*
X150679873Y-72130500D01*
X150679864Y-72130500D01*
X148584129Y-72130500D01*
X148584123Y-72130501D01*
X148524516Y-72136908D01*
X148389671Y-72187202D01*
X148389664Y-72187206D01*
X148274455Y-72273452D01*
X148274452Y-72273455D01*
X148188206Y-72388664D01*
X148188202Y-72388671D01*
X148137908Y-72523517D01*
X148131501Y-72583116D01*
X148131501Y-72583123D01*
X148131500Y-72583135D01*
X148131500Y-73778870D01*
X148131501Y-73778876D01*
X148137908Y-73838483D01*
X148191303Y-73981641D01*
X148189575Y-73982285D01*
X148202095Y-74039853D01*
X148190310Y-74079988D01*
X148191303Y-74080359D01*
X148137908Y-74223517D01*
X148132401Y-74274747D01*
X148131501Y-74283123D01*
X148131500Y-74283135D01*
X148131500Y-75478870D01*
X148131501Y-75478876D01*
X148137908Y-75538483D01*
X148191303Y-75681641D01*
X148189575Y-75682285D01*
X148202095Y-75739853D01*
X148190310Y-75779986D01*
X148191304Y-75780357D01*
X148184041Y-75799831D01*
X148142170Y-75855766D01*
X148076706Y-75880184D01*
X148067858Y-75880500D01*
X147087837Y-75880500D01*
X147084093Y-75880387D01*
X147022197Y-75876643D01*
X147022190Y-75876643D01*
X146961202Y-75887819D01*
X146957501Y-75888382D01*
X146895925Y-75895860D01*
X146886442Y-75899456D01*
X146864838Y-75905478D01*
X146863335Y-75905754D01*
X146854865Y-75907306D01*
X146798322Y-75932754D01*
X146794863Y-75934187D01*
X146758667Y-75947915D01*
X146736870Y-75956182D01*
X146736868Y-75956183D01*
X146736866Y-75956184D01*
X146736861Y-75956186D01*
X146728522Y-75961942D01*
X146708990Y-75972959D01*
X146699746Y-75977120D01*
X146699744Y-75977121D01*
X146699743Y-75977122D01*
X146670044Y-76000388D01*
X146650924Y-76015368D01*
X146647909Y-76017586D01*
X146596868Y-76052818D01*
X146555742Y-76099240D01*
X146553175Y-76101966D01*
X145648860Y-77006281D01*
X145587537Y-77039766D01*
X145561183Y-77042600D01*
X145531822Y-77042600D01*
X145531819Y-77042601D01*
X145465274Y-77048646D01*
X145465266Y-77048648D01*
X145312133Y-77096365D01*
X145312129Y-77096367D01*
X145174870Y-77179342D01*
X145174865Y-77179346D01*
X145061446Y-77292765D01*
X145061442Y-77292770D01*
X144978467Y-77430029D01*
X144978465Y-77430033D01*
X144930748Y-77583165D01*
X144930747Y-77583167D01*
X144930748Y-77583167D01*
X144925338Y-77642705D01*
X144924700Y-77649721D01*
X144924700Y-77724000D01*
X142617000Y-77724000D01*
X142617000Y-77066400D01*
X143117000Y-77066400D01*
X143117000Y-77626400D01*
X143732230Y-77626400D01*
X143731578Y-77618118D01*
X143685409Y-77459205D01*
X143685407Y-77459202D01*
X143601166Y-77316757D01*
X143601160Y-77316749D01*
X143484150Y-77199739D01*
X143484142Y-77199733D01*
X143341697Y-77115492D01*
X143341694Y-77115491D01*
X143182783Y-77069322D01*
X143182777Y-77069321D01*
X143145657Y-77066400D01*
X143117000Y-77066400D01*
X142617000Y-77066400D01*
X142588342Y-77066400D01*
X142551222Y-77069321D01*
X142551216Y-77069322D01*
X142392304Y-77115491D01*
X142392300Y-77115493D01*
X142363109Y-77132756D01*
X142295384Y-77149936D01*
X142236869Y-77132754D01*
X142207679Y-77115491D01*
X142206900Y-77115030D01*
X142206899Y-77115029D01*
X142206898Y-77115029D01*
X142206895Y-77115028D01*
X142047862Y-77068824D01*
X142047856Y-77068823D01*
X142010703Y-77065900D01*
X141453309Y-77065900D01*
X141453284Y-77065901D01*
X141416145Y-77068823D01*
X141257099Y-77115030D01*
X141114549Y-77199334D01*
X141114540Y-77199341D01*
X141099301Y-77214581D01*
X141037978Y-77248066D01*
X141011620Y-77250900D01*
X140006317Y-77250900D01*
X139939278Y-77231215D01*
X139893523Y-77178411D01*
X139882317Y-77126900D01*
X139882317Y-75548327D01*
X139899585Y-75485205D01*
X139903330Y-75478873D01*
X139950687Y-75398798D01*
X139990799Y-75260733D01*
X139996892Y-75239760D01*
X139996893Y-75239754D01*
X139997598Y-75230800D01*
X139999817Y-75202601D01*
X139999816Y-74760196D01*
X139996893Y-74723040D01*
X139950687Y-74563998D01*
X139899585Y-74477589D01*
X139882317Y-74414468D01*
X139882317Y-74203682D01*
X139891023Y-74163125D01*
X139889759Y-74162731D01*
X139891991Y-74155569D01*
X139939710Y-74002433D01*
X139945758Y-73935881D01*
X139945757Y-73384120D01*
X139945757Y-73384119D01*
X139945757Y-73384111D01*
X139939711Y-73317573D01*
X139939710Y-73317570D01*
X139939710Y-73317567D01*
X139906423Y-73210744D01*
X139891992Y-73164433D01*
X139891991Y-73164431D01*
X139884265Y-73151651D01*
X139866428Y-73084096D01*
X139884265Y-73023349D01*
X139891991Y-73010569D01*
X139939710Y-72857433D01*
X139945758Y-72790881D01*
X139945757Y-72239120D01*
X139945757Y-72239119D01*
X139945757Y-72239111D01*
X139939711Y-72172574D01*
X139939710Y-72172572D01*
X139939710Y-72172567D01*
X139914257Y-72090888D01*
X139913108Y-72021030D01*
X139949909Y-71961637D01*
X140010560Y-71932721D01*
X140013282Y-71930000D01*
X140013282Y-71370000D01*
X140513282Y-71370000D01*
X140513282Y-71930000D01*
X140541924Y-71930000D01*
X140541939Y-71929999D01*
X140579059Y-71927078D01*
X140579065Y-71927077D01*
X140737976Y-71880908D01*
X140737979Y-71880907D01*
X140880424Y-71796666D01*
X140880432Y-71796660D01*
X140997442Y-71679650D01*
X140997448Y-71679642D01*
X141081689Y-71537197D01*
X141081691Y-71537194D01*
X141127860Y-71378281D01*
X141128512Y-71370000D01*
X140513282Y-71370000D01*
X140013282Y-71370000D01*
X140013282Y-70310000D01*
X140513282Y-70310000D01*
X140513282Y-70870000D01*
X141128512Y-70870000D01*
X141127860Y-70861718D01*
X141081691Y-70702805D01*
X141081689Y-70702802D01*
X140997448Y-70560357D01*
X140997442Y-70560349D01*
X140880432Y-70443339D01*
X140880424Y-70443333D01*
X140737979Y-70359092D01*
X140737976Y-70359091D01*
X140579065Y-70312922D01*
X140579059Y-70312921D01*
X140541939Y-70310000D01*
X140513282Y-70310000D01*
X140013282Y-70310000D01*
X140002782Y-70310000D01*
X139935743Y-70290315D01*
X139889988Y-70237511D01*
X139878782Y-70186000D01*
X139878782Y-69596000D01*
X153416000Y-69596000D01*
X153416000Y-72130500D01*
G37*
G04 #@! TD.AperFunction*
G04 #@! TA.AperFunction,Conductor*
G36*
X148134898Y-77301185D02*
G01*
X148180653Y-77353989D01*
X148184030Y-77362140D01*
X148188204Y-77373331D01*
X148188205Y-77373332D01*
X148188206Y-77373335D01*
X148274452Y-77488544D01*
X148274455Y-77488547D01*
X148389664Y-77574793D01*
X148389671Y-77574797D01*
X148434618Y-77591560D01*
X148524517Y-77625091D01*
X148584127Y-77631500D01*
X148882500Y-77631499D01*
X148949539Y-77651183D01*
X148995294Y-77703987D01*
X148999648Y-77724000D01*
X146912456Y-77724000D01*
X146968944Y-77667513D01*
X147318637Y-77317819D01*
X147379961Y-77284334D01*
X147406319Y-77281500D01*
X148067859Y-77281500D01*
X148134898Y-77301185D01*
G37*
G04 #@! TD.AperFunction*
M02*
