G04 #@! TF.GenerationSoftware,KiCad,Pcbnew,7.0.5-7.0.5~ubuntu22.04.1*
G04 #@! TF.CreationDate,2023-06-05T00:28:07-04:00*
G04 #@! TF.ProjectId,reaction-trainer,72656163-7469-46f6-9e2d-747261696e65,1.0*
G04 #@! TF.SameCoordinates,Original*
G04 #@! TF.FileFunction,Paste,Top*
G04 #@! TF.FilePolarity,Positive*
%FSLAX46Y46*%
G04 Gerber Fmt 4.6, Leading zero omitted, Abs format (unit mm)*
G04 Created by KiCad (PCBNEW 7.0.5-7.0.5~ubuntu22.04.1) date 2023-06-05 00:28:07*
%MOMM*%
%LPD*%
G01*
G04 APERTURE LIST*
G04 Aperture macros list*
%AMRoundRect*
0 Rectangle with rounded corners*
0 $1 Rounding radius*
0 $2 $3 $4 $5 $6 $7 $8 $9 X,Y pos of 4 corners*
0 Add a 4 corners polygon primitive as box body*
4,1,4,$2,$3,$4,$5,$6,$7,$8,$9,$2,$3,0*
0 Add four circle primitives for the rounded corners*
1,1,$1+$1,$2,$3*
1,1,$1+$1,$4,$5*
1,1,$1+$1,$6,$7*
1,1,$1+$1,$8,$9*
0 Add four rect primitives between the rounded corners*
20,1,$1+$1,$2,$3,$4,$5,0*
20,1,$1+$1,$4,$5,$6,$7,0*
20,1,$1+$1,$6,$7,$8,$9,0*
20,1,$1+$1,$8,$9,$2,$3,0*%
%AMFreePoly0*
4,1,9,3.862500,-0.866500,0.737500,-0.866500,0.737500,-0.450000,-0.737500,-0.450000,-0.737500,0.450000,0.737500,0.450000,0.737500,0.866500,3.862500,0.866500,3.862500,-0.866500,3.862500,-0.866500,$1*%
G04 Aperture macros list end*
%ADD10R,2.100000X1.800000*%
%ADD11RoundRect,0.087500X0.187500X0.087500X-0.187500X0.087500X-0.187500X-0.087500X0.187500X-0.087500X0*%
%ADD12RoundRect,0.087500X0.087500X0.187500X-0.087500X0.187500X-0.087500X-0.187500X0.087500X-0.187500X0*%
%ADD13RoundRect,0.155000X-0.212500X-0.155000X0.212500X-0.155000X0.212500X0.155000X-0.212500X0.155000X0*%
%ADD14RoundRect,0.160000X0.197500X0.160000X-0.197500X0.160000X-0.197500X-0.160000X0.197500X-0.160000X0*%
%ADD15RoundRect,0.155000X0.155000X-0.212500X0.155000X0.212500X-0.155000X0.212500X-0.155000X-0.212500X0*%
%ADD16RoundRect,0.155000X-0.155000X0.212500X-0.155000X-0.212500X0.155000X-0.212500X0.155000X0.212500X0*%
%ADD17RoundRect,0.250000X0.450000X-0.350000X0.450000X0.350000X-0.450000X0.350000X-0.450000X-0.350000X0*%
%ADD18RoundRect,0.160000X-0.197500X-0.160000X0.197500X-0.160000X0.197500X0.160000X-0.197500X0.160000X0*%
%ADD19RoundRect,0.160000X-0.160000X0.197500X-0.160000X-0.197500X0.160000X-0.197500X0.160000X0.197500X0*%
%ADD20RoundRect,0.155000X0.212500X0.155000X-0.212500X0.155000X-0.212500X-0.155000X0.212500X-0.155000X0*%
%ADD21RoundRect,0.100000X-0.637500X-0.100000X0.637500X-0.100000X0.637500X0.100000X-0.637500X0.100000X0*%
%ADD22RoundRect,0.250000X-0.450000X0.350000X-0.450000X-0.350000X0.450000X-0.350000X0.450000X0.350000X0*%
%ADD23RoundRect,0.160000X-0.160000X0.222500X-0.160000X-0.222500X0.160000X-0.222500X0.160000X0.222500X0*%
%ADD24R,2.000000X1.100000*%
%ADD25R,1.300000X0.900000*%
%ADD26FreePoly0,0.000000*%
%ADD27RoundRect,0.250000X-0.369677X-0.369677X0.369677X-0.369677X0.369677X0.369677X-0.369677X0.369677X0*%
%ADD28RoundRect,0.062500X-0.400000X-0.062500X0.400000X-0.062500X0.400000X0.062500X-0.400000X0.062500X0*%
%ADD29RoundRect,0.062500X-0.062500X-0.400000X0.062500X-0.400000X0.062500X0.400000X-0.062500X0.400000X0*%
%ADD30RoundRect,0.160000X0.160000X-0.197500X0.160000X0.197500X-0.160000X0.197500X-0.160000X-0.197500X0*%
%ADD31RoundRect,0.150000X-0.512500X-0.150000X0.512500X-0.150000X0.512500X0.150000X-0.512500X0.150000X0*%
%ADD32R,0.300000X0.850000*%
%ADD33R,0.400000X1.350000*%
%ADD34R,2.900000X1.900000*%
%ADD35RoundRect,0.150000X0.150000X-0.512500X0.150000X0.512500X-0.150000X0.512500X-0.150000X-0.512500X0*%
G04 APERTURE END LIST*
D10*
X121310400Y-82467800D03*
X118410400Y-82467800D03*
X118410400Y-84767800D03*
X121310400Y-84767800D03*
D11*
X123272000Y-92821000D03*
X123272000Y-92321000D03*
X123272000Y-91821000D03*
X123272000Y-91321000D03*
X123272000Y-90821000D03*
D12*
X122547000Y-90596000D03*
X122047000Y-90596000D03*
X121547000Y-90596000D03*
D11*
X120822000Y-90821000D03*
X120822000Y-91321000D03*
X120822000Y-91821000D03*
X120822000Y-92321000D03*
X120822000Y-92821000D03*
D12*
X121547000Y-93046000D03*
X122047000Y-93046000D03*
X122547000Y-93046000D03*
D13*
X133942200Y-91541600D03*
X135077200Y-91541600D03*
D14*
X132716200Y-87884000D03*
X131521200Y-87884000D03*
D15*
X121513600Y-95826200D03*
X121513600Y-94691200D03*
D16*
X135280400Y-104884600D03*
X135280400Y-106019600D03*
D17*
X155803600Y-82060800D03*
X155803600Y-80060800D03*
D18*
X126719400Y-96316800D03*
X127914400Y-96316800D03*
D19*
X129184400Y-96341000D03*
X129184400Y-97536000D03*
D20*
X133257100Y-101041200D03*
X132122100Y-101041200D03*
D21*
X144711500Y-81657000D03*
X144711500Y-82307000D03*
X144711500Y-82957000D03*
X144711500Y-83607000D03*
X144711500Y-84257000D03*
X144711500Y-84907000D03*
X144711500Y-85557000D03*
X144711500Y-86207000D03*
X144711500Y-86857000D03*
X144711500Y-87507000D03*
X150436500Y-87507000D03*
X150436500Y-86857000D03*
X150436500Y-86207000D03*
X150436500Y-85557000D03*
X150436500Y-84907000D03*
X150436500Y-84257000D03*
X150436500Y-83607000D03*
X150436500Y-82957000D03*
X150436500Y-82307000D03*
X150436500Y-81657000D03*
D14*
X136702800Y-74980800D03*
X135507800Y-74980800D03*
D22*
X153416000Y-89560400D03*
X153416000Y-91560400D03*
X147878800Y-89560400D03*
X147878800Y-91560400D03*
D15*
X126847600Y-110202600D03*
X126847600Y-109067600D03*
D16*
X136296400Y-87307800D03*
X136296400Y-88442800D03*
D23*
X139125258Y-72515000D03*
X139125258Y-73660000D03*
D24*
X154432000Y-76581000D03*
X154432000Y-74881000D03*
X154432000Y-73181000D03*
X149632000Y-73181000D03*
X149632000Y-74881000D03*
X149632000Y-76581000D03*
D10*
X121289400Y-77133800D03*
X118389400Y-77133800D03*
X118389400Y-79433800D03*
X121289400Y-79433800D03*
D19*
X145745200Y-77900600D03*
X145745200Y-79095600D03*
D17*
X158292800Y-82111600D03*
X158292800Y-80111600D03*
D25*
X133279600Y-94867600D03*
D26*
X133367100Y-96367600D03*
D25*
X133279600Y-97867600D03*
D27*
X131670000Y-79395000D03*
X131670000Y-80870000D03*
X131670000Y-82345000D03*
X131670000Y-83820000D03*
X133145000Y-79395000D03*
X133145000Y-80870000D03*
X133145000Y-82345000D03*
X133145000Y-83820000D03*
X134620000Y-79395000D03*
X134620000Y-80870000D03*
X134620000Y-82345000D03*
X134620000Y-83820000D03*
X136095000Y-79395000D03*
X136095000Y-80870000D03*
X136095000Y-82345000D03*
X136095000Y-83820000D03*
D28*
X129995000Y-78407500D03*
X129995000Y-78807500D03*
X129995000Y-79207500D03*
X129995000Y-79607500D03*
X129995000Y-80007500D03*
X129995000Y-80407500D03*
X129995000Y-80807500D03*
X129995000Y-81207500D03*
X129995000Y-81607500D03*
X129995000Y-82007500D03*
X129995000Y-82407500D03*
X129995000Y-82807500D03*
X129995000Y-83207500D03*
X129995000Y-83607500D03*
X129995000Y-84007500D03*
X129995000Y-84407500D03*
X129995000Y-84807500D03*
D29*
X130682500Y-85495000D03*
X131082500Y-85495000D03*
X131482500Y-85495000D03*
X131882500Y-85495000D03*
X132282500Y-85495000D03*
X132682500Y-85495000D03*
X133082500Y-85495000D03*
X133482500Y-85495000D03*
X133882500Y-85495000D03*
X134282500Y-85495000D03*
X134682500Y-85495000D03*
X135082500Y-85495000D03*
X135482500Y-85495000D03*
X135882500Y-85495000D03*
X136282500Y-85495000D03*
X136682500Y-85495000D03*
X137082500Y-85495000D03*
D28*
X137770000Y-84807500D03*
X137770000Y-84407500D03*
X137770000Y-84007500D03*
X137770000Y-83607500D03*
X137770000Y-83207500D03*
X137770000Y-82807500D03*
X137770000Y-82407500D03*
X137770000Y-82007500D03*
X137770000Y-81607500D03*
X137770000Y-81207500D03*
X137770000Y-80807500D03*
X137770000Y-80407500D03*
X137770000Y-80007500D03*
X137770000Y-79607500D03*
X137770000Y-79207500D03*
X137770000Y-78807500D03*
X137770000Y-78407500D03*
D29*
X137082500Y-77720000D03*
X136682500Y-77720000D03*
X136282500Y-77720000D03*
X135882500Y-77720000D03*
X135482500Y-77720000D03*
X135082500Y-77720000D03*
X134682500Y-77720000D03*
X134282500Y-77720000D03*
X133882500Y-77720000D03*
X133482500Y-77720000D03*
X133082500Y-77720000D03*
X132682500Y-77720000D03*
X132282500Y-77720000D03*
X131882500Y-77720000D03*
X131482500Y-77720000D03*
X131082500Y-77720000D03*
X130682500Y-77720000D03*
D15*
X123469400Y-78282800D03*
X123469400Y-77147800D03*
D16*
X115976400Y-77147800D03*
X115976400Y-78282800D03*
X116103400Y-83497800D03*
X116103400Y-84632800D03*
D17*
X153314400Y-81686400D03*
X153314400Y-79686400D03*
D30*
X133553200Y-75464600D03*
X133553200Y-74269600D03*
D20*
X142867000Y-77876400D03*
X141732000Y-77876400D03*
D15*
X122834400Y-95826200D03*
X122834400Y-94691200D03*
D16*
X127508000Y-76081000D03*
X127508000Y-77216000D03*
D20*
X139131817Y-74981398D03*
X137996817Y-74981398D03*
D22*
X150571200Y-89560400D03*
X150571200Y-91560400D03*
D15*
X123596400Y-83616800D03*
X123596400Y-82481800D03*
D19*
X130860800Y-104977000D03*
X130860800Y-106172000D03*
D30*
X120091200Y-95886200D03*
X120091200Y-94691200D03*
D15*
X132689600Y-110050200D03*
X132689600Y-108915200D03*
D13*
X139128282Y-71120000D03*
X140263282Y-71120000D03*
D31*
X128574800Y-108153200D03*
X128574800Y-109103200D03*
X128574800Y-110053200D03*
X130849800Y-110053200D03*
X130849800Y-108153200D03*
D32*
X131566800Y-116517800D03*
X138566800Y-116517800D03*
D33*
X136366800Y-113842800D03*
X135716800Y-113842800D03*
X135066800Y-113842800D03*
X134416800Y-113842800D03*
X133766800Y-113842800D03*
D34*
X135066800Y-116517800D03*
D13*
X129979800Y-86868000D03*
X131114800Y-86868000D03*
X149098000Y-79603600D03*
X150233000Y-79603600D03*
X127143700Y-82499200D03*
X128278700Y-82499200D03*
X125712600Y-87884000D03*
X126847600Y-87884000D03*
D19*
X131673600Y-74269600D03*
X131673600Y-75464600D03*
D24*
X120764000Y-107364000D03*
X120764000Y-105664000D03*
X120764000Y-103964000D03*
X115964000Y-103964000D03*
X115964000Y-105664000D03*
X115964000Y-107364000D03*
D20*
X130107500Y-76200000D03*
X128972500Y-76200000D03*
X130107500Y-74930000D03*
X128972500Y-74930000D03*
D35*
X134330400Y-109951100D03*
X135280400Y-109951100D03*
X136230400Y-109951100D03*
X136230400Y-107676100D03*
X135280400Y-107676100D03*
X134330400Y-107676100D03*
D16*
X134924800Y-87307800D03*
X134924800Y-88442800D03*
M02*
