G04 #@! TF.GenerationSoftware,KiCad,Pcbnew,7.0.5-7.0.5~ubuntu22.04.1*
G04 #@! TF.CreationDate,2023-06-05T00:28:07-04:00*
G04 #@! TF.ProjectId,reaction-trainer,72656163-7469-46f6-9e2d-747261696e65,1.0*
G04 #@! TF.SameCoordinates,Original*
G04 #@! TF.FileFunction,Copper,L2,Bot*
G04 #@! TF.FilePolarity,Positive*
%FSLAX46Y46*%
G04 Gerber Fmt 4.6, Leading zero omitted, Abs format (unit mm)*
G04 Created by KiCad (PCBNEW 7.0.5-7.0.5~ubuntu22.04.1) date 2023-06-05 00:28:07*
%MOMM*%
%LPD*%
G01*
G04 APERTURE LIST*
G04 Aperture macros list*
%AMRoundRect*
0 Rectangle with rounded corners*
0 $1 Rounding radius*
0 $2 $3 $4 $5 $6 $7 $8 $9 X,Y pos of 4 corners*
0 Add a 4 corners polygon primitive as box body*
4,1,4,$2,$3,$4,$5,$6,$7,$8,$9,$2,$3,0*
0 Add four circle primitives for the rounded corners*
1,1,$1+$1,$2,$3*
1,1,$1+$1,$4,$5*
1,1,$1+$1,$6,$7*
1,1,$1+$1,$8,$9*
0 Add four rect primitives between the rounded corners*
20,1,$1+$1,$2,$3,$4,$5,0*
20,1,$1+$1,$4,$5,$6,$7,0*
20,1,$1+$1,$6,$7,$8,$9,0*
20,1,$1+$1,$8,$9,$2,$3,0*%
G04 Aperture macros list end*
G04 #@! TA.AperFunction,ComponentPad*
%ADD10C,0.500000*%
G04 #@! TD*
G04 #@! TA.AperFunction,SMDPad,CuDef*
%ADD11R,6.400000X6.400000*%
G04 #@! TD*
G04 #@! TA.AperFunction,ComponentPad*
%ADD12R,1.700000X1.700000*%
G04 #@! TD*
G04 #@! TA.AperFunction,ComponentPad*
%ADD13O,1.700000X1.700000*%
G04 #@! TD*
G04 #@! TA.AperFunction,ComponentPad*
%ADD14C,3.600000*%
G04 #@! TD*
G04 #@! TA.AperFunction,ConnectorPad*
%ADD15C,5.600000*%
G04 #@! TD*
G04 #@! TA.AperFunction,ComponentPad*
%ADD16O,1.000000X1.900000*%
G04 #@! TD*
G04 #@! TA.AperFunction,ComponentPad*
%ADD17O,1.050000X1.250000*%
G04 #@! TD*
G04 #@! TA.AperFunction,ComponentPad*
%ADD18RoundRect,0.250000X-0.625000X0.350000X-0.625000X-0.350000X0.625000X-0.350000X0.625000X0.350000X0*%
G04 #@! TD*
G04 #@! TA.AperFunction,ComponentPad*
%ADD19O,1.750000X1.200000*%
G04 #@! TD*
G04 #@! TA.AperFunction,ViaPad*
%ADD20C,0.600000*%
G04 #@! TD*
G04 #@! TA.AperFunction,ViaPad*
%ADD21C,0.800000*%
G04 #@! TD*
G04 #@! TA.AperFunction,Conductor*
%ADD22C,0.250000*%
G04 #@! TD*
G04 #@! TA.AperFunction,Conductor*
%ADD23C,0.400000*%
G04 #@! TD*
G04 APERTURE END LIST*
D10*
X130932500Y-78657500D03*
X130932500Y-80132500D03*
X130932500Y-81607500D03*
X130932500Y-83082500D03*
X130932500Y-84557500D03*
X132407500Y-78657500D03*
X132407500Y-80132500D03*
X132407500Y-81607500D03*
X132407500Y-83082500D03*
X132407500Y-84557500D03*
X133882500Y-78657500D03*
X133882500Y-80132500D03*
X133882500Y-81607500D03*
D11*
X133882500Y-81607500D03*
D10*
X133882500Y-83082500D03*
X133882500Y-84557500D03*
X135357500Y-78657500D03*
X135357500Y-80132500D03*
X135357500Y-81607500D03*
X135357500Y-83082500D03*
X135357500Y-84557500D03*
X136832500Y-78657500D03*
X136832500Y-80132500D03*
X136832500Y-81607500D03*
X136832500Y-83082500D03*
X136832500Y-84557500D03*
D12*
X143256000Y-102666800D03*
D13*
X143256000Y-100126800D03*
D14*
X111000000Y-90000000D03*
D15*
X111000000Y-90000000D03*
D16*
X130891800Y-116517800D03*
D17*
X132841800Y-113517800D03*
X137291800Y-113517800D03*
D16*
X139241800Y-116517800D03*
D14*
X159000000Y-90000000D03*
D15*
X159000000Y-90000000D03*
D12*
X120446800Y-73507600D03*
D13*
X122986800Y-73507600D03*
D18*
X126492000Y-101346000D03*
D19*
X126492000Y-103346000D03*
D20*
X141840000Y-71596000D03*
X123840000Y-75596000D03*
X151840000Y-74596000D03*
X143840000Y-74596000D03*
D21*
X135280400Y-111607600D03*
D20*
X141840000Y-69596000D03*
X137840000Y-69596000D03*
X152840000Y-72596000D03*
X116840000Y-72596000D03*
X128840000Y-70596000D03*
X148840000Y-69596000D03*
X118840000Y-71596000D03*
X117840000Y-75596000D03*
X150840000Y-71596000D03*
X117840000Y-74596000D03*
X116840000Y-73596000D03*
X117840000Y-71596000D03*
X141840000Y-70596000D03*
X141840000Y-72596000D03*
X144840000Y-72596000D03*
X117840000Y-70596000D03*
X152840000Y-71596000D03*
X142840000Y-71596000D03*
X143840000Y-73596000D03*
X141840000Y-73596000D03*
X146840000Y-75596000D03*
X136840000Y-71596000D03*
X151840000Y-71596000D03*
X141840000Y-76596000D03*
X127840000Y-71596000D03*
X149840000Y-69596000D03*
X121840000Y-70596000D03*
X116840000Y-75596000D03*
X141840000Y-74596000D03*
X147840000Y-69596000D03*
D21*
X139039600Y-99009200D03*
D20*
X134840000Y-71596000D03*
X147840000Y-74596000D03*
X144840000Y-69596000D03*
X140840000Y-74596000D03*
X133840000Y-70596000D03*
X142840000Y-75596000D03*
X146840000Y-72596000D03*
X118840000Y-72596000D03*
X145840000Y-73596000D03*
X143840000Y-75596000D03*
X143840000Y-70596000D03*
X118840000Y-70596000D03*
X121840000Y-69596000D03*
X131840000Y-69596000D03*
X122840000Y-70596000D03*
X129840000Y-70596000D03*
X146840000Y-70596000D03*
X121840000Y-75596000D03*
X144840000Y-76596000D03*
X125840000Y-74596000D03*
X134840000Y-70596000D03*
X117840000Y-72596000D03*
X147840000Y-73596000D03*
X145840000Y-70596000D03*
X124840000Y-74596000D03*
D21*
X124917200Y-82296000D03*
D20*
X126840000Y-71596000D03*
X137840000Y-71596000D03*
D21*
X136144000Y-100634800D03*
D20*
X132840000Y-71596000D03*
X150840000Y-70596000D03*
X126840000Y-69596000D03*
X130840000Y-70596000D03*
X152840000Y-74596000D03*
X140840000Y-76596000D03*
X134840000Y-69596000D03*
X144840000Y-70596000D03*
X130840000Y-69596000D03*
X152840000Y-73596000D03*
X136840000Y-69596000D03*
X142840000Y-74596000D03*
D21*
X146964400Y-100177600D03*
D20*
X152840000Y-70596000D03*
X152840000Y-76596000D03*
X145840000Y-69596000D03*
X144840000Y-73596000D03*
X119840000Y-69596000D03*
X144840000Y-71596000D03*
D21*
X131572000Y-92456000D03*
D20*
X116840000Y-74596000D03*
X146840000Y-73596000D03*
X119840000Y-70596000D03*
X118840000Y-75596000D03*
D21*
X139242800Y-78933000D03*
X126746000Y-79733000D03*
D20*
X126840000Y-74596000D03*
X144840000Y-75596000D03*
X135840000Y-71596000D03*
D21*
X147929600Y-82956400D03*
D20*
X132840000Y-69596000D03*
X128840000Y-69596000D03*
X125840000Y-71596000D03*
X117840000Y-69596000D03*
X143840000Y-69596000D03*
X147840000Y-72596000D03*
D21*
X143306800Y-89509600D03*
D20*
X135840000Y-70596000D03*
X142840000Y-73596000D03*
X142840000Y-70596000D03*
X123840000Y-69596000D03*
X136840000Y-73596000D03*
X137840000Y-72596000D03*
X123840000Y-70596000D03*
X151840000Y-76596000D03*
X125840000Y-70596000D03*
X142840000Y-69596000D03*
X147840000Y-70596000D03*
X120840000Y-75596000D03*
X142840000Y-76596000D03*
X127840000Y-69596000D03*
X147840000Y-75596000D03*
X147840000Y-71596000D03*
X121840000Y-71596000D03*
X145840000Y-76596000D03*
X146840000Y-71596000D03*
X135840000Y-69596000D03*
X120840000Y-71596000D03*
X143840000Y-72596000D03*
X142840000Y-72596000D03*
D21*
X123689300Y-89551700D03*
X132740400Y-111810800D03*
D20*
X131840000Y-71596000D03*
D21*
X129184400Y-77622400D03*
D20*
X141840000Y-75596000D03*
D21*
X124968000Y-78130400D03*
D20*
X151840000Y-70596000D03*
X124840000Y-70596000D03*
X145840000Y-74596000D03*
X150840000Y-69596000D03*
X118840000Y-69596000D03*
X152840000Y-75596000D03*
X123840000Y-71596000D03*
X116840000Y-71596000D03*
X124840000Y-69596000D03*
X131840000Y-70596000D03*
X152840000Y-69596000D03*
D21*
X121869200Y-91744800D03*
D20*
X119840000Y-75596000D03*
X125840000Y-69596000D03*
X146840000Y-74596000D03*
X151840000Y-72596000D03*
X149840000Y-70596000D03*
X133840000Y-71596000D03*
X133840000Y-69596000D03*
X122840000Y-75596000D03*
X132840000Y-70596000D03*
X149840000Y-71596000D03*
X136840000Y-70596000D03*
X129840000Y-71596000D03*
X146840000Y-69596000D03*
X144840000Y-74596000D03*
X124840000Y-71596000D03*
D21*
X131978400Y-86868000D03*
D20*
X143840000Y-71596000D03*
X151840000Y-73596000D03*
X120840000Y-69596000D03*
X127840000Y-70596000D03*
X120840000Y-70596000D03*
X116840000Y-70596000D03*
X148840000Y-71596000D03*
X143840000Y-76596000D03*
D21*
X125526800Y-84886800D03*
D20*
X125840000Y-75596000D03*
X151840000Y-69596000D03*
X137840000Y-73596000D03*
X140840000Y-73596000D03*
X128840000Y-71596000D03*
X140840000Y-72596000D03*
X122840000Y-69596000D03*
X129840000Y-69596000D03*
X118840000Y-74596000D03*
D21*
X144221200Y-97688400D03*
D20*
X148840000Y-70596000D03*
X127840000Y-74596000D03*
X140840000Y-75596000D03*
X124840000Y-75596000D03*
X122840000Y-71596000D03*
X130840000Y-71596000D03*
X119840000Y-71596000D03*
X145840000Y-71596000D03*
X145840000Y-75596000D03*
X151840000Y-75596000D03*
X117840000Y-73596000D03*
X126840000Y-70596000D03*
D21*
X143296700Y-87307859D03*
D20*
X136840000Y-72596000D03*
X137840000Y-70596000D03*
X135840000Y-72596000D03*
X145840000Y-72596000D03*
X118840000Y-73596000D03*
D21*
X129184400Y-85699600D03*
X130133903Y-77622400D03*
X129084231Y-83207864D03*
X150436500Y-80619600D03*
X136347200Y-98602800D03*
X132120186Y-104086122D03*
X151231600Y-93827600D03*
X140411200Y-101346000D03*
X123088400Y-107340400D03*
X149148800Y-92964000D03*
X132101977Y-103044377D03*
X123139200Y-105664000D03*
X145897600Y-96215200D03*
X123240800Y-103733600D03*
X143408400Y-96164400D03*
X146659600Y-92862400D03*
X132080000Y-102006400D03*
X137160000Y-76301600D03*
X155346400Y-102666800D03*
X142087600Y-82499200D03*
X155295600Y-101396800D03*
X142138400Y-79756000D03*
X155397200Y-100177600D03*
X143002000Y-81737200D03*
X155397200Y-99161600D03*
X121107200Y-89458800D03*
X118973600Y-95910400D03*
X131165600Y-89916000D03*
X132943600Y-86817200D03*
X136245600Y-106070400D03*
X142356285Y-80927440D03*
X141520472Y-80476916D03*
X134315200Y-106070400D03*
X137109200Y-89560400D03*
X130149600Y-100482400D03*
X131064000Y-76454000D03*
X122529600Y-88646000D03*
X134366000Y-73152000D03*
X124561600Y-91338400D03*
D22*
X121869200Y-91744800D02*
X121869200Y-91371800D01*
X121869200Y-91371800D02*
X123689300Y-89551700D01*
D23*
X143296700Y-87307859D02*
X143296700Y-89499500D01*
X143296700Y-89499500D02*
X143306800Y-89509600D01*
D22*
X129084231Y-85599431D02*
X129184400Y-85699600D01*
X130133903Y-82158192D02*
X130133903Y-77622400D01*
X129084231Y-83207864D02*
X129084231Y-85599431D01*
X129084231Y-83207864D02*
X130133903Y-82158192D01*
D23*
X136347200Y-98602800D02*
X144564800Y-106820400D01*
X158620063Y-100845241D02*
X158620063Y-94098240D01*
X158620063Y-94098240D02*
X150436500Y-85914677D01*
X144564800Y-106820400D02*
X152644904Y-106820400D01*
X150436500Y-85914677D02*
X150436500Y-80619600D01*
X152644904Y-106820400D02*
X158620063Y-100845241D01*
X150211296Y-93827600D02*
X145112096Y-98926800D01*
X132120186Y-104086122D02*
X128865908Y-107340400D01*
X128865908Y-107340400D02*
X123088400Y-107340400D01*
X151231600Y-93827600D02*
X150211296Y-93827600D01*
X142758943Y-98926800D02*
X140411200Y-101274543D01*
X140411200Y-101274543D02*
X140411200Y-101346000D01*
X145112096Y-98926800D02*
X142758943Y-98926800D01*
X132101977Y-103044377D02*
X129482354Y-105664000D01*
X149148800Y-92964000D02*
X145897600Y-96215200D01*
X129482354Y-105664000D02*
X123139200Y-105664000D01*
X132080000Y-102006400D02*
X129790400Y-104296000D01*
X143408400Y-96113600D02*
X143408400Y-96164400D01*
X146659600Y-92862400D02*
X143408400Y-96113600D01*
X123803200Y-104296000D02*
X123240800Y-103733600D01*
X129790400Y-104296000D02*
X123803200Y-104296000D01*
D22*
X139638595Y-76301600D02*
X157632400Y-94295405D01*
X137160000Y-76301600D02*
X139638595Y-76301600D01*
X157632400Y-100380800D02*
X155346400Y-102666800D01*
X157632400Y-94295405D02*
X157632400Y-100380800D01*
X154671400Y-100772600D02*
X155295600Y-101396800D01*
X155436648Y-98167557D02*
X154671400Y-98932805D01*
X142087600Y-82499200D02*
X155436648Y-95848248D01*
X154671400Y-98932805D02*
X154671400Y-100772600D01*
X155436648Y-95848248D02*
X155436648Y-98167557D01*
X155397200Y-100177600D02*
X157073600Y-98501200D01*
X157073600Y-98501200D02*
X157073600Y-94691200D01*
X157073600Y-94691200D02*
X142138400Y-79756000D01*
X156673600Y-95408800D02*
X156673600Y-97885200D01*
X143002000Y-81737200D02*
X156673600Y-95408800D01*
X156673600Y-97885200D02*
X155397200Y-99161600D01*
X121107200Y-89458800D02*
X118973600Y-91592400D01*
X118973600Y-91592400D02*
X118973600Y-95910400D01*
X131165600Y-89916000D02*
X132943600Y-88138000D01*
X132943600Y-88138000D02*
X132943600Y-86817200D01*
X136245600Y-106070400D02*
X134715200Y-104540000D01*
X141412600Y-88515086D02*
X141412600Y-81871125D01*
X134715200Y-95212486D02*
X141412600Y-88515086D01*
X134715200Y-104540000D02*
X134715200Y-95212486D01*
X141412600Y-81871125D02*
X142356285Y-80927440D01*
X134315200Y-95046800D02*
X141012600Y-88349400D01*
X141012600Y-80984788D02*
X141520472Y-80476916D01*
X141012600Y-88349400D02*
X141012600Y-80984788D01*
X134315200Y-106070400D02*
X134315200Y-95046800D01*
X130149600Y-100482400D02*
X130149600Y-96520000D01*
X130149600Y-96520000D02*
X137109200Y-89560400D01*
X124968000Y-76454000D02*
X122529600Y-78892400D01*
X131064000Y-76454000D02*
X124968000Y-76454000D01*
X122529600Y-78892400D02*
X122529600Y-88646000D01*
X130729400Y-77129000D02*
X130454400Y-76854000D01*
X134366000Y-73152000D02*
X134366000Y-74174000D01*
X123088400Y-87985600D02*
X124561600Y-89458800D01*
X134366000Y-74174000D02*
X131411000Y-77129000D01*
X122936000Y-87833200D02*
X123088400Y-87985600D01*
X125171200Y-76860400D02*
X122936000Y-79095600D01*
X130454400Y-76854000D02*
X125171200Y-76854000D01*
X125171200Y-76854000D02*
X125171200Y-76860400D01*
X124561600Y-89458800D02*
X124561600Y-91338400D01*
X122936000Y-79095600D02*
X122936000Y-87833200D01*
X131411000Y-77129000D02*
X130729400Y-77129000D01*
G04 #@! TA.AperFunction,Conductor*
G36*
X152321629Y-93620531D02*
G01*
X152338348Y-93634538D01*
X154774829Y-96071019D01*
X154808314Y-96132342D01*
X154811148Y-96158700D01*
X154811148Y-97705981D01*
X154791463Y-97773020D01*
X154738659Y-97818775D01*
X154669501Y-97828719D01*
X154605945Y-97799694D01*
X154569867Y-97746244D01*
X154534151Y-97642210D01*
X154534149Y-97642203D01*
X154420729Y-97432621D01*
X154420727Y-97432619D01*
X154420723Y-97432612D01*
X154274366Y-97244572D01*
X154274363Y-97244569D01*
X154274360Y-97244565D01*
X154099034Y-97083167D01*
X154099031Y-97083165D01*
X154099030Y-97083164D01*
X154021889Y-97032766D01*
X153899534Y-96952827D01*
X153899531Y-96952825D01*
X153899530Y-96952825D01*
X153681302Y-96857101D01*
X153450286Y-96798600D01*
X153272282Y-96783850D01*
X153272272Y-96783850D01*
X153153328Y-96783850D01*
X153153317Y-96783850D01*
X152975313Y-96798600D01*
X152744297Y-96857101D01*
X152526066Y-96952826D01*
X152328578Y-97081851D01*
X152326466Y-97082488D01*
X152320095Y-97089123D01*
X152257760Y-97146506D01*
X152151243Y-97244562D01*
X152151233Y-97244572D01*
X152004876Y-97432612D01*
X152004869Y-97432623D01*
X151891454Y-97642196D01*
X151891448Y-97642210D01*
X151814074Y-97867591D01*
X151803675Y-97929911D01*
X151774850Y-98102648D01*
X151774850Y-98340952D01*
X151792219Y-98445040D01*
X151814074Y-98576008D01*
X151891448Y-98801389D01*
X151891454Y-98801403D01*
X152004869Y-99010976D01*
X152004876Y-99010987D01*
X152151233Y-99199027D01*
X152151236Y-99199030D01*
X152151240Y-99199035D01*
X152326566Y-99360433D01*
X152526066Y-99490773D01*
X152744298Y-99586499D01*
X152975310Y-99644999D01*
X153153328Y-99659750D01*
X153153332Y-99659750D01*
X153272268Y-99659750D01*
X153272272Y-99659750D01*
X153450290Y-99644999D01*
X153681302Y-99586499D01*
X153872090Y-99502810D01*
X153941390Y-99493908D01*
X154004502Y-99523885D01*
X154041389Y-99583224D01*
X154045900Y-99616367D01*
X154045900Y-100689855D01*
X154044175Y-100705472D01*
X154044461Y-100705499D01*
X154043726Y-100713266D01*
X154045869Y-100781446D01*
X154045900Y-100783393D01*
X154045900Y-100811943D01*
X154045901Y-100811960D01*
X154046768Y-100818831D01*
X154047226Y-100824650D01*
X154048690Y-100871224D01*
X154048691Y-100871227D01*
X154054280Y-100890467D01*
X154058224Y-100909511D01*
X154060736Y-100929392D01*
X154067311Y-100945998D01*
X154077890Y-100972719D01*
X154079782Y-100978247D01*
X154090208Y-101014133D01*
X154092782Y-101022990D01*
X154099362Y-101034117D01*
X154102980Y-101040234D01*
X154111538Y-101057703D01*
X154118914Y-101076332D01*
X154146298Y-101114023D01*
X154149506Y-101118907D01*
X154173227Y-101159016D01*
X154173233Y-101159024D01*
X154187390Y-101173180D01*
X154200027Y-101187975D01*
X154211806Y-101204187D01*
X154233639Y-101222249D01*
X154247703Y-101233883D01*
X154252026Y-101237816D01*
X154356639Y-101342430D01*
X154390124Y-101403753D01*
X154392278Y-101417143D01*
X154409926Y-101585056D01*
X154409927Y-101585059D01*
X154468418Y-101765077D01*
X154468421Y-101765084D01*
X154563066Y-101929015D01*
X154606648Y-101977417D01*
X154636879Y-102040409D01*
X154628254Y-102109744D01*
X154614821Y-102133271D01*
X154613864Y-102134586D01*
X154519221Y-102298515D01*
X154519218Y-102298522D01*
X154460727Y-102478540D01*
X154460726Y-102478544D01*
X154440940Y-102666800D01*
X154458520Y-102834072D01*
X154445951Y-102902799D01*
X154398219Y-102953823D01*
X154330479Y-102970941D01*
X154264238Y-102948719D01*
X154251218Y-102938261D01*
X154161989Y-102856121D01*
X154099034Y-102798167D01*
X153899534Y-102667827D01*
X153899531Y-102667825D01*
X153899530Y-102667825D01*
X153681302Y-102572101D01*
X153450286Y-102513600D01*
X153272282Y-102498850D01*
X153272272Y-102498850D01*
X153153328Y-102498850D01*
X153153317Y-102498850D01*
X152975313Y-102513600D01*
X152744297Y-102572101D01*
X152526069Y-102667825D01*
X152326569Y-102798164D01*
X152151243Y-102959562D01*
X152151233Y-102959572D01*
X152004876Y-103147612D01*
X152004869Y-103147623D01*
X151891454Y-103357196D01*
X151891448Y-103357210D01*
X151814074Y-103582591D01*
X151790978Y-103721000D01*
X151774850Y-103817648D01*
X151774850Y-104055952D01*
X151793490Y-104167657D01*
X151814074Y-104291008D01*
X151891448Y-104516389D01*
X151891454Y-104516403D01*
X152004869Y-104725976D01*
X152004876Y-104725987D01*
X152151233Y-104914027D01*
X152151236Y-104914030D01*
X152151240Y-104914035D01*
X152326566Y-105075433D01*
X152526066Y-105205773D01*
X152744298Y-105301499D01*
X152874937Y-105334581D01*
X152935093Y-105370121D01*
X152966485Y-105432541D01*
X152959147Y-105502024D01*
X152932178Y-105542468D01*
X152391066Y-106083581D01*
X152329743Y-106117066D01*
X152303385Y-106119900D01*
X144906319Y-106119900D01*
X144839280Y-106100215D01*
X144818638Y-106083581D01*
X142964037Y-104228980D01*
X142930552Y-104167657D01*
X142935536Y-104097965D01*
X142966987Y-104055952D01*
X146694850Y-104055952D01*
X146713490Y-104167657D01*
X146734074Y-104291008D01*
X146811448Y-104516389D01*
X146811454Y-104516403D01*
X146924869Y-104725976D01*
X146924876Y-104725987D01*
X147071233Y-104914027D01*
X147071236Y-104914030D01*
X147071240Y-104914035D01*
X147246566Y-105075433D01*
X147446066Y-105205773D01*
X147664298Y-105301499D01*
X147895310Y-105359999D01*
X148073328Y-105374750D01*
X148073332Y-105374750D01*
X148192268Y-105374750D01*
X148192272Y-105374750D01*
X148370290Y-105359999D01*
X148601302Y-105301499D01*
X148819534Y-105205773D01*
X149019034Y-105075433D01*
X149194360Y-104914035D01*
X149289854Y-104791344D01*
X149340723Y-104725987D01*
X149340724Y-104725985D01*
X149340729Y-104725979D01*
X149454149Y-104516397D01*
X149531526Y-104291006D01*
X149570750Y-104055952D01*
X149570750Y-103980459D01*
X149923193Y-103980459D01*
X149941824Y-104086122D01*
X149953468Y-104152154D01*
X150022521Y-104312238D01*
X150022522Y-104312240D01*
X150022524Y-104312243D01*
X150126632Y-104452082D01*
X150126632Y-104452083D01*
X150260186Y-104564149D01*
X150415985Y-104642394D01*
X150585629Y-104682600D01*
X150585631Y-104682600D01*
X150716229Y-104682600D01*
X150716236Y-104682600D01*
X150845964Y-104667437D01*
X151009793Y-104607808D01*
X151155454Y-104512005D01*
X151275096Y-104385193D01*
X151362267Y-104234207D01*
X151412269Y-104067188D01*
X151422407Y-103893140D01*
X151392132Y-103721446D01*
X151323079Y-103561362D01*
X151321455Y-103559181D01*
X151218967Y-103421516D01*
X151085414Y-103309451D01*
X151085412Y-103309450D01*
X150929618Y-103231207D01*
X150929616Y-103231206D01*
X150929615Y-103231206D01*
X150759971Y-103191000D01*
X150629364Y-103191000D01*
X150515851Y-103204267D01*
X150499635Y-103206163D01*
X150499632Y-103206164D01*
X150335808Y-103265791D01*
X150335804Y-103265793D01*
X150190148Y-103361592D01*
X150190147Y-103361593D01*
X150070506Y-103488403D01*
X150070504Y-103488407D01*
X150058142Y-103509818D01*
X149983334Y-103639390D01*
X149933331Y-103806410D01*
X149933330Y-103806416D01*
X149923193Y-103980459D01*
X149570750Y-103980459D01*
X149570750Y-103817648D01*
X149531526Y-103582594D01*
X149454149Y-103357203D01*
X149340729Y-103147621D01*
X149340727Y-103147619D01*
X149340723Y-103147612D01*
X149194366Y-102959572D01*
X149194363Y-102959569D01*
X149194360Y-102959565D01*
X149019034Y-102798167D01*
X149019031Y-102798165D01*
X149019030Y-102798164D01*
X148876477Y-102705030D01*
X148819534Y-102667827D01*
X148819531Y-102667825D01*
X148819530Y-102667825D01*
X148601302Y-102572101D01*
X148370286Y-102513600D01*
X148192282Y-102498850D01*
X148192272Y-102498850D01*
X148073328Y-102498850D01*
X148073317Y-102498850D01*
X147895313Y-102513600D01*
X147664297Y-102572101D01*
X147446069Y-102667825D01*
X147246569Y-102798164D01*
X147071243Y-102959562D01*
X147071233Y-102959572D01*
X146924876Y-103147612D01*
X146924869Y-103147623D01*
X146811454Y-103357196D01*
X146811448Y-103357210D01*
X146734074Y-103582591D01*
X146710978Y-103721000D01*
X146694850Y-103817648D01*
X146694850Y-104055952D01*
X142966987Y-104055952D01*
X142977408Y-104042032D01*
X143042872Y-104017615D01*
X143051718Y-104017299D01*
X144153871Y-104017299D01*
X144153872Y-104017299D01*
X144213483Y-104010891D01*
X144348331Y-103960596D01*
X144463546Y-103874346D01*
X144549796Y-103759131D01*
X144600091Y-103624283D01*
X144606500Y-103564673D01*
X144606499Y-101768928D01*
X144600091Y-101709317D01*
X144573534Y-101638115D01*
X144549797Y-101574471D01*
X144549793Y-101574464D01*
X144463547Y-101459255D01*
X144463544Y-101459252D01*
X144348335Y-101373006D01*
X144348328Y-101373002D01*
X144216917Y-101323989D01*
X144160983Y-101282118D01*
X144136566Y-101216653D01*
X144151418Y-101148380D01*
X144172563Y-101120132D01*
X144294495Y-100998201D01*
X144430035Y-100804630D01*
X144529903Y-100590463D01*
X144591063Y-100362208D01*
X144611659Y-100126800D01*
X144591063Y-99891392D01*
X144562125Y-99783392D01*
X144563788Y-99713543D01*
X144602951Y-99655681D01*
X144667179Y-99628177D01*
X144681900Y-99627300D01*
X145089048Y-99627300D01*
X145092793Y-99627413D01*
X145100138Y-99627857D01*
X145154702Y-99631158D01*
X145192410Y-99624247D01*
X145215717Y-99619977D01*
X145219421Y-99619413D01*
X145237266Y-99617246D01*
X145280968Y-99611940D01*
X145290431Y-99608350D01*
X145312057Y-99602322D01*
X145312989Y-99602151D01*
X145322028Y-99600495D01*
X145378608Y-99575029D01*
X145382038Y-99573609D01*
X145440026Y-99551618D01*
X145448362Y-99545862D01*
X145467917Y-99534834D01*
X145477153Y-99530678D01*
X145525992Y-99492413D01*
X145528972Y-99490221D01*
X145580025Y-99454983D01*
X145621161Y-99408548D01*
X145623695Y-99405856D01*
X146523617Y-98505934D01*
X146584939Y-98472451D01*
X146654631Y-98477435D01*
X146710564Y-98519307D01*
X146732692Y-98571064D01*
X146732814Y-98571034D01*
X146733009Y-98571804D01*
X146733604Y-98573196D01*
X146734072Y-98576004D01*
X146811448Y-98801389D01*
X146811454Y-98801403D01*
X146924869Y-99010976D01*
X146924876Y-99010987D01*
X147071233Y-99199027D01*
X147071236Y-99199030D01*
X147071240Y-99199035D01*
X147246566Y-99360433D01*
X147446066Y-99490773D01*
X147664298Y-99586499D01*
X147895310Y-99644999D01*
X148073328Y-99659750D01*
X148073332Y-99659750D01*
X148192268Y-99659750D01*
X148192272Y-99659750D01*
X148370290Y-99644999D01*
X148601302Y-99586499D01*
X148819534Y-99490773D01*
X149019034Y-99360433D01*
X149194360Y-99199035D01*
X149340729Y-99010979D01*
X149454149Y-98801397D01*
X149531526Y-98576006D01*
X149570750Y-98340952D01*
X149570750Y-98102648D01*
X149531526Y-97867594D01*
X149454149Y-97642203D01*
X149340729Y-97432621D01*
X149340727Y-97432619D01*
X149340723Y-97432612D01*
X149194366Y-97244572D01*
X149194363Y-97244569D01*
X149194360Y-97244565D01*
X149019034Y-97083167D01*
X149019031Y-97083165D01*
X149019030Y-97083164D01*
X148941890Y-97032766D01*
X148819534Y-96952827D01*
X148819531Y-96952825D01*
X148819530Y-96952825D01*
X148601302Y-96857100D01*
X148470661Y-96824018D01*
X148410505Y-96788478D01*
X148379113Y-96726058D01*
X148386451Y-96656574D01*
X148413417Y-96616134D01*
X148703070Y-96326481D01*
X148764391Y-96292998D01*
X148834083Y-96297982D01*
X148890016Y-96339854D01*
X148912865Y-96392631D01*
X148937466Y-96532148D01*
X148937467Y-96532150D01*
X148937468Y-96532154D01*
X149006521Y-96692238D01*
X149006522Y-96692240D01*
X149006524Y-96692243D01*
X149094862Y-96810900D01*
X149110632Y-96832083D01*
X149244186Y-96944149D01*
X149399985Y-97022394D01*
X149569629Y-97062600D01*
X149569631Y-97062600D01*
X149700229Y-97062600D01*
X149700236Y-97062600D01*
X149829964Y-97047437D01*
X149993793Y-96987808D01*
X150139454Y-96892005D01*
X150259096Y-96765193D01*
X150346267Y-96614207D01*
X150396269Y-96447188D01*
X150401321Y-96360460D01*
X150939193Y-96360460D01*
X150969468Y-96532154D01*
X151038521Y-96692238D01*
X151038522Y-96692240D01*
X151038524Y-96692243D01*
X151126862Y-96810900D01*
X151142632Y-96832083D01*
X151276186Y-96944149D01*
X151431985Y-97022394D01*
X151601629Y-97062600D01*
X151601631Y-97062600D01*
X151732229Y-97062600D01*
X151732236Y-97062600D01*
X151861964Y-97047437D01*
X152025793Y-96987808D01*
X152167972Y-96894294D01*
X152169874Y-96893714D01*
X152170563Y-96892947D01*
X152171448Y-96892008D01*
X152171454Y-96892005D01*
X152291096Y-96765193D01*
X152378267Y-96614207D01*
X152428269Y-96447188D01*
X152438407Y-96273140D01*
X152408132Y-96101446D01*
X152339079Y-95941362D01*
X152234968Y-95801517D01*
X152228531Y-95796116D01*
X152101414Y-95689451D01*
X152101412Y-95689450D01*
X151945618Y-95611207D01*
X151945616Y-95611206D01*
X151945615Y-95611206D01*
X151775971Y-95571000D01*
X151645364Y-95571000D01*
X151531851Y-95584267D01*
X151515635Y-95586163D01*
X151515632Y-95586164D01*
X151351808Y-95645791D01*
X151351804Y-95645793D01*
X151206148Y-95741592D01*
X151206147Y-95741593D01*
X151086506Y-95868403D01*
X151086503Y-95868409D01*
X150999334Y-96019390D01*
X150949331Y-96186410D01*
X150949330Y-96186416D01*
X150939647Y-96352659D01*
X150939193Y-96360460D01*
X150401321Y-96360460D01*
X150406407Y-96273140D01*
X150376132Y-96101446D01*
X150307079Y-95941362D01*
X150202968Y-95801517D01*
X150196531Y-95796116D01*
X150069414Y-95689451D01*
X150069412Y-95689450D01*
X149913618Y-95611207D01*
X149913616Y-95611206D01*
X149913615Y-95611206D01*
X149743971Y-95571000D01*
X149743970Y-95571000D01*
X149743966Y-95570999D01*
X149742809Y-95570864D01*
X149742070Y-95570549D01*
X149736944Y-95569335D01*
X149737151Y-95568458D01*
X149678509Y-95543527D01*
X149639197Y-95485766D01*
X149637352Y-95415921D01*
X149669527Y-95360024D01*
X150465133Y-94564419D01*
X150526457Y-94530934D01*
X150552815Y-94528100D01*
X150623444Y-94528100D01*
X150690483Y-94547785D01*
X150696329Y-94551782D01*
X150778865Y-94611748D01*
X150778870Y-94611751D01*
X150951792Y-94688742D01*
X150951797Y-94688744D01*
X151136954Y-94728100D01*
X151136955Y-94728100D01*
X151326244Y-94728100D01*
X151326246Y-94728100D01*
X151511403Y-94688744D01*
X151684330Y-94611751D01*
X151837471Y-94500488D01*
X151964133Y-94359816D01*
X152058779Y-94195884D01*
X152117274Y-94015856D01*
X152137060Y-93827600D01*
X152127346Y-93735178D01*
X152139915Y-93666451D01*
X152187648Y-93615427D01*
X152255388Y-93598309D01*
X152321629Y-93620531D01*
G37*
G04 #@! TD.AperFunction*
G04 #@! TA.AperFunction,Conductor*
G36*
X142243303Y-83539939D02*
G01*
X142249781Y-83545971D01*
X151419229Y-92715419D01*
X151452714Y-92776742D01*
X151447730Y-92846434D01*
X151405858Y-92902367D01*
X151340394Y-92926784D01*
X151331548Y-92927100D01*
X151326246Y-92927100D01*
X151136954Y-92927100D01*
X151104497Y-92933998D01*
X150951797Y-92966455D01*
X150951792Y-92966457D01*
X150778870Y-93043448D01*
X150778865Y-93043451D01*
X150696329Y-93103418D01*
X150630523Y-93126898D01*
X150623444Y-93127100D01*
X150234344Y-93127100D01*
X150230599Y-93126987D01*
X150167733Y-93123184D01*
X150102005Y-93099487D01*
X150059522Y-93044016D01*
X150051900Y-92986450D01*
X150054260Y-92964000D01*
X150034474Y-92775744D01*
X149975979Y-92595716D01*
X149881333Y-92431784D01*
X149754671Y-92291112D01*
X149754670Y-92291111D01*
X149601534Y-92179851D01*
X149601529Y-92179848D01*
X149428607Y-92102857D01*
X149428602Y-92102855D01*
X149282801Y-92071865D01*
X149243446Y-92063500D01*
X149054154Y-92063500D01*
X149021697Y-92070398D01*
X148868997Y-92102855D01*
X148868992Y-92102857D01*
X148696070Y-92179848D01*
X148696065Y-92179851D01*
X148542929Y-92291111D01*
X148416266Y-92431785D01*
X148321621Y-92595715D01*
X148321618Y-92595722D01*
X148263127Y-92775739D01*
X148263125Y-92775750D01*
X148257934Y-92825129D01*
X148231349Y-92889743D01*
X148222295Y-92899846D01*
X147599981Y-93522160D01*
X147538658Y-93555645D01*
X147468966Y-93550661D01*
X147413033Y-93508789D01*
X147388616Y-93443325D01*
X147403468Y-93375052D01*
X147404885Y-93372528D01*
X147486779Y-93230684D01*
X147545274Y-93050656D01*
X147565060Y-92862400D01*
X147545274Y-92674144D01*
X147486779Y-92494116D01*
X147392133Y-92330184D01*
X147265471Y-92189512D01*
X147211093Y-92150004D01*
X147112334Y-92078251D01*
X147112329Y-92078248D01*
X146939407Y-92001257D01*
X146939402Y-92001255D01*
X146793601Y-91970265D01*
X146754246Y-91961900D01*
X146564954Y-91961900D01*
X146532497Y-91968798D01*
X146379797Y-92001255D01*
X146379792Y-92001257D01*
X146206870Y-92078248D01*
X146206865Y-92078251D01*
X146053729Y-92189511D01*
X145927066Y-92330185D01*
X145832421Y-92494115D01*
X145832418Y-92494122D01*
X145773927Y-92674139D01*
X145773925Y-92674150D01*
X145768734Y-92723529D01*
X145742149Y-92788143D01*
X145733095Y-92798246D01*
X143280914Y-95250427D01*
X143219591Y-95283912D01*
X143219015Y-95284036D01*
X143128596Y-95303256D01*
X143128592Y-95303257D01*
X142955670Y-95380248D01*
X142955665Y-95380251D01*
X142802529Y-95491511D01*
X142675866Y-95632185D01*
X142581221Y-95796115D01*
X142581218Y-95796122D01*
X142534029Y-95941356D01*
X142522726Y-95976144D01*
X142502940Y-96164400D01*
X142522726Y-96352656D01*
X142522727Y-96352659D01*
X142581218Y-96532677D01*
X142581221Y-96532684D01*
X142675867Y-96696616D01*
X142754413Y-96783850D01*
X142802529Y-96837288D01*
X142955665Y-96948548D01*
X142955670Y-96948551D01*
X143128592Y-97025542D01*
X143128597Y-97025544D01*
X143313754Y-97064900D01*
X143313755Y-97064900D01*
X143503044Y-97064900D01*
X143503046Y-97064900D01*
X143688203Y-97025544D01*
X143861130Y-96948551D01*
X144014271Y-96837288D01*
X144140933Y-96696616D01*
X144235579Y-96532684D01*
X144294074Y-96352656D01*
X144305230Y-96246504D01*
X144331814Y-96181891D01*
X144340861Y-96171794D01*
X144957222Y-95555433D01*
X145018543Y-95521950D01*
X145088235Y-95526934D01*
X145144168Y-95568806D01*
X145168585Y-95634270D01*
X145153733Y-95702543D01*
X145152289Y-95705115D01*
X145070420Y-95846918D01*
X145070418Y-95846922D01*
X145014380Y-96019390D01*
X145011926Y-96026944D01*
X144992140Y-96215200D01*
X145011926Y-96403456D01*
X145011927Y-96403459D01*
X145070418Y-96583477D01*
X145070421Y-96583484D01*
X145165067Y-96747416D01*
X145263827Y-96857100D01*
X145291729Y-96888088D01*
X145444865Y-96999348D01*
X145444870Y-96999351D01*
X145617792Y-97076342D01*
X145617793Y-97076342D01*
X145617797Y-97076344D01*
X145674208Y-97088334D01*
X145686433Y-97090933D01*
X145747915Y-97124125D01*
X145781692Y-97185288D01*
X145777040Y-97255002D01*
X145748334Y-97299904D01*
X144858258Y-98189981D01*
X144796935Y-98223466D01*
X144770577Y-98226300D01*
X142781991Y-98226300D01*
X142778246Y-98226187D01*
X142716339Y-98222442D01*
X142716333Y-98222442D01*
X142655329Y-98233621D01*
X142651628Y-98234184D01*
X142590071Y-98241659D01*
X142590070Y-98241660D01*
X142580596Y-98245253D01*
X142558985Y-98251277D01*
X142549011Y-98253105D01*
X142492456Y-98278557D01*
X142488998Y-98279989D01*
X142431020Y-98301979D01*
X142431017Y-98301980D01*
X142431013Y-98301982D01*
X142431010Y-98301983D01*
X142431004Y-98301987D01*
X142422666Y-98307742D01*
X142403131Y-98318760D01*
X142393891Y-98322919D01*
X142393882Y-98322924D01*
X142345067Y-98361168D01*
X142342052Y-98363386D01*
X142291011Y-98398618D01*
X142249885Y-98445040D01*
X142247318Y-98447766D01*
X140257481Y-100437603D01*
X140196158Y-100471088D01*
X140195583Y-100471212D01*
X140131394Y-100484856D01*
X140131392Y-100484857D01*
X139958470Y-100561848D01*
X139958465Y-100561851D01*
X139805332Y-100673109D01*
X139805329Y-100673111D01*
X139805329Y-100673112D01*
X139704590Y-100784994D01*
X139645103Y-100821642D01*
X139575246Y-100820311D01*
X139524759Y-100789702D01*
X137273703Y-98538646D01*
X137240218Y-98477323D01*
X137238065Y-98463943D01*
X137232874Y-98414544D01*
X137227699Y-98398618D01*
X137174381Y-98234522D01*
X137174380Y-98234521D01*
X137174379Y-98234516D01*
X137079733Y-98070584D01*
X136953071Y-97929912D01*
X136953070Y-97929911D01*
X136799934Y-97818651D01*
X136799929Y-97818648D01*
X136627007Y-97741657D01*
X136627002Y-97741655D01*
X136481201Y-97710665D01*
X136441846Y-97702300D01*
X136252554Y-97702300D01*
X136220097Y-97709198D01*
X136067397Y-97741655D01*
X136067392Y-97741657D01*
X135894470Y-97818648D01*
X135894465Y-97818651D01*
X135741329Y-97929911D01*
X135614665Y-98070585D01*
X135572087Y-98144334D01*
X135521520Y-98192550D01*
X135452913Y-98205773D01*
X135388048Y-98179805D01*
X135347520Y-98122890D01*
X135340700Y-98082334D01*
X135340700Y-95522938D01*
X135360385Y-95455899D01*
X135377019Y-95435257D01*
X138573376Y-92238900D01*
X141796388Y-89015887D01*
X141808642Y-89006072D01*
X141808459Y-89005850D01*
X141814468Y-89000877D01*
X141814477Y-89000872D01*
X141861207Y-88951108D01*
X141862446Y-88949829D01*
X141882720Y-88929557D01*
X141886979Y-88924064D01*
X141890752Y-88919647D01*
X141922662Y-88885668D01*
X141932315Y-88868106D01*
X141942989Y-88851856D01*
X141955273Y-88836022D01*
X141973780Y-88793253D01*
X141976349Y-88788010D01*
X141998796Y-88747179D01*
X141998797Y-88747178D01*
X142003777Y-88727777D01*
X142010078Y-88709374D01*
X142018038Y-88690982D01*
X142025330Y-88644935D01*
X142026511Y-88639238D01*
X142026622Y-88638807D01*
X142038100Y-88594105D01*
X142038100Y-88574065D01*
X142039627Y-88554668D01*
X142039975Y-88552473D01*
X142042760Y-88534890D01*
X142038375Y-88488501D01*
X142038100Y-88482663D01*
X142038100Y-83633652D01*
X142057785Y-83566613D01*
X142110589Y-83520858D01*
X142179747Y-83510914D01*
X142243303Y-83539939D01*
G37*
G04 #@! TD.AperFunction*
G04 #@! TA.AperFunction,Conductor*
G36*
X154813627Y-69104593D02*
G01*
X155470915Y-69483798D01*
X155516252Y-69529060D01*
X159225281Y-75933316D01*
X162948125Y-82361427D01*
X162982803Y-82421303D01*
X162999500Y-82483448D01*
X162999500Y-97516550D01*
X162982803Y-97578695D01*
X155516259Y-110470927D01*
X155470901Y-110516201D01*
X142578618Y-117950719D01*
X142516673Y-117967300D01*
X139952203Y-117967300D01*
X139885164Y-117947615D01*
X139839409Y-117894811D01*
X139829465Y-117825653D01*
X139858490Y-117762097D01*
X139866771Y-117753426D01*
X140004468Y-117622535D01*
X140004469Y-117622533D01*
X140120656Y-117455604D01*
X140200859Y-117268707D01*
X140241800Y-117069490D01*
X140241800Y-116767800D01*
X139541800Y-116767800D01*
X139541800Y-116267800D01*
X140241800Y-116267800D01*
X140241800Y-116017086D01*
X140226381Y-115865461D01*
X140165500Y-115671418D01*
X140165495Y-115671408D01*
X140066794Y-115493584D01*
X140066794Y-115493583D01*
X139934321Y-115339269D01*
X139934320Y-115339268D01*
X139773495Y-115214781D01*
X139590893Y-115125211D01*
X139491800Y-115099553D01*
X139491800Y-116001689D01*
X139467343Y-115962190D01*
X139377838Y-115894599D01*
X139269960Y-115863905D01*
X139158279Y-115874254D01*
X139057878Y-115924248D01*
X138991800Y-115996730D01*
X138991800Y-115094433D01*
X138989853Y-115094731D01*
X138989847Y-115094733D01*
X138799142Y-115165362D01*
X138799135Y-115165365D01*
X138626532Y-115272949D01*
X138479131Y-115413064D01*
X138479130Y-115413066D01*
X138362943Y-115579995D01*
X138282740Y-115766892D01*
X138241800Y-115966109D01*
X138241800Y-116267800D01*
X138941800Y-116267800D01*
X138941800Y-116767800D01*
X138241800Y-116767800D01*
X138241800Y-117018513D01*
X138257218Y-117170138D01*
X138318099Y-117364181D01*
X138318104Y-117364191D01*
X138416805Y-117542015D01*
X138416805Y-117542016D01*
X138549278Y-117696330D01*
X138549279Y-117696331D01*
X138612470Y-117745244D01*
X138653434Y-117801845D01*
X138657295Y-117871608D01*
X138622825Y-117932383D01*
X138560970Y-117964875D01*
X138536569Y-117967300D01*
X137991300Y-117967300D01*
X137924261Y-117947615D01*
X137878506Y-117894811D01*
X137867300Y-117843300D01*
X137867300Y-116331620D01*
X137867299Y-116331619D01*
X137832831Y-116214227D01*
X137832829Y-116214224D01*
X137832829Y-116214223D01*
X137766679Y-116111291D01*
X137674209Y-116031165D01*
X137674207Y-116031164D01*
X137562913Y-115980337D01*
X137562909Y-115980336D01*
X137441800Y-115962924D01*
X137320690Y-115980336D01*
X137320686Y-115980337D01*
X137209392Y-116031164D01*
X137209389Y-116031166D01*
X137116920Y-116111292D01*
X137050768Y-116214227D01*
X137016300Y-116331619D01*
X137016300Y-117843300D01*
X136996615Y-117910339D01*
X136943811Y-117956094D01*
X136892300Y-117967300D01*
X133241300Y-117967300D01*
X133174261Y-117947615D01*
X133128506Y-117894811D01*
X133117300Y-117843300D01*
X133117300Y-116331621D01*
X133117299Y-116331619D01*
X133082831Y-116214227D01*
X133082829Y-116214224D01*
X133082829Y-116214223D01*
X133016679Y-116111291D01*
X132924209Y-116031165D01*
X132924207Y-116031164D01*
X132812913Y-115980337D01*
X132812909Y-115980336D01*
X132691800Y-115962924D01*
X132570690Y-115980336D01*
X132570686Y-115980337D01*
X132459392Y-116031164D01*
X132459389Y-116031166D01*
X132366920Y-116111292D01*
X132300768Y-116214227D01*
X132266300Y-116331619D01*
X132266300Y-117843300D01*
X132246615Y-117910339D01*
X132193811Y-117956094D01*
X132142300Y-117967300D01*
X131602203Y-117967300D01*
X131535164Y-117947615D01*
X131489409Y-117894811D01*
X131479465Y-117825653D01*
X131508490Y-117762097D01*
X131516771Y-117753426D01*
X131654468Y-117622535D01*
X131654469Y-117622533D01*
X131770656Y-117455604D01*
X131850859Y-117268707D01*
X131891800Y-117069490D01*
X131891800Y-116767800D01*
X131191800Y-116767800D01*
X131191800Y-116267800D01*
X131891800Y-116267800D01*
X131891800Y-116017086D01*
X131876381Y-115865461D01*
X131815500Y-115671418D01*
X131815495Y-115671408D01*
X131716794Y-115493584D01*
X131716794Y-115493583D01*
X131584321Y-115339269D01*
X131584320Y-115339268D01*
X131423495Y-115214781D01*
X131240893Y-115125211D01*
X131141799Y-115099553D01*
X131141799Y-116001688D01*
X131117343Y-115962190D01*
X131027838Y-115894599D01*
X130919960Y-115863905D01*
X130808279Y-115874254D01*
X130707878Y-115924248D01*
X130641800Y-115996730D01*
X130641800Y-115094433D01*
X130639853Y-115094731D01*
X130639847Y-115094733D01*
X130449142Y-115165362D01*
X130449135Y-115165365D01*
X130276532Y-115272949D01*
X130129131Y-115413064D01*
X130129130Y-115413066D01*
X130012943Y-115579995D01*
X129932740Y-115766892D01*
X129891800Y-115966109D01*
X129891800Y-116267800D01*
X130591800Y-116267800D01*
X130591800Y-116767800D01*
X129891800Y-116767800D01*
X129891800Y-117018513D01*
X129907218Y-117170138D01*
X129968099Y-117364181D01*
X129968104Y-117364191D01*
X130066805Y-117542015D01*
X130066805Y-117542016D01*
X130199278Y-117696330D01*
X130199279Y-117696331D01*
X130262470Y-117745244D01*
X130303434Y-117801845D01*
X130307295Y-117871608D01*
X130272825Y-117932383D01*
X130210970Y-117964875D01*
X130186569Y-117967300D01*
X127483327Y-117967300D01*
X127421382Y-117950719D01*
X119300677Y-113267800D01*
X131826612Y-113267800D01*
X132553125Y-113267800D01*
X132531688Y-113304929D01*
X132516800Y-113389364D01*
X132516800Y-113646236D01*
X132531688Y-113730671D01*
X132553125Y-113767800D01*
X131826613Y-113767800D01*
X131831629Y-113818731D01*
X131890243Y-114011954D01*
X131985415Y-114190009D01*
X131985420Y-114190015D01*
X132113507Y-114346092D01*
X132269584Y-114474179D01*
X132269590Y-114474184D01*
X132447646Y-114569357D01*
X132591800Y-114613085D01*
X132591800Y-113832282D01*
X132676793Y-113903601D01*
X132784494Y-113942800D01*
X132899106Y-113942800D01*
X133006807Y-113903601D01*
X133091800Y-113832282D01*
X133091800Y-114613085D01*
X133235953Y-114569357D01*
X133414009Y-114474184D01*
X133414015Y-114474179D01*
X133570092Y-114346092D01*
X133698179Y-114190015D01*
X133698184Y-114190009D01*
X133793356Y-114011954D01*
X133851970Y-113818731D01*
X133856987Y-113767800D01*
X133130475Y-113767800D01*
X133151912Y-113730671D01*
X133166800Y-113646236D01*
X133166800Y-113389364D01*
X133151912Y-113304929D01*
X133130475Y-113267800D01*
X133856987Y-113267800D01*
X136276612Y-113267800D01*
X137003125Y-113267800D01*
X136981688Y-113304929D01*
X136966800Y-113389364D01*
X136966800Y-113646236D01*
X136981688Y-113730671D01*
X137003125Y-113767800D01*
X136276613Y-113767800D01*
X136281629Y-113818731D01*
X136340243Y-114011954D01*
X136435415Y-114190009D01*
X136435420Y-114190015D01*
X136563507Y-114346092D01*
X136719584Y-114474179D01*
X136719590Y-114474184D01*
X136897646Y-114569357D01*
X137041800Y-114613085D01*
X137041800Y-113832282D01*
X137126793Y-113903601D01*
X137234494Y-113942800D01*
X137349106Y-113942800D01*
X137456807Y-113903601D01*
X137541800Y-113832282D01*
X137541800Y-114613085D01*
X137685953Y-114569357D01*
X137864009Y-114474184D01*
X137864015Y-114474179D01*
X138020092Y-114346092D01*
X138148179Y-114190015D01*
X138148184Y-114190009D01*
X138243356Y-114011954D01*
X138301970Y-113818731D01*
X138306987Y-113767800D01*
X137580475Y-113767800D01*
X137601912Y-113730671D01*
X137616800Y-113646236D01*
X137616800Y-113389364D01*
X137601912Y-113304929D01*
X137580475Y-113267800D01*
X138306987Y-113267800D01*
X138301970Y-113216868D01*
X138243356Y-113023645D01*
X138148184Y-112845590D01*
X138148179Y-112845584D01*
X138020092Y-112689507D01*
X137864015Y-112561420D01*
X137864009Y-112561415D01*
X137685950Y-112466241D01*
X137541800Y-112422512D01*
X137541800Y-113203317D01*
X137456807Y-113131999D01*
X137349106Y-113092800D01*
X137234494Y-113092800D01*
X137126793Y-113131999D01*
X137041800Y-113203317D01*
X137041800Y-112422512D01*
X136897649Y-112466241D01*
X136719590Y-112561415D01*
X136719584Y-112561420D01*
X136563507Y-112689507D01*
X136435420Y-112845584D01*
X136435415Y-112845590D01*
X136340243Y-113023645D01*
X136281629Y-113216868D01*
X136276612Y-113267800D01*
X133856987Y-113267800D01*
X133851970Y-113216868D01*
X133793356Y-113023645D01*
X133698184Y-112845590D01*
X133698179Y-112845584D01*
X133570092Y-112689507D01*
X133414015Y-112561420D01*
X133414009Y-112561415D01*
X133235950Y-112466241D01*
X133091800Y-112422512D01*
X133091799Y-113203317D01*
X133006807Y-113131999D01*
X132899106Y-113092800D01*
X132784494Y-113092800D01*
X132676793Y-113131999D01*
X132591799Y-113203318D01*
X132591800Y-112422512D01*
X132447649Y-112466241D01*
X132269590Y-112561415D01*
X132269584Y-112561420D01*
X132113507Y-112689507D01*
X131985420Y-112845584D01*
X131985415Y-112845590D01*
X131890243Y-113023645D01*
X131831629Y-113216868D01*
X131826612Y-113267800D01*
X119300677Y-113267800D01*
X114529196Y-110516258D01*
X114483734Y-110470805D01*
X113197250Y-108240900D01*
X112677731Y-107340400D01*
X122182940Y-107340400D01*
X122202726Y-107528656D01*
X122202727Y-107528659D01*
X122261218Y-107708677D01*
X122261221Y-107708684D01*
X122355867Y-107872616D01*
X122460334Y-107988638D01*
X122482529Y-108013288D01*
X122635665Y-108124548D01*
X122635670Y-108124551D01*
X122808592Y-108201542D01*
X122808597Y-108201544D01*
X122993754Y-108240900D01*
X122993755Y-108240900D01*
X123183044Y-108240900D01*
X123183046Y-108240900D01*
X123368203Y-108201544D01*
X123541130Y-108124551D01*
X123556720Y-108113223D01*
X123623671Y-108064582D01*
X123689477Y-108041102D01*
X123696556Y-108040900D01*
X128842860Y-108040900D01*
X128846605Y-108041013D01*
X128853950Y-108041457D01*
X128908514Y-108044758D01*
X128946222Y-108037847D01*
X128969529Y-108033577D01*
X128973233Y-108033013D01*
X128991078Y-108030846D01*
X129034780Y-108025540D01*
X129044243Y-108021950D01*
X129065869Y-108015922D01*
X129066801Y-108015751D01*
X129075840Y-108014095D01*
X129132420Y-107988629D01*
X129135850Y-107987209D01*
X129193838Y-107965218D01*
X129202174Y-107959462D01*
X129221729Y-107948434D01*
X129230965Y-107944278D01*
X129279804Y-107906013D01*
X129282784Y-107903821D01*
X129333837Y-107868583D01*
X129374973Y-107822148D01*
X129377507Y-107819456D01*
X132183161Y-105013803D01*
X132244482Y-104980320D01*
X132244548Y-104980305D01*
X132399989Y-104947266D01*
X132399993Y-104947264D01*
X132399994Y-104947264D01*
X132474644Y-104914027D01*
X132572916Y-104870273D01*
X132726057Y-104759010D01*
X132852719Y-104618338D01*
X132947365Y-104454406D01*
X133005860Y-104274378D01*
X133025646Y-104086122D01*
X133005860Y-103897866D01*
X132947365Y-103717838D01*
X132947362Y-103717832D01*
X132885959Y-103611478D01*
X132869486Y-103543578D01*
X132885958Y-103487481D01*
X132929156Y-103412661D01*
X132987651Y-103232633D01*
X133007437Y-103044377D01*
X132987651Y-102856121D01*
X132929156Y-102676093D01*
X132866952Y-102568353D01*
X132850480Y-102500455D01*
X132866952Y-102444356D01*
X132907179Y-102374684D01*
X132965674Y-102194656D01*
X132985460Y-102006400D01*
X132965674Y-101818144D01*
X132907179Y-101638116D01*
X132812533Y-101474184D01*
X132685871Y-101333512D01*
X132671002Y-101322709D01*
X132532734Y-101222251D01*
X132532729Y-101222248D01*
X132359807Y-101145257D01*
X132359802Y-101145255D01*
X132202055Y-101111726D01*
X132174646Y-101105900D01*
X131985354Y-101105900D01*
X131957945Y-101111726D01*
X131800197Y-101145255D01*
X131800192Y-101145257D01*
X131627270Y-101222248D01*
X131627265Y-101222251D01*
X131474129Y-101333511D01*
X131347466Y-101474185D01*
X131252821Y-101638115D01*
X131252818Y-101638122D01*
X131194327Y-101818139D01*
X131194325Y-101818150D01*
X131189134Y-101867529D01*
X131162549Y-101932143D01*
X131153495Y-101942246D01*
X129536562Y-103559181D01*
X129475239Y-103592666D01*
X129448881Y-103595500D01*
X126772020Y-103595500D01*
X126810278Y-103553941D01*
X126860551Y-103439330D01*
X126870886Y-103314605D01*
X126840163Y-103193281D01*
X126776606Y-103096000D01*
X127838257Y-103096000D01*
X127811229Y-102984590D01*
X127723959Y-102793492D01*
X127602110Y-102622380D01*
X127602099Y-102622368D01*
X127499478Y-102524520D01*
X127464542Y-102464012D01*
X127467867Y-102394221D01*
X127508395Y-102337307D01*
X127519935Y-102329248D01*
X127585656Y-102288712D01*
X127709712Y-102164656D01*
X127801814Y-102015334D01*
X127856999Y-101848797D01*
X127867500Y-101746009D01*
X127867499Y-100945992D01*
X127862401Y-100896090D01*
X127856999Y-100843203D01*
X127856998Y-100843200D01*
X127850037Y-100822192D01*
X127801814Y-100676666D01*
X127709712Y-100527344D01*
X127664768Y-100482400D01*
X129244140Y-100482400D01*
X129263926Y-100670656D01*
X129263927Y-100670659D01*
X129322418Y-100850677D01*
X129322421Y-100850684D01*
X129417067Y-101014616D01*
X129512068Y-101120125D01*
X129543729Y-101155288D01*
X129696865Y-101266548D01*
X129696870Y-101266551D01*
X129869792Y-101343542D01*
X129869797Y-101343544D01*
X130054954Y-101382900D01*
X130054955Y-101382900D01*
X130244244Y-101382900D01*
X130244246Y-101382900D01*
X130429403Y-101343544D01*
X130602330Y-101266551D01*
X130755471Y-101155288D01*
X130882133Y-101014616D01*
X130976779Y-100850684D01*
X131035274Y-100670656D01*
X131055060Y-100482400D01*
X131035274Y-100294144D01*
X130976779Y-100114116D01*
X130882133Y-99950184D01*
X130806948Y-99866683D01*
X130776719Y-99803693D01*
X130775099Y-99783724D01*
X130775099Y-96830449D01*
X130794784Y-96763411D01*
X130811413Y-96742774D01*
X137056970Y-90497219D01*
X137118294Y-90463734D01*
X137144652Y-90460900D01*
X137203844Y-90460900D01*
X137203846Y-90460900D01*
X137389003Y-90421544D01*
X137561930Y-90344551D01*
X137715071Y-90233288D01*
X137841733Y-90092616D01*
X137936379Y-89928684D01*
X137994874Y-89748656D01*
X138014660Y-89560400D01*
X137994874Y-89372144D01*
X137936379Y-89192116D01*
X137841733Y-89028184D01*
X137715071Y-88887512D01*
X137715070Y-88887511D01*
X137561934Y-88776251D01*
X137561929Y-88776248D01*
X137389007Y-88699257D01*
X137389002Y-88699255D01*
X137243201Y-88668265D01*
X137203846Y-88659900D01*
X137014554Y-88659900D01*
X136982097Y-88666798D01*
X136829397Y-88699255D01*
X136829392Y-88699257D01*
X136656470Y-88776248D01*
X136656465Y-88776251D01*
X136503329Y-88887511D01*
X136376666Y-89028185D01*
X136282021Y-89192115D01*
X136282018Y-89192122D01*
X136227416Y-89360172D01*
X136223526Y-89372144D01*
X136216557Y-89438449D01*
X136205878Y-89540051D01*
X136179293Y-89604666D01*
X136170238Y-89614770D01*
X129765808Y-96019199D01*
X129753551Y-96029020D01*
X129753734Y-96029241D01*
X129747722Y-96034214D01*
X129701032Y-96083932D01*
X129699679Y-96085329D01*
X129679489Y-96105519D01*
X129679477Y-96105532D01*
X129675221Y-96111017D01*
X129671437Y-96115447D01*
X129639537Y-96149418D01*
X129639536Y-96149420D01*
X129629884Y-96166976D01*
X129619210Y-96183226D01*
X129606929Y-96199061D01*
X129606924Y-96199068D01*
X129588415Y-96241838D01*
X129585845Y-96247084D01*
X129563403Y-96287906D01*
X129558422Y-96307307D01*
X129552121Y-96325710D01*
X129544162Y-96344102D01*
X129544161Y-96344105D01*
X129536871Y-96390127D01*
X129535687Y-96395846D01*
X129524101Y-96440972D01*
X129524100Y-96440982D01*
X129524100Y-96461016D01*
X129522573Y-96480415D01*
X129519440Y-96500194D01*
X129519440Y-96500195D01*
X129523825Y-96546583D01*
X129524100Y-96552421D01*
X129524100Y-99783712D01*
X129504415Y-99850751D01*
X129492250Y-99866684D01*
X129417066Y-99950184D01*
X129322421Y-100114115D01*
X129322418Y-100114122D01*
X129276319Y-100256001D01*
X129263926Y-100294144D01*
X129244140Y-100482400D01*
X127664768Y-100482400D01*
X127585656Y-100403288D01*
X127436334Y-100311186D01*
X127269797Y-100256001D01*
X127269795Y-100256000D01*
X127167010Y-100245500D01*
X125816998Y-100245500D01*
X125816981Y-100245501D01*
X125714203Y-100256000D01*
X125714200Y-100256001D01*
X125547668Y-100311185D01*
X125547663Y-100311187D01*
X125398342Y-100403289D01*
X125274289Y-100527342D01*
X125182187Y-100676663D01*
X125182185Y-100676668D01*
X125169694Y-100714363D01*
X125127001Y-100843203D01*
X125127001Y-100843204D01*
X125127000Y-100843204D01*
X125116500Y-100945983D01*
X125116500Y-101746001D01*
X125116501Y-101746019D01*
X125127000Y-101848796D01*
X125127001Y-101848799D01*
X125182185Y-102015331D01*
X125182187Y-102015336D01*
X125197652Y-102040409D01*
X125274288Y-102164656D01*
X125398344Y-102288712D01*
X125414249Y-102298522D01*
X125462191Y-102328093D01*
X125508916Y-102380041D01*
X125520139Y-102449003D01*
X125492295Y-102513086D01*
X125473750Y-102531100D01*
X125454461Y-102546269D01*
X125454459Y-102546271D01*
X125316894Y-102705030D01*
X125316885Y-102705041D01*
X125211855Y-102886960D01*
X125211852Y-102886967D01*
X125143144Y-103085482D01*
X125143144Y-103085484D01*
X125141632Y-103096000D01*
X126212440Y-103096000D01*
X126173722Y-103138059D01*
X126123449Y-103252670D01*
X126113114Y-103377395D01*
X126143837Y-103498719D01*
X126207068Y-103595500D01*
X124232862Y-103595500D01*
X124165823Y-103575815D01*
X124120068Y-103523011D01*
X124114931Y-103509818D01*
X124067981Y-103365322D01*
X124067980Y-103365321D01*
X124067979Y-103365316D01*
X123973333Y-103201384D01*
X123846671Y-103060712D01*
X123846670Y-103060711D01*
X123693534Y-102949451D01*
X123693529Y-102949448D01*
X123520607Y-102872457D01*
X123520602Y-102872455D01*
X123374801Y-102841465D01*
X123335446Y-102833100D01*
X123146154Y-102833100D01*
X123113697Y-102839998D01*
X122960997Y-102872455D01*
X122960992Y-102872457D01*
X122788070Y-102949448D01*
X122788065Y-102949451D01*
X122634929Y-103060711D01*
X122508266Y-103201385D01*
X122413621Y-103365315D01*
X122413618Y-103365322D01*
X122370275Y-103498719D01*
X122355126Y-103545344D01*
X122335340Y-103733600D01*
X122355126Y-103921856D01*
X122355127Y-103921859D01*
X122413618Y-104101877D01*
X122413621Y-104101884D01*
X122508267Y-104265816D01*
X122554559Y-104317228D01*
X122634929Y-104406488D01*
X122788065Y-104517748D01*
X122788070Y-104517751D01*
X122895911Y-104565766D01*
X122949148Y-104611016D01*
X122969469Y-104677866D01*
X122950423Y-104745089D01*
X122898057Y-104791344D01*
X122871256Y-104800335D01*
X122859397Y-104802855D01*
X122859392Y-104802857D01*
X122686470Y-104879848D01*
X122686465Y-104879851D01*
X122533329Y-104991111D01*
X122406666Y-105131785D01*
X122312021Y-105295715D01*
X122312018Y-105295722D01*
X122253527Y-105475740D01*
X122253526Y-105475744D01*
X122233740Y-105664000D01*
X122253526Y-105852256D01*
X122253527Y-105852259D01*
X122312018Y-106032277D01*
X122312021Y-106032284D01*
X122406667Y-106196216D01*
X122492894Y-106291980D01*
X122533329Y-106336888D01*
X122597385Y-106383427D01*
X122640051Y-106438756D01*
X122646030Y-106508370D01*
X122613425Y-106570165D01*
X122597386Y-106584063D01*
X122482527Y-106667513D01*
X122355866Y-106808185D01*
X122261221Y-106972115D01*
X122261218Y-106972122D01*
X122202727Y-107152140D01*
X122202726Y-107152144D01*
X122182940Y-107340400D01*
X112677731Y-107340400D01*
X108148777Y-99490211D01*
X107017093Y-97528626D01*
X107000500Y-97466660D01*
X107000500Y-90000002D01*
X107695153Y-90000002D01*
X107714526Y-90357314D01*
X107714527Y-90357331D01*
X107772415Y-90710431D01*
X107772421Y-90710457D01*
X107868147Y-91055232D01*
X107868149Y-91055239D01*
X108000597Y-91387659D01*
X108000606Y-91387677D01*
X108168218Y-91703827D01*
X108369033Y-92000007D01*
X108496441Y-92150003D01*
X108496442Y-92150004D01*
X109702266Y-90944180D01*
X109865130Y-91134870D01*
X110055818Y-91297732D01*
X108847255Y-92506295D01*
X108847256Y-92506296D01*
X108860485Y-92518828D01*
X108860486Y-92518829D01*
X109145367Y-92735388D01*
X109145370Y-92735390D01*
X109451990Y-92919876D01*
X109776739Y-93070122D01*
X109776744Y-93070123D01*
X110115855Y-93184383D01*
X110465339Y-93261311D01*
X110821075Y-93299999D01*
X110821085Y-93300000D01*
X111178915Y-93300000D01*
X111178924Y-93299999D01*
X111534660Y-93261311D01*
X111884144Y-93184383D01*
X112223255Y-93070123D01*
X112223260Y-93070122D01*
X112548009Y-92919876D01*
X112854629Y-92735390D01*
X112854632Y-92735388D01*
X113139504Y-92518836D01*
X113152742Y-92506294D01*
X111944180Y-91297733D01*
X112134870Y-91134870D01*
X112297733Y-90944180D01*
X113503556Y-92150003D01*
X113630964Y-92000008D01*
X113630975Y-91999994D01*
X113831781Y-91703827D01*
X113999393Y-91387677D01*
X113999402Y-91387659D01*
X114131850Y-91055239D01*
X114131852Y-91055232D01*
X114227578Y-90710457D01*
X114227584Y-90710431D01*
X114285472Y-90357331D01*
X114285473Y-90357314D01*
X114304847Y-90000002D01*
X114304847Y-89999997D01*
X114285473Y-89642685D01*
X114285472Y-89642668D01*
X114227584Y-89289568D01*
X114227578Y-89289542D01*
X114131852Y-88944767D01*
X114131850Y-88944760D01*
X113999402Y-88612340D01*
X113999393Y-88612322D01*
X113831781Y-88296172D01*
X113630966Y-87999992D01*
X113503557Y-87849995D01*
X113503556Y-87849994D01*
X112297732Y-89055818D01*
X112134870Y-88865130D01*
X111944180Y-88702266D01*
X113152743Y-87493703D01*
X113152742Y-87493702D01*
X113139514Y-87481171D01*
X113139513Y-87481170D01*
X112854632Y-87264611D01*
X112854629Y-87264609D01*
X112548009Y-87080123D01*
X112223260Y-86929877D01*
X112223255Y-86929876D01*
X111884144Y-86815616D01*
X111534660Y-86738688D01*
X111178924Y-86700000D01*
X110821075Y-86700000D01*
X110465339Y-86738688D01*
X110115855Y-86815616D01*
X109776744Y-86929876D01*
X109776739Y-86929877D01*
X109451990Y-87080123D01*
X109145370Y-87264609D01*
X109145367Y-87264611D01*
X108860491Y-87481166D01*
X108847256Y-87493703D01*
X108847255Y-87493703D01*
X110055819Y-88702266D01*
X109865130Y-88865130D01*
X109702266Y-89055818D01*
X108496442Y-87849994D01*
X108496441Y-87849995D01*
X108369040Y-87999983D01*
X108369033Y-87999993D01*
X108168218Y-88296172D01*
X108000606Y-88612322D01*
X108000597Y-88612340D01*
X107868149Y-88944760D01*
X107868147Y-88944767D01*
X107772421Y-89289542D01*
X107772415Y-89289568D01*
X107714527Y-89642668D01*
X107714526Y-89642685D01*
X107695153Y-89999997D01*
X107695153Y-90000002D01*
X107000500Y-90000002D01*
X107000500Y-82583227D01*
X107016990Y-82521440D01*
X107027780Y-82502666D01*
X114445403Y-69596000D01*
X116840000Y-69596000D01*
X116840000Y-77724000D01*
X122813407Y-77724000D01*
X122145808Y-78391599D01*
X122133551Y-78401420D01*
X122133734Y-78401641D01*
X122127722Y-78406614D01*
X122081032Y-78456332D01*
X122079679Y-78457729D01*
X122059489Y-78477919D01*
X122059477Y-78477932D01*
X122055221Y-78483417D01*
X122051437Y-78487847D01*
X122019537Y-78521818D01*
X122019536Y-78521820D01*
X122009884Y-78539376D01*
X121999210Y-78555626D01*
X121986929Y-78571461D01*
X121986924Y-78571468D01*
X121968415Y-78614238D01*
X121965845Y-78619484D01*
X121943403Y-78660306D01*
X121938422Y-78679707D01*
X121932121Y-78698110D01*
X121924162Y-78716502D01*
X121924161Y-78716505D01*
X121916871Y-78762527D01*
X121915687Y-78768246D01*
X121904101Y-78813372D01*
X121904100Y-78813382D01*
X121904100Y-78833416D01*
X121902573Y-78852815D01*
X121899440Y-78872594D01*
X121899440Y-78872595D01*
X121903825Y-78918983D01*
X121904100Y-78924821D01*
X121904100Y-87947312D01*
X121884415Y-88014351D01*
X121872250Y-88030284D01*
X121797066Y-88113784D01*
X121702421Y-88277715D01*
X121702418Y-88277722D01*
X121657434Y-88416170D01*
X121643926Y-88457744D01*
X121638583Y-88508582D01*
X121636233Y-88530942D01*
X121609648Y-88595557D01*
X121552350Y-88635541D01*
X121482531Y-88638201D01*
X121462476Y-88631259D01*
X121387006Y-88597657D01*
X121387002Y-88597655D01*
X121230130Y-88564312D01*
X121201846Y-88558300D01*
X121012554Y-88558300D01*
X120984270Y-88564312D01*
X120827397Y-88597655D01*
X120827392Y-88597657D01*
X120654470Y-88674648D01*
X120654465Y-88674651D01*
X120501329Y-88785911D01*
X120374666Y-88926585D01*
X120280021Y-89090515D01*
X120280018Y-89090522D01*
X120221527Y-89270540D01*
X120221526Y-89270544D01*
X120209624Y-89383785D01*
X120203879Y-89438449D01*
X120177294Y-89503063D01*
X120168239Y-89513168D01*
X118589808Y-91091599D01*
X118577551Y-91101420D01*
X118577734Y-91101641D01*
X118571722Y-91106614D01*
X118525032Y-91156332D01*
X118523679Y-91157729D01*
X118503489Y-91177919D01*
X118503477Y-91177932D01*
X118499221Y-91183417D01*
X118495437Y-91187847D01*
X118463537Y-91221818D01*
X118463536Y-91221820D01*
X118453884Y-91239376D01*
X118443210Y-91255626D01*
X118430929Y-91271461D01*
X118430924Y-91271468D01*
X118412415Y-91314238D01*
X118409845Y-91319484D01*
X118387403Y-91360306D01*
X118382422Y-91379707D01*
X118376121Y-91398110D01*
X118368162Y-91416502D01*
X118368161Y-91416505D01*
X118360871Y-91462527D01*
X118359687Y-91468246D01*
X118348101Y-91513372D01*
X118348100Y-91513382D01*
X118348100Y-91533416D01*
X118346573Y-91552815D01*
X118343440Y-91572594D01*
X118343440Y-91572595D01*
X118347825Y-91618983D01*
X118348100Y-91624821D01*
X118348100Y-95211712D01*
X118328415Y-95278751D01*
X118316250Y-95294684D01*
X118241066Y-95378184D01*
X118146421Y-95542115D01*
X118146418Y-95542122D01*
X118093459Y-95705115D01*
X118087926Y-95722144D01*
X118068140Y-95910400D01*
X118087926Y-96098656D01*
X118087927Y-96098659D01*
X118146418Y-96278677D01*
X118146421Y-96278684D01*
X118241067Y-96442616D01*
X118321682Y-96532148D01*
X118367729Y-96583288D01*
X118520865Y-96694548D01*
X118520870Y-96694551D01*
X118693792Y-96771542D01*
X118693797Y-96771544D01*
X118878954Y-96810900D01*
X118878955Y-96810900D01*
X119068244Y-96810900D01*
X119068246Y-96810900D01*
X119253403Y-96771544D01*
X119426330Y-96694551D01*
X119579471Y-96583288D01*
X119706133Y-96442616D01*
X119800779Y-96278684D01*
X119859274Y-96098656D01*
X119879060Y-95910400D01*
X119859274Y-95722144D01*
X119804712Y-95554223D01*
X119800781Y-95542122D01*
X119800780Y-95542121D01*
X119800779Y-95542116D01*
X119706133Y-95378184D01*
X119654757Y-95321125D01*
X119630950Y-95294684D01*
X119600720Y-95231692D01*
X119599100Y-95211712D01*
X119599100Y-93584026D01*
X119599100Y-91902848D01*
X119618784Y-91835813D01*
X119635413Y-91815176D01*
X121054971Y-90395619D01*
X121116295Y-90362134D01*
X121142653Y-90359300D01*
X121201844Y-90359300D01*
X121201846Y-90359300D01*
X121387003Y-90319944D01*
X121559930Y-90242951D01*
X121713071Y-90131688D01*
X121839733Y-89991016D01*
X121934379Y-89827084D01*
X121992874Y-89647056D01*
X122000567Y-89573855D01*
X122027150Y-89509244D01*
X122084447Y-89469258D01*
X122154266Y-89466598D01*
X122174315Y-89473537D01*
X122249797Y-89507144D01*
X122434954Y-89546500D01*
X122434955Y-89546500D01*
X122624244Y-89546500D01*
X122624246Y-89546500D01*
X122809403Y-89507144D01*
X122982330Y-89430151D01*
X123135471Y-89318888D01*
X123238326Y-89204655D01*
X123297813Y-89168007D01*
X123367670Y-89169338D01*
X123418156Y-89199946D01*
X123899781Y-89681572D01*
X123933265Y-89742893D01*
X123936099Y-89769251D01*
X123936099Y-90639713D01*
X123916414Y-90706752D01*
X123904249Y-90722685D01*
X123829066Y-90806184D01*
X123734421Y-90970115D01*
X123734418Y-90970122D01*
X123675927Y-91150140D01*
X123675926Y-91150144D01*
X123656140Y-91338400D01*
X123675926Y-91526656D01*
X123675927Y-91526659D01*
X123734418Y-91706677D01*
X123734421Y-91706684D01*
X123829067Y-91870616D01*
X123858093Y-91902852D01*
X123955729Y-92011288D01*
X124108865Y-92122548D01*
X124108870Y-92122551D01*
X124281792Y-92199542D01*
X124281797Y-92199544D01*
X124466954Y-92238900D01*
X124466955Y-92238900D01*
X124656244Y-92238900D01*
X124656246Y-92238900D01*
X124841403Y-92199544D01*
X125014330Y-92122551D01*
X125167471Y-92011288D01*
X125294133Y-91870616D01*
X125388779Y-91706684D01*
X125447274Y-91526656D01*
X125467060Y-91338400D01*
X125447274Y-91150144D01*
X125388779Y-90970116D01*
X125294133Y-90806184D01*
X125218950Y-90722684D01*
X125188720Y-90659692D01*
X125187100Y-90639712D01*
X125187100Y-89916000D01*
X130260140Y-89916000D01*
X130279926Y-90104256D01*
X130279927Y-90104259D01*
X130338418Y-90284277D01*
X130338421Y-90284284D01*
X130433067Y-90448216D01*
X130477190Y-90497219D01*
X130559729Y-90588888D01*
X130712865Y-90700148D01*
X130712870Y-90700151D01*
X130885792Y-90777142D01*
X130885797Y-90777144D01*
X131070954Y-90816500D01*
X131070955Y-90816500D01*
X131260244Y-90816500D01*
X131260246Y-90816500D01*
X131445403Y-90777144D01*
X131618330Y-90700151D01*
X131771471Y-90588888D01*
X131898133Y-90448216D01*
X131992779Y-90284284D01*
X132051274Y-90104256D01*
X132068921Y-89936345D01*
X132095505Y-89871732D01*
X132104552Y-89861636D01*
X133327386Y-88638802D01*
X133339648Y-88628980D01*
X133339465Y-88628759D01*
X133345473Y-88623788D01*
X133345477Y-88623786D01*
X133392249Y-88573977D01*
X133393491Y-88572697D01*
X133413720Y-88552470D01*
X133417973Y-88546986D01*
X133421750Y-88542563D01*
X133453662Y-88508582D01*
X133463314Y-88491023D01*
X133473989Y-88474772D01*
X133486274Y-88458936D01*
X133504786Y-88416152D01*
X133507342Y-88410935D01*
X133529797Y-88370092D01*
X133534780Y-88350680D01*
X133541077Y-88332291D01*
X133549038Y-88313895D01*
X133556329Y-88267853D01*
X133557506Y-88262166D01*
X133569100Y-88217019D01*
X133569099Y-88196986D01*
X133570627Y-88177583D01*
X133573759Y-88157808D01*
X133573760Y-88157804D01*
X133569373Y-88111395D01*
X133569100Y-88105599D01*
X133569100Y-87515886D01*
X133588785Y-87448847D01*
X133600950Y-87432915D01*
X133619491Y-87412322D01*
X133676133Y-87349416D01*
X133770779Y-87185484D01*
X133829274Y-87005456D01*
X133849060Y-86817200D01*
X133829274Y-86628944D01*
X133770779Y-86448916D01*
X133676133Y-86284984D01*
X133549471Y-86144312D01*
X133549470Y-86144311D01*
X133396334Y-86033051D01*
X133396329Y-86033048D01*
X133223407Y-85956057D01*
X133223402Y-85956055D01*
X133077600Y-85925065D01*
X133038246Y-85916700D01*
X132848954Y-85916700D01*
X132816497Y-85923598D01*
X132663797Y-85956055D01*
X132663792Y-85956057D01*
X132490870Y-86033048D01*
X132490865Y-86033051D01*
X132337729Y-86144311D01*
X132211066Y-86284985D01*
X132116421Y-86448915D01*
X132116418Y-86448922D01*
X132067298Y-86600100D01*
X132057926Y-86628944D01*
X132038140Y-86817200D01*
X132057926Y-87005456D01*
X132057927Y-87005459D01*
X132116418Y-87185477D01*
X132116421Y-87185484D01*
X132211066Y-87349415D01*
X132286249Y-87432915D01*
X132316479Y-87495907D01*
X132318099Y-87515887D01*
X132318100Y-87827546D01*
X132298416Y-87894585D01*
X132281781Y-87915227D01*
X131217828Y-88979181D01*
X131156505Y-89012666D01*
X131130147Y-89015500D01*
X131070954Y-89015500D01*
X131038497Y-89022398D01*
X130885797Y-89054855D01*
X130885792Y-89054857D01*
X130712870Y-89131848D01*
X130712865Y-89131851D01*
X130559729Y-89243111D01*
X130433066Y-89383785D01*
X130338421Y-89547715D01*
X130338418Y-89547722D01*
X130279927Y-89727740D01*
X130279926Y-89727744D01*
X130260140Y-89916000D01*
X125187100Y-89916000D01*
X125187100Y-89541537D01*
X125188824Y-89525923D01*
X125188538Y-89525896D01*
X125189272Y-89518133D01*
X125187131Y-89449970D01*
X125187100Y-89448023D01*
X125187100Y-89419451D01*
X125187100Y-89419450D01*
X125186229Y-89412559D01*
X125185772Y-89406745D01*
X125184309Y-89360174D01*
X125184309Y-89360172D01*
X125178720Y-89340937D01*
X125174774Y-89321884D01*
X125172264Y-89302008D01*
X125155101Y-89258659D01*
X125153214Y-89253146D01*
X125140217Y-89208410D01*
X125140216Y-89208408D01*
X125130021Y-89191169D01*
X125121460Y-89173693D01*
X125114086Y-89155069D01*
X125114086Y-89155067D01*
X125104074Y-89141288D01*
X125086683Y-89117350D01*
X125083500Y-89112505D01*
X125059770Y-89072379D01*
X125059765Y-89072373D01*
X125045605Y-89058213D01*
X125032970Y-89043420D01*
X125021193Y-89027212D01*
X124985293Y-88997513D01*
X124980981Y-88993590D01*
X123597819Y-87610428D01*
X123564334Y-87549105D01*
X123561500Y-87522747D01*
X123561500Y-79406052D01*
X123581185Y-79339013D01*
X123597819Y-79318371D01*
X125192191Y-77724000D01*
X129239121Y-77724000D01*
X129248229Y-77810656D01*
X129248230Y-77810659D01*
X129306721Y-77990677D01*
X129306724Y-77990684D01*
X129401370Y-78154616D01*
X129411092Y-78165413D01*
X129476553Y-78238115D01*
X129506783Y-78301106D01*
X129508403Y-78321087D01*
X129508403Y-81847738D01*
X129488718Y-81914777D01*
X129472084Y-81935419D01*
X129136459Y-82271045D01*
X129075136Y-82304530D01*
X129048778Y-82307364D01*
X128989585Y-82307364D01*
X128957128Y-82314262D01*
X128804428Y-82346719D01*
X128804423Y-82346721D01*
X128631501Y-82423712D01*
X128631496Y-82423715D01*
X128478360Y-82534975D01*
X128351697Y-82675649D01*
X128257052Y-82839579D01*
X128257049Y-82839586D01*
X128210614Y-82982500D01*
X128198557Y-83019608D01*
X128178771Y-83207864D01*
X128198557Y-83396120D01*
X128198558Y-83396123D01*
X128257049Y-83576141D01*
X128257052Y-83576148D01*
X128351697Y-83740079D01*
X128426880Y-83823579D01*
X128457110Y-83886571D01*
X128458730Y-83906551D01*
X128458731Y-85122268D01*
X128442119Y-85184267D01*
X128385641Y-85282091D01*
X128359225Y-85327846D01*
X128357220Y-85331318D01*
X128357218Y-85331322D01*
X128298727Y-85511340D01*
X128298726Y-85511344D01*
X128278940Y-85699600D01*
X128298726Y-85887856D01*
X128298727Y-85887859D01*
X128357218Y-86067877D01*
X128357221Y-86067884D01*
X128451867Y-86231816D01*
X128499740Y-86284984D01*
X128578529Y-86372488D01*
X128731665Y-86483748D01*
X128731670Y-86483751D01*
X128904592Y-86560742D01*
X128904597Y-86560744D01*
X129089754Y-86600100D01*
X129089755Y-86600100D01*
X129279044Y-86600100D01*
X129279046Y-86600100D01*
X129464203Y-86560744D01*
X129637130Y-86483751D01*
X129790271Y-86372488D01*
X129916933Y-86231816D01*
X130011579Y-86067884D01*
X130070074Y-85887856D01*
X130089860Y-85699600D01*
X130070074Y-85511344D01*
X130011579Y-85331316D01*
X129916933Y-85167384D01*
X129867322Y-85112286D01*
X129790276Y-85026716D01*
X129790269Y-85026710D01*
X129760843Y-85005330D01*
X129718179Y-84949999D01*
X129709731Y-84905014D01*
X129709731Y-83906551D01*
X129729416Y-83839512D01*
X129741581Y-83823579D01*
X129760122Y-83802986D01*
X129816764Y-83740080D01*
X129911410Y-83576148D01*
X129940569Y-83486405D01*
X129980006Y-83428731D01*
X130044365Y-83401532D01*
X130113211Y-83413446D01*
X130164687Y-83460690D01*
X130182500Y-83524724D01*
X130182500Y-84511895D01*
X130182110Y-84518843D01*
X130177754Y-84557499D01*
X130177754Y-84557500D01*
X130182110Y-84596156D01*
X130182500Y-84603104D01*
X130182500Y-84855344D01*
X130188901Y-84914872D01*
X130188903Y-84914879D01*
X130239145Y-85049586D01*
X130239149Y-85049593D01*
X130325309Y-85164687D01*
X130325312Y-85164690D01*
X130440406Y-85250850D01*
X130440413Y-85250854D01*
X130575120Y-85301096D01*
X130575127Y-85301098D01*
X130634655Y-85307499D01*
X130634672Y-85307500D01*
X130886895Y-85307500D01*
X130893843Y-85307890D01*
X130932498Y-85312246D01*
X130932502Y-85312246D01*
X130971157Y-85307890D01*
X130978105Y-85307500D01*
X132361895Y-85307500D01*
X132368843Y-85307890D01*
X132407498Y-85312246D01*
X132407502Y-85312246D01*
X132446157Y-85307890D01*
X132453105Y-85307500D01*
X133632500Y-85307500D01*
X133632500Y-84589992D01*
X133782500Y-84589992D01*
X133820697Y-84642565D01*
X133866662Y-84657500D01*
X133898338Y-84657500D01*
X133944303Y-84642565D01*
X133982500Y-84589992D01*
X133982500Y-84525008D01*
X133944303Y-84472435D01*
X133898338Y-84457500D01*
X133866662Y-84457500D01*
X133820697Y-84472435D01*
X133782500Y-84525008D01*
X133782500Y-84589992D01*
X133632500Y-84589992D01*
X133632500Y-83114992D01*
X133782500Y-83114992D01*
X133820697Y-83167565D01*
X133866662Y-83182500D01*
X133898338Y-83182500D01*
X133944303Y-83167565D01*
X133982500Y-83114992D01*
X133982500Y-83050008D01*
X133944303Y-82997435D01*
X133898338Y-82982500D01*
X133866662Y-82982500D01*
X133820697Y-82997435D01*
X133782500Y-83050008D01*
X133782500Y-83114992D01*
X133632500Y-83114992D01*
X133632500Y-81857500D01*
X134132500Y-81857500D01*
X134132500Y-85307500D01*
X135311895Y-85307500D01*
X135318843Y-85307890D01*
X135357498Y-85312246D01*
X135357502Y-85312246D01*
X135396157Y-85307890D01*
X135403105Y-85307500D01*
X136786895Y-85307500D01*
X136793843Y-85307890D01*
X136832498Y-85312246D01*
X136832502Y-85312246D01*
X136871157Y-85307890D01*
X136878105Y-85307500D01*
X137130328Y-85307500D01*
X137130344Y-85307499D01*
X137189872Y-85301098D01*
X137189879Y-85301096D01*
X137324586Y-85250854D01*
X137324593Y-85250850D01*
X137439687Y-85164690D01*
X137439690Y-85164687D01*
X137525850Y-85049593D01*
X137525854Y-85049586D01*
X137576096Y-84914879D01*
X137576098Y-84914872D01*
X137582499Y-84855344D01*
X137582500Y-84855327D01*
X137582500Y-84603104D01*
X137582890Y-84596156D01*
X137587246Y-84557500D01*
X137587246Y-84557499D01*
X137582890Y-84518843D01*
X137582500Y-84511895D01*
X137582500Y-83128104D01*
X137582890Y-83121156D01*
X137587246Y-83082500D01*
X137587246Y-83082499D01*
X137582890Y-83043843D01*
X137582500Y-83036895D01*
X137582500Y-81857500D01*
X134132500Y-81857500D01*
X133632500Y-81857500D01*
X133632500Y-81639992D01*
X133782500Y-81639992D01*
X133820697Y-81692565D01*
X133866662Y-81707500D01*
X133898338Y-81707500D01*
X133944303Y-81692565D01*
X133982500Y-81639992D01*
X135257500Y-81639992D01*
X135295697Y-81692565D01*
X135341662Y-81707500D01*
X135373338Y-81707500D01*
X135419303Y-81692565D01*
X135457500Y-81639992D01*
X136732500Y-81639992D01*
X136770697Y-81692565D01*
X136816662Y-81707500D01*
X136848338Y-81707500D01*
X136894303Y-81692565D01*
X136932500Y-81639992D01*
X136932500Y-81575008D01*
X136894303Y-81522435D01*
X136848338Y-81507500D01*
X136816662Y-81507500D01*
X136770697Y-81522435D01*
X136732500Y-81575008D01*
X136732500Y-81639992D01*
X135457500Y-81639992D01*
X135457500Y-81575008D01*
X135419303Y-81522435D01*
X135373338Y-81507500D01*
X135341662Y-81507500D01*
X135295697Y-81522435D01*
X135257500Y-81575008D01*
X135257500Y-81639992D01*
X133982500Y-81639992D01*
X133982500Y-81575008D01*
X133944303Y-81522435D01*
X133898338Y-81507500D01*
X133866662Y-81507500D01*
X133820697Y-81522435D01*
X133782500Y-81575008D01*
X133782500Y-81639992D01*
X133632500Y-81639992D01*
X133632500Y-81357500D01*
X134132500Y-81357500D01*
X137582500Y-81357500D01*
X137582500Y-80178104D01*
X137582890Y-80171156D01*
X137587246Y-80132500D01*
X137587246Y-80132499D01*
X137582890Y-80093843D01*
X137582500Y-80086895D01*
X137582500Y-78703104D01*
X137582890Y-78696156D01*
X137587246Y-78657500D01*
X137587246Y-78657499D01*
X137582890Y-78618843D01*
X137582500Y-78611895D01*
X137582500Y-78359672D01*
X137582499Y-78359655D01*
X137576098Y-78300127D01*
X137576096Y-78300120D01*
X137525854Y-78165413D01*
X137525850Y-78165406D01*
X137439690Y-78050312D01*
X137439687Y-78050309D01*
X137324593Y-77964149D01*
X137324586Y-77964145D01*
X137189879Y-77913903D01*
X137189872Y-77913901D01*
X137130344Y-77907500D01*
X136878105Y-77907500D01*
X136871157Y-77907110D01*
X136832502Y-77902754D01*
X136832498Y-77902754D01*
X136793843Y-77907110D01*
X136786895Y-77907500D01*
X135403105Y-77907500D01*
X135396157Y-77907110D01*
X135357502Y-77902754D01*
X135357498Y-77902754D01*
X135318843Y-77907110D01*
X135311895Y-77907500D01*
X134132500Y-77907500D01*
X134132500Y-81357500D01*
X133632500Y-81357500D01*
X133632500Y-80164992D01*
X133782500Y-80164992D01*
X133820697Y-80217565D01*
X133866662Y-80232500D01*
X133898338Y-80232500D01*
X133944303Y-80217565D01*
X133982500Y-80164992D01*
X133982500Y-80100008D01*
X133944303Y-80047435D01*
X133898338Y-80032500D01*
X133866662Y-80032500D01*
X133820697Y-80047435D01*
X133782500Y-80100008D01*
X133782500Y-80164992D01*
X133632500Y-80164992D01*
X133632500Y-78689992D01*
X133782500Y-78689992D01*
X133820697Y-78742565D01*
X133866662Y-78757500D01*
X133898338Y-78757500D01*
X133944303Y-78742565D01*
X133982500Y-78689992D01*
X133982500Y-78625008D01*
X133944303Y-78572435D01*
X133898338Y-78557500D01*
X133866662Y-78557500D01*
X133820697Y-78572435D01*
X133782500Y-78625008D01*
X133782500Y-78689992D01*
X133632500Y-78689992D01*
X133632500Y-77907500D01*
X132453105Y-77907500D01*
X132446157Y-77907110D01*
X132407502Y-77902754D01*
X132407498Y-77902754D01*
X132368843Y-77907110D01*
X132361895Y-77907500D01*
X131785283Y-77907500D01*
X131718244Y-77887815D01*
X131672489Y-77835011D01*
X131662545Y-77765853D01*
X131681659Y-77724000D01*
X140176405Y-77724000D01*
X141450738Y-78998333D01*
X141484223Y-79059656D01*
X141479239Y-79129348D01*
X141455207Y-79168986D01*
X141405866Y-79223784D01*
X141311221Y-79387715D01*
X141311219Y-79387719D01*
X141253580Y-79565114D01*
X141214142Y-79622789D01*
X141186085Y-79640074D01*
X141067742Y-79692764D01*
X141067737Y-79692767D01*
X140914601Y-79804027D01*
X140787938Y-79944701D01*
X140693293Y-80108631D01*
X140693290Y-80108638D01*
X140634799Y-80288656D01*
X140634798Y-80288660D01*
X140626820Y-80364560D01*
X140617300Y-80455140D01*
X140590715Y-80519755D01*
X140584370Y-80527063D01*
X140564033Y-80548719D01*
X140562679Y-80550116D01*
X140542489Y-80570305D01*
X140542477Y-80570320D01*
X140538221Y-80575805D01*
X140534437Y-80580235D01*
X140502537Y-80614206D01*
X140502536Y-80614208D01*
X140492884Y-80631764D01*
X140482210Y-80648014D01*
X140469929Y-80663849D01*
X140469924Y-80663856D01*
X140451415Y-80706626D01*
X140448845Y-80711872D01*
X140426403Y-80752694D01*
X140421422Y-80772095D01*
X140415121Y-80790498D01*
X140407162Y-80808890D01*
X140407161Y-80808893D01*
X140399871Y-80854915D01*
X140398687Y-80860634D01*
X140387101Y-80905760D01*
X140387100Y-80905770D01*
X140387100Y-80925804D01*
X140385573Y-80945203D01*
X140382440Y-80964982D01*
X140382440Y-80964983D01*
X140386825Y-81011371D01*
X140387100Y-81017209D01*
X140387100Y-88038946D01*
X140367415Y-88105985D01*
X140350781Y-88126627D01*
X133931408Y-94545999D01*
X133919151Y-94555820D01*
X133919334Y-94556041D01*
X133913322Y-94561014D01*
X133866632Y-94610732D01*
X133865279Y-94612129D01*
X133845089Y-94632319D01*
X133845077Y-94632332D01*
X133840821Y-94637817D01*
X133837037Y-94642247D01*
X133805137Y-94676218D01*
X133805136Y-94676220D01*
X133795484Y-94693776D01*
X133784810Y-94710026D01*
X133772529Y-94725861D01*
X133772524Y-94725868D01*
X133754015Y-94768638D01*
X133751445Y-94773884D01*
X133729003Y-94814706D01*
X133724022Y-94834107D01*
X133717721Y-94852510D01*
X133709762Y-94870902D01*
X133709761Y-94870905D01*
X133702471Y-94916927D01*
X133701287Y-94922646D01*
X133689701Y-94967772D01*
X133689700Y-94967782D01*
X133689700Y-94987816D01*
X133688173Y-95007215D01*
X133685040Y-95026994D01*
X133685039Y-95026997D01*
X133689424Y-95073385D01*
X133689699Y-95079221D01*
X133689699Y-105371712D01*
X133670014Y-105438751D01*
X133657849Y-105454684D01*
X133582670Y-105538178D01*
X133582665Y-105538185D01*
X133488021Y-105702115D01*
X133488018Y-105702122D01*
X133439237Y-105852256D01*
X133429526Y-105882144D01*
X133409740Y-106070400D01*
X133429526Y-106258656D01*
X133429527Y-106258659D01*
X133488018Y-106438677D01*
X133488021Y-106438684D01*
X133582667Y-106602616D01*
X133616238Y-106639900D01*
X133709329Y-106743288D01*
X133862465Y-106854548D01*
X133862470Y-106854551D01*
X134035392Y-106931542D01*
X134035397Y-106931544D01*
X134220554Y-106970900D01*
X134220555Y-106970900D01*
X134409844Y-106970900D01*
X134409846Y-106970900D01*
X134595003Y-106931544D01*
X134767930Y-106854551D01*
X134921071Y-106743288D01*
X135047733Y-106602616D01*
X135142379Y-106438684D01*
X135142930Y-106436989D01*
X135162469Y-106376854D01*
X135201906Y-106319179D01*
X135266265Y-106291980D01*
X135335111Y-106303895D01*
X135386587Y-106351139D01*
X135398331Y-106376854D01*
X135418418Y-106438678D01*
X135418421Y-106438684D01*
X135513067Y-106602616D01*
X135546638Y-106639900D01*
X135639729Y-106743288D01*
X135792865Y-106854548D01*
X135792870Y-106854551D01*
X135965792Y-106931542D01*
X135965797Y-106931544D01*
X136150954Y-106970900D01*
X136150955Y-106970900D01*
X136340244Y-106970900D01*
X136340246Y-106970900D01*
X136525403Y-106931544D01*
X136698330Y-106854551D01*
X136851471Y-106743288D01*
X136978133Y-106602616D01*
X137072779Y-106438684D01*
X137131274Y-106258656D01*
X137151060Y-106070400D01*
X137131274Y-105882144D01*
X137072779Y-105702116D01*
X136978133Y-105538184D01*
X136851471Y-105397512D01*
X136820142Y-105374750D01*
X136698334Y-105286251D01*
X136698329Y-105286248D01*
X136525407Y-105209257D01*
X136525402Y-105209255D01*
X136379600Y-105178265D01*
X136340246Y-105169900D01*
X136340245Y-105169900D01*
X136281053Y-105169900D01*
X136214014Y-105150215D01*
X136193372Y-105133581D01*
X135377019Y-104317228D01*
X135343534Y-104255905D01*
X135340700Y-104229547D01*
X135340700Y-99123265D01*
X135360385Y-99056226D01*
X135413189Y-99010471D01*
X135482347Y-99000527D01*
X135545903Y-99029552D01*
X135572086Y-99061264D01*
X135614667Y-99135016D01*
X135672312Y-99199037D01*
X135741329Y-99275688D01*
X135894465Y-99386948D01*
X135894470Y-99386951D01*
X136067391Y-99463942D01*
X136067393Y-99463942D01*
X136067397Y-99463944D01*
X136222330Y-99496875D01*
X136283807Y-99530066D01*
X136284225Y-99530482D01*
X144053199Y-107299456D01*
X144055735Y-107302150D01*
X144096871Y-107348583D01*
X144128231Y-107370229D01*
X144147910Y-107383813D01*
X144150927Y-107386033D01*
X144199738Y-107424274D01*
X144199743Y-107424277D01*
X144208974Y-107428431D01*
X144228527Y-107439459D01*
X144236870Y-107445218D01*
X144294844Y-107467204D01*
X144294857Y-107467209D01*
X144298308Y-107468638D01*
X144327893Y-107481953D01*
X144354863Y-107494092D01*
X144354864Y-107494092D01*
X144354868Y-107494094D01*
X144364830Y-107495919D01*
X144386451Y-107501946D01*
X144386467Y-107501952D01*
X144395928Y-107505540D01*
X144412671Y-107507573D01*
X144457489Y-107513015D01*
X144461186Y-107513577D01*
X144522194Y-107524757D01*
X144522195Y-107524756D01*
X144522196Y-107524757D01*
X144584093Y-107521013D01*
X144587837Y-107520900D01*
X152621856Y-107520900D01*
X152625601Y-107521013D01*
X152632946Y-107521457D01*
X152687510Y-107524758D01*
X152725218Y-107517847D01*
X152748525Y-107513577D01*
X152752229Y-107513013D01*
X152770074Y-107510846D01*
X152813776Y-107505540D01*
X152823239Y-107501950D01*
X152844865Y-107495922D01*
X152845797Y-107495751D01*
X152854836Y-107494095D01*
X152911416Y-107468629D01*
X152914846Y-107467209D01*
X152972834Y-107445218D01*
X152981170Y-107439462D01*
X153000725Y-107428434D01*
X153009961Y-107424278D01*
X153058800Y-107386013D01*
X153061780Y-107383821D01*
X153112833Y-107348583D01*
X153153969Y-107302148D01*
X153156503Y-107299456D01*
X159099119Y-101356840D01*
X159101811Y-101354306D01*
X159148246Y-101313170D01*
X159183484Y-101262117D01*
X159185676Y-101259137D01*
X159223941Y-101210298D01*
X159228097Y-101201062D01*
X159239125Y-101181507D01*
X159244881Y-101173171D01*
X159266875Y-101115172D01*
X159268290Y-101111756D01*
X159293758Y-101055172D01*
X159295585Y-101045200D01*
X159301609Y-101023588D01*
X159305203Y-101014113D01*
X159312676Y-100952565D01*
X159313240Y-100948860D01*
X159316807Y-100929392D01*
X159324421Y-100887847D01*
X159320676Y-100825937D01*
X159320563Y-100822192D01*
X159320563Y-94121287D01*
X159320676Y-94117542D01*
X159324421Y-94055634D01*
X159313238Y-93994611D01*
X159312676Y-93990914D01*
X159310681Y-93974491D01*
X159305203Y-93929368D01*
X159301611Y-93919896D01*
X159295584Y-93898274D01*
X159293758Y-93888311D01*
X159293758Y-93888309D01*
X159268287Y-93831716D01*
X159266880Y-93828319D01*
X159244881Y-93770310D01*
X159244879Y-93770308D01*
X159244879Y-93770306D01*
X159239125Y-93761971D01*
X159228097Y-93742417D01*
X159223943Y-93733187D01*
X159223941Y-93733184D01*
X159185684Y-93684352D01*
X159183490Y-93681370D01*
X159148246Y-93630311D01*
X159101813Y-93589175D01*
X159099119Y-93586639D01*
X159024161Y-93511681D01*
X158990676Y-93450358D01*
X158995660Y-93380666D01*
X159037532Y-93324733D01*
X159102996Y-93300316D01*
X159111842Y-93300000D01*
X159178915Y-93300000D01*
X159178924Y-93299999D01*
X159534660Y-93261311D01*
X159884144Y-93184383D01*
X160223255Y-93070123D01*
X160223260Y-93070122D01*
X160548009Y-92919876D01*
X160854629Y-92735390D01*
X160854632Y-92735388D01*
X161139504Y-92518836D01*
X161152742Y-92506294D01*
X159944180Y-91297733D01*
X160134870Y-91134870D01*
X160297733Y-90944180D01*
X161503556Y-92150003D01*
X161630964Y-92000008D01*
X161630975Y-91999994D01*
X161831781Y-91703827D01*
X161999393Y-91387677D01*
X161999402Y-91387659D01*
X162131850Y-91055239D01*
X162131852Y-91055232D01*
X162227578Y-90710457D01*
X162227584Y-90710431D01*
X162285472Y-90357331D01*
X162285473Y-90357314D01*
X162304846Y-90000002D01*
X162304846Y-89999997D01*
X162285473Y-89642685D01*
X162285472Y-89642668D01*
X162227584Y-89289568D01*
X162227578Y-89289542D01*
X162131852Y-88944767D01*
X162131850Y-88944760D01*
X161999402Y-88612340D01*
X161999393Y-88612322D01*
X161831781Y-88296172D01*
X161630966Y-87999992D01*
X161503557Y-87849995D01*
X161503556Y-87849994D01*
X160297732Y-89055818D01*
X160134870Y-88865130D01*
X159944180Y-88702266D01*
X161152743Y-87493703D01*
X161152742Y-87493702D01*
X161139514Y-87481171D01*
X161139513Y-87481170D01*
X160854632Y-87264611D01*
X160854629Y-87264609D01*
X160548009Y-87080123D01*
X160223260Y-86929877D01*
X160223255Y-86929876D01*
X159884144Y-86815616D01*
X159534660Y-86738688D01*
X159178924Y-86700000D01*
X158821075Y-86700000D01*
X158465339Y-86738688D01*
X158115855Y-86815616D01*
X157776744Y-86929876D01*
X157776739Y-86929877D01*
X157451990Y-87080123D01*
X157145370Y-87264609D01*
X157145367Y-87264611D01*
X156860491Y-87481166D01*
X156847256Y-87493703D01*
X156847255Y-87493703D01*
X158055819Y-88702266D01*
X157865130Y-88865130D01*
X157702266Y-89055819D01*
X156496442Y-87849994D01*
X156496441Y-87849995D01*
X156369040Y-87999983D01*
X156369033Y-87999993D01*
X156168218Y-88296172D01*
X156000606Y-88612322D01*
X156000597Y-88612340D01*
X155868149Y-88944760D01*
X155868147Y-88944767D01*
X155772421Y-89289542D01*
X155772415Y-89289568D01*
X155714527Y-89642668D01*
X155714526Y-89642684D01*
X155700799Y-89895853D01*
X155677514Y-89961728D01*
X155622310Y-90004557D01*
X155552715Y-90010741D01*
X155490824Y-89978318D01*
X155489300Y-89976820D01*
X151173319Y-85660839D01*
X151139834Y-85599516D01*
X151137000Y-85573158D01*
X151137000Y-81234991D01*
X151156685Y-81167952D01*
X151168852Y-81152017D01*
X151169033Y-81151816D01*
X151263679Y-80987884D01*
X151322174Y-80807856D01*
X151341960Y-80619600D01*
X151322174Y-80431344D01*
X151263679Y-80251316D01*
X151169033Y-80087384D01*
X151042371Y-79946712D01*
X151039602Y-79944700D01*
X150889234Y-79835451D01*
X150889229Y-79835448D01*
X150716307Y-79758457D01*
X150716302Y-79758455D01*
X150570500Y-79727465D01*
X150531146Y-79719100D01*
X150341854Y-79719100D01*
X150309397Y-79725998D01*
X150156697Y-79758455D01*
X150156692Y-79758457D01*
X149983770Y-79835448D01*
X149983765Y-79835451D01*
X149830629Y-79946711D01*
X149703966Y-80087385D01*
X149609321Y-80251315D01*
X149609318Y-80251322D01*
X149550827Y-80431340D01*
X149550826Y-80431344D01*
X149531040Y-80619600D01*
X149550826Y-80807856D01*
X149550827Y-80807859D01*
X149609318Y-80987877D01*
X149609321Y-80987884D01*
X149703966Y-81151815D01*
X149704148Y-81152017D01*
X149704216Y-81152159D01*
X149707785Y-81157071D01*
X149706886Y-81157723D01*
X149734379Y-81215008D01*
X149736000Y-81234991D01*
X149736000Y-85215052D01*
X149716315Y-85282091D01*
X149663511Y-85327846D01*
X149594353Y-85337790D01*
X149530797Y-85308765D01*
X149524319Y-85302733D01*
X141945586Y-77724000D01*
X153416000Y-77724000D01*
X153416000Y-69596000D01*
X116840000Y-69596000D01*
X114445403Y-69596000D01*
X114483790Y-69529206D01*
X114529153Y-69483692D01*
X115183552Y-69104697D01*
X115245698Y-69088000D01*
X154751661Y-69088000D01*
X154813627Y-69104593D01*
G37*
G04 #@! TD.AperFunction*
G04 #@! TA.AperFunction,Conductor*
G36*
X130666257Y-117073410D02*
G01*
X130755762Y-117141001D01*
X130863640Y-117171695D01*
X130975321Y-117161346D01*
X131075722Y-117111352D01*
X131141800Y-117038869D01*
X131141800Y-117843300D01*
X131122115Y-117910339D01*
X131069311Y-117956094D01*
X131017800Y-117967300D01*
X130765800Y-117967300D01*
X130698761Y-117947615D01*
X130653006Y-117894811D01*
X130641800Y-117843300D01*
X130641800Y-117033910D01*
X130666257Y-117073410D01*
G37*
G04 #@! TD.AperFunction*
G04 #@! TA.AperFunction,Conductor*
G36*
X139016257Y-117073410D02*
G01*
X139105762Y-117141001D01*
X139213640Y-117171695D01*
X139325321Y-117161346D01*
X139425722Y-117111352D01*
X139491800Y-117038869D01*
X139491800Y-117843300D01*
X139472115Y-117910339D01*
X139419311Y-117956094D01*
X139367800Y-117967300D01*
X139115800Y-117967300D01*
X139048761Y-117947615D01*
X139003006Y-117894811D01*
X138991800Y-117843300D01*
X138991800Y-117033910D01*
X139016257Y-117073410D01*
G37*
G04 #@! TD.AperFunction*
G04 #@! TA.AperFunction,Conductor*
G36*
X153416000Y-77724000D02*
G01*
X141945586Y-77724000D01*
X140139398Y-75917812D01*
X140129575Y-75905550D01*
X140129354Y-75905734D01*
X140124381Y-75899722D01*
X140074661Y-75853032D01*
X140073261Y-75851675D01*
X140053071Y-75831484D01*
X140050816Y-75829735D01*
X140047579Y-75827224D01*
X140043156Y-75823447D01*
X140011448Y-75793670D01*
X140009175Y-75791536D01*
X140009172Y-75791535D01*
X139991624Y-75781888D01*
X139975358Y-75771204D01*
X139959528Y-75758925D01*
X139916763Y-75740418D01*
X139911517Y-75737848D01*
X139870688Y-75715403D01*
X139870687Y-75715402D01*
X139851288Y-75710422D01*
X139832876Y-75704118D01*
X139814493Y-75696162D01*
X139814487Y-75696160D01*
X139768469Y-75688872D01*
X139762747Y-75687687D01*
X139717616Y-75676100D01*
X139717614Y-75676100D01*
X139697579Y-75676100D01*
X139678181Y-75674573D01*
X139670757Y-75673397D01*
X139658400Y-75671440D01*
X139658399Y-75671440D01*
X139612011Y-75675825D01*
X139606173Y-75676100D01*
X137863748Y-75676100D01*
X137796709Y-75656415D01*
X137771600Y-75635074D01*
X137765873Y-75628714D01*
X137765869Y-75628710D01*
X137612734Y-75517451D01*
X137612729Y-75517448D01*
X137439807Y-75440457D01*
X137439802Y-75440455D01*
X137294001Y-75409465D01*
X137254646Y-75401100D01*
X137065354Y-75401100D01*
X137032897Y-75407998D01*
X136880197Y-75440455D01*
X136880192Y-75440457D01*
X136707270Y-75517448D01*
X136707265Y-75517451D01*
X136554129Y-75628711D01*
X136427466Y-75769385D01*
X136332821Y-75933315D01*
X136332818Y-75933322D01*
X136274327Y-76113340D01*
X136274326Y-76113344D01*
X136254540Y-76301600D01*
X136274326Y-76489856D01*
X136274327Y-76489859D01*
X136332818Y-76669877D01*
X136332821Y-76669884D01*
X136427467Y-76833816D01*
X136529185Y-76946785D01*
X136554129Y-76974488D01*
X136707265Y-77085748D01*
X136707270Y-77085751D01*
X136880192Y-77162742D01*
X136880197Y-77162744D01*
X137065354Y-77202100D01*
X137065355Y-77202100D01*
X137254644Y-77202100D01*
X137254646Y-77202100D01*
X137439803Y-77162744D01*
X137612730Y-77085751D01*
X137765871Y-76974488D01*
X137768788Y-76971247D01*
X137771600Y-76968126D01*
X137831087Y-76931479D01*
X137863748Y-76927100D01*
X139328143Y-76927100D01*
X139395182Y-76946785D01*
X139415824Y-76963419D01*
X140176405Y-77724000D01*
X131607354Y-77724000D01*
X131611122Y-77722507D01*
X131616646Y-77720617D01*
X131620396Y-77719527D01*
X131661390Y-77707618D01*
X131678629Y-77697422D01*
X131696103Y-77688862D01*
X131714727Y-77681488D01*
X131714727Y-77681487D01*
X131714732Y-77681486D01*
X131752449Y-77654082D01*
X131757305Y-77650892D01*
X131797420Y-77627170D01*
X131811589Y-77612999D01*
X131826379Y-77600368D01*
X131842587Y-77588594D01*
X131872299Y-77552676D01*
X131876212Y-77548376D01*
X134749788Y-74674801D01*
X134762042Y-74664986D01*
X134761859Y-74664764D01*
X134767868Y-74659791D01*
X134767877Y-74659786D01*
X134814607Y-74610022D01*
X134815846Y-74608743D01*
X134836120Y-74588471D01*
X134840379Y-74582978D01*
X134844152Y-74578561D01*
X134876062Y-74544582D01*
X134885713Y-74527024D01*
X134896396Y-74510761D01*
X134908673Y-74494936D01*
X134927185Y-74452153D01*
X134929738Y-74446941D01*
X134952197Y-74406092D01*
X134957180Y-74386680D01*
X134963481Y-74368280D01*
X134971437Y-74349896D01*
X134978729Y-74303852D01*
X134979906Y-74298171D01*
X134991500Y-74253019D01*
X134991500Y-74232982D01*
X134993027Y-74213582D01*
X134996160Y-74193804D01*
X134991775Y-74147415D01*
X134991500Y-74141577D01*
X134991500Y-73850687D01*
X135011185Y-73783648D01*
X135023350Y-73767715D01*
X135045600Y-73743003D01*
X135098533Y-73684216D01*
X135193179Y-73520284D01*
X135251674Y-73340256D01*
X135271460Y-73152000D01*
X135251674Y-72963744D01*
X135193179Y-72783716D01*
X135098533Y-72619784D01*
X134971871Y-72479112D01*
X134958099Y-72469106D01*
X134818734Y-72367851D01*
X134818729Y-72367848D01*
X134645807Y-72290857D01*
X134645802Y-72290855D01*
X134500000Y-72259865D01*
X134460646Y-72251500D01*
X134271354Y-72251500D01*
X134238897Y-72258398D01*
X134086197Y-72290855D01*
X134086192Y-72290857D01*
X133913270Y-72367848D01*
X133913265Y-72367851D01*
X133760129Y-72479111D01*
X133633466Y-72619785D01*
X133538821Y-72783715D01*
X133538818Y-72783722D01*
X133513080Y-72862937D01*
X133480326Y-72963744D01*
X133460540Y-73152000D01*
X133480326Y-73340256D01*
X133480327Y-73340259D01*
X133538818Y-73520277D01*
X133538821Y-73520284D01*
X133633467Y-73684216D01*
X133676772Y-73732310D01*
X133708650Y-73767715D01*
X133738880Y-73830706D01*
X133740500Y-73850687D01*
X133740500Y-73863546D01*
X133720815Y-73930585D01*
X133704181Y-73951227D01*
X131859123Y-75796284D01*
X131797800Y-75829769D01*
X131728108Y-75824785D01*
X131679294Y-75791577D01*
X131669871Y-75781112D01*
X131669869Y-75781110D01*
X131669866Y-75781107D01*
X131669864Y-75781106D01*
X131516734Y-75669851D01*
X131516729Y-75669848D01*
X131343807Y-75592857D01*
X131343802Y-75592855D01*
X131198000Y-75561865D01*
X131158646Y-75553500D01*
X130969354Y-75553500D01*
X130936897Y-75560398D01*
X130784197Y-75592855D01*
X130784192Y-75592857D01*
X130611270Y-75669848D01*
X130611265Y-75669851D01*
X130458130Y-75781110D01*
X130458126Y-75781114D01*
X130452400Y-75787474D01*
X130392913Y-75824121D01*
X130360252Y-75828500D01*
X125050737Y-75828500D01*
X125035120Y-75826776D01*
X125035093Y-75827062D01*
X125027331Y-75826327D01*
X124959171Y-75828469D01*
X124957224Y-75828500D01*
X124928650Y-75828500D01*
X124927929Y-75828590D01*
X124921757Y-75829369D01*
X124915945Y-75829826D01*
X124869372Y-75831290D01*
X124869369Y-75831291D01*
X124850126Y-75836881D01*
X124831083Y-75840825D01*
X124811204Y-75843336D01*
X124811203Y-75843337D01*
X124767878Y-75860490D01*
X124762352Y-75862382D01*
X124717608Y-75875383D01*
X124717604Y-75875385D01*
X124700365Y-75885580D01*
X124682898Y-75894137D01*
X124664269Y-75901512D01*
X124664267Y-75901513D01*
X124626564Y-75928906D01*
X124621682Y-75932112D01*
X124581580Y-75955828D01*
X124567408Y-75970000D01*
X124552623Y-75982628D01*
X124536412Y-75994407D01*
X124506709Y-76030310D01*
X124502776Y-76034631D01*
X123335309Y-77202100D01*
X122813409Y-77724000D01*
X116840000Y-77724000D01*
X116840000Y-74405470D01*
X119096300Y-74405470D01*
X119096301Y-74405476D01*
X119102708Y-74465083D01*
X119153002Y-74599928D01*
X119153006Y-74599935D01*
X119239252Y-74715144D01*
X119239255Y-74715147D01*
X119354464Y-74801393D01*
X119354471Y-74801397D01*
X119489317Y-74851691D01*
X119489316Y-74851691D01*
X119496244Y-74852435D01*
X119548927Y-74858100D01*
X121344672Y-74858099D01*
X121404283Y-74851691D01*
X121539131Y-74801396D01*
X121654346Y-74715146D01*
X121740596Y-74599931D01*
X121789610Y-74468516D01*
X121831481Y-74412584D01*
X121896945Y-74388166D01*
X121965218Y-74403017D01*
X121993473Y-74424169D01*
X122115399Y-74546095D01*
X122204778Y-74608679D01*
X122308965Y-74681632D01*
X122308967Y-74681633D01*
X122308970Y-74681635D01*
X122523137Y-74781503D01*
X122751392Y-74842663D01*
X122927834Y-74858100D01*
X122986799Y-74863259D01*
X122986800Y-74863259D01*
X122986801Y-74863259D01*
X123045766Y-74858100D01*
X123222208Y-74842663D01*
X123450463Y-74781503D01*
X123664630Y-74681635D01*
X123858201Y-74546095D01*
X124025295Y-74379001D01*
X124160835Y-74185430D01*
X124260703Y-73971263D01*
X124321863Y-73743008D01*
X124342459Y-73507600D01*
X124321863Y-73272192D01*
X124260703Y-73043937D01*
X124160835Y-72829771D01*
X124128592Y-72783722D01*
X124025294Y-72636197D01*
X123858202Y-72469106D01*
X123858195Y-72469101D01*
X123664634Y-72333567D01*
X123664630Y-72333565D01*
X123664630Y-72333564D01*
X123450463Y-72233697D01*
X123450459Y-72233696D01*
X123450455Y-72233694D01*
X123222213Y-72172538D01*
X123222203Y-72172536D01*
X122986801Y-72151941D01*
X122986799Y-72151941D01*
X122751396Y-72172536D01*
X122751386Y-72172538D01*
X122523144Y-72233694D01*
X122523135Y-72233698D01*
X122308971Y-72333564D01*
X122308969Y-72333565D01*
X122115400Y-72469103D01*
X121993473Y-72591030D01*
X121932150Y-72624514D01*
X121862458Y-72619530D01*
X121806525Y-72577658D01*
X121789610Y-72546681D01*
X121740597Y-72415271D01*
X121740593Y-72415264D01*
X121654347Y-72300055D01*
X121654344Y-72300052D01*
X121539135Y-72213806D01*
X121539128Y-72213802D01*
X121404282Y-72163508D01*
X121404283Y-72163508D01*
X121344683Y-72157101D01*
X121344681Y-72157100D01*
X121344673Y-72157100D01*
X121344664Y-72157100D01*
X119548929Y-72157100D01*
X119548923Y-72157101D01*
X119489316Y-72163508D01*
X119354471Y-72213802D01*
X119354464Y-72213806D01*
X119239255Y-72300052D01*
X119239252Y-72300055D01*
X119153006Y-72415264D01*
X119153002Y-72415271D01*
X119102708Y-72550117D01*
X119096301Y-72609716D01*
X119096300Y-72609735D01*
X119096300Y-74405470D01*
X116840000Y-74405470D01*
X116840000Y-69596000D01*
X153416000Y-69596000D01*
X153416000Y-77724000D01*
G37*
G04 #@! TD.AperFunction*
G04 #@! TA.AperFunction,Conductor*
G36*
X129172785Y-77499185D02*
G01*
X129218540Y-77551989D01*
X129229067Y-77616457D01*
X129228443Y-77622396D01*
X129228443Y-77622400D01*
X129239121Y-77724000D01*
X125192191Y-77724000D01*
X125400372Y-77515819D01*
X125461695Y-77482334D01*
X125488053Y-77479500D01*
X129105746Y-77479500D01*
X129172785Y-77499185D01*
G37*
G04 #@! TD.AperFunction*
M02*
