G04 #@! TF.GenerationSoftware,KiCad,Pcbnew,7.0.5-7.0.5~ubuntu22.04.1*
G04 #@! TF.CreationDate,2023-06-04T23:43:18-04:00*
G04 #@! TF.ProjectId,reaction-trainer,72656163-7469-46f6-9e2d-747261696e65,1.0*
G04 #@! TF.SameCoordinates,Original*
G04 #@! TF.FileFunction,Legend,Bot*
G04 #@! TF.FilePolarity,Positive*
%FSLAX46Y46*%
G04 Gerber Fmt 4.6, Leading zero omitted, Abs format (unit mm)*
G04 Created by KiCad (PCBNEW 7.0.5-7.0.5~ubuntu22.04.1) date 2023-06-04 23:43:18*
%MOMM*%
%LPD*%
G01*
G04 APERTURE LIST*
G04 Aperture macros list*
%AMRoundRect*
0 Rectangle with rounded corners*
0 $1 Rounding radius*
0 $2 $3 $4 $5 $6 $7 $8 $9 X,Y pos of 4 corners*
0 Add a 4 corners polygon primitive as box body*
4,1,4,$2,$3,$4,$5,$6,$7,$8,$9,$2,$3,0*
0 Add four circle primitives for the rounded corners*
1,1,$1+$1,$2,$3*
1,1,$1+$1,$4,$5*
1,1,$1+$1,$6,$7*
1,1,$1+$1,$8,$9*
0 Add four rect primitives between the rounded corners*
20,1,$1+$1,$2,$3,$4,$5,0*
20,1,$1+$1,$4,$5,$6,$7,0*
20,1,$1+$1,$6,$7,$8,$9,0*
20,1,$1+$1,$8,$9,$2,$3,0*%
G04 Aperture macros list end*
%ADD10C,0.150000*%
%ADD11C,0.120000*%
%ADD12C,2.374900*%
%ADD13C,0.990600*%
%ADD14R,1.700000X1.700000*%
%ADD15O,1.700000X1.700000*%
%ADD16C,3.600000*%
%ADD17C,5.600000*%
%ADD18O,1.000000X1.900000*%
%ADD19O,1.050000X1.250000*%
%ADD20RoundRect,0.250000X-0.625000X0.350000X-0.625000X-0.350000X0.625000X-0.350000X0.625000X0.350000X0*%
%ADD21O,1.750000X1.200000*%
G04 APERTURE END LIST*
D10*
X123046819Y-102012666D02*
X123761104Y-102012666D01*
X123761104Y-102012666D02*
X123903961Y-101965047D01*
X123903961Y-101965047D02*
X123999200Y-101869809D01*
X123999200Y-101869809D02*
X124046819Y-101726952D01*
X124046819Y-101726952D02*
X124046819Y-101631714D01*
X123046819Y-102965047D02*
X123046819Y-102488857D01*
X123046819Y-102488857D02*
X123523009Y-102441238D01*
X123523009Y-102441238D02*
X123475390Y-102488857D01*
X123475390Y-102488857D02*
X123427771Y-102584095D01*
X123427771Y-102584095D02*
X123427771Y-102822190D01*
X123427771Y-102822190D02*
X123475390Y-102917428D01*
X123475390Y-102917428D02*
X123523009Y-102965047D01*
X123523009Y-102965047D02*
X123618247Y-103012666D01*
X123618247Y-103012666D02*
X123856342Y-103012666D01*
X123856342Y-103012666D02*
X123951580Y-102965047D01*
X123951580Y-102965047D02*
X123999200Y-102917428D01*
X123999200Y-102917428D02*
X124046819Y-102822190D01*
X124046819Y-102822190D02*
X124046819Y-102584095D01*
X124046819Y-102584095D02*
X123999200Y-102488857D01*
X123999200Y-102488857D02*
X123951580Y-102441238D01*
D11*
X124382000Y-98986000D02*
X125632000Y-98986000D01*
X129402000Y-99286000D02*
X129402000Y-105406000D01*
X127292000Y-99286000D02*
X127292000Y-99896000D01*
X125992000Y-99286000D02*
X125992000Y-99896000D01*
X124682000Y-99286000D02*
X129402000Y-99286000D01*
X128792000Y-99896000D02*
X128792000Y-104796000D01*
X125292000Y-99896000D02*
X128792000Y-99896000D01*
X124382000Y-100236000D02*
X124382000Y-98986000D01*
X124482000Y-100746000D02*
X124682000Y-100746000D01*
X124682000Y-101046000D02*
X124482000Y-101046000D01*
X124582000Y-101046000D02*
X124582000Y-100746000D01*
X124482000Y-101046000D02*
X124482000Y-100746000D01*
X125292000Y-101846000D02*
X125292000Y-99896000D01*
X124682000Y-101846000D02*
X125292000Y-101846000D01*
X128792000Y-102246000D02*
X128292000Y-102246000D01*
X128292000Y-102246000D02*
X128292000Y-102446000D01*
X128792000Y-102346000D02*
X128292000Y-102346000D01*
X128292000Y-102446000D02*
X128792000Y-102446000D01*
X125292000Y-102846000D02*
X124682000Y-102846000D01*
X128792000Y-104796000D02*
X125292000Y-104796000D01*
X125292000Y-104796000D02*
X125292000Y-102846000D01*
X129402000Y-105406000D02*
X124682000Y-105406000D01*
X127292000Y-105406000D02*
X127292000Y-104796000D01*
X125992000Y-105406000D02*
X125992000Y-104796000D01*
X124682000Y-105406000D02*
X124682000Y-99286000D01*
%LPC*%
D12*
X148132800Y-103936800D03*
D13*
X150672800Y-103936800D03*
D12*
X153212800Y-103936800D03*
X148132800Y-98221800D03*
X153212800Y-98221800D03*
D13*
X149656800Y-96316800D03*
X151688800Y-96316800D03*
D14*
X143256000Y-102666800D03*
D15*
X143256000Y-100126800D03*
D16*
X111000000Y-90000000D03*
D17*
X111000000Y-90000000D03*
D18*
X130891800Y-116517800D03*
D19*
X132841800Y-113517800D03*
X137291800Y-113517800D03*
D18*
X139241800Y-116517800D03*
D16*
X159000000Y-90000000D03*
D17*
X159000000Y-90000000D03*
D14*
X120446800Y-73507600D03*
D15*
X122986800Y-73507600D03*
D20*
X126492000Y-101346000D03*
D21*
X126492000Y-103346000D03*
%LPD*%
M02*
